<svg version="1.1" xmlns="http://www.w3.org/2000/svg" viewBox="0 0 329.6720613976022 235.5604189598739" width="659.3441227952044" height="471.1208379197478">
  <!-- svg-source:excalidraw -->
  
    
  <g stroke-linecap="round"><g transform="translate(157.46750886999507 126.4525169251151) rotate(0 0 45.937299390058115)"><path d="M0 0 C1.12 25.63, -1.63 55.75, 0 91.87 M0 0 C-0.63 18.26, 0.91 38.19, 0 91.87" stroke="#2f9e44" stroke-width="2" fill="none"></path></g><g transform="translate(157.46750886999507 126.4525169251151) rotate(0 0 45.937299390058115)"><path d="M0.71 90.7 L-5.94 77.81 L5.08 79.04 L-0.6 93.14" stroke="none" stroke-width="0" fill="#2f9e44" fill-rule="evenodd"></path><path d="M0 91.87 C-0.68 86.38, -4.61 84.28, -6.24 78.24 M0 91.87 C-1.73 88.51, -1.87 86.36, -6.24 78.24 M-6.24 78.24 C-1.43 78.77, 0.06 78.55, 6.44 78.33 M-6.24 78.24 C-2.93 77.86, 0.6 78.68, 6.44 78.33 M6.44 78.33 C5.09 82.09, 0.89 88.9, 0 91.87 M6.44 78.33 C4.83 81.89, 3.15 86.38, 0 91.87 M0 91.87 C0 91.87, 0 91.87, 0 91.87 M0 91.87 C0 91.87, 0 91.87, 0 91.87" stroke="#2f9e44" stroke-width="2" fill="none"></path></g></g><mask></mask><g stroke-linecap="round"><g transform="translate(120.6006316524963 72.02998388975993) rotate(0 36.57428295386785 -1.1703770545236694)"><path d="M0 0 C18.09 -0.53, 35.49 -2.04, 73.15 -2.34 M0 0 C24.22 -0.83, 47.53 -1.68, 73.15 -2.34" stroke="#1971c2" stroke-width="2" fill="none"></path></g><g transform="translate(120.6006316524963 72.02998388975993) rotate(0 36.57428295386785 -1.1703770545236694)"><path d="M73.08 -1.01 L58.55 2.84 L61.27 -8.04 L72.93 -2.31" stroke="none" stroke-width="0" fill="#1971c2" fill-rule="evenodd"></path><path d="M73.15 -2.34 C69.96 0.01, 66.31 0.95, 59.74 4.38 M73.15 -2.34 C68.73 -0.39, 63.69 1.77, 59.74 4.38 M59.74 4.38 C58.52 0.88, 60.87 -1.34, 59.38 -8.29 M59.74 4.38 C59 -0.33, 59.63 -5.42, 59.38 -8.29 M59.38 -8.29 C64.76 -6.89, 68.32 -3.9, 73.15 -2.34 M59.38 -8.29 C65.03 -5.72, 69.94 -3.92, 73.15 -2.34 M73.15 -2.34 C73.15 -2.34, 73.15 -2.34, 73.15 -2.34 M73.15 -2.34 C73.15 -2.34, 73.15 -2.34, 73.15 -2.34" stroke="#1971c2" stroke-width="2" fill="none"></path></g></g><mask></mask><g stroke-linecap="round" transform="translate(23.459336127023562 91.92639381666413) rotate(0 135.76373832475724 39.79281985380817)"><path d="M89.5 3.25 C104.23 0.94, 125.29 -0.6, 142.85 -0.57 C160.4 -0.53, 179.28 1.32, 194.84 3.45 C210.39 5.59, 224.8 8.37, 236.16 12.22 C247.52 16.07, 257.02 21.61, 263 26.54 C268.97 31.47, 272.84 36.6, 272 41.81 C271.16 47.02, 265.63 53.19, 257.98 57.79 C250.34 62.39, 239 66.28, 226.12 69.43 C213.23 72.58, 196.97 75.05, 180.66 76.69 C164.36 78.33, 145.39 79.34, 128.28 79.28 C111.17 79.22, 93.37 78.39, 77.98 76.34 C62.6 74.28, 47.73 70.75, 35.98 66.93 C24.23 63.12, 13.52 58.3, 7.5 53.46 C1.48 48.62, -1.03 42.97, -0.15 37.88 C0.73 32.78, 5.36 27.53, 12.79 22.89 C20.22 18.24, 29.68 13.54, 44.42 10.02 C59.17 6.51, 89.84 3.12, 101.28 1.82 C112.72 0.51, 112.66 1.74, 113.06 2.2 M169.02 2.64 C185.48 3.66, 202.8 6.45, 216.82 9.26 C230.84 12.06, 244.04 15.33, 253.16 19.46 C262.29 23.59, 269.02 29.2, 271.54 34.03 C274.07 38.86, 272.94 43.48, 268.32 48.43 C263.7 53.38, 254.46 59.3, 243.83 63.72 C233.21 68.13, 219.48 72.39, 204.55 74.93 C189.61 77.48, 171.45 78.49, 154.23 78.99 C137 79.49, 117.75 79.16, 101.21 77.94 C84.67 76.72, 68.83 74.51, 54.98 71.67 C41.13 68.83, 27.13 65.25, 18.12 60.9 C9.11 56.55, 3.15 50.62, 0.92 45.59 C-1.3 40.56, 0.18 35.73, 4.76 30.71 C9.35 25.69, 17.99 19.75, 28.41 15.46 C38.82 11.17, 52.39 7.63, 67.25 4.96 C82.11 2.3, 100.34 0.26, 117.57 -0.54 C134.81 -1.34, 162.06 -0.22, 170.66 0.14 C179.25 0.5, 169.88 0.94, 169.16 1.64" stroke="#1e1e1e" stroke-width="2" fill="none"></path></g><g stroke-linecap="round"><g transform="translate(156.88232034273324 129.37845956142473) rotate(0 0 -59.68922978071237)"><path d="M0 0 C-0.69 -43.82, 1.41 -86.53, 0 -119.38 M0 0 C-0.55 -27.83, -0.13 -55.49, 0 -119.38" stroke="#e03131" stroke-width="2" fill="none"></path></g><g transform="translate(156.88232034273324 129.37845956142473) rotate(0 0 -59.68922978071237)"><path d="M-0.21 -117.42 L7.77 -106.04 L-4.89 -103.89 L1.35 -120.81" stroke="none" stroke-width="0" fill="#e03131" fill-rule="evenodd"></path><path d="M0 -119.38 C1.08 -114.85, 4.94 -109.5, 6.29 -105.76 M0 -119.38 C1.6 -115.85, 3.4 -112.22, 6.29 -105.76 M6.29 -105.76 C3.99 -106.63, 0.78 -106.76, -6.38 -105.81 M6.29 -105.76 C1.64 -105.77, -2.11 -105.64, -6.38 -105.81 M-6.38 -105.81 C-4.89 -109.98, -2.47 -113.84, 0 -119.38 M-6.38 -105.81 C-4.23 -108.49, -3.96 -112.65, 0 -119.38 M0 -119.38 C0 -119.38, 0 -119.38, 0 -119.38 M0 -119.38 C0 -119.38, 0 -119.38, 0 -119.38" stroke="#e03131" stroke-width="2" fill="none"></path></g></g><mask></mask><g stroke-linecap="round"><g transform="translate(155.71194328820957 127.62289397963923) rotate(0 67.58927489874782 0)"><path d="M-0.65 -0.64 C22.12 -0.88, 113.39 -1.29, 136.22 -1.02 M1.21 1.63 C23.95 1.47, 113.33 0.4, 135.81 -0.02" stroke="#e03131" stroke-width="2" fill="none"></path></g></g><mask></mask><g stroke-linecap="round"><g transform="translate(55.05951659916536 81.97818885321203) rotate(0 -21.359381245059012 10.825987754344851)"><path d="M0 0 C-10.48 5.71, -21.23 10.83, -42.72 21.65 M0 0 C-12.86 6.69, -25.77 12.99, -42.72 21.65" stroke="#f08c00" stroke-width="2" fill="none"></path></g><g transform="translate(55.05951659916536 81.97818885321203) rotate(0 -21.359381245059012 10.825987754344851)"><path d="M-42.16 22.42 L-32.55 9.37 L-26.91 22.04 L-42.97 22.3" stroke="none" stroke-width="0" fill="#f08c00" fill-rule="evenodd"></path><path d="M-42.72 21.65 C-40.81 19.08, -39.05 16.25, -33.46 9.85 M-42.72 21.65 C-39.74 18.01, -36.78 14.15, -33.46 9.85 M-33.46 9.85 C-32.25 12.46, -31.43 14.83, -27.73 21.16 M-33.46 9.85 C-32.01 13.38, -29.81 16.96, -27.73 21.16 M-27.73 21.16 C-31.4 21.87, -34.58 21.88, -42.72 21.65 M-27.73 21.16 C-32.57 21.65, -36.86 21.3, -42.72 21.65 M-42.72 21.65 C-42.72 21.65, -42.72 21.65, -42.72 21.65 M-42.72 21.65 C-42.72 21.65, -42.72 21.65, -42.72 21.65" stroke="#f08c00" stroke-width="2" fill="none"></path></g></g><mask></mask><g stroke-linecap="round"><g transform="translate(144.5933612702338 197.26032872380347) rotate(0 28.674237835832173 -0.5851885272618347)"><path d="M0 0 C20.2 -1.72, 42.73 -0.39, 57.35 -1.17 M0 0 C12.92 -0.77, 25.71 0.24, 57.35 -1.17" stroke="#f08c00" stroke-width="2" fill="none"></path></g><g transform="translate(144.5933612702338 197.26032872380347) rotate(0 28.674237835832173 -0.5851885272618347)"><path d="M55.86 -2.67 L41.98 6.86 L45.44 -6.26 L59.17 -0.91" stroke="none" stroke-width="0" fill="#f08c00" fill-rule="evenodd"></path><path d="M57.35 -1.17 C52.32 0.73, 49.1 4.45, 43.95 5.58 M57.35 -1.17 C54.22 -0.42, 50.96 2.07, 43.95 5.58 M43.95 5.58 C44.7 1.8, 42.96 -3.24, 43.57 -7.09 M43.95 5.58 C44.35 0.56, 44.16 -4.78, 43.57 -7.09 M43.57 -7.09 C48.33 -3.5, 55.6 -2.43, 57.35 -1.17 M43.57 -7.09 C47.44 -5.47, 52.46 -3.41, 57.35 -1.17 M57.35 -1.17 C57.35 -1.17, 57.35 -1.17, 57.35 -1.17 M57.35 -1.17 C57.35 -1.17, 57.35 -1.17, 57.35 -1.17" stroke="#f08c00" stroke-width="2" fill="none"></path></g></g><mask></mask><g stroke-linecap="round"><g transform="translate(303.7646406854665 87.244885598569) rotate(0 -28.6742378358324 -8.485233645297285)"><path d="M0 0 C-15.68 -3.44, -30.1 -10.77, -57.35 -16.97 M0 0 C-12.49 -3.22, -22.71 -6.43, -57.35 -16.97" stroke="#f08c00" stroke-width="2" fill="none"></path></g><g transform="translate(303.7646406854665 87.244885598569) rotate(0 -28.6742378358324 -8.485233645297285)"><path d="M-59.07 -15.58 L-42.12 -19.61 L-46.13 -8.03 L-58.39 -17.88" stroke="none" stroke-width="0" fill="#f08c00" fill-rule="evenodd"></path><path d="M-57.35 -16.97 C-53.61 -16.34, -49 -19.01, -42.5 -19.07 M-57.35 -16.97 C-54.95 -16.73, -50.8 -16.96, -42.5 -19.07 M-42.5 -19.07 C-44.88 -14.86, -43.49 -11.72, -46.19 -6.95 M-42.5 -19.07 C-43.96 -14.47, -45.94 -9.03, -46.19 -6.95 M-46.19 -6.95 C-47.54 -10.78, -50.08 -11.76, -57.35 -16.97 M-46.19 -6.95 C-50.64 -10.48, -54.77 -15.51, -57.35 -16.97 M-57.35 -16.97 C-57.35 -16.97, -57.35 -16.97, -57.35 -16.97 M-57.35 -16.97 C-57.35 -16.97, -57.35 -16.97, -57.35 -16.97" stroke="#f08c00" stroke-width="2" fill="none"></path></g></g><mask></mask><g stroke-linecap="round"><g transform="translate(55.05951659916536 182.0454270149944) rotate(0 -22.52975829958268 -10.825987754344851)"><path d="M0 0 C-17.99 -8.03, -35.54 -18.05, -45.06 -21.65 M0 0 C-9 -4.31, -18.79 -9.51, -45.06 -21.65" stroke="#1971c2" stroke-width="2" fill="none"></path></g><g transform="translate(55.05951659916536 182.0454270149944) rotate(0 -22.52975829958268 -10.825987754344851)"><path d="M-44.97 -22.21 L-30.78 -20.62 L-35.36 -9.75 L-45.21 -21.74" stroke="none" stroke-width="0" fill="#1971c2" fill-rule="evenodd"></path><path d="M-45.06 -21.65 C-39.16 -21.14, -32.86 -22.15, -30.06 -21.61 M-45.06 -21.65 C-41.56 -21.28, -38.58 -21.73, -30.06 -21.61 M-30.06 -21.61 C-31.34 -18.97, -32.57 -15.73, -35.45 -10.13 M-30.06 -21.61 C-31.26 -19.14, -32.5 -16.86, -35.45 -10.13 M-35.45 -10.13 C-37.19 -13.72, -40.82 -16.3, -45.06 -21.65 M-35.45 -10.13 C-38.7 -14.01, -41.59 -17.07, -45.06 -21.65 M-45.06 -21.65 C-45.06 -21.65, -45.06 -21.65, -45.06 -21.65 M-45.06 -21.65 C-45.06 -21.65, -45.06 -21.65, -45.06 -21.65" stroke="#1971c2" stroke-width="2" fill="none"></path></g></g><mask></mask><g stroke-linecap="round"><g transform="translate(289.13492750391924 180.87504996047073) rotate(0 -20.77419271779695 7.607450854404533)"><path d="M0 0 C-11.88 3.59, -23.37 8.79, -41.55 15.21 M0 0 C-16.49 5.88, -32.72 12.18, -41.55 15.21" stroke="#1971c2" stroke-width="2" fill="none"></path></g><g transform="translate(289.13492750391924 180.87504996047073) rotate(0 -20.77419271779695 7.607450854404533)"><path d="M-40.82 14.34 L-30.88 4.98 L-27.13 17.34 L-41.84 15.93" stroke="none" stroke-width="0" fill="#1971c2" fill-rule="evenodd"></path><path d="M-41.55 15.21 C-39.03 12.01, -36.22 9.9, -30.91 4.64 M-41.55 15.21 C-37.51 11.2, -33.39 7.35, -30.91 4.64 M-30.91 4.64 C-29.35 7.18, -29.19 10.47, -26.61 16.57 M-30.91 4.64 C-29.02 9.09, -27.31 13.87, -26.61 16.57 M-26.61 16.57 C-31.95 16.24, -36.86 15.18, -41.55 15.21 M-26.61 16.57 C-32.62 16.03, -38.41 15.25, -41.55 15.21 M-41.55 15.21 C-41.55 15.21, -41.55 15.21, -41.55 15.21 M-41.55 15.21 C-41.55 15.21, -41.55 15.21, -41.55 15.21" stroke="#1971c2" stroke-width="2" fill="none"></path></g></g><mask></mask><g transform="translate(128.79327103416244 130.38959072499574) rotate(0 6.5 12.5)"><text x="0" y="17.619999999999997" font-family="Virgil 3 YOFF" font-size="20px" fill="#2f9e44" text-anchor="start" style="white-space: pre;" direction="ltr" dominant-baseline="alphabetic">m</text></g><g transform="translate(143.42298421570968 144.5933612702338) rotate(0 4.3735120850208205 7.951840154583351)"><text x="0" y="11.20891388190069" font-family="Virgil 3 YOFF" font-size="12.722944247333361px" fill="#2f9e44" text-anchor="start" style="white-space: pre;" direction="ltr" dominant-baseline="alphabetic">0</text></g><g transform="translate(130.5488366159484 45.6965001629751) rotate(0 5.5 12.5)"><text x="0" y="17.619999999999997" font-family="Virgil 3 YOFF" font-size="20px" fill="#1971c2" text-anchor="start" style="white-space: pre;" direction="ltr" dominant-baseline="alphabetic">I</text></g><g transform="translate(26.151975508689247 175.9825008148755) rotate(0 5.5 12.5)"><text x="0" y="17.619999999999997" font-family="Virgil 3 YOFF" font-size="20px" fill="#1971c2" text-anchor="start" style="white-space: pre;" direction="ltr" dominant-baseline="alphabetic">I</text></g><g transform="translate(278.9534192858241 187.1010828328508) rotate(0 5.5 12.5)"><text x="0" y="17.619999999999997" font-family="Virgil 3 YOFF" font-size="20px" fill="#1971c2" text-anchor="start" style="white-space: pre;" direction="ltr" dominant-baseline="alphabetic">I</text></g><g transform="translate(18.77782790892843 64.42253303535517) rotate(0 5.5 12.5)"><text x="0" y="17.619999999999997" font-family="Virgil 3 YOFF" font-size="20px" fill="#f08c00" text-anchor="start" style="white-space: pre;" direction="ltr" dominant-baseline="alphabetic">v</text></g><g transform="translate(280.70898486761007 55.433664198926635) rotate(0 5.5 12.5)"><text x="0" y="17.619999999999997" font-family="Virgil 3 YOFF" font-size="20px" fill="#f08c00" text-anchor="start" style="white-space: pre;" direction="ltr" dominant-baseline="alphabetic">v</text></g><g transform="translate(176.5454270149944 200.5604189598739) rotate(0 5.5 12.5)"><text x="0" y="17.619999999999997" font-family="Virgil 3 YOFF" font-size="20px" fill="#f08c00" text-anchor="start" style="white-space: pre;" direction="ltr" dominant-baseline="alphabetic">v</text></g><g transform="translate(173.26759910606643 15.851885272618802) rotate(0 6 12.5)"><text x="0" y="17.619999999999997" font-family="Virgil 3 YOFF" font-size="20px" fill="#e03131" text-anchor="start" style="white-space: pre;" direction="ltr" dominant-baseline="alphabetic">z</text></g><g transform="translate(306.1053947945138 127.62289397963923) rotate(0 6.7833333015441895 12.5)"><text x="0" y="17.619999999999997" font-family="Virgil 3 YOFF" font-size="20px" fill="#e03131" text-anchor="start" style="white-space: pre;" direction="ltr" dominant-baseline="alphabetic">R</text></g></svg>
