<svg version="1.1" xmlns="http://www.w3.org/2000/svg" viewBox="0 0 505.6645246148596 332.5449530416222" width="1011.3290492297192" height="665.0899060832444">
  <!-- svg-source:excalidraw -->
  <g stroke-linecap="round"><g transform="translate(68.89066882829297 216.6922174120882) rotate(0 76.0580181384845 0)"><path d="M1.07 0.18 C26.58 0.32, 127.01 0.14, 152.22 0.1 M0.17 -0.77 C25.61 -0.35, 126.07 1.36, 151.33 1.69" stroke="#1e1e1e" stroke-width="2" fill="none"></path></g></g><mask></mask><g stroke-linecap="round"><g transform="translate(220.70608052763964 174.3041519673202) rotate(0 0 44.49243748812546)"><path d="M0.86 -0.61 C0.9 14.3, -0.49 74.63, -0.81 89.47 M-0.15 1.69 C0.37 16.24, 1.24 72.98, 1.48 87.6" stroke="#1e1e1e" stroke-width="2" fill="none"></path></g></g><mask></mask><g stroke-linecap="round"><g transform="translate(290.24556161775604 118.48823973932667) rotate(0 0 101.30463171016049)"><path d="M0.26 0.49 C0.21 34.16, -1.02 168.66, -0.93 202.55 M-1.06 -0.3 C-0.68 33.53, 1.04 170.32, 1.29 204.06" stroke="#1e1e1e" stroke-width="2" fill="none"></path></g></g><mask></mask><g stroke-linecap="round"><g transform="translate(291.50363910425835 217.9351492664764) rotate(0 57.871564379095844 0)"><path d="M0.8 1.02 C20.33 0.8, 97.19 -0.14, 116.37 -0.23 M-0.24 0.51 C19.26 0.98, 96.52 1.54, 115.75 1.18" stroke="#1e1e1e" stroke-width="2" fill="none"></path></g></g><mask></mask><g transform="translate(281.0995234589932 76.67281732506399) rotate(0 13.272999179181852 26.545998358363704)"><text x="0" y="37.41923928594937" font-family="'Virgil 3 YOFF'" font-size="42.4735973733818px" fill="#e03131" text-anchor="start" style="white-space: pre;" direction="ltr" dominant-baseline="alphabetic">+</text></g><g transform="translate(211.63794331490726 139.76442040010988) rotate(0 8.649479907311274 24.71279973517494)"><text x="0" y="34.83516250670258" font-family="'Virgil 3 YOFF'" font-size="39.540479576279886px" fill="#1971c2" text-anchor="start" style="white-space: pre;" direction="ltr" dominant-baseline="alphabetic">-</text></g><g stroke-linecap="round"><g transform="translate(68.3490427429299 216.60231199965483) rotate(0 173.11146214268717 -82.15245986858645)"><path d="M1.09 -0.47 C-4.42 -3.48, -32.64 -2.15, -33.82 -19.2 C-35 -36.26, -25.29 -80.99, -6.01 -102.81 C13.28 -124.64, 50.28 -139.52, 81.88 -150.17 C113.48 -160.83, 141.65 -169.86, 183.61 -166.73 C225.58 -163.6, 300.89 -153.56, 333.65 -131.4 C366.42 -109.23, 379.04 -56.39, 380.18 -33.75 C381.32 -11.11, 347.33 -1.7, 340.49 4.44" stroke="#1e1e1e" stroke-width="2.5" fill="none" stroke-dasharray="1.5 8"></path></g></g><mask></mask><g stroke-linecap="round"><g transform="translate(45.048563107177415 106.25847340741484) rotate(0 -11.700120624469378 33.087437895004996)"><path d="M0 0 C-6.02 17.71, -13.03 32.93, -23.4 66.17 M0 0 C-4.91 14.51, -10.04 27.29, -23.4 66.17" stroke="#1971c2" stroke-width="2" fill="none"></path></g><g transform="translate(45.048563107177415 106.25847340741484) rotate(0 -11.700120624469378 33.087437895004996)"><path d="M-24.12 65.5 L-26.02 49.57 L-12.35 56.4 L-24.7 64.6" stroke="none" stroke-width="0" fill="#1971c2" fill-rule="evenodd"></path><path d="M-23.4 66.17 C-24.39 63.17, -25.58 58.22, -24.91 51.25 M-23.4 66.17 C-23.33 63.33, -23.78 59.24, -24.91 51.25 M-24.91 51.25 C-19.93 53.59, -16.7 55.15, -12.93 55.43 M-24.91 51.25 C-21.25 52.69, -18.72 54.06, -12.93 55.43 M-12.93 55.43 C-16.22 58.04, -17.63 61.78, -23.4 66.17 M-12.93 55.43 C-15.39 58.55, -18.61 60.34, -23.4 66.17 M-23.4 66.17 C-23.4 66.17, -23.4 66.17, -23.4 66.17 M-23.4 66.17 C-23.4 66.17, -23.4 66.17, -23.4 66.17" stroke="#1971c2" stroke-width="2" fill="none"></path></g></g><mask></mask><g stroke-linecap="round"><g transform="translate(459.123083152974 221.32612267138984) rotate(0 5.535540940609167 -33.33905339230523)"><path d="M0 0 C4 -19.16, 6.65 -36.73, 11.07 -66.68 M0 0 C2.56 -19.51, 7 -41.94, 11.07 -66.68" stroke="#1971c2" stroke-width="2" fill="none"></path></g><g transform="translate(459.123083152974 221.32612267138984) rotate(0 5.535540940609167 -33.33905339230523)"><path d="M9.79 -65.84 L14.19 -51.93 L1.45 -53.81 L10.5 -67.62" stroke="none" stroke-width="0" fill="#1971c2" fill-rule="evenodd"></path><path d="M11.07 -66.68 C12.8 -63.66, 13.62 -59.48, 15.03 -52.21 M11.07 -66.68 C12.12 -61.5, 14.12 -58.48, 15.03 -52.21 M15.03 -52.21 C9.85 -54.05, 5.99 -52.72, 2.53 -54.35 M15.03 -52.21 C12.33 -52.93, 8.85 -53.56, 2.53 -54.35 M2.53 -54.35 C3.36 -58.23, 6.97 -59.57, 11.07 -66.68 M2.53 -54.35 C4.46 -57.28, 6.93 -62.08, 11.07 -66.68 M11.07 -66.68 C11.07 -66.68, 11.07 -66.68, 11.07 -66.68 M11.07 -66.68 C11.07 -66.68, 11.07 -66.68, 11.07 -66.68" stroke="#1971c2" stroke-width="2" fill="none"></path></g></g><mask></mask><g stroke-linecap="round"><g transform="translate(334.907158814666 40.474105360652175) rotate(0 -34.4713231301572 -5.032309946008354)"><path d="M0 0 C-23.37 -3.05, -43.6 -7.57, -68.94 -10.06 M0 0 C-23.37 -4.33, -47.41 -7.92, -68.94 -10.06" stroke="#1971c2" stroke-width="2" fill="none"></path></g><g transform="translate(334.907158814666 40.474105360652175) rotate(0 -34.4713231301572 -5.032309946008354)"><path d="M-67.43 -11.44 L-56.68 -13.67 L-56.87 -1.84 L-67.81 -8.77" stroke="none" stroke-width="0" fill="#1971c2" fill-rule="evenodd"></path><path d="M-68.94 -10.06 C-65.91 -11.02, -60.52 -13.53, -54.71 -14.8 M-68.94 -10.06 C-63.74 -11.92, -59.04 -13.64, -54.71 -14.8 M-54.71 -14.8 C-55.75 -9.52, -55.72 -7.75, -56.16 -2.21 M-54.71 -14.8 C-55.54 -11.91, -55.06 -8.56, -56.16 -2.21 M-56.16 -2.21 C-57.54 -3.78, -62.95 -4.99, -68.94 -10.06 M-56.16 -2.21 C-60.31 -4.96, -65.54 -8.56, -68.94 -10.06 M-68.94 -10.06 C-68.94 -10.06, -68.94 -10.06, -68.94 -10.06 M-68.94 -10.06 C-68.94 -10.06, -68.94 -10.06, -68.94 -10.06" stroke="#1971c2" stroke-width="2" fill="none"></path></g></g><mask></mask><g stroke-linecap="round"><g transform="translate(165.40800079875066 37.199909558379204) rotate(0 -37.61651684641242 16.606622821827614)"><path d="M0 0 C-21.67 9.62, -44.63 21.54, -75.23 33.21 M0 0 C-22.61 10.33, -46.91 20.05, -75.23 33.21" stroke="#1971c2" stroke-width="2" fill="none"></path></g><g transform="translate(165.40800079875066 37.199909558379204) rotate(0 -37.61651684641242 16.606622821827614)"><path d="M-73.65 33.56 L-65.88 20.42 L-61.14 31.43 L-75.08 35.2" stroke="none" stroke-width="0" fill="#1971c2" fill-rule="evenodd"></path><path d="M-75.23 33.21 C-71.22 29.27, -68.49 27.28, -65.44 21.85 M-75.23 33.21 C-71.87 30.46, -69.84 26.65, -65.44 21.85 M-65.44 21.85 C-64.19 26.95, -60.28 30.28, -60.23 33.41 M-65.44 21.85 C-63.71 24.25, -63.54 27.88, -60.23 33.41 M-60.23 33.41 C-63.23 33.24, -67.12 33.64, -75.23 33.21 M-60.23 33.41 C-65.59 32.81, -70.61 33.43, -75.23 33.21 M-75.23 33.21 C-75.23 33.21, -75.23 33.21, -75.23 33.21 M-75.23 33.21 C-75.23 33.21, -75.23 33.21, -75.23 33.21" stroke="#1971c2" stroke-width="2" fill="none"></path></g></g><mask></mask><g stroke-linecap="round"><g transform="translate(277.8067811917008 178.46726819701962) rotate(0 -22.016356013786435 0.6290387432509306)"><path d="M0 0 C-11.51 -0.58, -23.26 -0.17, -44.03 1.26 M0 0 C-13.23 0.78, -25.94 1.13, -44.03 1.26" stroke="#2f9e44" stroke-width="2" fill="none"></path></g><g transform="translate(277.8067811917008 178.46726819701962) rotate(0 -22.016356013786435 0.6290387432509306)"><path d="M-44.61 0.72 L-31.32 -4.39 L-30.39 7.8 L-44.83 2.19" stroke="none" stroke-width="0" fill="#2f9e44" fill-rule="evenodd"></path><path d="M-44.03 1.26 C-39.92 -0.99, -35.96 -2.73, -30.51 -5.24 M-44.03 1.26 C-40.3 -0.37, -36.22 -2.29, -30.51 -5.24 M-30.51 -5.24 C-30.74 -1, -30.21 1.74, -30.36 7.44 M-30.51 -5.24 C-30.72 -1.94, -30.11 1.9, -30.36 7.44 M-30.36 7.44 C-34.4 5.83, -38.83 3.69, -44.03 1.26 M-30.36 7.44 C-35.22 5.42, -40.56 2.96, -44.03 1.26 M-44.03 1.26 C-44.03 1.26, -44.03 1.26, -44.03 1.26 M-44.03 1.26 C-44.03 1.26, -44.03 1.26, -44.03 1.26" stroke="#2f9e44" stroke-width="2" fill="none"></path></g></g><mask></mask><g stroke-linecap="round"><g transform="translate(236.7934551317328 232.06136912200827) rotate(0 22.267971511087012 0.2516154973004632)"><path d="M0 0 C10.14 -0.68, 20.48 -0.03, 44.54 0.5 M0 0 C10.13 -0.39, 20.78 -0.02, 44.54 0.5" stroke="#2f9e44" stroke-width="2" fill="none"></path></g><g transform="translate(236.7934551317328 232.06136912200827) rotate(0 22.267971511087012 0.2516154973004632)"><path d="M44.78 -0.23 L30.57 6.98 L30.66 -5.52 L44.61 0.84" stroke="none" stroke-width="0" fill="#2f9e44" fill-rule="evenodd"></path><path d="M44.54 0.5 C41.83 1.22, 39.24 2.95, 30.8 6.53 M44.54 0.5 C41.07 1.68, 37.98 3.28, 30.8 6.53 M30.8 6.53 C31.27 3.06, 31.23 0.89, 31.09 -6.14 M30.8 6.53 C30.75 1.8, 30.69 -3.13, 31.09 -6.14 M31.09 -6.14 C35.13 -3.96, 37.37 -3.39, 44.54 0.5 M31.09 -6.14 C36.21 -3.44, 40.83 -1.42, 44.54 0.5 M44.54 0.5 C44.54 0.5, 44.54 0.5, 44.54 0.5 M44.54 0.5 C44.54 0.5, 44.54 0.5, 44.54 0.5" stroke="#2f9e44" stroke-width="2" fill="none"></path></g></g><mask></mask><g transform="translate(253.65169345086088 154.5637959534797) rotate(0 9.891666666666652 10)"><text x="0" y="14.096" font-family="'Virgil 3 YOFF'" font-size="16px" fill="#2f9e44" text-anchor="start" style="white-space: pre;" direction="ltr" dominant-baseline="alphabetic">Es</text></g><g transform="translate(245.09676654264672 213.6934378190781) rotate(0 9.458333015441895 10)"><text x="0" y="14.096" font-family="'Virgil 3 YOFF'" font-size="16px" fill="#2f9e44" text-anchor="start" style="white-space: pre;" direction="ltr" dominant-baseline="alphabetic">Eb</text></g><g transform="translate(475.8811912815263 193.8158135323447) rotate(0 9.891666666666652 10)"><text x="0" y="14.096" font-family="'Virgil 3 YOFF'" font-size="16px" fill="#1971c2" text-anchor="start" style="white-space: pre;" direction="ltr" dominant-baseline="alphabetic">Es</text></g><g transform="translate(308.2318293205044 10) rotate(0 9.891666666666652 10)"><text x="0" y="14.096" font-family="'Virgil 3 YOFF'" font-size="16px" fill="#1971c2" text-anchor="start" style="white-space: pre;" direction="ltr" dominant-baseline="alphabetic">Es</text></g><g transform="translate(113.22981891268091 25.096929838024153) rotate(0 9.891666666666652 10)"><text x="0" y="14.096" font-family="'Virgil 3 YOFF'" font-size="16px" fill="#1971c2" text-anchor="start" style="white-space: pre;" direction="ltr" dominant-baseline="alphabetic">Es</text></g><g transform="translate(10 120.71081881218288) rotate(0 9.891666666666652 10)"><text x="0" y="14.096" font-family="'Virgil 3 YOFF'" font-size="16px" fill="#1971c2" text-anchor="start" style="white-space: pre;" direction="ltr" dominant-baseline="alphabetic">Es</text></g></svg>