<svg version="1.1" xmlns="http://www.w3.org/2000/svg" viewBox="0 0 94.04656378281152 188.1374681592181" width="188.09312756562304" height="376.2749363184362">
  <!-- svg-source:excalidraw -->
  <g stroke-linecap="round"><g transform="translate(44.928984246469554 178.53955647090515) rotate(0 0 -34.04059688905545)"><path d="M-0.29 -0.4 C-0.36 -11.55, -0.64 -55.92, -0.4 -67.09 M1.76 -1.66 C1.49 -13.11, -1.43 -57.4, -1.57 -68.7" stroke="#1e1e1e" stroke-width="2" fill="none"></path></g></g><mask></mask><g stroke-linecap="round"><g transform="translate(11.254415280952799 107.53013930448833) rotate(0 36.23676443028489 0)"><path d="M-0.95 -0.43 C11.07 -0.16, 60.38 1.01, 72.79 0.89 M0.75 -1.7 C12.58 -1.69, 59.92 -0.97, 72.01 -0.77" stroke="#1e1e1e" stroke-width="2" fill="none"></path></g></g><mask></mask><g stroke-linecap="round"><g transform="translate(44.14688667739483 11.551543187927564) rotate(0 0 34.04059688905545)"><path d="M0.62 -0.33 C0.71 10.96, 0.95 56.51, 0.65 68.04 M-0.51 -1.55 C-0.53 9.92, -0.23 58.14, 0.04 69.56" stroke="#1e1e1e" stroke-width="2" fill="none"></path></g></g><mask></mask><g stroke-linecap="round"><g transform="translate(10.472317711878532 82.56096035434439) rotate(0 36.23676443028489 0)"><path d="M0.65 -0.04 C12.43 0.14, 59.39 0.91, 71.29 0.77 M-0.47 -1.11 C11.6 -1.23, 61.46 -1.13, 73.39 -0.95" stroke="#1e1e1e" stroke-width="2" fill="none"></path></g></g><mask></mask></svg>