<svg version="1.1" xmlns="http://www.w3.org/2000/svg" viewBox="0 0 691.7550443401893 456.3470175230725" width="1383.5100886803787" height="912.694035046145">
  <!-- svg-source:excalidraw -->  <g stroke-linecap="round" transform="translate(237.0528138509859 119.92502321155962) rotate(0 110.6336542547441 110.6336542547441)"><path d="M157.63 10.26 C170.01 14.05, 181.78 24.7, 190.91 34.22 C200.05 43.73, 207.38 55.07, 212.46 67.36 C217.55 79.65, 220.93 94.62, 221.43 107.94 C221.93 121.26, 220.03 134.81, 215.48 147.28 C210.94 159.76, 202.91 172.67, 194.17 182.79 C185.42 192.91, 174.65 201.55, 163.02 207.97 C151.4 214.4, 137.72 219.65, 124.43 221.37 C111.13 223.08, 96.09 221.62, 83.24 218.26 C70.39 214.9, 58.02 209.05, 47.31 201.23 C36.6 193.41, 26.26 182.53, 18.96 171.36 C11.67 160.19, 6.52 147.01, 3.54 134.21 C0.56 121.42, -0.88 107.61, 1.09 94.59 C3.05 81.58, 8.53 67.92, 15.32 56.12 C22.1 44.33, 31.44 32.23, 41.77 23.81 C52.1 15.39, 64.8 9.38, 77.31 5.6 C89.81 1.82, 102.77 0.09, 116.78 1.12 C130.8 2.14, 153.55 9.27, 161.4 11.75 C169.24 14.23, 164.75 14.4, 163.86 16 M152.3 8.71 C164.76 11.76, 176.46 20.7, 186.36 29.83 C196.26 38.97, 205.98 51.43, 211.71 63.51 C217.44 75.59, 219.96 89.29, 220.72 102.32 C221.47 115.34, 219.91 128.83, 216.24 141.67 C212.58 154.5, 207.01 168.85, 198.72 179.33 C190.44 189.8, 178.06 198, 166.54 204.5 C155.01 211, 142.65 215.79, 129.58 218.31 C116.51 220.83, 101.05 221.98, 88.13 219.61 C75.21 217.24, 62.99 211.26, 52.06 204.08 C41.13 196.9, 30.85 187.14, 22.56 176.54 C14.26 165.94, 5.83 153.6, 2.31 140.5 C-1.22 127.41, -0.2 111.46, 1.41 97.98 C3.03 84.51, 5.8 71.58, 11.98 59.66 C18.16 47.75, 28.34 35.47, 38.5 26.49 C48.65 17.51, 60.4 10.37, 72.93 5.78 C85.46 1.19, 100.32 -1.58, 113.67 -1.03 C127.01 -0.48, 146.57 7.4, 153.01 9.06 C159.45 10.72, 153.05 7.23, 152.3 8.93" stroke="#1e1e1e" stroke-width="2" fill="none"></path></g><g stroke-linecap="round"><g transform="translate(29.195645251163683 135.00330624107414) rotate(0 75.85110386404801 0)"><path d="M0.6 0.62 C25.68 0.41, 125.31 -0.25, 150.52 -0.21 M-0.55 -0.11 C24.88 0.4, 127.32 1.37, 152.6 1.22" stroke="#2f9e44" stroke-width="4" fill="none"></path></g><g transform="translate(29.195645251163683 135.00330624107414) rotate(0 75.85110386404801 0)"><path d="M129.09 9.69 C137.14 5.04, 142.85 4.73, 152.6 1.22 M129.09 9.69 C136.99 6.94, 147.33 3.64, 152.6 1.22" stroke="#2f9e44" stroke-width="4" fill="none"></path></g><g transform="translate(29.195645251163683 135.00330624107414) rotate(0 75.85110386404801 0)"><path d="M129.14 -7.41 C137.32 -6.9, 143.02 -2.06, 152.6 1.22 M129.14 -7.41 C137.05 -3.82, 147.37 -0.77, 152.6 1.22" stroke="#2f9e44" stroke-width="4" fill="none"></path></g></g><mask></mask><g stroke-linecap="round"><g transform="translate(16.02645502387645 176.43157969140498) rotate(0 75.85110386404807 0)"><path d="M0.88 -0.42 C26.16 -0.39, 127.34 -0.86, 152.34 -0.61 M-0.12 -1.68 C25.01 -1.44, 126.15 0.44, 151.73 0.61" stroke="#2f9e44" stroke-width="4" fill="none"></path></g><g transform="translate(16.02645502387645 176.43157969140498) rotate(0 75.85110386404807 0)"><path d="M128.13 8.85 C135.79 6.85, 143.77 1.57, 151.73 0.61 M128.13 8.85 C137.39 6.15, 147.42 2.66, 151.73 0.61" stroke="#2f9e44" stroke-width="4" fill="none"></path></g><g transform="translate(16.02645502387645 176.43157969140498) rotate(0 75.85110386404807 0)"><path d="M128.36 -8.25 C135.83 -4.24, 143.73 -3.5, 151.73 0.61 M128.36 -8.25 C137.42 -4.26, 147.37 -1.05, 151.73 0.61" stroke="#2f9e44" stroke-width="4" fill="none"></path></g></g><mask></mask><g stroke-linecap="round"><g transform="translate(34.465397399667154 328.94869172632434) rotate(0 75.85110386404807 0)"><path d="M1.1 -0.73 C26.46 -0.61, 126.36 -0.31, 151.56 -0.04 M0.22 1.5 C25.46 1.89, 125.26 1.89, 150.54 1.48" stroke="#2f9e44" stroke-width="4" fill="none"></path></g><g transform="translate(34.465397399667154 328.94869172632434) rotate(0 75.85110386404807 0)"><path d="M127.1 10.19 C131.78 7.57, 138.78 6.63, 150.54 1.48 M127.1 10.19 C136.07 7.08, 144.87 3.15, 150.54 1.48" stroke="#2f9e44" stroke-width="4" fill="none"></path></g><g transform="translate(34.465397399667154 328.94869172632434) rotate(0 75.85110386404807 0)"><path d="M126.99 -6.91 C131.58 -5.27, 138.61 -1.95, 150.54 1.48 M126.99 -6.91 C136.04 -3.59, 144.88 -1.09, 150.54 1.48" stroke="#2f9e44" stroke-width="4" fill="none"></path></g></g><mask></mask><g stroke-linecap="round"><g transform="translate(23.569658723063412 279.4988008094308) rotate(0 75.85110386404807 0)"><path d="M0.91 0.29 C26.22 0.22, 126.63 0.22, 151.8 0.2 M-0.07 -0.61 C25.09 -1.11, 125.68 -2.18, 150.91 -1.81" stroke="#2f9e44" stroke-width="4" fill="none"></path></g><g transform="translate(23.569658723063412 279.4988008094308) rotate(0 75.85110386404807 0)"><path d="M127.42 6.74 C134.83 4.19, 141.67 1.85, 150.91 -1.81 M127.42 6.74 C134.93 4.37, 141.8 2.38, 150.91 -1.81" stroke="#2f9e44" stroke-width="4" fill="none"></path></g><g transform="translate(23.569658723063412 279.4988008094308) rotate(0 75.85110386404807 0)"><path d="M127.41 -10.36 C134.91 -7.83, 141.75 -5.09, 150.91 -1.81 M127.41 -10.36 C134.85 -7.33, 141.72 -3.92, 150.91 -1.81" stroke="#2f9e44" stroke-width="4" fill="none"></path></g></g><mask></mask><g transform="translate(92.05567607772309 232.17734002276234) rotate(0 16.73333358764654 12.5)"><text x="0" y="17.619999999999997" font-family="'Virgil 3 YOFF'" font-size="20px" fill="#2f9e44" text-anchor="start" style="white-space: pre;" direction="ltr" dominant-baseline="alphabetic">ext</text></g><g stroke-linecap="round"><g transform="translate(513.5286002714707 123.58088859423128) rotate(0 75.85110386404801 0)"><path d="M0.53 0.28 C25.61 0.28, 125.71 0.49, 150.71 0.52 M-0.66 -0.62 C24.77 -1.02, 127.33 -1.15, 152.91 -1.34" stroke="#2f9e44" stroke-width="4" fill="none"></path></g><g transform="translate(513.5286002714707 123.58088859423128) rotate(0 75.85110386404801 0)"><path d="M129.45 7.31 C137.34 2.81, 145.19 -0.21, 152.91 -1.34 M129.45 7.31 C138.21 3.74, 144.36 1.39, 152.91 -1.34" stroke="#2f9e44" stroke-width="4" fill="none"></path></g><g transform="translate(513.5286002714707 123.58088859423128) rotate(0 75.85110386404801 0)"><path d="M129.38 -9.79 C137.36 -8.85, 145.24 -6.43, 152.91 -1.34 M129.38 -9.79 C138.31 -7.64, 144.49 -4.28, 152.91 -1.34" stroke="#2f9e44" stroke-width="4" fill="none"></path></g></g><mask></mask><g stroke-linecap="round"><g transform="translate(523.8271548860993 166.65407572687968) rotate(0 75.85110386404801 0)"><path d="M-0.99 0.52 C24.02 0.54, 124.93 0.37, 150.55 0.41 M0.7 -0.26 C26 -0.63, 127.35 -1.34, 152.66 -1.5" stroke="#2f9e44" stroke-width="4" fill="none"></path></g><g transform="translate(523.8271548860993 166.65407572687968) rotate(0 75.85110386404801 0)"><path d="M129.23 7.21 C138.12 2.49, 146 3.19, 152.66 -1.5 M129.23 7.21 C136.91 4.2, 146.69 1.51, 152.66 -1.5" stroke="#2f9e44" stroke-width="4" fill="none"></path></g><g transform="translate(523.8271548860993 166.65407572687968) rotate(0 75.85110386404801 0)"><path d="M129.11 -9.89 C138.09 -8.73, 146 -2.15, 152.66 -1.5 M129.11 -9.89 C137.01 -6.73, 146.83 -3.24, 152.66 -1.5" stroke="#2f9e44" stroke-width="4" fill="none"></path></g></g><mask></mask><g stroke-linecap="round"><g transform="translate(514.6076836982037 332.604557108996) rotate(0 75.85110386404801 0)"><path d="M-1.15 0.41 C24.48 0.45, 127.09 0.91, 152.77 0.73 M0.45 -0.42 C26.09 -0.77, 126.99 -1.13, 152.38 -1.01" stroke="#2f9e44" stroke-width="4" fill="none"></path></g><g transform="translate(514.6076836982037 332.604557108996) rotate(0 75.85110386404801 0)"><path d="M128.88 7.55 C134.64 7.68, 140.3 6.04, 152.38 -1.01 M128.88 7.55 C135.37 5.9, 141.38 2.85, 152.38 -1.01" stroke="#2f9e44" stroke-width="4" fill="none"></path></g><g transform="translate(514.6076836982037 332.604557108996) rotate(0 75.85110386404801 0)"><path d="M128.88 -9.55 C134.72 -5.7, 140.37 -3.61, 152.38 -1.01 M128.88 -9.55 C135.25 -6.98, 141.26 -5.82, 152.38 -1.01" stroke="#2f9e44" stroke-width="4" fill="none"></path></g></g><mask></mask><g stroke-linecap="round"><g transform="translate(528.8559573522238 276.4495962372696) rotate(0 75.85110386404801 0)"><path d="M1.06 0.73 C26.74 0.56, 127.93 -0.52, 152.9 -0.64 M0.16 0.07 C25.88 0.01, 127.05 0.35, 152.58 0.56" stroke="#2f9e44" stroke-width="4" fill="none"></path></g><g transform="translate(528.8559573522238 276.4495962372696) rotate(0 75.85110386404801 0)"><path d="M129.04 8.98 C135.04 9.05, 137.55 3.96, 152.58 0.56 M129.04 8.98 C136.91 5.87, 143.29 4.37, 152.58 0.56" stroke="#2f9e44" stroke-width="4" fill="none"></path></g><g transform="translate(528.8559573522238 276.4495962372696) rotate(0 75.85110386404801 0)"><path d="M129.13 -8.12 C135.17 -4.56, 137.67 -6.16, 152.58 0.56 M129.13 -8.12 C137.08 -6.1, 143.43 -2.46, 152.58 0.56" stroke="#2f9e44" stroke-width="4" fill="none"></path></g></g><mask></mask><g mask="url(#mask-YeRwYy8micb84pvpHBU25)" stroke-linecap="round"><g transform="translate(10.301386045589993 224.1615191000601) rotate(0 75.85110386404801 0)"><path d="M0.76 0.88 C26.24 0.92, 127.13 0.49, 152.46 0.24 M-0.3 0.29 C25.13 -0.04, 126.44 -1.77, 151.91 -1.75" stroke="#2f9e44" stroke-width="4" fill="none"></path></g><g transform="translate(10.301386045589993 224.1615191000601) rotate(0 75.85110386404801 0)"><path d="M128.5 7.02 C136.15 5.81, 141.29 3.97, 151.91 -1.75 M128.5 7.02 C133.88 5.56, 139.8 1.9, 151.91 -1.75" stroke="#2f9e44" stroke-width="4" fill="none"></path></g><g transform="translate(10.301386045589993 224.1615191000601) rotate(0 75.85110386404801 0)"><path d="M128.34 -10.08 C136.03 -6.77, 141.2 -4.09, 151.91 -1.75 M128.34 -10.08 C133.76 -7.25, 139.73 -6.62, 151.91 -1.75" stroke="#2f9e44" stroke-width="4" fill="none"></path></g></g><mask id="mask-YeRwYy8micb84pvpHBU25"><rect x="0" y="0" fill="#fff" width="262.003593773686" height="324.1615191000601"></rect><rect x="74.01915670346125" y="201.6615191000601" fill="#000" width="24.266666412353516" height="45" opacity="1"></rect></mask><g transform="translate(74.01915670346114 201.6615191000601) rotate(0 12.360981657579543 22.064576983741404)"><text x="12.133333206176758" y="31.716" font-family="'Virgil 3 YOFF'" font-size="36px" fill="#2f9e44" text-anchor="middle" style="white-space: pre;" direction="ltr" dominant-baseline="alphabetic">E</text></g><g stroke-linecap="round"><g transform="translate(524.9343344819343 218.78736179548036) rotate(0 75.85110386404801 0)"><path d="M-0.19 0.18 C24.91 0.28, 126.51 0.05, 151.77 -0.03 M-1.75 -0.78 C23.09 -0.41, 125.49 1.22, 150.86 1.49" stroke="#2f9e44" stroke-width="4" fill="none"></path></g><g transform="translate(524.9343344819343 218.78736179548036) rotate(0 75.85110386404801 0)"><path d="M127.25 9.72 C137 6.59, 146.07 2.66, 150.86 1.49 M127.25 9.72 C133.59 6.62, 140.43 5.03, 150.86 1.49" stroke="#2f9e44" stroke-width="4" fill="none"></path></g><g transform="translate(524.9343344819343 218.78736179548036) rotate(0 75.85110386404801 0)"><path d="M127.48 -7.38 C137.05 -3.69, 146.03 -0.8, 150.86 1.49 M127.48 -7.38 C133.85 -5.75, 140.63 -2.63, 150.86 1.49" stroke="#2f9e44" stroke-width="4" fill="none"></path></g></g><mask></mask><g transform="translate(280.6357685574002 181.03678038409862) rotate(0 4 10)"><text x="0" y="14.096" font-family="'Virgil 3 YOFF'" font-size="16px" fill="#1e1e1e" text-anchor="start" style="white-space: pre;" direction="ltr" dominant-baseline="alphabetic"></text></g><g transform="translate(299.0747109331909 150.95037298572447) rotate(0 4.108333110809326 12.5)"><text x="0" y="17.619999999999997" font-family="'Virgil 3 YOFF'" font-size="20px" fill="#1971c2" text-anchor="start" style="white-space: pre;" direction="ltr" dominant-baseline="alphabetic">-</text></g><g transform="translate(278.2037029352995 162.7418503389315) rotate(0 4.108333110809326 12.5)"><text x="0" y="17.619999999999997" font-family="'Virgil 3 YOFF'" font-size="20px" fill="#1971c2" text-anchor="start" style="white-space: pre;" direction="ltr" dominant-baseline="alphabetic">-</text></g><g transform="translate(260.6028943038626 187.047728925201) rotate(0 4.108333110809326 12.5)"><text x="0" y="17.619999999999997" font-family="'Virgil 3 YOFF'" font-size="20px" fill="#1971c2" text-anchor="start" style="white-space: pre;" direction="ltr" dominant-baseline="alphabetic">-</text></g><g transform="translate(251.38342311596705 216.38240997759544) rotate(0 4.108333110809326 12.5)"><text x="0" y="17.619999999999997" font-family="'Virgil 3 YOFF'" font-size="20px" fill="#1971c2" text-anchor="start" style="white-space: pre;" direction="ltr" dominant-baseline="alphabetic">-</text></g><g transform="translate(255.57409183773768 251.58402724046869) rotate(0 4.108333110809326 12.5)"><text x="0" y="17.619999999999997" font-family="'Virgil 3 YOFF'" font-size="20px" fill="#1971c2" text-anchor="start" style="white-space: pre;" direction="ltr" dominant-baseline="alphabetic">-</text></g><g transform="translate(270.66049923611206 281.75684203721653) rotate(0 4.108333110809326 12.5)"><text x="0" y="17.619999999999997" font-family="'Virgil 3 YOFF'" font-size="20px" fill="#1971c2" text-anchor="start" style="white-space: pre;" direction="ltr" dominant-baseline="alphabetic">-</text></g><g transform="translate(287.4231741231946 292.65258071382027) rotate(0 4.108333110809326 12.5)"><text x="0" y="17.619999999999997" font-family="'Virgil 3 YOFF'" font-size="20px" fill="#1971c2" text-anchor="start" style="white-space: pre;" direction="ltr" dominant-baseline="alphabetic">-</text></g><g transform="translate(263.11729553692464 249.90775975176007) rotate(0 4.108333110809326 12.5)"><text x="0" y="17.619999999999997" font-family="'Virgil 3 YOFF'" font-size="20px" fill="#1971c2" text-anchor="start" style="white-space: pre;" direction="ltr" dominant-baseline="alphabetic">-</text></g><g transform="translate(250.5452893716132 228.11628239855304) rotate(0 4.108333110809326 12.5)"><text x="0" y="17.619999999999997" font-family="'Virgil 3 YOFF'" font-size="20px" fill="#1971c2" text-anchor="start" style="white-space: pre;" direction="ltr" dominant-baseline="alphabetic">-</text></g><g transform="translate(270.66049923611206 192.07653139132594) rotate(0 4.108333110809326 12.5)"><text x="0" y="17.619999999999997" font-family="'Virgil 3 YOFF'" font-size="20px" fill="#1971c2" text-anchor="start" style="white-space: pre;" direction="ltr" dominant-baseline="alphabetic">-</text></g><g transform="translate(258.08849307080015 200.45786883486676) rotate(0 4.108333110809326 12.5)"><text x="0" y="17.619999999999997" font-family="'Virgil 3 YOFF'" font-size="20px" fill="#1971c2" text-anchor="start" style="white-space: pre;" direction="ltr" dominant-baseline="alphabetic">-</text></g><g transform="translate(265.63169676998757 157.713047872807) rotate(0 4.108333110809326 12.5)"><text x="0" y="17.619999999999997" font-family="'Virgil 3 YOFF'" font-size="20px" fill="#1971c2" text-anchor="start" style="white-space: pre;" direction="ltr" dominant-baseline="alphabetic">-</text></g><g transform="translate(284.9087728901321 139.27410549701585) rotate(0 4.108333110809326 12.5)"><text x="0" y="17.619999999999997" font-family="'Virgil 3 YOFF'" font-size="20px" fill="#1971c2" text-anchor="start" style="white-space: pre;" direction="ltr" dominant-baseline="alphabetic">-</text></g><g transform="translate(298.31891279979834 307.73898811219465) rotate(0 4.108333110809326 12.5)"><text x="0" y="17.619999999999997" font-family="'Virgil 3 YOFF'" font-size="20px" fill="#1971c2" text-anchor="start" style="white-space: pre;" direction="ltr" dominant-baseline="alphabetic">-</text></g><g transform="translate(273.17490046917453 251.58402724046869) rotate(0 4.108333110809326 12.5)"><text x="0" y="17.619999999999997" font-family="'Virgil 3 YOFF'" font-size="20px" fill="#1971c2" text-anchor="start" style="white-space: pre;" direction="ltr" dominant-baseline="alphabetic">-</text></g><g transform="translate(262.2791617925708 225.60188116549057) rotate(0 4.108333110809326 12.5)"><text x="0" y="17.619999999999997" font-family="'Virgil 3 YOFF'" font-size="20px" fill="#1971c2" text-anchor="start" style="white-space: pre;" direction="ltr" dominant-baseline="alphabetic">-</text></g><g transform="translate(305.8621164989853 125.02583184299624) rotate(0 4.108333110809326 12.5)"><text x="0" y="17.619999999999997" font-family="'Virgil 3 YOFF'" font-size="20px" fill="#1971c2" text-anchor="start" style="white-space: pre;" direction="ltr" dominant-baseline="alphabetic">-</text></g><g transform="translate(267.3079642586953 212.1917412558248) rotate(0 4.108333110809326 12.5)"><text x="0" y="17.619999999999997" font-family="'Virgil 3 YOFF'" font-size="20px" fill="#1971c2" text-anchor="start" style="white-space: pre;" direction="ltr" dominant-baseline="alphabetic">-</text></g><g transform="translate(246.35462064984256 190.40026390261778) rotate(0 4.108333110809326 12.5)"><text x="0" y="17.619999999999997" font-family="'Virgil 3 YOFF'" font-size="20px" fill="#1971c2" text-anchor="start" style="white-space: pre;" direction="ltr" dominant-baseline="alphabetic">-</text></g><g transform="translate(392.1075565564985 141.71650056476665) rotate(0 6.5 12.5)"><text x="0" y="17.619999999999997" font-family="'Virgil 3 YOFF'" font-size="20px" fill="#e03131" text-anchor="start" style="white-space: pre;" direction="ltr" dominant-baseline="alphabetic">+</text></g><g transform="translate(407.3990339097055 156.03678038409862) rotate(0 6.5 12.5)"><text x="0" y="17.619999999999997" font-family="'Virgil 3 YOFF'" font-size="20px" fill="#e03131" text-anchor="start" style="white-space: pre;" direction="ltr" dominant-baseline="alphabetic">+</text></g><g transform="translate(418.29477258630925 192.91466513568002) rotate(0 6.5 12.5)"><text x="0" y="17.619999999999997" font-family="'Virgil 3 YOFF'" font-size="20px" fill="#e03131" text-anchor="start" style="white-space: pre;" direction="ltr" dominant-baseline="alphabetic">+</text></g><g transform="translate(426.6761100298505 193.75279888003433) rotate(0 6.5 12.5)"><text x="0" y="17.619999999999997" font-family="'Virgil 3 YOFF'" font-size="20px" fill="#e03131" text-anchor="start" style="white-space: pre;" direction="ltr" dominant-baseline="alphabetic">+</text></g><g transform="translate(417.45663884195494 169.44692029376483) rotate(0 6.5 12.5)"><text x="0" y="17.619999999999997" font-family="'Virgil 3 YOFF'" font-size="20px" fill="#e03131" text-anchor="start" style="white-space: pre;" direction="ltr" dominant-baseline="alphabetic">+</text></g><g transform="translate(434.2193137290375 220.57307869936585) rotate(0 6.5 12.5)"><text x="0" y="17.619999999999997" font-family="'Virgil 3 YOFF'" font-size="20px" fill="#e03131" text-anchor="start" style="white-space: pre;" direction="ltr" dominant-baseline="alphabetic">+</text></g><g transform="translate(430.02864500726685 241.52642230821903) rotate(0 6.5 12.5)"><text x="0" y="17.619999999999997" font-family="'Virgil 3 YOFF'" font-size="20px" fill="#e03131" text-anchor="start" style="white-space: pre;" direction="ltr" dominant-baseline="alphabetic">+</text></g><g transform="translate(418.29477258630925 259.9653646840097) rotate(0 6.5 12.5)"><text x="0" y="17.619999999999997" font-family="'Virgil 3 YOFF'" font-size="20px" fill="#e03131" text-anchor="start" style="white-space: pre;" direction="ltr" dominant-baseline="alphabetic">+</text></g><g transform="translate(401.5320976992267 281.75684203721676) rotate(0 6.5 12.5)"><text x="0" y="17.619999999999997" font-family="'Virgil 3 YOFF'" font-size="20px" fill="#e03131" text-anchor="start" style="white-space: pre;" direction="ltr" dominant-baseline="alphabetic">+</text></g><g transform="translate(383.093155323436 306.90085436784057) rotate(0 6.5 12.5)"><text x="0" y="17.619999999999997" font-family="'Virgil 3 YOFF'" font-size="20px" fill="#e03131" text-anchor="start" style="white-space: pre;" direction="ltr" dominant-baseline="alphabetic">+</text></g><g transform="translate(374.71181787989474 311.0915230896112) rotate(0 6.5 12.5)"><text x="0" y="17.619999999999997" font-family="'Virgil 3 YOFF'" font-size="20px" fill="#e03131" text-anchor="start" style="white-space: pre;" direction="ltr" dominant-baseline="alphabetic">+</text></g><g transform="translate(419.9710400750174 271.6992371049673) rotate(0 6.5 12.5)"><text x="0" y="17.619999999999997" font-family="'Virgil 3 YOFF'" font-size="20px" fill="#e03131" text-anchor="start" style="white-space: pre;" direction="ltr" dominant-baseline="alphabetic">+</text></g><g transform="translate(406.56090016535165 294.32884820252866) rotate(0 6.5 12.5)"><text x="0" y="17.619999999999997" font-family="'Virgil 3 YOFF'" font-size="20px" fill="#e03131" text-anchor="start" style="white-space: pre;" direction="ltr" dominant-baseline="alphabetic">+</text></g><g transform="translate(356.27287550410404 317.79659304444385) rotate(0 6.5 12.5)"><text x="0" y="17.619999999999997" font-family="'Virgil 3 YOFF'" font-size="20px" fill="#e03131" text-anchor="start" style="white-space: pre;" direction="ltr" dominant-baseline="alphabetic">+</text></g><g transform="translate(422.4854413080799 229.79254988726143) rotate(0 6.5 12.5)"><text x="0" y="17.619999999999997" font-family="'Virgil 3 YOFF'" font-size="20px" fill="#e03131" text-anchor="start" style="white-space: pre;" direction="ltr" dominant-baseline="alphabetic">+</text></g><g transform="translate(422.48544130807943 202.13413632357492) rotate(0 6.5 12.5)"><text x="0" y="17.619999999999997" font-family="'Virgil 3 YOFF'" font-size="20px" fill="#e03131" text-anchor="start" style="white-space: pre;" direction="ltr" dominant-baseline="alphabetic">+</text></g><g transform="translate(378.9024866016654 141.78850673007855) rotate(0 6.5 12.5)"><text x="0" y="17.619999999999997" font-family="'Virgil 3 YOFF'" font-size="20px" fill="#e03131" text-anchor="start" style="white-space: pre;" direction="ltr" dominant-baseline="alphabetic">+</text></g><g transform="translate(429.19051126291254 164.4181178276399) rotate(0 6.5 12.5)"><text x="0" y="17.619999999999997" font-family="'Virgil 3 YOFF'" font-size="20px" fill="#e03131" text-anchor="start" style="white-space: pre;" direction="ltr" dominant-baseline="alphabetic">+</text></g><g transform="translate(438.4099824508081 192.07653139132572) rotate(0 6.5 12.5)"><text x="0" y="17.619999999999997" font-family="'Virgil 3 YOFF'" font-size="20px" fill="#e03131" text-anchor="start" style="white-space: pre;" direction="ltr" dominant-baseline="alphabetic">+</text></g><g transform="translate(440.92438368387013 217.22054372194953) rotate(0 6.5 12.5)"><text x="0" y="17.619999999999997" font-family="'Virgil 3 YOFF'" font-size="20px" fill="#e03131" text-anchor="start" style="white-space: pre;" direction="ltr" dominant-baseline="alphabetic">+</text></g><g stroke-linecap="round"><g transform="translate(390.4312890677901 186.97572275988932) rotate(0 -46.51642281165368 -1.6762674887082767)"><path d="M-0.25 -0.38 C-15.42 -0.74, -76.78 -2.39, -92.09 -2.91" stroke="#f08c00" stroke-width="4.5" fill="none" stroke-dasharray="8 12"></path></g><g transform="translate(390.4312890677901 186.97572275988932) rotate(0 -46.51642281165368 -1.6762674887082767)"><path d="M-68.36 -10.75 C-74.06 -7.58, -77.7 -5.95, -92.09 -2.91" stroke="#f08c00" stroke-width="4.5" fill="none"></path></g><g transform="translate(390.4312890677901 186.97572275988932) rotate(0 -46.51642281165368 -1.6762674887082767)"><path d="M-68.87 6.34 C-74.35 5.9, -77.89 3.92, -92.09 -2.91" stroke="#f08c00" stroke-width="4.5" fill="none"></path></g></g><mask></mask><g mask="url(#mask-bQ1XYDdBJZ1RvLpH5xYtQ)" stroke-linecap="round"><g transform="translate(393.85942932451565 237.22919809133418) rotate(0 -46.51642281165368 -1.6762674887082767)"><path d="M0.21 -0.56 C-15.49 -1.22, -77.88 -4.04, -93.24 -4.33" stroke="#f08c00" stroke-width="4.5" fill="none" stroke-dasharray="8 12"></path></g><g transform="translate(393.85942932451565 237.22919809133418) rotate(0 -46.51642281165368 -1.6762674887082767)"><path d="M-69.47 -12.08 C-79.56 -9.41, -89.38 -4.31, -93.24 -4.33" stroke="#f08c00" stroke-width="4.5" fill="none"></path></g><g transform="translate(393.85942932451565 237.22919809133418) rotate(0 -46.51642281165368 -1.6762674887082767)"><path d="M-70.05 5.01 C-79.87 1.12, -89.47 -0.35, -93.24 -4.33" stroke="#f08c00" stroke-width="4.5" fill="none"></path></g></g><mask id="mask-bQ1XYDdBJZ1RvLpH5xYtQ"><rect x="0" y="0" fill="#fff" width="586.892274947823" height="340.58173306875074"></rect><rect x="335.2096733066851" y="213.0529306026258" fill="#000" width="24.266666412353516" height="45" opacity="1"></rect></mask><g transform="translate(335.2096733066851 213.0529306026258) rotate(0 12.13649922199545 21.726749585196444)"><text x="12.133333206176758" y="31.716" font-family="'Virgil 3 YOFF'" font-size="36px" fill="#f08c00" text-anchor="middle" style="white-space: pre;" direction="ltr" dominant-baseline="alphabetic">E</text></g><g stroke-linecap="round"><g transform="translate(392.1831618358077 285.8409552638732) rotate(0 -46.51642281165368 -1.6762674887082767)"><path d="M0.98 0.26 C-14.25 -0.3, -76.82 -2.62, -92.43 -3.11" stroke="#f08c00" stroke-width="4.5" fill="none" stroke-dasharray="8 12"></path></g><g transform="translate(392.1831618358077 285.8409552638732) rotate(0 -46.51642281165368 -1.6762674887082767)"><path d="M-68.66 -10.84 C-73.27 -8, -78.36 -6.81, -92.43 -3.11" stroke="#f08c00" stroke-width="4.5" fill="none"></path></g><g transform="translate(392.1831618358077 285.8409552638732) rotate(0 -46.51642281165368 -1.6762674887082767)"><path d="M-69.25 6.25 C-73.77 5.45, -78.74 2.99, -92.43 -3.11" stroke="#f08c00" stroke-width="4.5" fill="none"></path></g></g><mask></mask><g transform="translate(355.2296718049171 240.55867746630338) rotate(0 12.858333333333348 12.5)"><text x="0" y="17.619999999999997" font-family="'Virgil 3 YOFF'" font-size="20px" fill="#f08c00" text-anchor="start" style="white-space: pre;" direction="ltr" dominant-baseline="alphabetic">ind</text></g><g stroke-linecap="round"><g transform="translate(445.8237214744714 163.47342858817115) rotate(0 -92.68938403043944 -77.09102981567787)"><path d="M-0.51 0.9 C9.68 -9.77, 59.62 -41.93, 60.96 -63.97 C62.29 -86, 32.71 -116.4, 7.52 -131.3 C-17.66 -146.2, -57.41 -152.55, -90.15 -153.37 C-122.88 -154.19, -162.67 -150.26, -188.89 -136.21 C-215.12 -122.16, -246.4 -91.52, -247.48 -69.05 C-248.56 -46.58, -204.1 -12.31, -195.37 -1.37" stroke="#f08c00" stroke-width="4.5" fill="none" stroke-dasharray="8 12"></path></g><g transform="translate(445.8237214744714 163.47342858817115) rotate(0 -92.68938403043944 -77.09102981567787)"><path d="M-218.07 -11.85 C-210.1 -9.02, -207.05 -7.09, -195.37 -1.37" stroke="#f08c00" stroke-width="4.5" fill="none"></path></g><g transform="translate(445.8237214744714 163.47342858817115) rotate(0 -92.68938403043944 -77.09102981567787)"><path d="M-206.02 -23.98 C-201.47 -17.76, -201.85 -12.38, -195.37 -1.37" stroke="#f08c00" stroke-width="4.5" fill="none"></path></g></g><mask></mask><g stroke-linecap="round"><g transform="translate(445.86507169262075 292.85038413160146) rotate(0 -92.68938403043944 77.09102981567787)"><path d="M0.33 -0.5 C10.71 9.93, 59.95 40.59, 61.37 62.65 C62.8 84.7, 34.28 116.71, 8.89 131.84 C-16.49 146.97, -58.11 152.76, -90.93 153.43 C-123.74 154.09, -162.03 150.12, -188.01 135.85 C-213.99 121.59, -245.49 89.94, -246.8 67.84 C-248.1 45.75, -204.48 14.05, -195.83 3.28" stroke="#f08c00" stroke-width="4.5" fill="none" stroke-dasharray="8 12"></path></g><g transform="translate(445.86507169262075 292.85038413160146) rotate(0 -92.68938403043944 77.09102981567787)"><path d="M-206.82 25.74 C-205.16 21.03, -202.13 16.45, -195.83 3.28" stroke="#f08c00" stroke-width="4.5" fill="none"></path></g><g transform="translate(445.86507169262075 292.85038413160146) rotate(0 -92.68938403043944 77.09102981567787)"><path d="M-218.68 13.42 C-214.31 11.49, -208.57 9.72, -195.83 3.28" stroke="#f08c00" stroke-width="4.5" fill="none"></path></g></g><mask></mask></svg>