<svg version="1.1" xmlns="http://www.w3.org/2000/svg" viewBox="0 0 369.09631433123195 377.1976015490982" width="738.1926286624639" height="754.3952030981964">
  <!-- svg-source:excalidraw -->
  <g stroke-linecap="round" transform="translate(10.000000000000455 14.463142470772254) rotate(0 174.54815716561575 174.54815716561575)"><path d="M256.81 19.73 C271.7 24.53, 284.94 38.7, 296.69 50.24 C308.44 61.78, 319.13 74.69, 327.28 88.98 C335.44 103.27, 342.09 119.85, 345.62 135.98 C349.15 152.11, 349.62 169.45, 348.49 185.74 C347.35 202.02, 344.39 218.34, 338.8 233.68 C333.2 249.02, 324.57 264.54, 314.92 277.75 C305.27 290.96, 293.79 303.1, 280.89 312.93 C267.99 322.76, 252.92 330.94, 237.52 336.73 C222.11 342.53, 204.84 346.36, 188.46 347.69 C172.08 349.01, 155.12 347.75, 139.23 344.68 C123.35 341.62, 107.63 336.91, 93.13 329.28 C78.63 321.66, 64.19 310.64, 52.22 298.92 C40.25 287.2, 29.18 273.16, 21.3 258.98 C13.42 244.81, 8.56 229.88, 4.92 213.88 C1.27 197.87, -1.44 179.36, -0.55 162.96 C0.35 146.56, 4.52 130.89, 10.3 115.46 C16.07 100.02, 24.45 83.71, 34.08 70.36 C43.7 57.01, 54.98 45.29, 68.05 35.34 C81.11 25.39, 97.11 16.53, 112.47 10.66 C127.82 4.79, 144.06 1.38, 160.16 0.15 C176.26 -1.08, 192.19 -0.59, 209.07 3.3 C225.95 7.2, 252.01 18.94, 261.42 23.51 C270.83 28.08, 266.73 28.1, 265.53 30.73 M100.07 17.81 C112.58 8.66, 130.23 4.09, 146.59 1.27 C162.96 -1.54, 181.81 -1.48, 198.27 0.91 C214.73 3.29, 230.6 8.72, 245.33 15.57 C260.06 22.42, 273.97 31.29, 286.65 42 C299.34 52.7, 312.17 66.28, 321.44 79.79 C330.72 93.29, 337.92 107.75, 342.33 123.02 C346.74 138.29, 348 154.91, 347.89 171.42 C347.77 187.92, 345.72 205.85, 341.64 222.05 C337.56 238.25, 331.83 254.76, 323.4 268.6 C314.97 282.43, 303.33 294.16, 291.08 305.07 C278.83 315.98, 264.75 327.18, 249.89 334.06 C235.03 340.95, 218.2 344.2, 201.93 346.39 C185.66 348.58, 168.52 349.02, 152.27 347.21 C136.02 345.4, 119.74 342.38, 104.44 335.54 C89.15 328.7, 73.16 316.92, 60.48 306.16 C47.81 295.4, 37.27 284.54, 28.4 270.97 C19.52 257.41, 11.86 240.7, 7.25 224.75 C2.64 208.79, 1.05 191.56, 0.76 175.27 C0.46 158.98, 1 142.69, 5.48 127.01 C9.96 111.34, 18.64 95.13, 27.62 81.2 C36.59 67.27, 46.98 54, 59.35 43.43 C71.71 32.85, 94.77 21.65, 101.81 17.76 C108.86 13.87, 100.53 17.56, 101.62 20.08" stroke="#1e1e1e" stroke-width="2" fill="none"></path></g><g transform="translate(129.6238564957066 183.57538124990697) rotate(0 4.108333110809326 12.5)"><text x="0" y="17.619999999999997" font-family="'Virgil 3 YOFF'" font-size="20px" fill="#1971c2" text-anchor="start" style="white-space: pre;" direction="ltr" dominant-baseline="alphabetic">-</text></g><g transform="translate(110.33098437215767 197.73406241462794) rotate(0 4.108333110809326 12.5)"><text x="0" y="17.619999999999997" font-family="'Virgil 3 YOFF'" font-size="20px" fill="#1971c2" text-anchor="start" style="white-space: pre;" direction="ltr" dominant-baseline="alphabetic">-</text></g><g transform="translate(136.91798022231114 232.29782418412378) rotate(0 4.108333110809326 12.5)"><text x="0" y="17.619999999999997" font-family="'Virgil 3 YOFF'" font-size="20px" fill="#1971c2" text-anchor="start" style="white-space: pre;" direction="ltr" dominant-baseline="alphabetic">-</text></g><g transform="translate(111.46752798185435 212.86552059793985) rotate(0 4.108333110809326 12.5)"><text x="0" y="17.619999999999997" font-family="'Virgil 3 YOFF'" font-size="20px" fill="#1971c2" text-anchor="start" style="white-space: pre;" direction="ltr" dominant-baseline="alphabetic">-</text></g><g transform="translate(124.14569580602256 222.82499391582292) rotate(0 4.108333110809326 12.5)"><text x="0" y="17.619999999999997" font-family="'Virgil 3 YOFF'" font-size="20px" fill="#1971c2" text-anchor="start" style="white-space: pre;" direction="ltr" dominant-baseline="alphabetic">-</text></g><g transform="translate(138.0014430025799 159.5644065873107) rotate(0 4.108333110809326 12.5)"><text x="0" y="17.619999999999997" font-family="'Virgil 3 YOFF'" font-size="20px" fill="#1971c2" text-anchor="start" style="white-space: pre;" direction="ltr" dominant-baseline="alphabetic">-</text></g><g transform="translate(141.49716037929875 138.75826040000584) rotate(0 4.108333110809326 12.5)"><text x="0" y="17.619999999999997" font-family="'Virgil 3 YOFF'" font-size="20px" fill="#1971c2" text-anchor="start" style="white-space: pre;" direction="ltr" dominant-baseline="alphabetic">-</text></g><g transform="translate(162.45050398815238 126.87719055749994) rotate(0 4.108333110809326 12.5)"><text x="0" y="17.619999999999997" font-family="'Virgil 3 YOFF'" font-size="20px" fill="#1971c2" text-anchor="start" style="white-space: pre;" direction="ltr" dominant-baseline="alphabetic">-</text></g><g transform="translate(338.3971064843945 153.68542531009507) rotate(0 6.5 12.5)"><text x="0" y="17.619999999999997" font-family="'Virgil 3 YOFF'" font-size="20px" fill="#e03131" text-anchor="start" style="white-space: pre;" direction="ltr" dominant-baseline="alphabetic">+</text></g><g transform="translate(340.9115077174565 178.82943764071888) rotate(0 6.5 12.5)"><text x="0" y="17.619999999999997" font-family="'Virgil 3 YOFF'" font-size="20px" fill="#e03131" text-anchor="start" style="white-space: pre;" direction="ltr" dominant-baseline="alphabetic">+</text></g><g stroke-linecap="round"><g transform="translate(128.16156274070818 185.0479950572785) rotate(0 49.71128004178922 13.808688900496804)"><path d="M0.57 0.63 C4.27 -7.93, 3.45 -42.4, 22.61 -50.78 C41.78 -59.16, 97.98 -65.09, 115.55 -49.66 C133.12 -34.23, 134.71 28.63, 128.05 41.78 C121.38 54.93, 89.13 23.14, 75.55 29.23 C61.97 35.32, 64.07 77.07, 46.57 78.34 C29.08 79.61, -21.47 49.95, -29.42 36.86 C-37.37 23.78, -6.2 6.09, -1.15 -0.18 M-0.59 -0.08 C3.43 -9.06, 5.51 -44.52, 24.77 -52.63 C44.03 -60.74, 97.76 -64.58, 114.97 -48.73 C132.17 -32.88, 134.29 29.39, 128 42.45 C121.7 55.51, 91.09 23.27, 77.22 29.64 C63.34 36.01, 62.43 79.16, 44.75 80.66 C27.06 82.16, -21.58 52.19, -28.9 38.64 C-36.21 25.1, -3.88 5.64, 0.88 -0.61" stroke="#1e1e1e" stroke-width="4" fill="none"></path></g></g><mask></mask><g stroke-linecap="round"><g transform="translate(127.37249480353648 74.57848385330271) rotate(0 43.79327051300493 117.57112263851695)"><path d="M-0.74 -0.42 C8.34 -2.3, 29.55 -22.35, 54.86 -10.24 C80.17 1.86, 140.05 29.6, 151.13 72.22 C162.2 114.84, 150.8 224.48, 121.31 245.49 C91.83 266.5, 4.9 218.35, -25.78 198.27 C-56.47 178.19, -66.94 158.09, -62.8 125.02 C-58.66 91.94, -11.21 20.84, -0.93 -0.18 M1.07 -1.69 C9.93 -3.51, 28.79 -21.62, 53.71 -9.11 C78.63 3.39, 139.36 31.26, 150.58 73.34 C161.8 115.43, 150.59 222.49, 121.04 243.39 C91.49 264.3, 4.28 218.72, -26.7 198.78 C-57.69 178.83, -69.33 157.14, -64.88 123.74 C-60.42 90.34, -10.45 18.73, 0.05 -1.62" stroke="#2f9e44" stroke-width="2" fill="none"></path></g></g><mask></mask><g transform="translate(150.0924715565502 235.67343003097903) rotate(0 4.108333110809326 12.5)"><text x="0" y="17.619999999999997" font-family="'Virgil 3 YOFF'" font-size="20px" fill="#1971c2" text-anchor="start" style="white-space: pre;" direction="ltr" dominant-baseline="alphabetic">-</text></g><g transform="translate(165.8738302999759 237.2515659053215) rotate(0 4.108333110809326 12.5)"><text x="0" y="17.619999999999997" font-family="'Virgil 3 YOFF'" font-size="20px" fill="#1971c2" text-anchor="start" style="white-space: pre;" direction="ltr" dominant-baseline="alphabetic">-</text></g><g transform="translate(181.6551890434007 208.84512016715598) rotate(0 4.108333110809326 12.5)"><text x="0" y="17.619999999999997" font-family="'Virgil 3 YOFF'" font-size="20px" fill="#1971c2" text-anchor="start" style="white-space: pre;" direction="ltr" dominant-baseline="alphabetic">-</text></g><g transform="translate(199.8037515983401 193.0637614237312) rotate(0 4.108333110809326 12.5)"><text x="0" y="17.619999999999997" font-family="'Virgil 3 YOFF'" font-size="20px" fill="#1971c2" text-anchor="start" style="white-space: pre;" direction="ltr" dominant-baseline="alphabetic">-</text></g><g transform="translate(218.74138209044986 194.64189729807367) rotate(0 4.108333110809326 12.5)"><text x="0" y="17.619999999999997" font-family="'Virgil 3 YOFF'" font-size="20px" fill="#1971c2" text-anchor="start" style="white-space: pre;" direction="ltr" dominant-baseline="alphabetic">-</text></g><g transform="translate(239.2571484569021 208.05605222998474) rotate(0 4.108333110809326 12.5)"><text x="0" y="17.619999999999997" font-family="'Virgil 3 YOFF'" font-size="20px" fill="#1971c2" text-anchor="start" style="white-space: pre;" direction="ltr" dominant-baseline="alphabetic">-</text></g><g transform="translate(245.569691954272 182.80587824050463) rotate(0 4.108333110809326 12.5)"><text x="0" y="17.619999999999997" font-family="'Virgil 3 YOFF'" font-size="20px" fill="#1971c2" text-anchor="start" style="white-space: pre;" direction="ltr" dominant-baseline="alphabetic">-</text></g><g transform="translate(242.41342020558704 198.58723698392987) rotate(0 4.108333110809326 12.5)"><text x="0" y="17.619999999999997" font-family="'Virgil 3 YOFF'" font-size="20px" fill="#1971c2" text-anchor="start" style="white-space: pre;" direction="ltr" dominant-baseline="alphabetic">-</text></g><g transform="translate(240.83528433124457 155.1885004395108) rotate(0 4.108333110809326 12.5)"><text x="0" y="17.619999999999997" font-family="'Virgil 3 YOFF'" font-size="20px" fill="#1971c2" text-anchor="start" style="white-space: pre;" direction="ltr" dominant-baseline="alphabetic">-</text></g><g transform="translate(230.57740114801845 133.88366613588687) rotate(0 4.108333110809326 12.5)"><text x="0" y="17.619999999999997" font-family="'Virgil 3 YOFF'" font-size="20px" fill="#1971c2" text-anchor="start" style="white-space: pre;" direction="ltr" dominant-baseline="alphabetic">-</text></g><g transform="translate(206.90536303288036 122.04764707831782) rotate(0 4.108333110809326 12.5)"><text x="0" y="17.619999999999997" font-family="'Virgil 3 YOFF'" font-size="20px" fill="#1971c2" text-anchor="start" style="white-space: pre;" direction="ltr" dominant-baseline="alphabetic">-</text></g><g transform="translate(184.02239285491441 118.89137532963287) rotate(0 4.108333110809326 12.5)"><text x="0" y="17.619999999999997" font-family="'Virgil 3 YOFF'" font-size="20px" fill="#1971c2" text-anchor="start" style="white-space: pre;" direction="ltr" dominant-baseline="alphabetic">-</text></g><g transform="translate(221.10858590196267 121.25857914114658) rotate(0 4.108333110809326 12.5)"><text x="0" y="17.619999999999997" font-family="'Virgil 3 YOFF'" font-size="20px" fill="#1971c2" text-anchor="start" style="white-space: pre;" direction="ltr" dominant-baseline="alphabetic">-</text></g><g transform="translate(247.93689576578663 164.65731568556566) rotate(0 4.108333110809326 12.5)"><text x="0" y="17.619999999999997" font-family="'Virgil 3 YOFF'" font-size="20px" fill="#1971c2" text-anchor="start" style="white-space: pre;" direction="ltr" dominant-baseline="alphabetic">-</text></g><g transform="translate(178.49891729471574 225.41554684775247) rotate(0 4.108333110809326 12.5)"><text x="0" y="17.619999999999997" font-family="'Virgil 3 YOFF'" font-size="20px" fill="#1971c2" text-anchor="start" style="white-space: pre;" direction="ltr" dominant-baseline="alphabetic">-</text></g><g transform="translate(71.1612147617484 46.29712510987747) rotate(0 6.5 12.5)"><text x="0" y="17.619999999999997" font-family="'Virgil 3 YOFF'" font-size="20px" fill="#e03131" text-anchor="start" style="white-space: pre;" direction="ltr" dominant-baseline="alphabetic">+</text></g><g transform="translate(98.77859256274178 36.828309863822824) rotate(0 6.5 12.5)"><text x="0" y="17.619999999999997" font-family="'Virgil 3 YOFF'" font-size="20px" fill="#e03131" text-anchor="start" style="white-space: pre;" direction="ltr" dominant-baseline="alphabetic">+</text></g><g transform="translate(136.65385354696218 18.67974730888409) rotate(0 6.5 12.5)"><text x="0" y="17.619999999999997" font-family="'Virgil 3 YOFF'" font-size="20px" fill="#e03131" text-anchor="start" style="white-space: pre;" direction="ltr" dominant-baseline="alphabetic">+</text></g><g transform="translate(178.47445421703878 10) rotate(0 6.5 12.5)"><text x="0" y="17.619999999999997" font-family="'Virgil 3 YOFF'" font-size="20px" fill="#e03131" text-anchor="start" style="white-space: pre;" direction="ltr" dominant-baseline="alphabetic">+</text></g><g transform="translate(220.29505488711538 15.523475560198676) rotate(0 6.5 12.5)"><text x="0" y="17.619999999999997" font-family="'Virgil 3 YOFF'" font-size="20px" fill="#e03131" text-anchor="start" style="white-space: pre;" direction="ltr" dominant-baseline="alphabetic">+</text></g><g transform="translate(247.12336475093753 30.51576636645268) rotate(0 6.5 12.5)"><text x="0" y="17.619999999999997" font-family="'Virgil 3 YOFF'" font-size="20px" fill="#e03131" text-anchor="start" style="white-space: pre;" direction="ltr" dominant-baseline="alphabetic">+</text></g><g transform="translate(275.52981048910306 45.50805717270623) rotate(0 6.5 12.5)"><text x="0" y="17.619999999999997" font-family="'Virgil 3 YOFF'" font-size="20px" fill="#e03131" text-anchor="start" style="white-space: pre;" direction="ltr" dominant-baseline="alphabetic">+</text></g><g transform="translate(290.5221012953566 66.8128914763306) rotate(0 6.5 12.5)"><text x="0" y="17.619999999999997" font-family="'Virgil 3 YOFF'" font-size="20px" fill="#e03131" text-anchor="start" style="white-space: pre;" direction="ltr" dominant-baseline="alphabetic">+</text></g><g transform="translate(318.9285470335212 101.5318807118656) rotate(0 6.5 12.5)"><text x="0" y="17.619999999999997" font-family="'Virgil 3 YOFF'" font-size="20px" fill="#e03131" text-anchor="start" style="white-space: pre;" direction="ltr" dominant-baseline="alphabetic">+</text></g><g transform="translate(330.7645660910907 125.99298676417447) rotate(0 6.5 12.5)"><text x="0" y="17.619999999999997" font-family="'Virgil 3 YOFF'" font-size="20px" fill="#e03131" text-anchor="start" style="white-space: pre;" direction="ltr" dominant-baseline="alphabetic">+</text></g><g transform="translate(342.60058514866023 206.47791635564226) rotate(0 6.5 12.5)"><text x="0" y="17.619999999999997" font-family="'Virgil 3 YOFF'" font-size="20px" fill="#e03131" text-anchor="start" style="white-space: pre;" direction="ltr" dominant-baseline="alphabetic">+</text></g><g transform="translate(328.397362279577 230.93902240795114) rotate(0 6.5 12.5)"><text x="0" y="17.619999999999997" font-family="'Virgil 3 YOFF'" font-size="20px" fill="#e03131" text-anchor="start" style="white-space: pre;" direction="ltr" dominant-baseline="alphabetic">+</text></g><g transform="translate(316.5613432220084 259.3454681461167) rotate(0 6.5 12.5)"><text x="0" y="17.619999999999997" font-family="'Virgil 3 YOFF'" font-size="20px" fill="#e03131" text-anchor="start" style="white-space: pre;" direction="ltr" dominant-baseline="alphabetic">+</text></g><g transform="translate(297.62371272989867 287.7519138842813) rotate(0 6.5 12.5)"><text x="0" y="17.619999999999997" font-family="'Virgil 3 YOFF'" font-size="20px" fill="#e03131" text-anchor="start" style="white-space: pre;" direction="ltr" dominant-baseline="alphabetic">+</text></g><g transform="translate(273.95167461475967 313.00208787376187) rotate(0 6.5 12.5)"><text x="0" y="17.619999999999997" font-family="'Virgil 3 YOFF'" font-size="20px" fill="#e03131" text-anchor="start" style="white-space: pre;" direction="ltr" dominant-baseline="alphabetic">+</text></g><g transform="translate(224.24039457297067 334.30692217738533) rotate(0 6.5 12.5)"><text x="0" y="17.619999999999997" font-family="'Virgil 3 YOFF'" font-size="20px" fill="#e03131" text-anchor="start" style="white-space: pre;" direction="ltr" dominant-baseline="alphabetic">+</text></g><g transform="translate(172.9509786568392 342.1976015490982) rotate(0 6.5 12.5)"><text x="0" y="17.619999999999997" font-family="'Virgil 3 YOFF'" font-size="20px" fill="#e03131" text-anchor="start" style="white-space: pre;" direction="ltr" dominant-baseline="alphabetic">+</text></g><g transform="translate(127.18503830090731 333.5178542402141) rotate(0 6.5 12.5)"><text x="0" y="17.619999999999997" font-family="'Virgil 3 YOFF'" font-size="20px" fill="#e03131" text-anchor="start" style="white-space: pre;" direction="ltr" dominant-baseline="alphabetic">+</text></g><g transform="translate(89.3097773166869 309.05674818790567) rotate(0 6.5 12.5)"><text x="0" y="17.619999999999997" font-family="'Virgil 3 YOFF'" font-size="20px" fill="#e03131" text-anchor="start" style="white-space: pre;" direction="ltr" dominant-baseline="alphabetic">+</text></g><g transform="translate(60.114263641351044 278.2830986382264) rotate(0 6.5 12.5)"><text x="0" y="17.619999999999997" font-family="'Virgil 3 YOFF'" font-size="20px" fill="#e03131" text-anchor="start" style="white-space: pre;" direction="ltr" dominant-baseline="alphabetic">+</text></g><g transform="translate(41.96570108641163 259.3454681461167) rotate(0 6.5 12.5)"><text x="0" y="17.619999999999997" font-family="'Virgil 3 YOFF'" font-size="20px" fill="#e03131" text-anchor="start" style="white-space: pre;" direction="ltr" dominant-baseline="alphabetic">+</text></g><g transform="translate(28.551546154499647 223.83741097341) rotate(0 6.5 12.5)"><text x="0" y="17.619999999999997" font-family="'Virgil 3 YOFF'" font-size="20px" fill="#e03131" text-anchor="start" style="white-space: pre;" direction="ltr" dominant-baseline="alphabetic">+</text></g><g transform="translate(20.660866782787252 185.17308205201834) rotate(0 6.5 12.5)"><text x="0" y="17.619999999999997" font-family="'Virgil 3 YOFF'" font-size="20px" fill="#e03131" text-anchor="start" style="white-space: pre;" direction="ltr" dominant-baseline="alphabetic">+</text></g><g transform="translate(19.082730908444773 151.2431607536546) rotate(0 6.5 12.5)"><text x="0" y="17.619999999999997" font-family="'Virgil 3 YOFF'" font-size="20px" fill="#e03131" text-anchor="start" style="white-space: pre;" direction="ltr" dominant-baseline="alphabetic">+</text></g><g transform="translate(29.340614091671796 119.68044326680456) rotate(0 6.5 12.5)"><text x="0" y="17.619999999999997" font-family="'Virgil 3 YOFF'" font-size="20px" fill="#e03131" text-anchor="start" style="white-space: pre;" direction="ltr" dominant-baseline="alphabetic">+</text></g><g transform="translate(37.23129346338419 98.37560896318018) rotate(0 6.5 12.5)"><text x="0" y="17.619999999999997" font-family="'Virgil 3 YOFF'" font-size="20px" fill="#e03131" text-anchor="start" style="white-space: pre;" direction="ltr" dominant-baseline="alphabetic">+</text></g><g transform="translate(50.64544839529526 77.07077465955672) rotate(0 6.5 12.5)"><text x="0" y="17.619999999999997" font-family="'Virgil 3 YOFF'" font-size="20px" fill="#e03131" text-anchor="start" style="white-space: pre;" direction="ltr" dominant-baseline="alphabetic">+</text></g><g transform="translate(281.8980888128349 198.84512016715598) rotate(0 13.016666412353516 22.5)"><text x="0" y="31.716" font-family="'Virgil 3 YOFF'" font-size="36px" fill="#2f9e44" text-anchor="start" style="white-space: pre;" direction="ltr" dominant-baseline="alphabetic">Σ</text></g><g stroke-linecap="round" transform="translate(175.505638970983 155.06341344477073) rotate(0 14.992290806254005 14.992290806254005)"><path d="M16.86 0.59 C19.95 0.86, 23.79 2.58, 25.94 4.84 C28.08 7.1, 29.59 11.06, 29.75 14.17 C29.91 17.29, 28.75 21.05, 26.9 23.55 C25.05 26.04, 21.82 28.28, 18.64 29.13 C15.46 29.97, 10.73 29.95, 7.8 28.59 C4.86 27.24, 2.3 23.99, 1.04 21.01 C-0.23 18.02, -0.77 13.82, 0.23 10.68 C1.22 7.54, 4.24 3.91, 7.01 2.18 C9.79 0.46, 15.12 0.62, 16.9 0.33 C18.68 0.04, 17.58 0.17, 17.69 0.47 M15.33 0.28 C18.33 0.15, 21.88 1.94, 24.41 3.92 C26.93 5.9, 29.95 9.13, 30.48 12.18 C31.01 15.24, 29.44 19.3, 27.58 22.26 C25.73 25.22, 22.45 28.95, 19.35 29.94 C16.26 30.93, 11.84 29.48, 9.02 28.21 C6.19 26.94, 3.8 24.91, 2.38 22.32 C0.97 19.72, -0.05 15.72, 0.53 12.65 C1.11 9.59, 3.42 6.14, 5.86 3.92 C8.31 1.69, 13.74 -0.01, 15.19 -0.69 C16.65 -1.37, 14.5 -0.53, 14.6 -0.16" stroke="#f08c00" stroke-width="2" fill="none"></path></g><g transform="translate(180.8416580285525 155.1885004395108) rotate(0 6.5 12.5)"><text x="0" y="17.619999999999997" font-family="'Virgil 3 YOFF'" font-size="20px" fill="#e03131" text-anchor="start" style="white-space: pre;" direction="ltr" dominant-baseline="alphabetic">+</text></g><g transform="translate(191.88860914894985 154.39943250233955) rotate(0 6.5 12.5)"><text x="0" y="17.619999999999997" font-family="'Virgil 3 YOFF'" font-size="20px" fill="#e03131" text-anchor="start" style="white-space: pre;" direction="ltr" dominant-baseline="alphabetic">+</text></g><g transform="translate(186.36513358875118 161.5010439368807) rotate(0 6.5 12.5)"><text x="0" y="17.619999999999997" font-family="'Virgil 3 YOFF'" font-size="20px" fill="#e03131" text-anchor="start" style="white-space: pre;" direction="ltr" dominant-baseline="alphabetic">+</text></g><g transform="translate(207.85742439500473 157.696209633257) rotate(0 8.5 17.5)"><text x="0" y="24.668" font-family="'Virgil 3 YOFF'" font-size="28px" fill="#f08c00" text-anchor="start" style="white-space: pre;" direction="ltr" dominant-baseline="alphabetic">q</text></g></svg>