<svg version="1.1" xmlns="http://www.w3.org/2000/svg" viewBox="0 0 634.9863873064892 366.65235404322266" width="1269.9727746129784" height="733.3047080864453">
  <!-- svg-source:excalidraw -->
  <g stroke-linecap="round"><g transform="translate(45.64872873203058 272.2997869558185) rotate(0 0 -34.04059688905545)"><path d="M0.07 1.09 C-0.15 -10.07, -0.55 -55.17, -0.63 -66.88 M-1.36 0.61 C-1.23 -10.85, 1.76 -56.87, 1.75 -68.37" stroke="#1e1e1e" stroke-width="2" fill="none"></path></g></g><mask></mask><g stroke-linecap="round"><g transform="translate(11.974159766513367 201.29036978940167) rotate(0 36.23676443028489 0)"><path d="M-0.63 1.2 C11.37 0.84, 59.85 -1.05, 72.06 -1.09 M1.24 0.78 C13.04 1.05, 59.11 0.15, 70.9 -0.12" stroke="#1e1e1e" stroke-width="2" fill="none"></path></g></g><mask></mask><g stroke-linecap="round"><g transform="translate(44.866631162955855 105.3117736728409) rotate(0 0 34.04059688905545)"><path d="M-0.41 -1.09 C-0.28 10.23, 0.26 57.52, 0.18 69.09 M1.58 0.96 C1.62 12.46, -0.67 56.03, -0.68 67.49" stroke="#1e1e1e" stroke-width="2" fill="none"></path></g></g><mask></mask><g stroke-linecap="round"><g transform="translate(11.192062197439554 176.32119083925772) rotate(0 36.23676443028489 0)"><path d="M0.18 1 C12.17 1.22, 59.7 0.42, 71.58 0.21 M-1.19 0.49 C11.22 0.41, 61.31 -1.87, 73.82 -1.81" stroke="#1e1e1e" stroke-width="2" fill="none"></path></g></g><mask></mask><g stroke-linecap="round"><g transform="translate(186.93550721778774 275.9600661912) rotate(0 0 -34.04059688905545)"><path d="M-0.52 -0.49 C-0.17 -11.89, 0.94 -56.18, 1.15 -67.45 M1.41 -1.79 C1.79 -13.62, 0.97 -58.4, 0.81 -69.24" stroke="#1e1e1e" stroke-width="2" fill="none"></path></g></g><mask></mask><g stroke-linecap="round"><g transform="translate(153.26093825227053 204.95064902478316) rotate(0 36.23676443028489 0)"><path d="M1.15 0.63 C13.45 0.71, 61.37 0.11, 73.27 -0.02 M0.3 -0.08 C12.56 0.24, 60.81 1.31, 72.74 1.5" stroke="#1e1e1e" stroke-width="2" fill="none"></path></g></g><mask></mask><g stroke-linecap="round"><g transform="translate(186.15340964871302 108.9720529082233) rotate(0 0 34.04059688905545)"><path d="M0.8 -0.02 C0.62 11.19, 0.2 56.43, 0.11 67.93 M-0.24 -1.08 C-0.67 10.27, -0.76 58.02, -0.78 69.39" stroke="#1e1e1e" stroke-width="2" fill="none"></path></g></g><mask></mask><g stroke-linecap="round"><g transform="translate(152.47884068319672 179.98147007464013) rotate(0 36.23676443028489 0)"><path d="M0.11 -0.15 C12.1 0, 60.68 0.9, 72.73 0.9 M-1.29 -1.28 C10.49 -1.45, 59.76 -1.14, 71.91 -0.75" stroke="#1e1e1e" stroke-width="2" fill="none"></path></g></g><mask></mask><g stroke-linecap="round"><g transform="translate(322.8988489655644 227.04507049720178) rotate(89.99999999999994 0 -34.04059688905545)"><path d="M0.92 0.23 C0.79 -10.91, -0.81 -55.48, -0.78 -66.89 M-0.06 -0.69 C0.2 -12.13, 1.36 -57.33, 1.52 -68.39" stroke="#1e1e1e" stroke-width="2" fill="none"></path></g></g><mask></mask><g stroke-linecap="round"><g transform="translate(323.23764881397483 194.76142753795966) rotate(89.99999999999994 36.23676443028489 0)"><path d="M-0.78 1.19 C11.33 1.13, 61.48 0.1, 73.58 -0.16 M1.01 0.77 C12.98 0.88, 61.59 1.29, 73.22 1.29" stroke="#1e1e1e" stroke-width="2" fill="none"></path></g></g><mask></mask><g stroke-linecap="round"><g transform="translate(457.25618252285585 122.96866386541524) rotate(89.99999999999994 0 69.57403759353451)"><path d="M1.11 -0.16 C1.14 22.77, -0.48 115.4, -0.62 138.78 M0.23 -1.3 C0.72 22.31, 1.86 116.85, 1.76 140.13" stroke="#1e1e1e" stroke-width="2" fill="none"></path></g></g><mask></mask><g stroke-linecap="round"><g transform="translate(349.4092072613839 194.48781941907964) rotate(89.99999999999994 36.23676443028489 0)"><path d="M-0.62 -0.36 C11.31 -0.17, 60.36 0.91, 72.73 1.02 M1.25 -1.6 C12.95 -1.7, 59.89 -1.12, 71.92 -0.56" stroke="#1e1e1e" stroke-width="2" fill="none"></path></g></g><mask></mask><g stroke-linecap="round"><g transform="translate(492.11279259798494 193.95746398387382) rotate(89.99999999999994 36.23676443028489 0)"><path d="M-0.62 -0.25 C11.37 -0.29, 60.45 -0.13, 72.5 -0.08 M1.25 -1.43 C13.04 -1.28, 59.42 0.95, 71.56 1.41" stroke="#1e1e1e" stroke-width="2" fill="none"></path></g></g><mask></mask><g stroke-linecap="round"><g transform="translate(589.7720973706778 156.69812579878362) rotate(89.99999999999994 0 34.04059688905545)"><path d="M0.02 -0.08 C-0.01 11.31, -0.98 56.85, -0.82 68.08 M-1.42 -1.17 C-1.02 10.44, 1.1 58.06, 1.46 69.62" stroke="#1e1e1e" stroke-width="2" fill="none"></path></g></g><mask></mask><g stroke-linecap="round"><g transform="translate(517.0429023038623 193.91757659138648) rotate(89.99999999999994 36.23676443028489 0)"><path d="M-0.82 0 C11.42 -0.12, 61.39 -0.71, 73.47 -0.8 M0.95 -1.04 C13.12 -1.02, 60.85 0.07, 73.05 0.32" stroke="#1e1e1e" stroke-width="2" fill="none"></path></g></g><mask></mask><g stroke-linecap="round"><g transform="translate(42.57109471126978 103.25149278710433) rotate(0 72.83955678410803 0)"><path d="M-0.16 0.61 C24.15 0.62, 121.03 -0.93, 145.32 -1.08 M-1.71 -0.12 C22.47 0.11, 119.78 -0.27, 144.18 -0.11" stroke="#1e1e1e" stroke-width="2" fill="none"></path></g></g><mask></mask><g stroke-linecap="round"><g transform="translate(115.04462357183957 97.39504601049248) rotate(0 0 -43.191294977511234)"><path d="M-0.77 1.02 C-0.84 -13.3, -0.05 -71.21, 0.13 -85.65 M1.03 0.51 C0.75 -14.18, -0.53 -72.71, -0.75 -87.4" stroke="#1e1e1e" stroke-width="2" fill="none"></path></g></g><mask></mask><g stroke-linecap="round"><g transform="translate(43.30315055834626 271.0359763235349) rotate(0 71.00941716641682 0)"><path d="M0.96 -0.23 C24.43 -0.01, 118.29 0.15, 141.99 0.2 M0 -1.39 C23.21 -1.47, 117.19 -2.29, 141.03 -1.82" stroke="#1e1e1e" stroke-width="2" fill="none"></path></g></g><mask></mask><g stroke-linecap="round"><g transform="translate(118.70490280722197 271.7680321706114) rotate(0 0 42.093211206896626)"><path d="M0.01 0.53 C-0.01 14.61, 0.22 69.68, 0.08 83.64 M-1.45 -0.23 C-1.64 14.07, -1.34 70.57, -0.83 84.88" stroke="#1e1e1e" stroke-width="2" fill="none"></path></g></g><mask></mask></svg>