<svg version="1.1" xmlns="http://www.w3.org/2000/svg" viewBox="0 0 547.0847715158875 604.6516824254263" width="1094.169543031775" height="1209.3033648508526">
  <!-- svg-source:excalidraw -->
  
    
  <g stroke-linecap="round" transform="translate(244.04670112527947 322.12435008391867) rotate(0 29.259426363094235 29.259426363094235)"><path d="M14.63 0 C22.93 -3.13, 31.1 0.74, 43.89 0 C53 -1.38, 58.44 4.62, 58.52 14.63 C61.4 19.39, 60.02 24.98, 58.52 43.89 C58.38 52.72, 56.95 55.36, 43.89 58.52 C34.16 62.1, 25.6 58.46, 14.63 58.52 C5.42 60.1, -0.86 54.93, 0 43.89 C0.13 34.97, 3.61 22.63, 0 14.63 C3.13 3.39, 6.61 3.14, 14.63 0" stroke="none" stroke-width="0" fill="#ffc9c9"></path><path d="M14.63 0 C26.21 1.23, 36.88 0.58, 43.89 0 M14.63 0 C24.01 1.17, 34.11 0.17, 43.89 0 M43.89 0 C54.57 -1.3, 58.47 3, 58.52 14.63 M43.89 0 C51.8 -1.41, 57.44 3.63, 58.52 14.63 M58.52 14.63 C57.32 23.16, 58.08 33, 58.52 43.89 M58.52 14.63 C59.25 26.38, 57.98 37.87, 58.52 43.89 M58.52 43.89 C57.18 55.12, 51.9 60.5, 43.89 58.52 M58.52 43.89 C56.63 53.56, 55.48 60.46, 43.89 58.52 M43.89 58.52 C36.16 60.07, 24.01 57.07, 14.63 58.52 M43.89 58.52 C33.09 59.04, 20.94 57.6, 14.63 58.52 M14.63 58.52 C4.6 60.42, -0.03 53.35, 0 43.89 M14.63 58.52 C6.42 58.08, 2.1 55.45, 0 43.89 M0 43.89 C0.2 33.72, -1.34 21.64, 0 14.63 M0 43.89 C-1.07 36.98, 0.37 31.67, 0 14.63 M0 14.63 C-1.84 5.52, 4.61 -1.95, 14.63 0 M0 14.63 C-0.27 5.44, 6.17 1.04, 14.63 0" stroke="#e03131" stroke-width="2" fill="none"></path></g><g transform="translate(266.8061274883735 338.88377644701313) rotate(0 6.5 12.5)"><text x="6.5" y="17.619999999999997" font-family="Virgil 3 YOFF" font-size="20px" fill="#e03131" text-anchor="middle" style="white-space: pre;" direction="ltr" dominant-baseline="alphabetic">N</text></g><g stroke-linecap="round" transform="translate(244.04670119897173 380.0580143199895) rotate(0 29.259426363094235 29.259426363094235)"><path d="M14.63 0 C28.72 2.59, 36.84 1.53, 43.89 0 C53.52 2.28, 57.58 3.98, 58.52 14.63 C60.97 25.78, 60.76 29.09, 58.52 43.89 C56.93 56.35, 50.18 62.11, 43.89 58.52 C32.43 59.7, 22.18 58.81, 14.63 58.52 C3.64 58.96, 2.52 55.92, 0 43.89 C1.89 36.92, 1.65 25.33, 0 14.63 C-0.21 8.31, 2.59 1.54, 14.63 0" stroke="none" stroke-width="0" fill="#a5d8ff"></path><path d="M14.63 0 C24.08 -0.13, 32.99 -0.37, 43.89 0 M14.63 0 C23.85 0.04, 32.46 -0.55, 43.89 0 M43.89 0 C54.81 1.8, 57.35 5.91, 58.52 14.63 M43.89 0 C51.49 -0.09, 57.93 6.99, 58.52 14.63 M58.52 14.63 C60.11 20.32, 60.27 26.65, 58.52 43.89 M58.52 14.63 C58.33 23.38, 59.43 30.93, 58.52 43.89 M58.52 43.89 C59.41 53.57, 54.98 60.38, 43.89 58.52 M58.52 43.89 C59.41 55.65, 52.69 59.63, 43.89 58.52 M43.89 58.52 C32.46 60.44, 20.7 57.01, 14.63 58.52 M43.89 58.52 C34.2 58.09, 24.77 58.49, 14.63 58.52 M14.63 58.52 C3.89 59.53, -1.9 52.1, 0 43.89 M14.63 58.52 C6.94 58.98, 1.22 55.75, 0 43.89 M0 43.89 C1.65 35.2, -1.62 23.85, 0 14.63 M0 43.89 C0.96 33.37, 0.19 21.63, 0 14.63 M0 14.63 C-0.15 5.2, 4.3 -1.06, 14.63 0 M0 14.63 C1.52 2.63, 5.94 -0.21, 14.63 0" stroke="#1971c2" stroke-width="2" fill="none"></path></g><g transform="translate(267.22279406978714 396.81744068308353) rotate(0 6.083333492279053 12.5)"><text x="6.083333492279053" y="17.619999999999997" font-family="Virgil 3 YOFF" font-size="20px" fill="#1971c2" text-anchor="middle" style="white-space: pre;" direction="ltr" dominant-baseline="alphabetic">S</text></g><g stroke-linecap="round"><g transform="translate(287.5587206207083 316.90225104525416) rotate(0 125.04475760408354 62.24884614181042)"><path d="M1.01 -0.25 C8.3 -19.74, 13.45 -92.47, 44.87 -116.71 C76.29 -140.94, 155.45 -172.63, 189.55 -145.66 C223.66 -118.7, 250.3 -24.08, 249.51 45.08 C248.71 114.23, 222 240.1, 184.79 269.26 C147.58 298.41, 56.85 244.03, 26.27 220.01 C-4.31 195.98, 5.27 140.76, 1.31 125.08 M0.09 -1.43 C7.11 -20.82, 12.36 -91.83, 43.85 -115.69 C75.34 -139.54, 154.77 -170.99, 189.03 -144.56 C223.3 -118.14, 249.86 -26.13, 249.45 42.86 C249.04 111.85, 223.54 239.99, 186.58 269.39 C149.61 298.79, 58.49 243.01, 27.64 219.28 C-3.21 195.54, 5.8 142.58, 1.48 126.97" stroke="#1e1e1e" stroke-width="2" fill="none"></path></g></g><mask></mask><g stroke-linecap="round"><g transform="translate(257.65418353482255 315.2077888856911) rotate(0 -122.58505661892195 59.870029032406364)"><path d="M1.04 -0.7 C-5.61 -20.19, -9.74 -93.74, -40.93 -118.1 C-72.11 -142.45, -151.65 -173.5, -186.07 -146.83 C-220.48 -120.15, -248.16 -27.06, -247.42 41.93 C-246.67 110.92, -219.19 237.92, -181.59 267.12 C-143.99 296.32, -52.38 241.23, -21.81 217.14 C8.76 193.05, -2.04 138.12, 1.81 122.58 M0.13 1.54 C-6.55 -17.64, -10.4 -91.51, -41.61 -116.56 C-72.82 -141.61, -152.78 -175.34, -187.12 -148.75 C-221.46 -122.16, -248.35 -26.38, -247.64 42.98 C-246.93 112.33, -220.2 238.52, -182.85 267.38 C-145.51 296.24, -54.48 239.98, -23.55 216.16 C7.37 192.33, -1.27 139.8, 2.7 124.41" stroke="#1e1e1e" stroke-width="2" fill="none"></path></g></g><mask></mask><g stroke-linecap="round"><g transform="translate(245.9981050694132 298.47309927681044) rotate(0 -6.244394912185953 -19.625241152584522)"><path d="M0 0 C-4.93 -15.06, -10.32 -30.6, -12.49 -39.25 M0 0 C-2.67 -9.55, -5.59 -17.74, -12.49 -39.25" stroke="#f08c00" stroke-width="2" fill="none"></path></g><g transform="translate(245.9981050694132 298.47309927681044) rotate(0 -6.244394912185953 -19.625241152584522)"><path d="M-11.53 -39.92 L-2.84 -28.07 L-13.91 -25.21 L-11.81 -38.36" stroke="none" stroke-width="0" fill="#f08c00" fill-rule="evenodd"></path><path d="M-12.49 -39.25 C-8.78 -34.81, -5.23 -30.79, -2.27 -28.27 M-12.49 -39.25 C-9.9 -37, -7.55 -33.78, -2.27 -28.27 M-2.27 -28.27 C-6.77 -27.47, -10.58 -26.04, -14.33 -24.36 M-2.27 -28.27 C-4.85 -27.52, -7.53 -26.52, -14.33 -24.36 M-14.33 -24.36 C-13.46 -27.22, -14.01 -30.52, -12.49 -39.25 M-14.33 -24.36 C-14.01 -28.31, -13.67 -31.91, -12.49 -39.25 M-12.49 -39.25 C-12.49 -39.25, -12.49 -39.25, -12.49 -39.25 M-12.49 -39.25 C-12.49 -39.25, -12.49 -39.25, -12.49 -39.25" stroke="#f08c00" stroke-width="2" fill="none"></path></g></g><mask></mask><g stroke-linecap="round"><g transform="translate(44.98805932476034 240.19208009640806) rotate(0 -8.028507744239278 21.706706123313097)"><path d="M0 0 C-4.93 11.47, -8.7 23.38, -16.06 43.41 M0 0 C-5.98 15.71, -11.53 30.47, -16.06 43.41" stroke="#f08c00" stroke-width="2" fill="none"></path></g><g transform="translate(44.98805932476034 240.19208009640806) rotate(0 -8.028507744239278 21.706706123313097)"><path d="M-15.34 43.05 L-17.63 29.36 L-5.94 32.68 L-15.16 42.63" stroke="none" stroke-width="0" fill="#f08c00" fill-rule="evenodd"></path><path d="M-16.06 43.41 C-17.07 39.58, -17.1 36.06, -17.45 28.48 M-16.06 43.41 C-16.64 38.45, -17.05 32.78, -17.45 28.48 M-17.45 28.48 C-14.23 30.1, -10.81 30.28, -5.51 32.75 M-17.45 28.48 C-14.91 29.36, -12.69 30.37, -5.51 32.75 M-5.51 32.75 C-8.44 35.85, -13.2 40.16, -16.06 43.41 M-5.51 32.75 C-8.82 36.13, -12.5 39.82, -16.06 43.41 M-16.06 43.41 C-16.06 43.41, -16.06 43.41, -16.06 43.41 M-16.06 43.41 C-16.06 43.41, -16.06 43.41, -16.06 43.41" stroke="#f08c00" stroke-width="2" fill="none"></path></g></g><mask></mask><g stroke-linecap="round"><g transform="translate(31.30986094568607 471.64674525039527) rotate(0 6.839099189537137 19.327889013908816)"><path d="M0 0 C3.46 10.06, 8.89 21.42, 13.68 38.66 M0 0 C2.94 9.7, 7.13 18.37, 13.68 38.66" stroke="#f08c00" stroke-width="2" fill="none"></path></g><g transform="translate(31.30986094568607 471.64674525039527) rotate(0 6.839099189537137 19.327889013908816)"><path d="M13.36 38.05 L3.23 27.83 L15.76 22.89 L13.55 38.9" stroke="none" stroke-width="0" fill="#f08c00" fill-rule="evenodd"></path><path d="M13.68 38.66 C10.26 34.86, 8.42 31.99, 3.28 27.84 M13.68 38.66 C10.83 36.3, 8.95 33.13, 3.28 27.84 M3.28 27.84 C7.51 26.59, 12.23 24.36, 15.28 23.74 M3.28 27.84 C7.94 26.41, 12.89 24.9, 15.28 23.74 M15.28 23.74 C14.54 28.21, 14.99 32.61, 13.68 38.66 M15.28 23.74 C15.25 28.04, 14.3 32.69, 13.68 38.66 M13.68 38.66 C13.68 38.66, 13.68 38.66, 13.68 38.66 M13.68 38.66 C13.68 38.66, 13.68 38.66, 13.68 38.66" stroke="#f08c00" stroke-width="2" fill="none"></path></g></g><mask></mask><g stroke-linecap="round"><g transform="translate(151.44012497059703 555.5000483568924) rotate(0 21.40935398463762 -7.731155605563572)"><path d="M0 0 C16.67 -5.49, 34.28 -11.28, 42.82 -15.46 M0 0 C12.98 -5.01, 26.79 -9.9, 42.82 -15.46" stroke="#f08c00" stroke-width="2" fill="none"></path></g><g transform="translate(151.44012497059703 555.5000483568924) rotate(0 21.40935398463762 -7.731155605563572)"><path d="M43.1 -15.49 L31.16 -5.75 L28.78 -17.54 L41.95 -14.99" stroke="none" stroke-width="0" fill="#f08c00" fill-rule="evenodd"></path><path d="M42.82 -15.46 C38.19 -10.96, 34.26 -6.48, 32.08 -4.99 M42.82 -15.46 C39.4 -12.27, 36.55 -9.13, 32.08 -4.99 M32.08 -4.99 C31.43 -8.62, 29.39 -11.67, 27.89 -16.96 M32.08 -4.99 C30.9 -7.26, 30.35 -10.27, 27.89 -16.96 M27.89 -16.96 C33.54 -16.77, 39.05 -14.97, 42.82 -15.46 M27.89 -16.96 C31.89 -16.37, 35.58 -16.2, 42.82 -15.46 M42.82 -15.46 C42.82 -15.46, 42.82 -15.46, 42.82 -15.46 M42.82 -15.46 C42.82 -15.46, 42.82 -15.46, 42.82 -15.46" stroke="#f08c00" stroke-width="2" fill="none"></path></g></g><mask></mask><g stroke-linecap="round"><g transform="translate(364.34425626227085 555.5000483568924) rotate(0 -17.54377618185572 -9.515268437616669)"><path d="M0 0 C-9.7 -5.34, -18.34 -10.71, -35.09 -19.03 M0 0 C-13.94 -7.67, -27.62 -15.66, -35.09 -19.03" stroke="#f08c00" stroke-width="2" fill="none"></path></g><g transform="translate(364.34425626227085 555.5000483568924) rotate(0 -17.54377618185572 -9.515268437616669)"><path d="M-34.89 -18.94 L-20.71 -19.21 L-25.86 -6.36 L-35.42 -18.87" stroke="none" stroke-width="0" fill="#f08c00" fill-rule="evenodd"></path><path d="M-35.09 -19.03 C-31.92 -19.15, -28.02 -19.48, -20.09 -18.58 M-35.09 -19.03 C-29.15 -18.81, -22.99 -18.95, -20.09 -18.58 M-20.09 -18.58 C-21.25 -14.96, -23.24 -12.39, -25.79 -7.26 M-20.09 -18.58 C-21.21 -16.12, -22.65 -13.68, -25.79 -7.26 M-25.79 -7.26 C-28.98 -10.97, -30.11 -13.98, -35.09 -19.03 M-25.79 -7.26 C-27.86 -9.94, -29.43 -12.1, -35.09 -19.03 M-35.09 -19.03 C-35.09 -19.03, -35.09 -19.03, -35.09 -19.03 M-35.09 -19.03 C-35.09 -19.03, -35.09 -19.03, -35.09 -19.03" stroke="#f08c00" stroke-width="2" fill="none"></path></g></g><mask></mask><g stroke-linecap="round"><g transform="translate(504.09976143976655 496.0296206217881) rotate(0 -7.731155605563572 20.517297568610957)"><path d="M0 0 C-4.26 10.75, -8.79 22.95, -15.46 41.03 M0 0 C-4.34 11.86, -9.83 24.6, -15.46 41.03" stroke="#f08c00" stroke-width="2" fill="none"></path></g><g transform="translate(504.09976143976655 496.0296206217881) rotate(0 -7.731155605563572 20.517297568610957)"><path d="M-14.52 41.52 L-17.35 25.57 L-4.41 30.59 L-16.33 41.39" stroke="none" stroke-width="0" fill="#f08c00" fill-rule="evenodd"></path><path d="M-15.46 41.03 C-15.92 36.47, -16.49 32.98, -16.81 26.1 M-15.46 41.03 C-15.46 36.37, -16.52 32.31, -16.81 26.1 M-16.81 26.1 C-11.94 27.92, -7.88 29.51, -4.89 30.4 M-16.81 26.1 C-13.84 26.95, -10.79 28.01, -4.89 30.4 M-4.89 30.4 C-8.64 33.4, -11.73 37.49, -15.46 41.03 M-4.89 30.4 C-7.11 32.81, -9.91 35.48, -15.46 41.03 M-15.46 41.03 C-15.46 41.03, -15.46 41.03, -15.46 41.03 M-15.46 41.03 C-15.46 41.03, -15.46 41.03, -15.46 41.03" stroke="#f08c00" stroke-width="2" fill="none"></path></g></g><mask></mask><g stroke-linecap="round"><g transform="translate(515.9938469867875 294.42487059978384) rotate(0 4.7576342188083345 25.27493178741952)"><path d="M0 0 C2.9 12.68, 2.76 22.12, 9.52 50.55 M0 0 C1.73 11.25, 4.51 24.67, 9.52 50.55" stroke="#f08c00" stroke-width="2" fill="none"></path></g><g transform="translate(515.9938469867875 294.42487059978384) rotate(0 4.7576342188083345 25.27493178741952)"><path d="M10.13 48.94 L-0.16 38.37 L14.79 36.27 L7.86 49.13" stroke="none" stroke-width="0" fill="#f08c00" fill-rule="evenodd"></path><path d="M9.52 50.55 C7.98 48.65, 4.28 44.45, 0.69 38.42 M9.52 50.55 C6.96 47.23, 5.29 45.52, 0.69 38.42 M0.69 38.42 C3.36 37.02, 7.35 36.94, 13.14 35.99 M0.69 38.42 C4.86 37.18, 9.96 36.77, 13.14 35.99 M13.14 35.99 C13.09 42.52, 9.43 46.81, 9.52 50.55 M13.14 35.99 C12.18 41.56, 11.32 45.88, 9.52 50.55 M9.52 50.55 C9.52 50.55, 9.52 50.55, 9.52 50.55 M9.52 50.55 C9.52 50.55, 9.52 50.55, 9.52 50.55" stroke="#f08c00" stroke-width="2" fill="none"></path></g></g><mask></mask><g stroke-linecap="round"><g transform="translate(319.74143546094274 291.4513492130286) rotate(0 11.002029130994288 -29.14050959020119)"><path d="M0 0 C8.24 -20.55, 18.64 -43.03, 22 -58.28 M0 0 C6.01 -19.42, 14.12 -37.49, 22 -58.28" stroke="#f08c00" stroke-width="2" fill="none"></path></g><g transform="translate(319.74143546094274 291.4513492130286) rotate(0 11.002029130994288 -29.14050959020119)"><path d="M20.79 -58.06 L21.47 -43.69 L9.41 -48.64 L23.01 -59.04" stroke="none" stroke-width="0" fill="#f08c00" fill-rule="evenodd"></path><path d="M22 -58.28 C21.98 -52.14, 24.04 -47.4, 22.94 -43.31 M22 -58.28 C22.04 -53.85, 23.11 -48.49, 22.94 -43.31 M22.94 -43.31 C21.54 -44.55, 17.13 -45.38, 11.14 -47.94 M22.94 -43.31 C18.44 -45.21, 15.02 -46.09, 11.14 -47.94 M11.14 -47.94 C14.82 -49.91, 18.1 -55.3, 22 -58.28 M11.14 -47.94 C14.04 -51.31, 16.2 -52.94, 22 -58.28 M22 -58.28 C22 -58.28, 22 -58.28, 22 -58.28 M22 -58.28 C22 -58.28, 22 -58.28, 22 -58.28" stroke="#f08c00" stroke-width="2" fill="none"></path></g></g><mask></mask><g stroke-linecap="round" transform="translate(136.57251803682084 117.64147420053905) rotate(0 141.83697014822405 33.60079167033405)"><path d="M192.76 1.46 C208.71 2.45, 225.4 5.91, 238 8.73 C250.61 11.56, 260.82 14.76, 268.38 18.42 C275.94 22.08, 281.74 26.53, 283.37 30.69 C285 34.86, 282.9 39.57, 278.17 43.43 C273.45 47.29, 265.19 50.88, 255 53.85 C244.81 56.82, 231.36 59.11, 217.03 61.24 C202.69 63.37, 185.74 65.6, 168.98 66.61 C152.23 67.63, 133.29 68, 116.5 67.34 C99.71 66.69, 82.83 64.86, 68.24 62.69 C53.66 60.51, 39.41 57.48, 29 54.28 C18.6 51.09, 10.43 47.59, 5.83 43.52 C1.22 39.46, -0.08 34.1, 1.36 29.87 C2.8 25.64, 6.99 21.67, 14.45 18.14 C21.9 14.61, 33.37 11.27, 46.06 8.71 C58.76 6.16, 74.54 4.14, 90.63 2.82 C106.72 1.51, 122.25 0.65, 142.6 0.83 C162.95 1, 198.2 2.66, 212.74 3.89 C227.27 5.11, 230.94 7.59, 229.79 8.18 M88.64 1.87 C102.71 0.06, 120.96 -0.26, 137.82 -0.27 C154.68 -0.29, 173.41 0.23, 189.79 1.79 C206.16 3.34, 223.15 6.42, 236.06 9.06 C248.97 11.71, 259.34 14.27, 267.26 17.64 C275.18 21.02, 281.53 25.13, 283.6 29.34 C285.67 33.55, 284.04 38.99, 279.7 42.9 C275.35 46.81, 267.55 49.7, 257.54 52.8 C247.53 55.9, 234.34 59.27, 219.63 61.49 C204.92 63.72, 186.19 65.08, 169.27 66.15 C152.35 67.22, 134.5 68.69, 118.11 67.9 C101.72 67.12, 85.62 63.91, 70.91 61.43 C56.2 58.95, 40.62 55.92, 29.85 53.03 C19.09 50.14, 11.07 47.77, 6.32 44.11 C1.58 40.44, -0.07 35.3, 1.4 31.03 C2.86 26.77, 7.75 21.95, 15.11 18.52 C22.47 15.1, 33.6 13.18, 45.55 10.45 C57.5 7.73, 79.78 3.16, 86.82 2.18 C93.86 1.2, 86.53 3.87, 87.8 4.55" stroke="#e03131" stroke-width="2" fill="none"></path></g><g stroke-linecap="round"><g transform="translate(138.55041425002355 159.48364846750974) rotate(0 -37.265909025014935 -35.491341928585825)"><path d="M0 0 C-20.94 -17.77, -39.89 -33.36, -74.53 -70.98 M0 0 C-28.18 -25.82, -56.18 -53.63, -74.53 -70.98" stroke="#f08c00" stroke-width="2" fill="none"></path></g><g transform="translate(138.55041425002355 159.48364846750974) rotate(0 -37.265909025014935 -35.491341928585825)"><path d="M-75.28 -69.27 L-61.59 -67.44 L-70.31 -55.66 L-74.95 -70.34" stroke="none" stroke-width="0" fill="#f08c00" fill-rule="evenodd"></path><path d="M-74.53 -70.98 C-72.01 -70.22, -68.52 -67.25, -60.33 -66.14 M-74.53 -70.98 C-69.33 -68.82, -64.22 -68.04, -60.33 -66.14 M-60.33 -66.14 C-64.37 -61.7, -66.85 -60.01, -69.11 -57 M-60.33 -66.14 C-63.19 -62.29, -66.65 -59.53, -69.11 -57 M-69.11 -57 C-69.34 -58.69, -72.48 -62.15, -74.53 -70.98 M-69.11 -57 C-70.31 -60.44, -70.82 -63.14, -74.53 -70.98 M-74.53 -70.98 C-74.53 -70.98, -74.53 -70.98, -74.53 -70.98 M-74.53 -70.98 C-74.53 -70.98, -74.53 -70.98, -74.53 -70.98" stroke="#f08c00" stroke-width="2" fill="none"></path></g></g><mask></mask><g stroke-linecap="round"><g transform="translate(419.24285840174207 159.38579746613414) rotate(0 54.322537066032965 -38.41593781465326)"><path d="M0 0 C42.34 -29.42, 84.72 -60.72, 108.65 -76.83 M0 0 C28.96 -20.33, 58.75 -42.09, 108.65 -76.83" stroke="#f08c00" stroke-width="2" fill="none"></path></g><g transform="translate(419.24285840174207 159.38579746613414) rotate(0 54.322537066032965 -38.41593781465326)"><path d="M109.81 -74.96 L102.09 -65.43 L93.07 -73.09 L110.11 -76.73" stroke="none" stroke-width="0" fill="#f08c00" fill-rule="evenodd"></path><path d="M108.65 -76.83 C105.96 -71.31, 103.81 -67.85, 101.16 -63.83 M108.65 -76.83 C106.04 -72.94, 104.32 -70.17, 101.16 -63.83 M101.16 -63.83 C100.47 -67.25, 96.74 -69.8, 93.88 -74.21 M101.16 -63.83 C97.91 -68.07, 95.93 -71.18, 93.88 -74.21 M93.88 -74.21 C97.03 -74.98, 100.04 -74.69, 108.65 -76.83 M93.88 -74.21 C97.94 -75.39, 100.83 -75.29, 108.65 -76.83 M108.65 -76.83 C108.65 -76.83, 108.65 -76.83, 108.65 -76.83 M108.65 -76.83 C108.65 -76.83, 108.65 -76.83, 108.65 -76.83" stroke="#f08c00" stroke-width="2" fill="none"></path></g></g><mask></mask><g transform="translate(489.8268587833418 114.66795281378427) rotate(0 8 12.5)"><text x="0" y="17.619999999999997" font-family="Virgil 3 YOFF" font-size="20px" fill="#f08c00" text-anchor="start" style="white-space: pre;" direction="ltr" dominant-baseline="alphabetic">B</text></g><g transform="translate(72.07561168847224 124.7667153531238) rotate(0 8 12.5)"><text x="0" y="17.619999999999997" font-family="Virgil 3 YOFF" font-size="20px" fill="#f08c00" text-anchor="start" style="white-space: pre;" direction="ltr" dominant-baseline="alphabetic">B</text></g><g stroke-linecap="round"><g transform="translate(275.73331885032303 317.46211091135274) rotate(0 0 -153.73105545567637)"><path d="M0 0 C1.49 -66.43, 1.19 -134.81, 0 -307.46 M0 0 C1.79 -90.95, 1.13 -182.44, 0 -307.46" stroke="#1e1e1e" stroke-width="2" fill="none"></path></g><g transform="translate(275.73331885032303 317.46211091135274) rotate(0 0 -153.73105545567637)"><path d="M1.79 -307.11 L7.52 -295.19 L-6.2 -295.68 L-0.97 -308.74" stroke="none" stroke-width="0" fill="#1e1e1e" fill-rule="evenodd"></path><path d="M0 -307.46 C1 -303.99, 2.09 -302.55, 6.45 -293.92 M0 -307.46 C1.76 -302.78, 3 -298.67, 6.45 -293.92 M6.45 -293.92 C1.99 -293.28, 0.56 -293.67, -6.23 -293.82 M6.45 -293.92 C3.79 -294.45, 1.01 -293.75, -6.23 -293.82 M-6.23 -293.82 C-5.42 -298.84, -1.34 -301.55, 0 -307.46 M-6.23 -293.82 C-3.93 -297.73, -3.7 -300.86, 0 -307.46 M0 -307.46 C0 -307.46, 0 -307.46, 0 -307.46 M0 -307.46 C0 -307.46, 0 -307.46, 0 -307.46" stroke="#1e1e1e" stroke-width="2" fill="none"></path></g></g><mask></mask><g transform="translate(293.57444725749656 15.648912687302982) rotate(0 5 10)"><text x="0" y="14.096" font-family="Virgil 3 YOFF" font-size="16px" fill="#1e1e1e" text-anchor="start" style="white-space: pre;" direction="ltr" dominant-baseline="alphabetic">z</text></g><g stroke-linecap="round"><g transform="translate(139.54603942357608 158.8514606383087) rotate(0 35.384904502387144 0)"><path d="M1.18 -0.48 C12.91 -0.57, 58.45 0.4, 69.96 0.48" stroke="#1e1e1e" stroke-width="1.5" fill="none" stroke-dasharray="8 9"></path></g></g><mask></mask><g stroke-linecap="round"><g transform="translate(209.12643987364845 158.8514606383087) rotate(0 0 -33.30343953165857)"><path d="M1.2 -0.75 C1.26 -12.02, 0.44 -55.98, 0.35 -67.05" stroke="#1e1e1e" stroke-width="1.5" fill="none" stroke-dasharray="8 9"></path></g></g><mask></mask><g stroke-linecap="round"><g transform="translate(338.1772680588251 91.64987729764061) rotate(0 0 32.41138311563191)"><path d="M0.7 0.82 C0.71 11.57, -0.12 53.32, -0.24 64" stroke="#1e1e1e" stroke-width="1.5" fill="none" stroke-dasharray="8 9"></path></g></g><mask></mask><g stroke-linecap="round"><g transform="translate(337.58256378147416 154.6885306968511) rotate(0 40.14253872119548 0)"><path d="M-0.61 0.06 C12.77 0.24, 66.47 0.19, 79.78 0.25" stroke="#1e1e1e" stroke-width="1.5" fill="none" stroke-dasharray="8 9"></path></g></g><mask></mask><g stroke-linecap="round"><g transform="translate(388.7831165766297 128.82128801302905) rotate(0 -24.708219981551338 -19.18040963504518)"><path d="M0 0 C-10.08 -7.9, -22.05 -15.92, -49.42 -38.36 M0 0 C-13.06 -10.34, -26.55 -20.19, -49.42 -38.36" stroke="#2f9e44" stroke-width="2" fill="none"></path></g><g transform="translate(388.7831165766297 128.82128801302906) rotate(0 -24.708219981551338 -19.18040963504518)"><path d="M-49.91 -39.18 L-35.76 -34.48 L-43.01 -25.06 L-50.41 -37.4" stroke="none" stroke-width="0" fill="#2f9e44" fill-rule="evenodd"></path><path d="M-49.42 -38.36 C-45.62 -37.11, -43.4 -36.15, -34.81 -34.96 M-49.42 -38.36 C-45.55 -37.38, -41.9 -36.2, -34.81 -34.96 M-34.81 -34.96 C-36.7 -32.24, -39.22 -29.18, -42.63 -24.98 M-34.81 -34.96 C-37.4 -31.23, -40.17 -28.29, -42.63 -24.98 M-42.63 -24.98 C-43.76 -28.96, -46.74 -32.12, -49.42 -38.36 M-42.63 -24.98 C-45.1 -29.83, -47.07 -34.09, -49.42 -38.36 M-49.42 -38.36 C-49.42 -38.36, -49.42 -38.36, -49.42 -38.36 M-49.42 -38.36 C-49.42 -38.36, -49.42 -38.36, -49.42 -38.36" stroke="#2f9e44" stroke-width="2" fill="none"></path></g></g><mask></mask><g stroke-linecap="round"><g transform="translate(169.84237993883607 128.7575324582981) rotate(0 22.02084707681024 -19.445883996355406)"><path d="M0 0 C13.62 -10.49, 25.56 -22.97, 44.04 -38.89 M0 0 C16.81 -15.29, 34.54 -30.02, 44.04 -38.89" stroke="#2f9e44" stroke-width="2" fill="none"></path></g><g transform="translate(169.84237993883607 128.7575324582981) rotate(0 22.02084707681024 -19.445883996355406)"><path d="M44.11 -39.58 L38.94 -25.28 L29.39 -34.87 L44.56 -39.01" stroke="none" stroke-width="0" fill="#2f9e44" fill-rule="evenodd"></path><path d="M44.04 -38.89 C42.83 -34.35, 40.49 -31.25, 38.14 -25.1 M44.04 -38.89 C41.6 -33.6, 39.68 -27.85, 38.14 -25.1 M38.14 -25.1 C36.57 -27.62, 35 -28.51, 29.68 -34.55 M38.14 -25.1 C35.01 -28.12, 32.29 -31.45, 29.68 -34.55 M29.68 -34.55 C31.98 -35.86, 35.64 -36.96, 44.04 -38.89 M29.68 -34.55 C35.64 -36.21, 40.86 -38.07, 44.04 -38.89 M44.04 -38.89 C44.04 -38.89, 44.04 -38.89, 44.04 -38.89 M44.04 -38.89 C44.04 -38.89, 44.04 -38.89, 44.04 -38.89" stroke="#2f9e44" stroke-width="2" fill="none"></path></g></g><mask></mask><g transform="translate(157.98187202145846 93.31280723909822) rotate(0 12.191666666666606 12.5)"><text x="0" y="17.619999999999997" font-family="Virgil 3 YOFF" font-size="20px" fill="#2f9e44" text-anchor="start" style="white-space: pre;" direction="ltr" dominant-baseline="alphabetic">dF</text></g><g transform="translate(376.8930188016102 98.1804141728744) rotate(0 12.191666666666606 12.5)"><text x="0" y="17.619999999999997" font-family="Virgil 3 YOFF" font-size="20px" fill="#2f9e44" text-anchor="start" style="white-space: pre;" direction="ltr" dominant-baseline="alphabetic">dF</text></g><g stroke-linecap="round"><g transform="translate(277.51743176901846 153.4991221421492) rotate(0 0 60.95718842848214)"><path d="M0 0 C-0.5 50.15, -0.21 98.08, 0 121.91 M0 0 C0.41 26.34, 0.55 53.56, 0 121.91" stroke="#1971c2" stroke-width="4" fill="none"></path></g><g transform="translate(277.51743176901846 153.4991221421492) rotate(0 0 60.95718842848214)"><path d="M0.23 120.06 L-7.93 106.99 L6.23 109.47 L-1.95 120.57" stroke="none" stroke-width="0" fill="#1971c2" fill-rule="evenodd"></path><path d="M0 121.91 C-2.77 117.55, -5.05 111.49, -6.25 108.28 M0 121.91 C-1.78 118.33, -3.07 115.34, -6.25 108.28 M-6.25 108.28 C-2.55 108.13, 2.05 108.37, 6.42 108.36 M-6.25 108.28 C-2.62 108.4, 1.52 108.55, 6.42 108.36 M6.42 108.36 C5.63 113.47, 1.9 117.22, 0 121.91 M6.42 108.36 C5.45 111.82, 2.91 114.65, 0 121.91 M0 121.91 C0 121.91, 0 121.91, 0 121.91 M0 121.91 C0 121.91, 0 121.91, 0 121.91" stroke="#1971c2" stroke-width="4" fill="none"></path></g></g><mask></mask><g transform="translate(285.24858737458226 150.75675636095775) rotate(0 9 17.5)"><text x="0" y="24.668" font-family="Virgil 3 YOFF" font-size="28px" fill="#1971c2" text-anchor="start" style="white-space: pre;" direction="ltr" dominant-baseline="alphabetic">m</text></g><g stroke-linecap="round"><g transform="translate(292.70467156843097 117.87939106698695) rotate(0 16.24165445946892 0.6674652517590403)"><path d="M0 0 C11.62 -0.01, 23.39 0.07, 32.48 1.33 M0 0 C8.06 0.07, 15.57 0.57, 32.48 1.33" stroke="#e03131" stroke-width="2" fill="none"></path></g><g transform="translate(292.70467156843097 117.87939106698695) rotate(0 16.24165445946892 0.6674652517590403)"><path d="M31.88 1.64 L18.57 7.14 L18.43 -6.13 L32.17 1.63" stroke="none" stroke-width="0" fill="#e03131" fill-rule="evenodd"></path><path d="M32.48 1.33 C27.53 3.09, 22.67 4.83, 18.6 7.03 M32.48 1.33 C29.54 2.67, 26.19 4.14, 18.6 7.03 M18.6 7.03 C18.49 3.97, 18.88 0.77, 19.2 -5.64 M18.6 7.03 C18.52 2.3, 18.81 -1.66, 19.2 -5.64 M19.2 -5.64 C23.49 -2.48, 29.1 -0.96, 32.48 1.33 M19.2 -5.64 C22.5 -3.79, 26.41 -1.72, 32.48 1.33 M32.48 1.33 C32.48 1.33, 32.48 1.33, 32.48 1.33 M32.48 1.33 C32.48 1.33, 32.48 1.33, 32.48 1.33" stroke="#e03131" stroke-width="2" fill="none"></path></g></g><mask></mask><g stroke-linecap="round"><g transform="translate(251.76680279387938 184.62591624288643) rotate(0 -13.126816617926806 -0.6674652517590403)"><path d="M0 0 C-6.24 -0.78, -12.57 0.36, -26.25 -1.33 M0 0 C-10.12 -0.19, -20.01 -0.94, -26.25 -1.33" stroke="#e03131" stroke-width="2" fill="none"></path></g><g transform="translate(251.76680279387938 184.62591624288643) rotate(0 -13.126816617926806 -0.6674652517590403)"><path d="M-25.85 -1.49 L-14.52 -5.45 L-14.05 4.73 L-26.81 -1.15" stroke="none" stroke-width="0" fill="#e03131" fill-rule="evenodd"></path><path d="M-26.25 -1.33 C-23.59 -2.82, -20.97 -2.96, -14 -6.1 M-26.25 -1.33 C-21.75 -2.87, -17.11 -4.82, -14 -6.1 M-14 -6.1 C-13.81 -2.26, -14.29 2.63, -14.73 4.99 M-14 -6.1 C-14.33 -3.19, -14.53 -0.12, -14.73 4.99 M-14.73 4.99 C-18.51 2.74, -22.63 0.06, -26.25 -1.33 M-14.73 4.99 C-17.5 3.63, -20.26 1.68, -26.25 -1.33 M-26.25 -1.33 C-26.25 -1.33, -26.25 -1.33, -26.25 -1.33 M-26.25 -1.33 C-26.25 -1.33, -26.25 -1.33, -26.25 -1.33" stroke="#e03131" stroke-width="2" fill="none"></path></g></g><mask></mask><g stroke-linecap="round" transform="translate(268.64323701931653 139.60318432464965) rotate(0 7.95869187589301 7.95869187589301)"><path d="M8.01 -0.06 C9.62 -0.15, 12.49 0.94, 13.73 2.1 C14.96 3.27, 15.26 5.27, 15.42 6.94 C15.59 8.61, 15.58 10.72, 14.69 12.1 C13.81 13.49, 11.73 14.69, 10.1 15.24 C8.48 15.78, 6.49 16.01, 4.94 15.36 C3.38 14.7, 1.54 12.88, 0.76 11.31 C-0.03 9.73, -0.11 7.48, 0.22 5.91 C0.56 4.33, 1.36 2.88, 2.74 1.87 C4.12 0.86, 7.43 0.14, 8.51 -0.15 C9.59 -0.43, 9.14 0.07, 9.22 0.18 M9.03 -0.01 C10.53 -0.02, 11.9 0.54, 12.95 1.67 C14 2.81, 15.07 4.99, 15.32 6.78 C15.56 8.58, 15.21 10.98, 14.42 12.45 C13.64 13.93, 12.34 15.08, 10.63 15.64 C8.92 16.19, 5.85 16.43, 4.16 15.78 C2.46 15.14, 1.22 13.35, 0.46 11.77 C-0.29 10.19, -0.85 8.04, -0.36 6.31 C0.14 4.59, 1.92 2.44, 3.45 1.42 C4.97 0.39, 7.97 0.42, 8.8 0.17 C9.63 -0.09, 8.4 -0.22, 8.43 -0.13" stroke="none" stroke-width="0" fill="#a5d8ff"></path><path d="M8.29 -0.08 C9.75 -0.1, 11.87 1.15, 13.17 2.37 C14.47 3.59, 15.94 5.6, 16.1 7.26 C16.25 8.91, 15.15 10.89, 14.09 12.31 C13.03 13.72, 11.28 15.18, 9.74 15.73 C8.2 16.29, 6.31 16.35, 4.86 15.62 C3.41 14.88, 1.78 12.99, 1.05 11.32 C0.33 9.65, 0.07 7.23, 0.52 5.58 C0.97 3.93, 2.37 2.32, 3.74 1.43 C5.11 0.54, 7.81 0.44, 8.76 0.24 C9.7 0.03, 9.32 0.12, 9.42 0.2 M6.67 -0.03 C8.14 -0.33, 9.7 0.24, 11.21 1.16 C12.72 2.08, 14.92 3.86, 15.74 5.47 C16.56 7.08, 16.69 9.18, 16.11 10.81 C15.54 12.44, 13.89 14.51, 12.28 15.24 C10.66 15.96, 8.04 15.52, 6.44 15.16 C4.84 14.8, 3.85 14.13, 2.68 13.08 C1.5 12.02, -0.52 10.53, -0.63 8.81 C-0.74 7.1, 0.93 4.1, 2.01 2.76 C3.09 1.42, 5.14 1.28, 5.84 0.76 C6.55 0.25, 6.09 -0.33, 6.24 -0.33" stroke="#1971c2" stroke-width="2" fill="none"></path></g><g transform="translate(248.95594658947584 133.7256139289725) rotate(0 5.5 10)"><text x="0" y="14.096" font-family="Virgil 3 YOFF" font-size="16px" fill="#1971c2" text-anchor="start" style="white-space: pre;" direction="ltr" dominant-baseline="alphabetic">A</text></g></svg>
