<svg version="1.1" xmlns="http://www.w3.org/2000/svg" viewBox="0 0 369.7001047319568 433.5252440733888" width="369.7001047319568" height="433.5252440733888">
  <!-- svg-source:excalidraw -->
  
    
  <rect x="0" y="0" width="369.7001047319568" height="433.5252440733888" fill="#ffffff"></rect><g stroke-linecap="round" transform="translate(59.36355614682043 103.0448468956128) rotate(0 126.19425502323224 17.360056246582218)"><path d="M83.62 1.74 C97.46 0.77, 116.78 -0.51, 133.11 -0.52 C149.44 -0.53, 166.99 0.59, 181.61 1.68 C196.22 2.77, 210.27 4.42, 220.82 6.02 C231.37 7.62, 239.61 9.09, 244.92 11.29 C250.23 13.5, 253.64 17.03, 252.68 19.25 C251.72 21.47, 246.09 22.65, 239.19 24.59 C232.28 26.54, 223.07 29.24, 211.25 30.92 C199.43 32.61, 183.68 33.99, 168.26 34.71 C152.84 35.42, 134.7 35.6, 118.73 35.22 C102.77 34.83, 86.82 33.49, 72.47 32.42 C58.13 31.36, 43.42 30.36, 32.66 28.83 C21.9 27.3, 13.27 25.3, 7.93 23.25 C2.6 21.19, 0.06 18.86, 0.65 16.51 C1.24 14.16, 4.51 11.06, 11.48 9.15 C18.45 7.24, 29.83 6.42, 42.48 5.07 C55.12 3.71, 79.29 1.86, 87.34 1.04 C95.4 0.22, 90.19 0.02, 90.81 0.13 M179.23 0.22 C194.24 0.93, 208.89 3.9, 219.91 5.59 C230.94 7.28, 239.79 8.06, 245.4 10.36 C251.01 12.65, 254.21 16.83, 253.6 19.36 C252.98 21.9, 248.62 23.79, 241.71 25.54 C234.79 27.28, 224.26 28.39, 212.11 29.82 C199.95 31.26, 184.24 33.39, 168.79 34.13 C153.35 34.86, 135.22 34.31, 119.45 34.23 C103.68 34.14, 88.73 34.27, 74.16 33.62 C59.59 32.97, 43.26 31.83, 32.02 30.34 C20.78 28.86, 11.83 26.77, 6.73 24.71 C1.62 22.65, 0.74 20.27, 1.4 18 C2.06 15.73, 4.04 13.58, 10.7 11.11 C17.36 8.63, 29.45 4.65, 41.37 3.16 C53.29 1.67, 67.2 2.75, 82.23 2.16 C97.27 1.57, 115.31 -0.4, 131.59 -0.38 C147.86 -0.35, 172.01 1.7, 179.89 2.3 C187.77 2.9, 179.59 3.14, 178.87 3.22" stroke="#1e1e1e" stroke-width="2" fill="none"></path></g><g stroke-linecap="round"><g transform="translate(58.72186078695677 121.05959805763791) rotate(0 0 145.36371394769162)"><path d="M-0.81 -0.33 C-0.83 48.18, -0.84 241.44, -0.55 289.97 M0.96 -1.54 C0.78 47.2, -1.73 242.14, -1.79 291.11" stroke="#1e1e1e" stroke-width="2" fill="none"></path></g></g><mask></mask><g stroke-linecap="round"><g transform="translate(311.8040644156031 122.06113976417157) rotate(0 0 142.73518461923544)"><path d="M-0.55 -0.76 C-0.27 46.9, 0.92 237.72, 0.9 285.61 M1.36 1.46 C1.64 49.36, 0.95 240, 0.43 287.22" stroke="#1e1e1e" stroke-width="2" fill="none"></path></g></g><mask></mask><g stroke-linecap="round"><g transform="translate(186.00923033269328 121.42983095410455) rotate(0 0 -55.485394083783916)"><path d="M0.9 0.14 C0.88 -18.05, -0.5 -91.5, -0.65 -109.88 M-0.09 -0.83 C0.34 -19.26, 1.84 -92.9, 1.71 -111.43" stroke="#1971c2" stroke-width="2" fill="none"></path></g><g transform="translate(186.00923033269328 121.42983095410455) rotate(0 0 -55.485394083783916)"><path d="M0.23 -112.07 L9.82 -97.07 L-6.14 -96.21 L0.59 -109.53" stroke="none" stroke-width="0" fill="#1971c2" fill-rule="evenodd"></path><path d="M1.71 -111.43 C3.38 -108.83, 6.15 -104.58, 7.93 -97.78 M1.71 -111.43 C3.83 -105.99, 7.08 -101.89, 7.93 -97.78 M7.93 -97.78 C4.63 -96.5, 0.16 -97.1, -4.75 -97.89 M7.93 -97.78 C3.06 -97.29, -1.58 -97.52, -4.75 -97.89 M-4.75 -97.89 C-1.77 -101.08, -0.27 -105.91, 1.71 -111.43 M-4.75 -97.89 C-3.22 -101.46, -1.29 -106.54, 1.71 -111.43 M1.71 -111.43 C1.71 -111.43, 1.71 -111.43, 1.71 -111.43 M1.71 -111.43 C1.71 -111.43, 1.71 -111.43, 1.71 -111.43" stroke="#1971c2" stroke-width="2" fill="none"></path></g></g><mask></mask><g transform="translate(206.95946762686526 23.880288553115747) rotate(0 6 12.5)"><text x="0" y="17.619999999999997" font-family="Virgil 3 YOFF" font-size="20px" fill="#1971c2" text-anchor="start" style="white-space: pre;" direction="ltr" dominant-baseline="alphabetic">z</text></g><g stroke-linecap="round"><g transform="translate(186.3365777904146 120.77513603866169) rotate(0 61.868669509352 0)"><path d="M-0.03 0.86 C20.75 0.62, 103.48 -0.3, 124.05 -0.35" stroke="#1e1e1e" stroke-width="2.5" fill="none" stroke-dasharray="8 10"></path></g></g><mask></mask><g transform="translate(248.2052472997666 75.60118687310313) rotate(0 6.806451797485352 12.5)"><text x="0" y="17.619999999999997" font-family="Virgil 3 YOFF" font-size="20px" fill="#1e1e1e" text-anchor="start" style="white-space: pre;" direction="ltr" dominant-baseline="alphabetic">R</text></g><g stroke-linecap="round"><g transform="translate(312.6926964708882 246.14921234597227) rotate(0 23.24166949822211 0)"><path d="M-0.16 0.26 C7.65 0.21, 39.26 -0.48, 47.01 -0.45 M0.75 -0.08 C8.52 -0.06, 39.32 0.07, 46.85 0.01" stroke="#2f9e44" stroke-width="2" fill="none"></path></g><g transform="translate(312.6926964708882 246.14921234597227) rotate(0 23.24166949822211 0)"><path d="M47.7 0.96 L32.47 7.1 L33.47 -7.24 L46.23 0.76" stroke="none" stroke-width="0" fill="#2f9e44" fill-rule="evenodd"></path><path d="M46.85 0.01 C42.77 2.78, 37.37 3.93, 33.26 6.36 M46.85 0.01 C42.12 2.16, 36.84 5.09, 33.26 6.36 M33.26 6.36 C33.71 3.39, 33.52 0.32, 33.25 -6.31 M33.26 6.36 C33.5 3.78, 33.36 1.07, 33.25 -6.31 M33.25 -6.31 C36.71 -5.65, 38.66 -3.85, 46.85 0.01 M33.25 -6.31 C36.2 -5.28, 39.19 -3.4, 46.85 0.01 M46.85 0.01 C46.85 0.01, 46.85 0.01, 46.85 0.01 M46.85 0.01 C46.85 0.01, 46.85 0.01, 46.85 0.01" stroke="#2f9e44" stroke-width="2" fill="none"></path></g></g><mask></mask><g transform="translate(328.07802698379555 213.74181403154978) rotate(0 5 12.5)"><text x="0" y="17.619999999999997" font-family="Virgil 3 YOFF" font-size="20px" fill="#2f9e44" text-anchor="start" style="white-space: pre;" direction="ltr" dominant-baseline="alphabetic">n</text></g><g stroke-linecap="round"><g transform="translate(56.37963707500103 249.9137081097688) rotate(0 -23.24166949822211 0)"><path d="M-0.15 0.42 C-7.92 0.5, -38.5 0.2, -46.13 0.07 M0.78 0.16 C-7.08 0.38, -38.58 0.82, -46.38 0.81" stroke="#2f9e44" stroke-width="2" fill="none"></path></g><g transform="translate(56.37963707500103 249.9137081097688) rotate(0 -23.24166949822211 0)"><path d="M-46.15 -0.12 L-33.44 -4.89 L-32.9 6.78 L-46.21 1.25" stroke="none" stroke-width="0" fill="#2f9e44" fill-rule="evenodd"></path><path d="M-46.38 0.81 C-40.43 -1.24, -35.55 -3.54, -32.83 -5.63 M-46.38 0.81 C-43.45 -0.61, -40.11 -1.97, -32.83 -5.63 M-32.83 -5.63 C-33.34 -2.13, -32.38 2.66, -32.74 7.04 M-32.83 -5.63 C-33.09 -1.51, -33.02 2.87, -32.74 7.04 M-32.74 7.04 C-36.26 6.03, -38.41 4.73, -46.38 0.81 M-32.74 7.04 C-35.57 5.89, -38.79 4.17, -46.38 0.81 M-46.38 0.81 C-46.38 0.81, -46.38 0.81, -46.38 0.81 M-46.38 0.81 C-46.38 0.81, -46.38 0.81, -46.38 0.81" stroke="#2f9e44" stroke-width="2" fill="none"></path></g></g><mask></mask><g transform="translate(30.994306562093243 217.5063097953463) rotate(0 5 12.5)"><text x="0" y="17.619999999999997" font-family="Virgil 3 YOFF" font-size="20px" fill="#2f9e44" text-anchor="start" style="white-space: pre;" direction="ltr" dominant-baseline="alphabetic">n</text></g><g stroke-linecap="round"><g transform="translate(186.009230332691 139.76128858650452) rotate(0 0 141.41410173566172)"><path d="M1.17 -0.8 C1.14 46.47, 0.94 236.42, 0.62 283.76" stroke="#1e1e1e" stroke-width="2.5" fill="none" stroke-dasharray="8 10"></path></g></g><mask></mask><g stroke-linecap="round"><g transform="translate(141.16262862485382 274.30109371001606) rotate(0 0 -37.48128390910479)"><path d="M0.62 0.94 C0.31 -11.35, -0.59 -62.01, -0.71 -74.51 M-0.51 0.38 C-0.53 -12.2, 1.7 -63.68, 1.62 -76.39" stroke="#1971c2" stroke-width="2" fill="none"></path></g><g transform="translate(141.16262862485382 274.30109371001606) rotate(0 0 -37.48128390910479)"><path d="M1.95 -75.5 L8.07 -60.98 L-3.31 -63.55 L1.44 -76.98" stroke="none" stroke-width="0" fill="#1971c2" fill-rule="evenodd"></path><path d="M1.62 -76.39 C5.1 -71.87, 6.9 -65.71, 7.67 -62.67 M1.62 -76.39 C3.97 -71.93, 5.65 -65.66, 7.67 -62.67 M7.67 -62.67 C3.22 -63.93, -1.48 -63.88, -5.01 -62.94 M7.67 -62.67 C2.59 -63.4, -1.9 -62.94, -5.01 -62.94 M-5.01 -62.94 C-1.44 -66.36, 0.4 -71.36, 1.62 -76.39 M-5.01 -62.94 C-3.69 -66.92, -0.59 -70.14, 1.62 -76.39 M1.62 -76.39 C1.62 -76.39, 1.62 -76.39, 1.62 -76.39 M1.62 -76.39 C1.62 -76.39, 1.62 -76.39, 1.62 -76.39" stroke="#1971c2" stroke-width="2" fill="none"></path></g></g><mask></mask><g transform="translate(114.97483200713896 225.5263225095216) rotate(0 6.5 12.5)"><text x="0" y="17.619999999999997" font-family="Virgil 3 YOFF" font-size="20px" fill="#1971c2" text-anchor="start" style="white-space: pre;" direction="ltr" dominant-baseline="alphabetic">J</text></g><g stroke-linecap="round"><g transform="translate(257.3709761159653 201.79363182471732) rotate(0 0 37.48128390910479)"><path d="M-0.15 0.91 C-0.01 13.42, 0.1 63.36, 0.14 75.52 M-1.69 0.35 C-1.63 12.46, -0.91 61.3, -0.73 73.69" stroke="#e03131" stroke-width="2" fill="none"></path></g><g transform="translate(257.3709761159653 201.79363182471732) rotate(0 0 37.48128390910479)"><path d="M0.97 73.07 L-7.46 59.6 L5.1 61.51 L-1.43 71.78" stroke="none" stroke-width="0" fill="#e03131" fill-rule="evenodd"></path><path d="M-0.73 73.69 C-1.22 70.61, -3.23 67.31, -7.27 60.19 M-0.73 73.69 C-1.54 71.07, -3.25 68.13, -7.27 60.19 M-7.27 60.19 C-3.54 59.07, -2.39 59.87, 5.41 60 M-7.27 60.19 C-4.42 59.69, -1.49 60.63, 5.41 60 M5.41 60 C2.8 64.79, 1.27 69.32, -0.73 73.69 M5.41 60 C3.36 64.33, 1.82 68.08, -0.73 73.69 M-0.73 73.69 C-0.73 73.69, -0.73 73.69, -0.73 73.69 M-0.73 73.69 C-0.73 73.69, -0.73 73.69, -0.73 73.69" stroke="#e03131" stroke-width="2" fill="none"></path></g></g><mask></mask><g transform="translate(231.18317949825087 225.56840302521178) rotate(0 6.5 12.5)"><text x="0" y="17.619999999999997" font-family="Virgil 3 YOFF" font-size="20px" fill="#e03131" text-anchor="start" style="white-space: pre;" direction="ltr" dominant-baseline="alphabetic">J</text></g><g transform="translate(241.03132225847867 239.48348352977197) rotate(0 3.0605499100281577 7.544894067089217)"><text x="0" y="10.635282676968961" font-family="Virgil 3 YOFF" font-size="12.071830507342748px" fill="#e03131" text-anchor="start" style="white-space: pre;" direction="ltr" dominant-baseline="alphabetic">b</text></g><g stroke-linecap="round"><g transform="translate(311.3833066400025 245.49451743052938) rotate(0 0 -36.8265889936619)"><path d="M-0.86 0.69 C-0.75 -11.35, 0.57 -60.99, 0.75 -73.36 M0.89 0.01 C0.9 -12.32, 0.41 -63.3, 0.19 -75.32" stroke="#e03131" stroke-width="2" fill="none"></path></g><g transform="translate(311.3833066400025 245.49451743052938) rotate(0 0 -36.8265889936619)"><path d="M-0.5 -77.24 L7.98 -61.2 L-5.52 -59.68 L-0.2 -76.48" stroke="none" stroke-width="0" fill="#e03131" fill-rule="evenodd"></path><path d="M0.19 -75.32 C2.95 -70.18, 4.46 -66.67, 6.71 -61.81 M0.19 -75.32 C1.48 -70.46, 3.43 -67.12, 6.71 -61.81 M6.71 -61.81 C3.2 -61.23, -1.13 -60.54, -5.97 -61.65 M6.71 -61.81 C2.18 -61.83, -3.16 -61.43, -5.97 -61.65 M-5.97 -61.65 C-4 -65.85, -1.88 -68.73, 0.19 -75.32 M-5.97 -61.65 C-4.24 -66.56, -1.05 -73.21, 0.19 -75.32 M0.19 -75.32 C0.19 -75.32, 0.19 -75.32, 0.19 -75.32 M0.19 -75.32 C0.19 -75.32, 0.19 -75.32, 0.19 -75.32" stroke="#e03131" stroke-width="2" fill="none"></path></g></g><mask></mask><g transform="translate(326.11394223746674 185.70871232927755) rotate(0 6.5 12.5)"><text x="0" y="17.619999999999997" font-family="Virgil 3 YOFF" font-size="20px" fill="#e03131" text-anchor="start" style="white-space: pre;" direction="ltr" dominant-baseline="alphabetic">K</text></g><g transform="translate(337.28071450477773 197.3744411454778) rotate(0 2.7285826142090173 6.726525422785599)"><text x="0" y="9.481710235958584" font-family="Virgil 3 YOFF" font-size="10.762440676456961px" fill="#e03131" text-anchor="start" style="white-space: pre;" direction="ltr" dominant-baseline="alphabetic">b</text></g><g stroke-linecap="round"><g transform="translate(57.98098293957719 247.9496233634402) rotate(0 0 -36.826588993661915)"><path d="M-1.12 0.04 C-1.32 -12.08, -0.99 -60.27, -0.98 -72.6 M0.49 -0.98 C0.64 -13.43, 1.09 -62.2, 1.21 -74.18" stroke="#e03131" stroke-width="2" fill="none"></path></g><g transform="translate(57.98098293957719 247.9496233634402) rotate(0 0 -36.826588993661915)"><path d="M0.82 -75.33 L8.43 -62.4 L-7.2 -61.45 L0.15 -73.76" stroke="none" stroke-width="0" fill="#e03131" fill-rule="evenodd"></path><path d="M1.21 -74.18 C3.26 -71, 6.49 -66.81, 7.42 -60.52 M1.21 -74.18 C3.16 -70.43, 4.84 -67.23, 7.42 -60.52 M7.42 -60.52 C3.18 -59.83, -2.74 -60.89, -5.26 -60.64 M7.42 -60.52 C3.84 -60.38, -1.39 -60.11, -5.26 -60.64 M-5.26 -60.64 C-2.4 -65.17, -1.13 -66.96, 1.21 -74.18 M-5.26 -60.64 C-3.95 -63.69, -2.37 -65.97, 1.21 -74.18 M1.21 -74.18 C1.21 -74.18, 1.21 -74.18, 1.21 -74.18 M1.21 -74.18 C1.21 -74.18, 1.21 -74.18, 1.21 -74.18" stroke="#e03131" stroke-width="2" fill="none"></path></g></g><mask></mask><g transform="translate(30.250347342113855 188.16381826218833) rotate(0 6.5 12.5)"><text x="0" y="17.619999999999997" font-family="Virgil 3 YOFF" font-size="20px" fill="#e03131" text-anchor="start" style="white-space: pre;" direction="ltr" dominant-baseline="alphabetic">K</text></g><g transform="translate(40.37500307068467 200.15689453611003) rotate(0 2.7285826142090173 6.726525422785599)"><text x="0" y="9.481710235958584" font-family="Virgil 3 YOFF" font-size="10.762440676456961px" fill="#e03131" text-anchor="start" style="white-space: pre;" direction="ltr" dominant-baseline="alphabetic">b</text></g><g stroke-linecap="round" transform="translate(87.5819901863083 342.31394817105775) rotate(0 9.709365782266559 9.709365782266602)"><path d="M11.72 0.07 C13.63 0.36, 15.82 2.18, 17.15 3.76 C18.49 5.35, 19.67 7.51, 19.74 9.58 C19.82 11.65, 19.04 14.52, 17.59 16.16 C16.14 17.8, 13.12 19.03, 11.05 19.43 C8.97 19.83, 6.94 19.58, 5.14 18.55 C3.33 17.53, 1 15.32, 0.22 13.27 C-0.57 11.21, -0.32 8.19, 0.42 6.23 C1.16 4.28, 2.71 2.59, 4.65 1.53 C6.59 0.47, 10.8 0.01, 12.08 -0.11 C13.36 -0.24, 12.29 0.49, 12.31 0.76 M9.47 0.47 C11.57 0.44, 14.95 1.03, 16.59 2.39 C18.24 3.76, 19.21 6.44, 19.32 8.65 C19.44 10.86, 18.47 13.88, 17.29 15.64 C16.11 17.4, 14.18 18.65, 12.24 19.21 C10.29 19.76, 7.44 19.75, 5.62 18.96 C3.8 18.18, 2.15 16.29, 1.3 14.48 C0.44 12.66, 0.19 10.12, 0.5 8.07 C0.8 6.03, 1.54 3.66, 3.13 2.22 C4.72 0.77, 8.72 -0.22, 10.01 -0.6 C11.31 -0.99, 10.96 -0.4, 10.92 -0.1" stroke="#1971c2" stroke-width="2" fill="none"></path></g><g stroke-linecap="round" transform="translate(96.05731553896885 350.870689103789) rotate(0 1.2340401673304768 1.1526244861674257)"><path d="M1.2 0.23 C1.44 0.2, 1.94 0.05, 2.19 0.19 C2.45 0.33, 2.73 0.8, 2.71 1.07 C2.68 1.33, 2.2 1.55, 2.06 1.79 C1.92 2.03, 2.11 2.39, 1.87 2.48 C1.63 2.58, 0.91 2.52, 0.61 2.38 C0.32 2.23, 0.22 1.85, 0.1 1.64 C-0.02 1.43, -0.16 1.41, -0.09 1.14 C-0.03 0.88, 0.28 0.23, 0.48 0.06 C0.68 -0.11, 0.91 0.07, 1.09 0.1 C1.27 0.13, 1.55 0.27, 1.58 0.24 M1.37 -0.14 C1.7 -0.2, 1.86 0.08, 1.98 0.33 C2.1 0.57, 2.04 1.09, 2.07 1.34 C2.09 1.59, 2.21 1.66, 2.12 1.84 C2.02 2.02, 1.68 2.33, 1.5 2.43 C1.31 2.54, 1.2 2.54, 1.01 2.49 C0.82 2.44, 0.6 2.35, 0.35 2.13 C0.1 1.91, -0.47 1.54, -0.48 1.17 C-0.49 0.79, -0.09 0.11, 0.27 -0.12 C0.63 -0.34, 1.55 -0.25, 1.67 -0.21 C1.78 -0.16, 1.05 0.1, 0.95 0.15" stroke="#1971c2" stroke-width="2" fill="none"></path></g><g stroke-linecap="round" transform="translate(132.7398324448318 342.31394784156225) rotate(0 9.709365782266559 9.709365782266602)"><path d="M7.31 0.07 C9.15 -0.49, 11.9 -0.37, 13.71 0.62 C15.53 1.61, 17.39 4.04, 18.2 6.01 C19.01 7.99, 19.12 10.57, 18.55 12.46 C17.99 14.35, 16.41 16.16, 14.79 17.36 C13.17 18.56, 10.93 19.89, 8.85 19.65 C6.77 19.41, 3.86 17.43, 2.32 15.92 C0.77 14.42, -0.38 12.55, -0.4 10.61 C-0.41 8.67, 0.8 6.03, 2.25 4.27 C3.69 2.51, 7.23 0.78, 8.29 0.06 C9.35 -0.67, 8.66 -0.21, 8.61 -0.08 M10.03 -0.14 C12.08 -0.03, 14.81 0.94, 16.28 2.51 C17.76 4.08, 18.7 7.04, 18.88 9.28 C19.07 11.51, 18.59 14.31, 17.41 15.91 C16.22 17.51, 13.64 18.33, 11.78 18.88 C9.92 19.42, 8.11 20.07, 6.24 19.19 C4.37 18.3, 1.52 15.55, 0.53 13.57 C-0.46 11.58, -0.26 9.21, 0.3 7.27 C0.87 5.32, 2.1 3.21, 3.93 1.9 C5.75 0.6, 10.12 -0.37, 11.25 -0.59 C12.39 -0.8, 10.78 0.45, 10.74 0.63" stroke="#e03131" stroke-width="2" fill="none"></path></g><g stroke-linecap="round"><g transform="translate(140.19049076744477 349.7625104157062) rotate(0 2.763900161208994 2.7639001612088663)"><path d="M-0.33 -0.03 C0.52 0.88, 4.22 4.52, 5.18 5.4 M0.15 -0.35 C1.1 0.61, 4.97 4.81, 5.79 5.79" stroke="#e03131" stroke-width="2" fill="none"></path></g></g><mask></mask><g stroke-linecap="round"><g transform="translate(145.4842564185251 349.92596293016754) rotate(0 -2.763900161208994 2.7639001612088663)"><path d="M-0.35 -0.13 C-1.24 0.76, -4.75 4.37, -5.66 5.26 M0.11 -0.5 C-0.8 0.42, -5.13 4.59, -6.01 5.58" stroke="#e03131" stroke-width="2" fill="none"></path></g></g><mask></mask><g transform="translate(73.85397415423586 316.8672412318161) rotate(0 20.895161290322676 12.5)"><text x="0" y="17.619999999999997" font-family="Virgil 3 YOFF" font-size="20px" fill="#1971c2" text-anchor="start" style="white-space: pre;" direction="ltr" dominant-baseline="alphabetic">B, H</text></g><g transform="translate(141.60931430841538 317.08030833921913) rotate(0 7.693548202514648 12.5)"><text x="0" y="17.619999999999997" font-family="Virgil 3 YOFF" font-size="20px" fill="#e03131" text-anchor="start" style="white-space: pre;" direction="ltr" dominant-baseline="alphabetic">M</text></g><g stroke-linecap="round" transform="translate(271.7990714056732 342.3139483203601) rotate(0 9.709365782266559 9.709365782266602)"><path d="M11.53 0.69 C13.57 0.89, 16.57 1.78, 17.88 3.42 C19.19 5.07, 19.59 8.38, 19.38 10.56 C19.17 12.73, 18.01 15.08, 16.6 16.46 C15.19 17.85, 12.87 18.65, 10.9 18.87 C8.93 19.1, 6.52 18.82, 4.78 17.81 C3.03 16.81, 1.18 14.75, 0.46 12.85 C-0.27 10.95, -0.4 8.36, 0.42 6.41 C1.25 4.47, 3.51 2.19, 5.41 1.19 C7.3 0.19, 10.61 0.49, 11.81 0.4 C13.01 0.3, 12.64 0.5, 12.59 0.62 M11.01 0.3 C13.02 0.41, 15.97 1.62, 17.31 3.26 C18.65 4.91, 19.13 8.15, 19.06 10.18 C18.98 12.21, 18.05 13.8, 16.85 15.43 C15.65 17.05, 13.88 19.6, 11.87 19.93 C9.86 20.26, 6.79 18.57, 4.78 17.39 C2.76 16.22, 0.39 14.8, -0.2 12.86 C-0.79 10.93, 0.46 7.81, 1.22 5.8 C1.98 3.8, 2.65 1.77, 4.35 0.82 C6.05 -0.13, 10.28 0.16, 11.44 0.08 C12.59 0, 11.33 0.1, 11.29 0.32" stroke="#e03131" stroke-width="2" fill="none"></path></g><g stroke-linecap="round" transform="translate(280.27439675833466 350.87068925309137) rotate(0 1.2340401673304768 1.1526244861674257)"><path d="M1.65 -0.25 C1.93 -0.24, 1.98 0.38, 2.09 0.62 C2.19 0.86, 2.27 1.03, 2.28 1.18 C2.3 1.33, 2.29 1.34, 2.2 1.51 C2.1 1.68, 1.99 2.07, 1.74 2.21 C1.5 2.35, 1.02 2.39, 0.72 2.35 C0.41 2.3, 0 2.16, -0.09 1.92 C-0.19 1.68, 0.11 1.19, 0.16 0.91 C0.22 0.64, 0.03 0.4, 0.23 0.25 C0.42 0.09, 1.2 0.03, 1.34 -0.02 C1.48 -0.07, 1.05 -0.06, 1.09 -0.05 M1.41 -0.22 C1.69 -0.19, 1.74 0.41, 1.9 0.56 C2.05 0.71, 2.22 0.37, 2.35 0.65 C2.47 0.94, 2.79 2.06, 2.66 2.27 C2.53 2.47, 1.98 1.87, 1.56 1.85 C1.15 1.84, 0.37 2.27, 0.19 2.18 C0.01 2.1, 0.58 1.6, 0.48 1.33 C0.38 1.06, -0.39 0.76, -0.39 0.56 C-0.39 0.35, 0.2 0.22, 0.47 0.12 C0.74 0.02, 1.09 -0.04, 1.22 -0.03 C1.35 -0.01, 1.18 0.27, 1.26 0.23" stroke="#e03131" stroke-width="2" fill="none"></path></g><g stroke-linecap="round" transform="translate(217.49481962470782 342.31394842893144) rotate(0 9.709365782266559 9.709365782266602)"><path d="M11.89 0.68 C13.72 1.1, 15.97 2.57, 17.21 4.08 C18.45 5.6, 19.35 7.75, 19.33 9.78 C19.31 11.81, 18.48 14.63, 17.07 16.26 C15.66 17.9, 13.04 19.24, 10.87 19.57 C8.71 19.9, 5.8 19.42, 4.08 18.26 C2.37 17.1, 1.22 14.66, 0.6 12.61 C-0.03 10.56, -0.45 7.88, 0.33 5.95 C1.12 4.01, 3.38 1.97, 5.28 1.01 C7.18 0.05, 10.49 0.29, 11.75 0.2 C13 0.11, 12.72 0.35, 12.82 0.46 M9.75 0.3 C11.69 0.2, 14.37 0.42, 16.07 1.87 C17.78 3.33, 19.67 6.98, 19.99 9.05 C20.31 11.12, 19.33 12.62, 17.99 14.28 C16.64 15.93, 13.82 18.3, 11.92 18.97 C10.02 19.63, 8.5 19.13, 6.59 18.27 C4.67 17.42, 1.53 15.61, 0.45 13.82 C-0.64 12.03, -0.43 9.5, 0.09 7.53 C0.6 5.55, 1.89 3.17, 3.53 1.97 C5.17 0.76, 8.75 0.7, 9.93 0.3 C11.1 -0.1, 10.61 -0.44, 10.57 -0.45" stroke="#1971c2" stroke-width="2" fill="none"></path></g><g stroke-linecap="round"><g transform="translate(224.9454779473199 349.76251100307536) rotate(0 2.763900161208994 2.7639001612088663)"><path d="M0.33 0.33 C1.17 1.28, 4.34 4.67, 5.26 5.51 M0.07 0.2 C1.01 1.22, 4.97 5.04, 5.92 5.95" stroke="#1971c2" stroke-width="2" fill="none"></path></g></g><mask></mask><g stroke-linecap="round"><g transform="translate(230.2392435984002 349.92596351753673) rotate(0 -2.763900161208994 2.7639001612088663)"><path d="M-0.27 -0.02 C-1.19 0.81, -4.37 4.42, -5.23 5.34 M0.24 -0.34 C-0.73 0.69, -4.39 4.66, -5.35 5.69" stroke="#1971c2" stroke-width="2" fill="none"></path></g></g><mask></mask><g transform="translate(210.3842684330607 314.09736942294523) rotate(0 20.895161290322676 12.5)"><text x="0" y="17.619999999999997" font-family="Virgil 3 YOFF" font-size="20px" fill="#1971c2" text-anchor="start" style="white-space: pre;" direction="ltr" dominant-baseline="alphabetic">B, H</text></g><g transform="translate(277.8862955362347 317.60250099216466) rotate(0 7.693548202514648 12.5)"><text x="0" y="17.619999999999997" font-family="Virgil 3 YOFF" font-size="20px" fill="#e03131" text-anchor="start" style="white-space: pre;" direction="ltr" dominant-baseline="alphabetic">M</text></g></svg>
