<svg version="1.1" xmlns="http://www.w3.org/2000/svg" viewBox="0 0 325.7874378453794 259.3680123035922" width="651.5748756907587" height="518.7360246071844">
  <!-- svg-source:excalidraw -->
  
 <g stroke-linecap="round"><g transform="translate(37.00442072992928 12.57301875258463) rotate(0 0 118.63580372684032)"><path d="M-0.96 0.96 C-0.96 40.38, -0.89 196.81, -0.86 236.28" stroke="#f08c00" stroke-width="2.5" fill="none" stroke-dasharray="8 10"></path></g></g><mask></mask><g stroke-linecap="round"><g transform="translate(291.41024159470794 12.200535852343364) rotate(0 0 118.82204517696096)"><path d="M1.05 -0.9 C0.79 38.56, -0.42 197.35, -0.63 237.17" stroke="#f08c00" stroke-width="2.5" fill="none" stroke-dasharray="8 10"></path></g></g><mask></mask><g stroke-linecap="round" transform="translate(10 10) rotate(0 152.8937189226897 118.8738888810683)"><path d="M32 0 C93.64 1.83, 156.99 -0.36, 273.79 0 M32 0 C110.05 -1.01, 186.26 -1, 273.79 0 M273.79 0 C293.75 1.13, 305.68 9.36, 305.79 32 M273.79 0 C297.07 0.04, 306.21 12.22, 305.79 32 M305.79 32 C309.01 74.9, 305.66 118.7, 305.79 205.75 M305.79 32 C307.68 73.95, 307.62 113.26, 305.79 205.75 M305.79 205.75 C307.34 225.83, 293.56 236.57, 273.79 237.75 M305.79 205.75 C306.72 226.82, 293.75 238.28, 273.79 237.75 M273.79 237.75 C204.16 241.12, 136.1 240.27, 32 237.75 M273.79 237.75 C180.34 236.63, 86.38 235.8, 32 237.75 M32 237.75 C9.3 239.41, -0.83 228.59, 0 205.75 M32 237.75 C11.64 238.67, 2.03 229.25, 0 205.75 M0 205.75 C-2.28 137.6, 1.32 71.36, 0 32 M0 205.75 C1.23 149.74, 0.73 96.05, 0 32 M0 32 C-1.23 9.58, 9.5 -1.28, 32 0 M0 32 C0.47 11.74, 12.71 -2.04, 32 0" stroke="#1e1e1e" stroke-width="2" fill="none"></path></g><g stroke-linecap="round"><g transform="translate(28.88359923846906 48.26566996140582) rotate(0 25.0907321265384 -0.4181788687756125)"><path d="M0 0 C7.05 -0.93, 10.34 1.49, 26.76 0 M0 0 C7.32 0.77, 14.78 0.78, 26.76 0 M26.76 0 C34.24 1.89, 43.6 -0.02, 50.18 -0.84 M26.76 0 C31.11 -0.84, 37.76 -0.93, 50.18 -0.84" stroke="#1e1e1e" stroke-width="2" fill="none"></path></g><g transform="translate(28.88359923846906 48.26566996140582) rotate(0 25.0907321265384 -0.4181788687756125)"><path d="M39.16 3.15 C42.25 1.76, 43.16 2.31, 50.18 -0.84 M39.16 3.15 C42.22 2.59, 45.38 1.57, 50.18 -0.84" stroke="#1e1e1e" stroke-width="2" fill="none"></path></g><g transform="translate(28.88359923846906 48.26566996140582) rotate(0 25.0907321265384 -0.4181788687756125)"><path d="M39.18 -4.86 C42.31 -4.5, 43.21 -2.2, 50.18 -0.84 M39.18 -4.86 C42.29 -3.35, 45.45 -2.3, 50.18 -0.84" stroke="#1e1e1e" stroke-width="2" fill="none"></path></g></g><mask></mask><g transform="translate(27.21088376336661 25.341100193335933) rotate(0 3.742977709953095 10.69422202843748)"><text x="0" y="15.074575371285421" font-family="'Virgil 3 YOFF'" font-size="17.11075524549991px" fill="#1971c2" text-anchor="start" style="white-space: pre;" direction="ltr" dominant-baseline="alphabetic">-</text></g><g transform="translate(67.79486614363122 25.026081869698828) rotate(0 5.34711101421874 10.69422202843748)"><text x="0" y="15.074575371285421" font-family="'Virgil 3 YOFF'" font-size="17.11075524549991px" fill="#e03131" text-anchor="start" style="white-space: pre;" direction="ltr" dominant-baseline="alphabetic">+</text></g><g stroke-linecap="round"><g transform="translate(81.15756273923853 50.152389364506234) rotate(0 25.0907321265384 -0.4181788687756125)"><path d="M0 0 C7.41 -2.09, 19.13 1.66, 26.76 0 M0 0 C9.43 0.55, 20.82 -0.02, 26.76 0 M26.76 0 C31.78 0.47, 39.89 -2.09, 50.18 -0.84 M26.76 0 C35.69 0.19, 43.69 -0.08, 50.18 -0.84" stroke="#1e1e1e" stroke-width="2" fill="none"></path></g><g transform="translate(81.15756273923853 50.152389364506234) rotate(0 25.0907321265384 -0.4181788687756125)"><path d="M39.57 4.12 C42.25 1.34, 47.48 1.93, 50.18 -0.84 M39.57 4.12 C43.17 2.62, 47.95 0.43, 50.18 -0.84" stroke="#1e1e1e" stroke-width="2" fill="none"></path></g><g transform="translate(81.15756273923853 50.152389364506234) rotate(0 25.0907321265384 -0.4181788687756125)"><path d="M38.86 -3.86 C41.8 -4.07, 47.26 -0.89, 50.18 -0.84 M38.86 -3.86 C42.78 -2.38, 47.82 -1.59, 50.18 -0.84" stroke="#1e1e1e" stroke-width="2" fill="none"></path></g></g><mask></mask><g transform="translate(79.48484726413608 27.227819596435438) rotate(0 3.742977709953095 10.69422202843748)"><text x="0" y="15.074575371285421" font-family="'Virgil 3 YOFF'" font-size="17.11075524549991px" fill="#1971c2" text-anchor="start" style="white-space: pre;" direction="ltr" dominant-baseline="alphabetic">-</text></g><g transform="translate(120.0688296444007 26.912801272798788) rotate(0 5.34711101421874 10.69422202843748)"><text x="0" y="15.074575371285421" font-family="'Virgil 3 YOFF'" font-size="17.11075524549991px" fill="#e03131" text-anchor="start" style="white-space: pre;" direction="ltr" dominant-baseline="alphabetic">+</text></g><g stroke-linecap="round"><g transform="translate(146.06896258876918 49.37032430607724) rotate(0 25.0907321265384 -0.4181788687756125)"><path d="M0 0 C8.17 -1.44, 17.42 -0.01, 26.76 0 M0 0 C5.84 -0.01, 12.19 -0.75, 26.76 0 M26.76 0 C36.41 -0.88, 43.91 -0.24, 50.18 -0.84 M26.76 0 C31.21 -0.64, 36.86 -0.69, 50.18 -0.84" stroke="#1e1e1e" stroke-width="2" fill="none"></path></g><g transform="translate(146.06896258876918 49.37032430607724) rotate(0 25.0907321265384 -0.4181788687756125)"><path d="M39.22 3.31 C42.54 1.13, 46.48 0.67, 50.18 -0.84 M39.22 3.31 C41.58 2.43, 44.27 1.09, 50.18 -0.84" stroke="#1e1e1e" stroke-width="2" fill="none"></path></g><g transform="translate(146.06896258876918 49.37032430607724) rotate(0 25.0907321265384 -0.4181788687756125)"><path d="M39.12 -4.71 C42.46 -4.38, 46.43 -2.34, 50.18 -0.84 M39.12 -4.71 C41.56 -3.83, 44.27 -3.42, 50.18 -0.84" stroke="#1e1e1e" stroke-width="2" fill="none"></path></g></g><mask></mask><g transform="translate(144.39624711366673 26.44575453800826) rotate(0 3.742977709953095 10.69422202843748)"><text x="0" y="15.074575371285421" font-family="'Virgil 3 YOFF'" font-size="17.11075524549991px" fill="#1971c2" text-anchor="start" style="white-space: pre;" direction="ltr" dominant-baseline="alphabetic">-</text></g><g transform="translate(184.98022949393135 26.1307362143707) rotate(0 5.34711101421874 10.69422202843748)"><text x="0" y="15.074575371285421" font-family="'Virgil 3 YOFF'" font-size="17.11075524549991px" fill="#e03131" text-anchor="start" style="white-space: pre;" direction="ltr" dominant-baseline="alphabetic">+</text></g><g stroke-linecap="round"><g transform="translate(206.28797208773142 49.37032430607724) rotate(0 25.0907321265384 -0.4181788687756125)"><path d="M0 0 C5.93 1.45, 12.4 0.65, 26.76 0 M0 0 C8.66 -0.67, 16.42 -0.24, 26.76 0 M26.76 0 C31.59 -0.23, 41.14 -0.37, 50.18 -0.84 M26.76 0 C36.15 0.22, 45.06 -1.79, 50.18 -0.84" stroke="#1e1e1e" stroke-width="2" fill="none"></path></g><g transform="translate(206.28797208773142 49.37032430607724) rotate(0 25.0907321265384 -0.4181788687756125)"><path d="M39.03 2.77 C41.38 2.72, 44.07 1.38, 50.18 -0.84 M39.03 2.77 C42.71 1.23, 45.84 0.35, 50.18 -0.84" stroke="#1e1e1e" stroke-width="2" fill="none"></path></g><g transform="translate(206.28797208773142 49.37032430607724) rotate(0 25.0907321265384 -0.4181788687756125)"><path d="M39.32 -5.24 C41.64 -3.33, 44.26 -2.73, 50.18 -0.84 M39.32 -5.24 C42.85 -4.27, 45.88 -2.63, 50.18 -0.84" stroke="#1e1e1e" stroke-width="2" fill="none"></path></g></g><mask></mask><g transform="translate(204.61525661262897 26.44575453800826) rotate(0 3.742977709953095 10.69422202843748)"><text x="0" y="15.074575371285421" font-family="'Virgil 3 YOFF'" font-size="17.11075524549991px" fill="#1971c2" text-anchor="start" style="white-space: pre;" direction="ltr" dominant-baseline="alphabetic">-</text></g><g transform="translate(245.19923899289358 26.1307362143707) rotate(0 5.34711101421874 10.69422202843748)"><text x="0" y="15.074575371285421" font-family="'Virgil 3 YOFF'" font-size="17.11075524549991px" fill="#e03131" text-anchor="start" style="white-space: pre;" direction="ltr" dominant-baseline="alphabetic">+</text></g><g stroke-linecap="round"><g transform="translate(21.720618298704494 92.38390251962119) rotate(0 25.0907321265384 -0.4181788687756125)"><path d="M0 0 C9.05 -1.83, 14.45 1.29, 26.76 0 M0 0 C9.36 0.43, 17.65 0.62, 26.76 0 M26.76 0 C33.29 -1.47, 34.56 1.17, 50.18 -0.84 M26.76 0 C35.49 -1.01, 44.49 -0.99, 50.18 -0.84" stroke="#1e1e1e" stroke-width="2" fill="none"></path></g><g transform="translate(21.720618298704494 92.38390251962119) rotate(0 25.0907321265384 -0.4181788687756125)"><path d="M39.12 3.03 C43.21 0.97, 45.14 1.78, 50.18 -0.84 M39.12 3.03 C43.12 2.1, 46.51 1, 50.18 -0.84" stroke="#1e1e1e" stroke-width="2" fill="none"></path></g><g transform="translate(21.720618298704494 92.38390251962119) rotate(0 25.0907321265384 -0.4181788687756125)"><path d="M39.22 -4.98 C43.26 -4.91, 45.17 -1.98, 50.18 -0.84 M39.22 -4.98 C43.25 -3.38, 46.61 -1.96, 50.18 -0.84" stroke="#1e1e1e" stroke-width="2" fill="none"></path></g></g><mask></mask><g transform="translate(20.047902823602044 69.45933275155221) rotate(0 3.742977709953095 10.69422202843748)"><text x="0" y="15.074575371285421" font-family="'Virgil 3 YOFF'" font-size="17.11075524549991px" fill="#1971c2" text-anchor="start" style="white-space: pre;" direction="ltr" dominant-baseline="alphabetic">-</text></g><g transform="translate(60.63188520386666 69.14431442791465) rotate(0 5.34711101421874 10.69422202843748)"><text x="0" y="15.074575371285421" font-family="'Virgil 3 YOFF'" font-size="17.11075524549991px" fill="#e03131" text-anchor="start" style="white-space: pre;" direction="ltr" dominant-baseline="alphabetic">+</text></g><g stroke-linecap="round"><g transform="translate(75.68310733024214 93.16596757805019) rotate(0 25.0907321265384 -0.4181788687756125)"><path d="M0 0 C12.14 1.81, 19.62 -1.71, 26.76 0 M0 0 C10.73 -0.57, 20.08 -0.86, 26.76 0 M26.76 0 C35 -1.94, 41.49 -2.11, 50.18 -0.84 M26.76 0 C34.04 -0.07, 39.31 0.58, 50.18 -0.84" stroke="#1e1e1e" stroke-width="2" fill="none"></path></g><g transform="translate(75.68310733024214 93.16596757805019) rotate(0 25.0907321265384 -0.4181788687756125)"><path d="M39.59 4.18 C44.78 3.28, 47.2 -0.72, 50.18 -0.84 M39.59 4.18 C43.86 1.91, 47.38 -0.2, 50.18 -0.84" stroke="#1e1e1e" stroke-width="2" fill="none"></path></g><g transform="translate(75.68310733024214 93.16596757805019) rotate(0 25.0907321265384 -0.4181788687756125)"><path d="M38.85 -3.8 C44.25 -1.61, 46.95 -2.52, 50.18 -0.84 M38.85 -3.8 C43.48 -2.99, 47.29 -2.02, 50.18 -0.84" stroke="#1e1e1e" stroke-width="2" fill="none"></path></g></g><mask></mask><g transform="translate(74.01039185513969 70.24139780997939) rotate(0 3.742977709953095 10.69422202843748)"><text x="0" y="15.074575371285421" font-family="'Virgil 3 YOFF'" font-size="17.11075524549991px" fill="#1971c2" text-anchor="start" style="white-space: pre;" direction="ltr" dominant-baseline="alphabetic">-</text></g><g transform="translate(114.5943742354043 69.92637948634274) rotate(0 5.34711101421874 10.69422202843748)"><text x="0" y="15.074575371285421" font-family="'Virgil 3 YOFF'" font-size="17.11075524549991px" fill="#e03131" text-anchor="start" style="white-space: pre;" direction="ltr" dominant-baseline="alphabetic">+</text></g><g stroke-linecap="round"><g transform="translate(130.42766142020764 96.29422781176254) rotate(0 25.0907321265384 -0.4181788687756125)"><path d="M0 0 C4.94 1.89, 9.66 1.88, 26.76 0 M0 0 C5.38 0.49, 11.5 -0.79, 26.76 0 M26.76 0 C35.25 -0.61, 43.47 -2.04, 50.18 -0.84 M26.76 0 C33.06 -0.76, 40 -0.51, 50.18 -0.84" stroke="#1e1e1e" stroke-width="2" fill="none"></path></g><g transform="translate(130.42766142020764 96.29422781176254) rotate(0 25.0907321265384 -0.4181788687756125)"><path d="M39.26 3.41 C41.15 3.58, 42.89 2.67, 50.18 -0.84 M39.26 3.41 C41.41 2.83, 43.98 1.18, 50.18 -0.84" stroke="#1e1e1e" stroke-width="2" fill="none"></path></g><g transform="translate(130.42766142020764 96.29422781176254) rotate(0 25.0907321265384 -0.4181788687756125)"><path d="M39.09 -4.6 C40.99 -2.72, 42.78 -1.91, 50.18 -0.84 M39.09 -4.6 C41.26 -3.47, 43.86 -3.42, 50.18 -0.84" stroke="#1e1e1e" stroke-width="2" fill="none"></path></g></g><mask></mask><g transform="translate(128.7549459451052 73.36965804369174) rotate(0 3.742977709953095 10.69422202843748)"><text x="0" y="15.074575371285421" font-family="'Virgil 3 YOFF'" font-size="17.11075524549991px" fill="#1971c2" text-anchor="start" style="white-space: pre;" direction="ltr" dominant-baseline="alphabetic">-</text></g><g transform="translate(169.3389283253698 73.05463972005509) rotate(0 5.34711101421874 10.69422202843748)"><text x="0" y="15.074575371285421" font-family="'Virgil 3 YOFF'" font-size="17.11075524549991px" fill="#e03131" text-anchor="start" style="white-space: pre;" direction="ltr" dominant-baseline="alphabetic">+</text></g><g stroke-linecap="round"><g transform="translate(182.04395527646102 93.94803263647736) rotate(0 25.0907321265384 -0.4181788687756125)"><path d="M0 0 C7.6 -0.65, 13.02 -1.73, 26.76 0 M0 0 C6.47 -0.6, 12.21 -0.38, 26.76 0 M26.76 0 C34.81 0.45, 42.13 -1.95, 50.18 -0.84 M26.76 0 C34.57 -0.35, 41.64 0.18, 50.18 -0.84" stroke="#1e1e1e" stroke-width="2" fill="none"></path></g><g transform="translate(182.04395527646102 93.94803263647736) rotate(0 25.0907321265384 -0.4181788687756125)"><path d="M39.51 4 C42.68 2.4, 44.63 0.57, 50.18 -0.84 M39.51 4 C42.12 2.54, 44.29 1.52, 50.18 -0.84" stroke="#1e1e1e" stroke-width="2" fill="none"></path></g><g transform="translate(182.04395527646102 93.94803263647736) rotate(0 25.0907321265384 -0.4181788687756125)"><path d="M38.9 -3.99 C42.3 -3.62, 44.39 -3.48, 50.18 -0.84 M38.9 -3.99 C41.64 -3.56, 43.96 -2.68, 50.18 -0.84" stroke="#1e1e1e" stroke-width="2" fill="none"></path></g></g><mask></mask><g transform="translate(180.37123980135857 71.02346286840839) rotate(0 3.742977709953095 10.69422202843748)"><text x="0" y="15.074575371285421" font-family="'Virgil 3 YOFF'" font-size="17.11075524549991px" fill="#1971c2" text-anchor="start" style="white-space: pre;" direction="ltr" dominant-baseline="alphabetic">-</text></g><g transform="translate(220.95522218162318 70.70844454477083) rotate(0 5.34711101421874 10.69422202843748)"><text x="0" y="15.074575371285421" font-family="'Virgil 3 YOFF'" font-size="17.11075524549991px" fill="#e03131" text-anchor="start" style="white-space: pre;" direction="ltr" dominant-baseline="alphabetic">+</text></g><g stroke-linecap="round"><g transform="translate(250.86568041813211 97.85835792861872) rotate(0 25.0907321265384 -0.4181788687756125)"><path d="M0 0 C6.44 1.12, 15.71 1.43, 26.76 0 M0 0 C5.13 0.13, 11.57 -0.53, 26.76 0 M26.76 0 C33.72 -1.27, 44.18 -2.01, 50.18 -0.84 M26.76 0 C34.13 0.18, 39.03 -0.6, 50.18 -0.84" stroke="#1e1e1e" stroke-width="2" fill="none"></path></g><g transform="translate(250.86568041813211 97.85835792861872) rotate(0 25.0907321265384 -0.4181788687756125)"><path d="M39.33 3.58 C41.74 2.97, 45.8 1.9, 50.18 -0.84 M39.33 3.58 C41.25 2.67, 43.96 1.31, 50.18 -0.84" stroke="#1e1e1e" stroke-width="2" fill="none"></path></g><g transform="translate(250.86568041813211 97.85835792861872) rotate(0 25.0907321265384 -0.4181788687756125)"><path d="M39.03 -4.43 C41.53 -2.78, 45.67 -1.58, 50.18 -0.84 M39.03 -4.43 C41.05 -3.57, 43.82 -3.17, 50.18 -0.84" stroke="#1e1e1e" stroke-width="2" fill="none"></path></g></g><mask></mask><g transform="translate(249.19296494302966 74.93378816054792) rotate(0 3.742977709953095 10.69422202843748)"><text x="0" y="15.074575371285421" font-family="'Virgil 3 YOFF'" font-size="17.11075524549991px" fill="#1971c2" text-anchor="start" style="white-space: pre;" direction="ltr" dominant-baseline="alphabetic">-</text></g><g transform="translate(289.7769473232943 74.61876983691127) rotate(0 5.34711101421874 10.69422202843748)"><text x="0" y="15.074575371285421" font-family="'Virgil 3 YOFF'" font-size="17.11075524549991px" fill="#e03131" text-anchor="start" style="white-space: pre;" direction="ltr" dominant-baseline="alphabetic">+</text></g><g stroke-linecap="round"><g transform="translate(19.37442312342023 134.61541567473796) rotate(0 25.0907321265384 -0.4181788687756125)"><path d="M0 0 C5.41 -1.34, 11.8 0.81, 26.76 0 M0 0 C5.68 0.96, 12.29 -0.73, 26.76 0 M26.76 0 C33.93 -1.81, 41.51 -2.01, 50.18 -0.84 M26.76 0 C33.49 -0.22, 41.37 -1.07, 50.18 -0.84" stroke="#1e1e1e" stroke-width="2" fill="none"></path></g><g transform="translate(19.37442312342023 134.61541567473796) rotate(0 25.0907321265384 -0.4181788687756125)"><path d="M39.19 3.22 C41.21 1.46, 43.82 1.74, 50.18 -0.84 M39.19 3.22 C41.48 2.85, 44.31 0.95, 50.18 -0.84" stroke="#1e1e1e" stroke-width="2" fill="none"></path></g><g transform="translate(19.37442312342023 134.61541567473796) rotate(0 25.0907321265384 -0.4181788687756125)"><path d="M39.15 -4.79 C41.23 -4.63, 43.85 -2.42, 50.18 -0.84 M39.15 -4.79 C41.43 -3.38, 44.27 -3.48, 50.18 -0.84" stroke="#1e1e1e" stroke-width="2" fill="none"></path></g></g><mask></mask><g transform="translate(17.70170764831778 111.69084590666898) rotate(0 3.742977709953095 10.69422202843748)"><text x="0" y="15.074575371285421" font-family="'Virgil 3 YOFF'" font-size="17.11075524549991px" fill="#1971c2" text-anchor="start" style="white-space: pre;" direction="ltr" dominant-baseline="alphabetic">-</text></g><g transform="translate(58.285690028582394 111.37582758303142) rotate(0 5.34711101421874 10.69422202843748)"><text x="0" y="15.074575371285421" font-family="'Virgil 3 YOFF'" font-size="17.11075524549991px" fill="#e03131" text-anchor="start" style="white-space: pre;" direction="ltr" dominant-baseline="alphabetic">+</text></g><g stroke-linecap="round"><g transform="translate(86.63201814823515 130.70509038259843) rotate(0 25.0907321265384 -0.4181788687756125)"><path d="M0 0 C6.74 0.35, 9.75 1.38, 26.76 0 M0 0 C6.44 -0.6, 12.41 0.05, 26.76 0 M26.76 0 C30.93 -0.8, 36.93 0.77, 50.18 -0.84 M26.76 0 C35.48 -0.84, 44.59 0.23, 50.18 -0.84" stroke="#1e1e1e" stroke-width="2" fill="none"></path></g><g transform="translate(86.63201814823515 130.70509038259843) rotate(0 25.0907321265384 -0.4181788687756125)"><path d="M39.54 4.07 C42.45 3.3, 43.16 2.88, 50.18 -0.84 M39.54 4.07 C42.16 2.61, 44.49 1.87, 50.18 -0.84" stroke="#1e1e1e" stroke-width="2" fill="none"></path></g><g transform="translate(86.63201814823515 130.70509038259843) rotate(0 25.0907321265384 -0.4181788687756125)"><path d="M38.88 -3.91 C41.9 -3.02, 42.75 -1.78, 50.18 -0.84 M38.88 -3.91 C41.65 -3.54, 44.14 -2.45, 50.18 -0.84" stroke="#1e1e1e" stroke-width="2" fill="none"></path></g></g><mask></mask><g transform="translate(84.9593026731327 107.78052061452763) rotate(0 3.742977709953095 10.69422202843748)"><text x="0" y="15.074575371285421" font-family="'Virgil 3 YOFF'" font-size="17.11075524549991px" fill="#1971c2" text-anchor="start" style="white-space: pre;" direction="ltr" dominant-baseline="alphabetic">-</text></g><g transform="translate(125.54328505339731 107.46550229089098) rotate(0 5.34711101421874 10.69422202843748)"><text x="0" y="15.074575371285421" font-family="'Virgil 3 YOFF'" font-size="17.11075524549991px" fill="#e03131" text-anchor="start" style="white-space: pre;" direction="ltr" dominant-baseline="alphabetic">+</text></g><g stroke-linecap="round"><g transform="translate(147.63309270562536 132.2692204994546) rotate(0 25.0907321265384 -0.4181788687756125)"><path d="M0 0 C7.77 -1.56, 16.26 -1.44, 26.76 0 M0 0 C10.01 0.24, 18.6 0.87, 26.76 0 M26.76 0 C37.38 -1.46, 44.4 -0.29, 50.18 -0.84 M26.76 0 C35.03 -1.34, 44.73 -0.28, 50.18 -0.84" stroke="#1e1e1e" stroke-width="2" fill="none"></path></g><g transform="translate(147.63309270562536 132.2692204994546) rotate(0 25.0907321265384 -0.4181788687756125)"><path d="M39.29 3.49 C42.35 1.18, 45.81 -0.12, 50.18 -0.84 M39.29 3.49 C43.43 2.09, 46.76 0.93, 50.18 -0.84" stroke="#1e1e1e" stroke-width="2" fill="none"></path></g><g transform="translate(147.63309270562536 132.2692204994546) rotate(0 25.0907321265384 -0.4181788687756125)"><path d="M39.06 -4.52 C42.15 -4.3, 45.69 -3.06, 50.18 -0.84 M39.06 -4.52 C43.33 -3.07, 46.74 -1.39, 50.18 -0.84" stroke="#1e1e1e" stroke-width="2" fill="none"></path></g></g><mask></mask><g transform="translate(145.9603772305229 109.34465073138381) rotate(0 3.742977709953095 10.69422202843748)"><text x="0" y="15.074575371285421" font-family="'Virgil 3 YOFF'" font-size="17.11075524549991px" fill="#1971c2" text-anchor="start" style="white-space: pre;" direction="ltr" dominant-baseline="alphabetic">-</text></g><g transform="translate(186.54435961078752 109.02963240774716) rotate(0 5.34711101421874 10.69422202843748)"><text x="0" y="15.074575371285421" font-family="'Virgil 3 YOFF'" font-size="17.11075524549991px" fill="#e03131" text-anchor="start" style="white-space: pre;" direction="ltr" dominant-baseline="alphabetic">+</text></g><g stroke-linecap="round"><g transform="translate(201.595581737163 132.2692204994546) rotate(0 25.0907321265384 -0.4181788687756125)"><path d="M0 0 C9.68 1.18, 19.53 -1.04, 26.76 0 M0 0 C9.38 -1.19, 16.06 -0.73, 26.76 0 M26.76 0 C34.63 1.33, 42.16 0.31, 50.18 -0.84 M26.76 0 C31.49 -1.27, 35.4 -0.95, 50.18 -0.84" stroke="#1e1e1e" stroke-width="2" fill="none"></path></g><g transform="translate(201.595581737163 132.2692204994546) rotate(0 25.0907321265384 -0.4181788687756125)"><path d="M39.13 3.06 C42.97 2.28, 46.95 -0.54, 50.18 -0.84 M39.13 3.06 C43.13 1.17, 45.59 0.22, 50.18 -0.84" stroke="#1e1e1e" stroke-width="2" fill="none"></path></g><g transform="translate(201.595581737163 132.2692204994546) rotate(0 25.0907321265384 -0.4181788687756125)"><path d="M39.21 -4.96 C43.1 -2.63, 47.04 -2.34, 50.18 -0.84 M39.21 -4.96 C43.26 -4.32, 45.69 -2.75, 50.18 -0.84" stroke="#1e1e1e" stroke-width="2" fill="none"></path></g></g><mask></mask><g transform="translate(199.92286626206055 109.34465073138381) rotate(0 3.742977709953095 10.69422202843748)"><text x="0" y="15.074575371285421" font-family="'Virgil 3 YOFF'" font-size="17.11075524549991px" fill="#1971c2" text-anchor="start" style="white-space: pre;" direction="ltr" dominant-baseline="alphabetic">-</text></g><g transform="translate(240.50684864232517 109.02963240774716) rotate(0 5.34711101421874 10.69422202843748)"><text x="0" y="15.074575371285421" font-family="'Virgil 3 YOFF'" font-size="17.11075524549991px" fill="#e03131" text-anchor="start" style="white-space: pre;" direction="ltr" dominant-baseline="alphabetic">+</text></g><g stroke-linecap="round"><g transform="translate(258.68633100241277 141.65400120059167) rotate(0 25.0907321265384 -0.4181788687756125)"><path d="M0 0 C6.98 -0.56, 15.05 -1.47, 26.76 0 M0 0 C10.21 0.12, 17.69 -0.69, 26.76 0 M26.76 0 C32.51 -1.13, 37.49 -1.89, 50.18 -0.84 M26.76 0 C34.84 0.17, 40.82 -0.29, 50.18 -0.84" stroke="#1e1e1e" stroke-width="2" fill="none"></path></g><g transform="translate(258.68633100241277 141.65400120059167) rotate(0 25.0907321265384 -0.4181788687756125)"><path d="M39.43 3.81 C42.26 2.32, 45.75 0.63, 50.18 -0.84 M39.43 3.81 C43.74 2.25, 46.42 0.16, 50.18 -0.84" stroke="#1e1e1e" stroke-width="2" fill="none"></path></g><g transform="translate(258.68633100241277 141.65400120059167) rotate(0 25.0907321265384 -0.4181788687756125)"><path d="M38.95 -4.19 C41.95 -3.68, 45.56 -3.37, 50.18 -0.84 M38.95 -4.19 C43.36 -2.97, 46.2 -2.29, 50.18 -0.84" stroke="#1e1e1e" stroke-width="2" fill="none"></path></g></g><mask></mask><g transform="translate(257.0136155273103 118.72943143252087) rotate(0 3.742977709953095 10.69422202843748)"><text x="0" y="15.074575371285421" font-family="'Virgil 3 YOFF'" font-size="17.11075524549991px" fill="#1971c2" text-anchor="start" style="white-space: pre;" direction="ltr" dominant-baseline="alphabetic">-</text></g><g transform="translate(297.59759790757494 118.41441310888422) rotate(0 5.34711101421874 10.69422202843748)"><text x="0" y="15.074575371285421" font-family="'Virgil 3 YOFF'" font-size="17.11075524549991px" fill="#e03131" text-anchor="start" style="white-space: pre;" direction="ltr" dominant-baseline="alphabetic">+</text></g><g stroke-linecap="round"><g transform="translate(17.810293006564052 176.84692882985473) rotate(0 25.0907321265384 -0.4181788687756125)"><path d="M0 0 C7.62 -0.5, 10.99 -1.61, 26.76 0 M0 0 C5.4 0.79, 12.93 -0.49, 26.76 0 M26.76 0 C32.59 0.29, 39.28 0.49, 50.18 -0.84 M26.76 0 C35.65 -1.07, 44.65 -1.16, 50.18 -0.84" stroke="#1e1e1e" stroke-width="2" fill="none"></path></g><g transform="translate(17.810293006564052 176.84692882985473) rotate(0 25.0907321265384 -0.4181788687756125)"><path d="M39.06 2.86 C42.55 1.79, 43.52 0.33, 50.18 -0.84 M39.06 2.86 C41.14 2.45, 44.47 0.82, 50.18 -0.84" stroke="#1e1e1e" stroke-width="2" fill="none"></path></g><g transform="translate(17.810293006564052 176.84692882985473) rotate(0 25.0907321265384 -0.4181788687756125)"><path d="M39.29 -5.15 C42.69 -4.47, 43.62 -4.18, 50.18 -0.84 M39.29 -5.15 C41.32 -3.66, 44.59 -3.38, 50.18 -0.84" stroke="#1e1e1e" stroke-width="2" fill="none"></path></g></g><mask></mask><g transform="translate(16.137577531461602 153.92235906178576) rotate(0 3.742977709953095 10.69422202843748)"><text x="0" y="15.074575371285421" font-family="'Virgil 3 YOFF'" font-size="17.11075524549991px" fill="#1971c2" text-anchor="start" style="white-space: pre;" direction="ltr" dominant-baseline="alphabetic">-</text></g><g transform="translate(56.72155991172622 153.6073407381482) rotate(0 5.34711101421874 10.69422202843748)"><text x="0" y="15.074575371285421" font-family="'Virgil 3 YOFF'" font-size="17.11075524549991px" fill="#e03131" text-anchor="start" style="white-space: pre;" direction="ltr" dominant-baseline="alphabetic">+</text></g><g stroke-linecap="round"><g transform="translate(79.59343262238235 173.71866859614238) rotate(0 25.0907321265384 -0.4181788687756125)"><path d="M0 0 C8.6 -1.09, 14.29 -1.42, 26.76 0 M0 0 C9.17 0.36, 18.42 0.69, 26.76 0 M26.76 0 C32.51 -0.61, 37.41 -1.39, 50.18 -0.84 M26.76 0 C34.6 -0.4, 43.73 0.3, 50.18 -0.84" stroke="#1e1e1e" stroke-width="2" fill="none"></path></g><g transform="translate(79.59343262238235 173.71866859614238) rotate(0 25.0907321265384 -0.4181788687756125)"><path d="M39.6 4.19 C43.35 2.26, 45.39 0.79, 50.18 -0.84 M39.6 4.19 C43.1 2.56, 46.68 0.95, 50.18 -0.84" stroke="#1e1e1e" stroke-width="2" fill="none"></path></g><g transform="translate(79.59343262238235 173.71866859614238) rotate(0 25.0907321265384 -0.4181788687756125)"><path d="M38.84 -3.79 C42.78 -3.7, 45.02 -3.15, 50.18 -0.84 M38.84 -3.79 C42.67 -2.54, 46.53 -1.28, 50.18 -0.84" stroke="#1e1e1e" stroke-width="2" fill="none"></path></g></g><mask></mask><g transform="translate(77.9207171472799 150.7940988280734) rotate(0 3.742977709953095 10.69422202843748)"><text x="0" y="15.074575371285421" font-family="'Virgil 3 YOFF'" font-size="17.11075524549991px" fill="#1971c2" text-anchor="start" style="white-space: pre;" direction="ltr" dominant-baseline="alphabetic">-</text></g><g transform="translate(118.50469952754452 150.47908050443584) rotate(0 5.34711101421874 10.69422202843748)"><text x="0" y="15.074575371285421" font-family="'Virgil 3 YOFF'" font-size="17.11075524549991px" fill="#e03131" text-anchor="start" style="white-space: pre;" direction="ltr" dominant-baseline="alphabetic">+</text></g><g stroke-linecap="round"><g transform="translate(141.37657223820088 173.71866859614238) rotate(0 25.0907321265384 -0.4181788687756125)"><path d="M0 0 C9.59 0.18, 18.57 -0.43, 26.76 0 M0 0 C6.31 -0.55, 13.24 -0.04, 26.76 0 M26.76 0 C34.16 0.56, 45.82 -1.38, 50.18 -0.84 M26.76 0 C32.01 -0.85, 37.33 -0.91, 50.18 -0.84" stroke="#1e1e1e" stroke-width="2" fill="none"></path></g><g transform="translate(141.37657223820088 173.71866859614238) rotate(0 25.0907321265384 -0.4181788687756125)"><path d="M39.17 3.16 C43.16 1.86, 46.77 0.08, 50.18 -0.84 M39.17 3.16 C41.66 1.79, 44.55 1.09, 50.18 -0.84" stroke="#1e1e1e" stroke-width="2" fill="none"></path></g><g transform="translate(141.37657223820088 173.71866859614238) rotate(0 25.0907321265384 -0.4181788687756125)"><path d="M39.18 -4.86 C43.11 -3.32, 46.72 -2.25, 50.18 -0.84 M39.18 -4.86 C41.73 -4.21, 44.61 -2.91, 50.18 -0.84" stroke="#1e1e1e" stroke-width="2" fill="none"></path></g></g><mask></mask><g transform="translate(139.70385676309843 150.7940988280734) rotate(0 3.742977709953095 10.69422202843748)"><text x="0" y="15.074575371285421" font-family="'Virgil 3 YOFF'" font-size="17.11075524549991px" fill="#1971c2" text-anchor="start" style="white-space: pre;" direction="ltr" dominant-baseline="alphabetic">-</text></g><g transform="translate(180.28783914336304 150.47908050443584) rotate(0 5.34711101421874 10.69422202843748)"><text x="0" y="15.074575371285421" font-family="'Virgil 3 YOFF'" font-size="17.11075524549991px" fill="#e03131" text-anchor="start" style="white-space: pre;" direction="ltr" dominant-baseline="alphabetic">+</text></g><g stroke-linecap="round"><g transform="translate(195.3390612697383 169.80834330400285) rotate(0 25.0907321265384 -0.4181788687756125)"><path d="M0 0 C5.65 -1.44, 15.26 1.26, 26.76 0 M0 0 C5.79 -0.19, 12.68 -0.42, 26.76 0 M26.76 0 C31.29 0.69, 35.55 1.71, 50.18 -0.84 M26.76 0 C31.71 -0.22, 37.88 -0.64, 50.18 -0.84" stroke="#1e1e1e" stroke-width="2" fill="none"></path></g><g transform="translate(195.3390612697383 169.80834330400285) rotate(0 25.0907321265384 -0.4181788687756125)"><path d="M39.27 3.43 C41.25 1.4, 45.58 1.82, 50.18 -0.84 M39.27 3.43 C41.48 2.22, 44.31 1, 50.18 -0.84" stroke="#1e1e1e" stroke-width="2" fill="none"></path></g><g transform="translate(195.3390612697383 169.80834330400285) rotate(0 25.0907321265384 -0.4181788687756125)"><path d="M39.08 -4.58 C41.17 -4.43, 45.56 -1.83, 50.18 -0.84 M39.08 -4.58 C41.29 -3.76, 44.16 -2.95, 50.18 -0.84" stroke="#1e1e1e" stroke-width="2" fill="none"></path></g></g><mask></mask><g transform="translate(193.66634579463584 146.88377353593205) rotate(0 3.742977709953095 10.69422202843748)"><text x="0" y="15.074575371285421" font-family="'Virgil 3 YOFF'" font-size="17.11075524549991px" fill="#1971c2" text-anchor="start" style="white-space: pre;" direction="ltr" dominant-baseline="alphabetic">-</text></g><g transform="translate(234.25032817490046 146.5687552122954) rotate(0 5.34711101421874 10.69422202843748)"><text x="0" y="15.074575371285421" font-family="'Virgil 3 YOFF'" font-size="17.11075524549991px" fill="#e03131" text-anchor="start" style="white-space: pre;" direction="ltr" dominant-baseline="alphabetic">+</text></g><g stroke-linecap="round"><g transform="translate(253.99394065184447 174.50073365457138) rotate(0 25.0907321265384 -0.4181788687756125)"><path d="M0 0 C5.72 -0.64, 13.99 -1.66, 26.76 0 M0 0 C10.09 0.09, 21.19 1.19, 26.76 0 M26.76 0 C34.64 -0.71, 40.1 -0.11, 50.18 -0.84 M26.76 0 C34.89 -0.25, 45.19 0.41, 50.18 -0.84" stroke="#1e1e1e" stroke-width="2" fill="none"></path></g><g transform="translate(253.99394065184447 174.50073365457138) rotate(0 25.0907321265384 -0.4181788687756125)"><path d="M39.73 4.45 C41.83 2.75, 45.38 0.85, 50.18 -0.84 M39.73 4.45 C43.6 2.35, 48.02 0.88, 50.18 -0.84" stroke="#1e1e1e" stroke-width="2" fill="none"></path></g><g transform="translate(253.99394065184447 174.50073365457138) rotate(0 25.0907321265384 -0.4181788687756125)"><path d="M38.77 -3.51 C41.05 -3.24, 44.84 -3.18, 50.18 -0.84 M38.77 -3.51 C42.96 -2.42, 47.76 -0.71, 50.18 -0.84" stroke="#1e1e1e" stroke-width="2" fill="none"></path></g></g><mask></mask><g transform="translate(252.32122517674202 151.57616388650058) rotate(0 3.742977709953095 10.69422202843748)"><text x="0" y="15.074575371285421" font-family="'Virgil 3 YOFF'" font-size="17.11075524549991px" fill="#1971c2" text-anchor="start" style="white-space: pre;" direction="ltr" dominant-baseline="alphabetic">-</text></g><g transform="translate(292.90520755700663 151.26114556286393) rotate(0 5.34711101421874 10.69422202843748)"><text x="0" y="15.074575371285421" font-family="'Virgil 3 YOFF'" font-size="17.11075524549991px" fill="#e03131" text-anchor="start" style="white-space: pre;" direction="ltr" dominant-baseline="alphabetic">+</text></g><g stroke-linecap="round"><g transform="translate(16.246162889707875 220.64257210182768) rotate(0 25.0907321265384 -0.4181788687756125)"><path d="M0 0 C12.41 1.86, 20.93 1.27, 26.76 0 M0 0 C7.99 -0.76, 17.38 0.78, 26.76 0 M26.76 0 C36.88 -0.89, 45.99 -0.26, 50.18 -0.84 M26.76 0 C33.16 -0.79, 40.79 -0.92, 50.18 -0.84" stroke="#1e1e1e" stroke-width="2" fill="none"></path></g><g transform="translate(16.246162889707875 220.64257210182768) rotate(0 25.0907321265384 -0.4181788687756125)"><path d="M39.17 3.16 C44.61 2.66, 47.75 0.73, 50.18 -0.84 M39.17 3.16 C42.3 1.44, 46.27 1.03, 50.18 -0.84" stroke="#1e1e1e" stroke-width="2" fill="none"></path></g><g transform="translate(16.246162889707875 220.64257210182768) rotate(0 25.0907321265384 -0.4181788687756125)"><path d="M39.17 -4.85 C44.58 -2.18, 47.72 -0.93, 50.18 -0.84 M39.17 -4.85 C42.36 -3.96, 46.33 -1.74, 50.18 -0.84" stroke="#1e1e1e" stroke-width="2" fill="none"></path></g></g><mask></mask><g transform="translate(14.573447414605425 197.71800233375689) rotate(0 3.742977709953095 10.69422202843748)"><text x="0" y="15.074575371285421" font-family="'Virgil 3 YOFF'" font-size="17.11075524549991px" fill="#1971c2" text-anchor="start" style="white-space: pre;" direction="ltr" dominant-baseline="alphabetic">-</text></g><g transform="translate(55.15742979487004 197.40298401012024) rotate(0 5.34711101421874 10.69422202843748)"><text x="0" y="15.074575371285421" font-family="'Virgil 3 YOFF'" font-size="17.11075524549991px" fill="#e03131" text-anchor="start" style="white-space: pre;" direction="ltr" dominant-baseline="alphabetic">+</text></g><g stroke-linecap="round"><g transform="translate(78.81136756395426 211.25779140069062) rotate(0 25.0907321265384 -0.4181788687756125)"><path d="M0 0 C11.43 0.99, 20.53 1.06, 26.76 0 M0 0 C9.13 -0.45, 16.92 0.45, 26.76 0 M26.76 0 C32.88 1.13, 40.42 1.14, 50.18 -0.84 M26.76 0 C33.61 0.6, 38.68 -0.02, 50.18 -0.84" stroke="#1e1e1e" stroke-width="2" fill="none"></path></g><g transform="translate(78.81136756395426 211.25779140069062) rotate(0 25.0907321265384 -0.4181788687756125)"><path d="M39.5 3.97 C44.19 2.68, 47.57 0.83, 50.18 -0.84 M39.5 3.97 C43.23 2.17, 46.18 1.13, 50.18 -0.84" stroke="#1e1e1e" stroke-width="2" fill="none"></path></g><g transform="translate(78.81136756395426 211.25779140069062) rotate(0 25.0907321265384 -0.4181788687756125)"><path d="M38.91 -4.02 C43.9 -2.18, 47.51 -0.89, 50.18 -0.84 M38.91 -4.02 C42.82 -3.23, 45.96 -1.67, 50.18 -0.84" stroke="#1e1e1e" stroke-width="2" fill="none"></path></g></g><mask></mask><g transform="translate(77.13865208885181 188.33322163261982) rotate(0 3.742977709953095 10.69422202843748)"><text x="0" y="15.074575371285421" font-family="'Virgil 3 YOFF'" font-size="17.11075524549991px" fill="#1971c2" text-anchor="start" style="white-space: pre;" direction="ltr" dominant-baseline="alphabetic">-</text></g><g transform="translate(117.72263446911643 188.01820330898317) rotate(0 5.34711101421874 10.69422202843748)"><text x="0" y="15.074575371285421" font-family="'Virgil 3 YOFF'" font-size="17.11075524549991px" fill="#e03131" text-anchor="start" style="white-space: pre;" direction="ltr" dominant-baseline="alphabetic">+</text></g><g stroke-linecap="round"><g transform="translate(147.63309270562536 214.38605163440297) rotate(0 25.0907321265384 -0.4181788687756125)"><path d="M0 0 C8.02 -0.34, 20.26 0.96, 26.76 0 M0 0 C9.27 1.02, 20.5 0.04, 26.76 0 M26.76 0 C35.76 0.09, 41.1 0.93, 50.18 -0.84 M26.76 0 C34.62 -1.08, 43.12 -0.88, 50.18 -0.84" stroke="#1e1e1e" stroke-width="2" fill="none"></path></g><g transform="translate(147.63309270562536 214.38605163440297) rotate(0 25.0907321265384 -0.4181788687756125)"><path d="M39.15 3.1 C42.2 1.54, 47.72 0.9, 50.18 -0.84 M39.15 3.1 C42.87 2.2, 47.73 0.17, 50.18 -0.84" stroke="#1e1e1e" stroke-width="2" fill="none"></path></g><g transform="translate(147.63309270562536 214.38605163440297) rotate(0 25.0907321265384 -0.4181788687756125)"><path d="M39.2 -4.91 C42.21 -3.62, 47.7 -1.4, 50.18 -0.84 M39.2 -4.91 C42.87 -2.84, 47.71 -1.91, 50.18 -0.84" stroke="#1e1e1e" stroke-width="2" fill="none"></path></g></g><mask></mask><g transform="translate(145.9603772305229 191.46148186633218) rotate(0 3.742977709953095 10.69422202843748)"><text x="0" y="15.074575371285421" font-family="'Virgil 3 YOFF'" font-size="17.11075524549991px" fill="#1971c2" text-anchor="start" style="white-space: pre;" direction="ltr" dominant-baseline="alphabetic">-</text></g><g transform="translate(186.54435961078752 191.14646354269553) rotate(0 5.34711101421874 10.69422202843748)"><text x="0" y="15.074575371285421" font-family="'Virgil 3 YOFF'" font-size="17.11075524549991px" fill="#e03131" text-anchor="start" style="white-space: pre;" direction="ltr" dominant-baseline="alphabetic">+</text></g><g stroke-linecap="round"><g transform="translate(198.46732150345065 210.47572634226162) rotate(0 25.0907321265384 -0.4181788687756125)"><path d="M0 0 C6.55 1.26, 15.26 -1.03, 26.76 0 M0 0 C10.13 -0.28, 18.98 0.19, 26.76 0 M26.76 0 C32.4 -1.78, 41.09 -2.24, 50.18 -0.84 M26.76 0 C32.73 -1.36, 39.17 -1.54, 50.18 -0.84" stroke="#1e1e1e" stroke-width="2" fill="none"></path></g><g transform="translate(198.46732150345065 210.47572634226162) rotate(0 25.0907321265384 -0.4181788687756125)"><path d="M39.01 2.68 C41.57 2.45, 45.41 0.12, 50.18 -0.84 M39.01 2.68 C43.27 1.24, 46.79 0.22, 50.18 -0.84" stroke="#1e1e1e" stroke-width="2" fill="none"></path></g><g transform="translate(198.46732150345065 210.47572634226162) rotate(0 25.0907321265384 -0.4181788687756125)"><path d="M39.36 -5.32 C41.85 -3.31, 45.59 -3.39, 50.18 -0.84 M39.36 -5.32 C43.52 -3.82, 46.92 -1.89, 50.18 -0.84" stroke="#1e1e1e" stroke-width="2" fill="none"></path></g></g><mask></mask><g transform="translate(196.7946060283482 187.55115657419265) rotate(0 3.742977709953095 10.69422202843748)"><text x="0" y="15.074575371285421" font-family="'Virgil 3 YOFF'" font-size="17.11075524549991px" fill="#1971c2" text-anchor="start" style="white-space: pre;" direction="ltr" dominant-baseline="alphabetic">-</text></g><g transform="translate(237.3785884086128 187.2361382505551) rotate(0 5.34711101421874 10.69422202843748)"><text x="0" y="15.074575371285421" font-family="'Virgil 3 YOFF'" font-size="17.11075524549991px" fill="#e03131" text-anchor="start" style="white-space: pre;" direction="ltr" dominant-baseline="alphabetic">+</text></g><g stroke-linecap="round"><g transform="translate(254.74039677311248 210.47572634226162) rotate(0 25.0907321265384 -0.4181788687756125)"><path d="M0 0 C8.92 -1.04, 16.14 1.17, 26.76 0 M0 0 C6.32 -0.79, 10.35 -0.85, 26.76 0 M26.76 0 C31.58 1.03, 38.12 1.32, 50.18 -0.84 M26.76 0 C34.18 0.57, 41.26 -1.06, 50.18 -0.84" stroke="#1e1e1e" stroke-width="2" fill="none"></path></g><g transform="translate(254.74039677311248 210.47572634226162) rotate(0 25.0907321265384 -0.4181788687756125)"><path d="M39.28 3.45 C42.93 1.46, 45.59 1.34, 50.18 -0.84 M39.28 3.45 C41.98 2.13, 43.33 1.18, 50.18 -0.84" stroke="#1e1e1e" stroke-width="2" fill="none"></path></g><g transform="translate(254.74039677311248 210.47572634226162) rotate(0 25.0907321265384 -0.4181788687756125)"><path d="M39.07 -4.57 C42.78 -3.91, 45.5 -1.38, 50.18 -0.84 M39.07 -4.57 C41.8 -4.19, 43.19 -3.44, 50.18 -0.84" stroke="#1e1e1e" stroke-width="2" fill="none"></path></g></g><mask></mask><g transform="translate(253.06768129801003 187.55115657419265) rotate(0 3.742977709953095 10.69422202843748)"><text x="0" y="15.074575371285421" font-family="'Virgil 3 YOFF'" font-size="17.11075524549991px" fill="#1971c2" text-anchor="start" style="white-space: pre;" direction="ltr" dominant-baseline="alphabetic">-</text></g><g transform="translate(293.65166367827464 187.2361382505551) rotate(0 5.34711101421874 10.69422202843748)"><text x="0" y="15.074575371285421" font-family="'Virgil 3 YOFF'" font-size="17.11075524549991px" fill="#e03131" text-anchor="start" style="white-space: pre;" direction="ltr" dominant-baseline="alphabetic">+</text></g><g stroke-linecap="round"><g transform="translate(257.9042659439848 54.06271465664577) rotate(0 25.0907321265384 -0.4181788687756125)"><path d="M0 0 C11.64 -0.49, 20.35 1.12, 26.76 0 M0 0 C6.84 -0.76, 13.88 0.12, 26.76 0 M26.76 0 C33.71 -1.04, 45.06 -0.02, 50.18 -0.84 M26.76 0 C34.58 0.32, 44.61 -0.26, 50.18 -0.84" stroke="#1e1e1e" stroke-width="2" fill="none"></path></g><g transform="translate(257.9042659439848 54.06271465664577) rotate(0 25.0907321265384 -0.4181788687756125)"><path d="M39.54 4.06 C44.4 1.84, 47.53 0.86, 50.18 -0.84 M39.54 4.06 C42.25 2.35, 45.06 1.6, 50.18 -0.84" stroke="#1e1e1e" stroke-width="2" fill="none"></path></g><g transform="translate(257.9042659439848 54.06271465664577) rotate(0 25.0907321265384 -0.4181788687756125)"><path d="M38.88 -3.93 C43.97 -3.02, 47.36 -0.86, 50.18 -0.84 M38.88 -3.93 C41.74 -3.56, 44.73 -2.24, 50.18 -0.84" stroke="#1e1e1e" stroke-width="2" fill="none"></path></g></g><mask></mask><g transform="translate(256.23155046888235 31.13814488857679) rotate(0 3.742977709953095 10.69422202843748)"><text x="0" y="15.074575371285421" font-family="'Virgil 3 YOFF'" font-size="17.11075524549991px" fill="#1971c2" text-anchor="start" style="white-space: pre;" direction="ltr" dominant-baseline="alphabetic">-</text></g><g transform="translate(296.81553284914696 30.82312656493923) rotate(0 5.34711101421874 10.69422202843748)"><text x="0" y="15.074575371285421" font-family="'Virgil 3 YOFF'" font-size="17.11075524549991px" fill="#e03131" text-anchor="start" style="white-space: pre;" direction="ltr" dominant-baseline="alphabetic">+</text></g><g stroke-linecap="round" transform="translate(62.468573999938144 22.75032283926339) rotate(0 17.320454861218423 14.71307455952956)"><path d="M12.89 0.67 C16.22 -0.29, 21.4 0.05, 24.76 1.38 C28.12 2.7, 31.51 5.68, 33.03 8.63 C34.55 11.57, 34.84 16.04, 33.87 19.06 C32.9 22.08, 30.32 25.04, 27.22 26.74 C24.12 28.45, 19.02 29.58, 15.29 29.3 C11.56 29.03, 7.39 27.37, 4.85 25.09 C2.31 22.82, 0.38 18.82, 0.06 15.67 C-0.26 12.52, 0.61 8.76, 2.92 6.22 C5.23 3.67, 12.09 1.26, 13.92 0.4 C15.76 -0.46, 13.93 0.8, 13.94 1.04 M18.14 0.3 C21.75 0.44, 26.29 2.52, 29.12 4.64 C31.95 6.77, 34.78 10, 35.13 13.06 C35.47 16.11, 33.43 20.3, 31.19 22.96 C28.95 25.62, 25.24 28.05, 21.67 29.01 C18.1 29.97, 13.16 30.13, 9.78 28.72 C6.39 27.31, 3 23.37, 1.36 20.53 C-0.28 17.68, -0.87 14.6, -0.04 11.64 C0.78 8.69, 3.19 4.73, 6.3 2.78 C9.42 0.82, 16.58 0.21, 18.67 -0.08 C20.75 -0.37, 18.96 0.77, 18.79 1.04" stroke="#f08c00" stroke-width="2" fill="none"></path></g><g transform="translate(94.12962052044509 10.58938362002209) rotate(0 19.89166666666665 10)"><text x="0" y="14.096" font-family="'Virgil 3 YOFF'" font-size="16px" fill="#f08c00" text-anchor="start" style="white-space: pre;" direction="ltr" dominant-baseline="alphabetic">close</text></g></svg>