<svg version="1.1" xmlns="http://www.w3.org/2000/svg" viewBox="0 0 528.3156304376704 551.2135239147952" width="1056.6312608753408" height="1102.4270478295905">
  <!-- svg-source:excalidraw -->
    <g stroke-linecap="round" transform="translate(10 123.84087101744967) rotate(0 94.40426045454194 87.10496196578868)"><path d="M16.23 37.96 C16.23 37.96, 16.23 37.96, 16.23 37.96 M16.23 37.96 C16.23 37.96, 16.23 37.96, 16.23 37.96 M2.59 65.85 C19.19 46.29, 37.52 26.39, 47.86 13.77 M2.59 65.85 C13.4 55.55, 22.42 43.45, 47.86 13.77 M1.41 79.4 C20.09 62.3, 33.35 41.67, 63.73 7.7 M1.41 79.4 C23.97 53.33, 46.55 27.06, 63.73 7.7 M1.54 91.44 C24.41 66.2, 44.24 41.26, 79.61 1.63 M1.54 91.44 C20.59 71.36, 37.61 51.82, 79.61 1.63 M2.33 102.73 C33.83 67.88, 62.52 34.1, 90.24 1.6 M2.33 102.73 C31.85 68.79, 62.61 32.77, 90.24 1.6 M5.74 110.99 C33.25 77.37, 64.27 41.5, 100.87 1.56 M5.74 110.99 C24.93 86.9, 45.09 64.44, 100.87 1.56 M9.16 119.26 C45.32 78.26, 82.43 35.48, 111.5 1.53 M9.16 119.26 C49.16 72.57, 89.12 26.5, 111.5 1.53 M12.57 127.53 C37.52 101.7, 57.99 70.83, 120.16 3.76 M12.57 127.53 C36.36 99.86, 59.03 74.04, 120.16 3.76 M15.98 135.8 C48.48 93.69, 85.01 56.44, 128.17 6.74 M15.98 135.8 C47.8 96.59, 81.28 59.64, 128.17 6.74 M22.02 141.04 C49.96 112.52, 71.67 81.88, 136.18 9.73 M22.02 141.04 C45.2 114.24, 68.67 88.14, 136.18 9.73 M28.06 146.29 C56.69 114.97, 82.75 86.23, 143.53 13.46 M28.06 146.29 C73.93 92.27, 120.29 38.98, 143.53 13.46 M33.44 152.3 C78.14 98.73, 119.43 51.47, 150.88 17.2 M33.44 152.3 C67.96 113.47, 103.26 71.2, 150.88 17.2 M39.48 157.54 C85.48 104.21, 135.18 49.65, 156.26 23.21 M39.48 157.54 C62.06 130.34, 87.15 103.06, 156.26 23.21 M46.83 161.28 C90.71 108.87, 135.99 55.29, 162.3 28.46 M46.83 161.28 C91.03 111.53, 133.53 61.15, 162.3 28.46 M54.83 164.27 C97.12 117.69, 138.53 69.23, 168.33 33.7 M54.83 164.27 C97.48 115.71, 139.26 67.49, 168.33 33.7 M62.18 168.01 C89.13 136.33, 116.58 105.34, 173.71 39.71 M62.18 168.01 C90.65 132.87, 120.17 98.92, 173.71 39.71 M70.19 170.99 C102.85 134.25, 135.53 96.84, 177.78 47.22 M70.19 170.99 C100.43 136.64, 130.07 101.64, 177.78 47.22 M78.85 173.22 C115.24 133.17, 148.93 92.97, 181.2 55.49 M78.85 173.22 C113.95 133.22, 149.4 92.89, 181.2 55.49 M89.48 173.19 C113.67 145, 141.21 115.06, 184.61 63.75 M89.48 173.19 C115.59 142.19, 142.57 110.45, 184.61 63.75 M100.11 173.15 C131.46 137.27, 162.09 103.12, 188.02 72.02 M100.11 173.15 C128.38 141.78, 156.06 109.49, 188.02 72.02 M110.74 173.12 C138.86 140.84, 164.23 110.33, 187.5 84.82 M110.74 173.12 C133.59 147.84, 155.69 120.82, 187.5 84.82 M125.31 168.56 C148.45 143.59, 172.2 115.93, 186.32 98.37 M125.31 168.56 C141.62 150.68, 157.08 130.41, 186.32 98.37 M141.19 162.48 C151.87 149.47, 162.51 137.53, 181.86 115.69 M141.19 162.48 C155.7 146.47, 170.67 127.95, 181.86 115.69 M40.18 158.03 C40.18 158.03, 40.18 158.03, 40.18 158.03 M40.18 158.03 C40.18 158.03, 40.18 158.03, 40.18 158.03 M64.3 168.39 C46.33 153.31, 31.25 140.42, 19.02 129.03 M64.3 168.39 C54.11 159.33, 42.29 151.34, 19.02 129.03 M77.85 169.57 C55.48 147.8, 29.96 130.72, 12.19 112.49 M77.85 169.57 C53.17 147.36, 27.33 124.57, 12.19 112.49 M89.89 169.44 C64.7 147.31, 42.48 130.67, 6.87 97.27 M89.89 169.44 C72 152.4, 52.09 136.38, 6.87 97.27 M101.93 169.3 C71.43 143.15, 37.46 112.12, 6.84 86.64 M101.93 169.3 C81.44 150.78, 60.5 131.74, 6.84 86.64 M114.73 169.83 C81.28 140.11, 46.37 110.76, 6.8 76.01 M114.73 169.83 C76.62 136.51, 38.72 103.72, 6.8 76.01 M122.99 166.41 C91.53 138.48, 59.5 107.4, 5.26 64.07 M122.99 166.41 C82.75 132.76, 43.73 97.14, 5.26 64.07 M132.02 163.65 C99.43 135.72, 69 109.93, 9 56.72 M132.02 163.65 C105.2 141.53, 77.81 116.15, 9 56.72 M140.28 160.24 C97.43 124.85, 52.9 85.93, 12.74 49.37 M140.28 160.24 C112.41 135.64, 86.52 113.49, 12.74 49.37 M149.3 157.48 C123.93 133.08, 96.79 107.55, 16.48 42.02 M149.3 157.48 C100.56 116.88, 53.47 75.35, 16.48 42.02 M155.31 152.1 C125.9 128.75, 99.99 104.29, 19.46 34.01 M155.31 152.1 C108.98 112.11, 64.2 74.31, 19.46 34.01 M160.56 146.06 C129.11 115.73, 96.68 90.2, 25.46 28.63 M160.56 146.06 C124.04 114.95, 88.04 84.51, 25.46 28.63 M166.56 140.68 C124.46 104.54, 78.55 67.6, 32.22 23.9 M166.56 140.68 C127.85 105.75, 91.08 73.92, 32.22 23.9 M173.32 135.96 C119.8 89.44, 64.06 43.87, 38.22 18.52 M173.32 135.96 C124.19 92.69, 75.52 50.43, 38.22 18.52 M176.3 127.95 C136.61 90.85, 94.89 55.6, 44.23 13.14 M176.3 127.95 C140.68 95.72, 106.16 66.37, 44.23 13.14 M180.04 120.6 C150.35 95.44, 119.83 65.61, 53.25 10.38 M180.04 120.6 C148.43 92.61, 115.8 65.04, 53.25 10.38 M183.03 112.6 C148.04 82.25, 112.17 51.64, 61.52 6.97 M183.03 112.6 C140.79 74.19, 97.75 37.01, 61.52 6.97 M186.76 105.25 C150.39 75.75, 117.68 43.83, 69.78 3.56 M186.76 105.25 C155.85 78.08, 125.6 50.13, 69.78 3.56 M187.48 95.27 C144.03 57.21, 102.5 23.73, 78.81 0.8 M187.48 95.27 C158.4 70.48, 131.62 45.85, 78.81 0.8 M187.45 84.64 C162.54 62.36, 142.83 44.5, 90.85 0.67 M187.45 84.64 C157.51 59.73, 126.55 32.8, 90.85 0.67 M188.17 74.67 C168.23 57.86, 148.53 40.8, 102.89 0.53 M188.17 74.67 C159.43 47.97, 129 22.17, 102.89 0.53 M191.91 67.32 C168.13 46.21, 145.31 27.76, 114.93 0.4 M191.91 67.32 C162.92 41.02, 134.71 16.53, 114.93 0.4 M184.33 50.13 C173.59 42.5, 161.25 29.63, 137.54 9.45 M184.33 50.13 C175.28 42.16, 163.42 32.43, 137.54 9.45" stroke="#ffec99" stroke-width="1" fill="none"></path><path d="M78.22 1.2 C89.28 -2.04, 102.22 -1.25, 113.82 0.99 C125.42 3.23, 137.77 8.13, 147.81 14.62 C157.86 21.12, 167.47 30.41, 174.11 39.96 C180.75 49.52, 185.67 60.92, 187.65 71.95 C189.63 82.97, 188.49 95.38, 185.98 106.11 C183.48 116.85, 179.28 127.26, 172.61 136.37 C165.93 145.47, 156.04 154.61, 145.93 160.74 C135.81 166.87, 123.82 171.11, 111.93 173.13 C100.05 175.15, 86.58 175.39, 74.6 172.85 C62.62 170.32, 50.03 164.39, 40.06 157.92 C30.1 151.45, 21.17 143.15, 14.8 134.05 C8.42 124.95, 4.1 114.22, 1.82 103.32 C-0.47 92.42, -1.31 79.53, 1.08 68.65 C3.47 57.76, 9.13 47.01, 16.18 38.02 C23.22 29.04, 32.04 20.97, 43.33 14.75 C54.62 8.53, 75.84 2.91, 83.93 0.72 C92.02 -1.47, 91.79 0.33, 91.88 1.59 M82.56 1.76 C93.96 -0.94, 109.26 -0.72, 120.79 1.94 C132.31 4.6, 142.38 10.63, 151.72 17.73 C161.05 24.82, 170.76 34.58, 176.79 44.49 C182.82 54.4, 186.62 66.36, 187.88 77.19 C189.13 88.01, 187.52 98.67, 184.33 109.44 C181.15 120.22, 176.25 132.89, 168.77 141.84 C161.29 150.79, 149.85 157.86, 139.47 163.16 C129.1 168.45, 118.33 172.17, 106.54 173.61 C94.74 175.06, 80.61 174.67, 68.69 171.85 C56.77 169.03, 44.7 163.9, 35.01 156.69 C25.33 149.47, 16.38 138.57, 10.56 128.56 C4.75 118.56, 1.36 107.29, 0.12 96.67 C-1.12 86.05, -0.35 75.57, 3.13 64.86 C6.6 54.14, 13.24 41.59, 20.95 32.39 C28.67 23.19, 38.96 14.89, 49.42 9.65 C59.88 4.42, 77.94 2.3, 83.71 0.96 C89.48 -0.38, 84.16 0.21, 84.03 1.6" stroke="#f08c00" stroke-width="2" fill="none"></path></g><g stroke-linecap="round"><g transform="translate(101.48454105904057 299.0240347475276) rotate(0 0.4866198992502291 68.12678589503014)"><path d="M0.38 0.85 C0.53 23.55, 0.26 114, 0.4 136.53 M-0.88 0.25 C-0.89 22.54, -1.09 111.72, -0.85 134.55" stroke="#f08c00" stroke-width="2" fill="none"></path></g></g><mask></mask><g stroke-linecap="round"><g transform="translate(101.48454105904057 436.25084633608833) rotate(0 36.009872544515986 52.55494911902338)"><path d="M-0.44 0.35 C11.26 17.67, 59.22 86.41, 71.11 104.01 M1.54 -0.52 C13.52 16.92, 61.4 87.54, 73.35 104.96" stroke="#f08c00" stroke-width="2" fill="none"></path></g></g><mask></mask><g stroke-linecap="round"><g transform="translate(102.00979865227208 436.5839813177149) rotate(0 -33.0901531490147 50.12184962277229)"><path d="M0.91 0.77 C-10.2 17.46, -54.3 84.64, -65.63 101.31 M-0.08 0.14 C-11.39 17.02, -55.52 83.32, -66.29 99.75" stroke="#f08c00" stroke-width="2" fill="none"></path></g></g><mask></mask><g stroke-linecap="round"><g transform="translate(101.08766505905623 441.0012491391525) rotate(0 -0.48661989925020066 50.121849622772174)"><path d="M-1.12 1.02 C-1.41 17.37, -0.76 82.4, -0.63 99.07" stroke="#1e1e1e" stroke-width="2.5" fill="none" stroke-dasharray="8 10"></path></g></g><mask></mask><g stroke-linecap="round"><g transform="translate(102.25771544974361 492.0477104479702) rotate(0 18.00493627225802 -5.352818891752463)"><path d="M0.17 0.39 C3.36 0.2, 13.23 0.57, 19.18 -1.33 C25.12 -3.23, 32.96 -9.42, 35.84 -11.03 M-0.41 0.12 C2.96 0.01, 14.29 0.97, 20.26 -0.81 C26.23 -2.6, 32.64 -8.96, 35.41 -10.6" stroke="#1971c2" stroke-width="4" fill="none"></path></g></g><mask></mask><g transform="translate(157.76126192774325 463.84207266446526) rotate(0 9.058333396911621 17.5)"><text x="0" y="24.668" font-family="'Virgil 3 YOFF'" font-size="28px" fill="#1971c2" text-anchor="start" style="white-space: pre;" direction="ltr" dominant-baseline="alphabetic">φ</text></g><g stroke-linecap="round" transform="translate(118.35774435419017 122.82668968117764) rotate(38.41192941952587 202.92049798734004 61.21921544401391)"><path d="M7.49 7.84 C7.49 7.84, 7.49 7.84, 7.49 7.84 M7.49 7.84 C7.49 7.84, 7.49 7.84, 7.49 7.84 M9.07 30.41 C19.22 20.77, 28.11 7.75, 33.34 2.49 M9.07 30.41 C15.89 21.94, 22.05 15.95, 33.34 2.49 M8.68 55.25 C27.86 34.97, 43.88 14.52, 54.6 2.42 M8.68 55.25 C19.95 42.95, 31.12 30.67, 54.6 2.42 M8.95 79.33 C33.19 51.48, 61.09 21.92, 75.86 2.35 M8.95 79.33 C25.83 60.3, 43.84 39.69, 75.86 2.35 M5.28 107.94 C35.19 75.12, 62.67 41.42, 97.12 2.28 M5.28 107.94 C39.3 69.17, 71.09 31.82, 97.12 2.28 M14.73 121.45 C45.12 87.32, 79.81 51.09, 118.38 2.21 M14.73 121.45 C41.51 88.63, 71.12 56.71, 118.38 2.21 M33.36 124.4 C70.65 82.74, 105.89 44.49, 139.65 2.14 M33.36 124.4 C59.83 96.99, 85.09 67.09, 139.65 2.14 M54.62 124.33 C93.09 79.63, 134.18 33.06, 160.91 2.07 M54.62 124.33 C84.53 93.16, 111.76 60.38, 160.91 2.07 M75.23 125.02 C103.79 95.22, 131.65 61.77, 181.51 2.76 M75.23 125.02 C98.79 97.74, 121.83 68.99, 181.51 2.76 M96.49 124.95 C121.29 96.26, 145.81 65.76, 202.77 2.69 M96.49 124.95 C135.15 78.43, 175.22 32.8, 202.77 2.69 M117.75 124.88 C157.45 77.19, 198.56 28.8, 224.03 2.62 M117.75 124.88 C140.28 97.27, 163.57 70.04, 224.03 2.62 M139.01 124.81 C162.12 99.84, 181.68 72.08, 245.29 2.55 M139.01 124.81 C168.74 93.52, 196.72 60.34, 245.29 2.55 M160.27 124.74 C184.64 92.53, 215.06 61.44, 266.55 2.48 M160.27 124.74 C190.1 90.52, 219.09 59.41, 266.55 2.48 M181.53 124.68 C208.01 92.41, 238.84 58.05, 287.81 2.41 M181.53 124.68 C220.91 79.3, 260.67 34.23, 287.81 2.41 M202.79 124.61 C230.55 94.81, 256.1 61.26, 309.07 2.34 M202.79 124.61 C243.71 79.94, 283.53 33.9, 309.07 2.34 M224.05 124.54 C248.38 96.19, 267.36 72.23, 330.33 2.27 M224.05 124.54 C252.33 92.19, 280.28 59.21, 330.33 2.27 M245.31 124.47 C268.61 97.54, 290.43 73.06, 351.59 2.21 M245.31 124.47 C274.35 90.21, 305.21 55.11, 351.59 2.21 M266.57 124.4 C297.67 84.98, 330.14 47.71, 372.85 2.14 M266.57 124.4 C295.31 90.84, 322.04 60.55, 372.85 2.14 M287.83 124.33 C312.46 98.55, 337.11 67.89, 392.14 4.33 M287.83 124.33 C317.04 89.84, 348.13 53.85, 392.14 4.33 M308.43 125.02 C333.03 92.05, 359.63 63.49, 404.87 14.07 M308.43 125.02 C330.8 96.42, 354.9 69.78, 404.87 14.07 M329.69 124.95 C349.23 103.65, 368.88 79.6, 412.36 29.85 M329.69 124.95 C350.83 101.22, 372.81 76.13, 412.36 29.85 M350.95 124.88 C368.98 107.28, 384 85.81, 412.62 53.94 M350.95 124.88 C364.04 108.26, 379.15 91.29, 412.62 53.94 M372.21 124.81 C380.97 112.05, 391.5 103.8, 412.89 78.02 M372.21 124.81 C387.97 108.97, 402.56 91.48, 412.89 78.02 M7.59 114.73 C7.59 114.73, 7.59 114.73, 7.59 114.73 M7.59 114.73 C7.59 114.73, 7.59 114.73, 7.59 114.73 M39.97 121.68 C24.26 107.55, 8.61 96.71, 0.73 87.57 M39.97 121.68 C28.6 112.44, 19.1 102.71, 0.73 87.57 M64.81 122.07 C42.21 102.44, 17.85 81.51, 0.66 66.31 M64.81 122.07 C52.6 110.34, 38.03 99.11, 0.66 66.31 M88.89 121.81 C69.01 106.11, 51.92 90.71, 1.35 45.7 M88.89 121.81 C63.57 101.41, 40.87 78.63, 1.35 45.7 M113.73 122.2 C85.32 97.44, 54.2 72.35, 1.28 24.44 M113.73 122.2 C91.21 100.85, 66.57 80.48, 1.28 24.44 M137.81 121.93 C93.72 85.05, 50.51 44.18, 7.25 8.43 M137.81 121.93 C85.74 77.64, 34.02 31.07, 7.25 8.43 M161.89 121.66 C108.22 75.14, 57.98 29.21, 23.03 0.95 M161.89 121.66 C132.64 95.41, 104.48 70.9, 23.03 0.95 M186.73 122.05 C148.55 87.15, 109.51 57.15, 46.35 0.03 M186.73 122.05 C142.29 84.67, 100.93 47.88, 46.35 0.03 M210.81 121.79 C157.86 71.59, 98.6 23.03, 70.43 -0.24 M210.81 121.79 C168 84.2, 124.07 45.23, 70.43 -0.24 M235.65 122.18 C194.77 86.69, 149.32 49.32, 94.52 -0.51 M235.65 122.18 C187.09 80.77, 138.78 38.8, 94.52 -0.51 M259.73 121.91 C207.93 71.51, 152.82 24.21, 119.35 -0.12 M259.73 121.91 C220.53 86.44, 179.13 51.04, 119.35 -0.12 M283.81 121.64 C249.62 93.49, 212.77 62.17, 143.43 -0.38 M283.81 121.64 C241.55 84.46, 197.85 47.25, 143.43 -0.38 M308.65 122.03 C260.6 82.63, 213.84 40.6, 168.27 0.01 M308.65 122.03 C258.43 77.29, 209.89 34.94, 168.27 0.01 M332.73 121.77 C292.3 87.5, 253.41 50.32, 192.35 -0.26 M332.73 121.77 C299.53 93.78, 266.12 63.66, 192.35 -0.26 M357.56 122.16 C304.09 75.29, 248.15 24.56, 216.43 -0.53 M357.56 122.16 C304.76 77.47, 252.55 33.85, 216.43 -0.53 M380.89 121.23 C331.65 81.45, 286.69 40.66, 241.27 -0.14 M380.89 121.23 C351.77 94.28, 322.58 68.93, 241.27 -0.14 M398.18 115.06 C361.76 86.17, 327.69 56.46, 265.35 -0.4 M398.18 115.06 C364.78 86.13, 333.41 59.52, 265.35 -0.4 M404.9 99.71 C372.04 71.63, 340.62 42.96, 290.19 -0.01 M404.9 99.71 C362.83 63.72, 319.76 25.62, 290.19 -0.01 M406.34 79.76 C371.06 50.02, 334.25 19.1, 314.27 -0.28 M406.34 79.76 C375.38 52.69, 344.57 25.45, 314.27 -0.28 M405.52 57.84 C382.74 38.23, 360.41 17.94, 338.35 -0.55 M405.52 57.84 C385.82 39.93, 365.2 20.67, 338.35 -0.55 M405.45 36.58 C389.49 22.52, 375.53 9.75, 363.19 -0.16 M405.45 36.58 C393.57 26.77, 383.19 15.96, 363.19 -0.16 M400.86 11.39 C399.03 8.14, 393.16 6.15, 389.53 1.55 M400.86 11.39 C397.59 8.44, 394.61 6.8, 389.53 1.55" stroke="#a5d8ff" stroke-width="2" fill="none"></path><path d="M30.61 0 C108.77 -1.48, 189.1 0.16, 375.23 0 M30.61 0 C106.38 -1.76, 182.95 -1.64, 375.23 0 M375.23 0 C395.06 1.57, 404.56 8.98, 405.84 30.61 M375.23 0 C393.7 1.24, 406.45 9.84, 405.84 30.61 M405.84 30.61 C406.06 52.21, 406.4 72.79, 405.84 91.83 M405.84 30.61 C406.41 55.44, 405.68 78.17, 405.84 91.83 M405.84 91.83 C404.41 111.34, 394.05 120.72, 375.23 122.44 M405.84 91.83 C407.27 114.19, 394.71 122.17, 375.23 122.44 M375.23 122.44 C275.25 123.22, 173.14 122.32, 30.61 122.44 M375.23 122.44 C257.7 120.27, 138.49 121.15, 30.61 122.44 M30.61 122.44 C9.04 123.94, -1.48 110.84, 0 91.83 M30.61 122.44 C12.31 122.64, 0.81 114.29, 0 91.83 M0 91.83 C1.06 71.66, -2.13 51.08, 0 30.61 M0 91.83 C-0.13 71.65, -0.46 49.41, 0 30.61 M0 30.61 C1.22 11.02, 9.59 1.51, 30.61 0 M0 30.61 C2 12.44, 7.95 1.02, 30.61 0" stroke="#1e1e1e" stroke-width="4" fill="none"></path></g></svg>