<svg version="1.1" xmlns="http://www.w3.org/2000/svg" viewBox="0 0 601.5059537259838 531.9376517080391" width="1203.0119074519675" height="1063.8753034160782">
  <!-- svg-source:excalidraw -->
  <g stroke-linecap="round"><g transform="translate(108.05282947864384 117.81109154243336) rotate(0 188.16102560750028 -34.782550390695974)"><path d="M0.28 0.22 C63.03 -11.13, 313.96 -56.75, 376.66 -68.43" stroke="#1971c2" stroke-width="2.5" fill="none" stroke-dasharray="8 10"></path></g></g><mask></mask><g stroke-linecap="round"><g transform="translate(106.37139574149455 520.8865719178846) rotate(0 0 -241.12953310614466)"><path d="M0.54 -1.03 C0.46 -81.37, -0.49 -402.98, -0.63 -483.18 M-0.64 1.05 C-0.31 -79.07, 1.85 -401.8, 1.75 -482.13" stroke="#1e1e1e" stroke-width="4" fill="none"></path></g><g transform="translate(106.37139574149455 520.8865719178846) rotate(0 0 -241.12953310614466)"><path d="M10.23 -458.61 C6.3 -466.39, 4.03 -472.62, 1.75 -482.13 M10.23 -458.61 C7.39 -466.46, 4.77 -473.73, 1.75 -482.13" stroke="#1e1e1e" stroke-width="4" fill="none"></path></g><g transform="translate(106.37139574149455 520.8865719178846) rotate(0 0 -241.12953310614466)"><path d="M-6.88 -458.67 C-5.88 -466.5, -3.23 -472.72, 1.75 -482.13 M-6.88 -458.67 C-4.58 -466.34, -2.08 -473.59, 1.75 -482.13" stroke="#1e1e1e" stroke-width="4" fill="none"></path></g></g><mask></mask><g stroke-linecap="round"><g transform="translate(10.858759350488072 271.38015390562055) rotate(0 290.34457221758885 0)"><path d="M0.39 0.68 C97.04 0.88, 483.78 0.78, 580.65 0.63 M-0.86 -0.01 C95.56 -0.1, 482.66 -1.33, 579.68 -1.16" stroke="#1e1e1e" stroke-width="4" fill="none"></path></g><g transform="translate(10.858759350488072 271.38015390562055) rotate(0 290.34457221758885 0)"><path d="M556.19 7.41 C565.87 4.16, 574.3 2.6, 579.68 -1.16 M556.19 7.41 C563.01 5.28, 568.52 3.52, 579.68 -1.16" stroke="#1e1e1e" stroke-width="4" fill="none"></path></g><g transform="translate(10.858759350488072 271.38015390562055) rotate(0 290.34457221758885 0)"><path d="M556.18 -9.69 C565.78 -6.75, 574.21 -2.11, 579.68 -1.16 M556.18 -9.69 C563.07 -6.98, 568.59 -3.91, 579.68 -1.16" stroke="#1e1e1e" stroke-width="4" fill="none"></path></g></g><mask></mask><g stroke-linecap="round" transform="translate(100.2880196160936 105.67042959907076) rotate(0 7.124136827010034 8.38133744354127)"><path d="M7.09 -0.05 C8.59 -0.3, 10.16 0.25, 11.25 1.36 C12.33 2.47, 13.29 4.9, 13.62 6.62 C13.94 8.33, 13.88 10.03, 13.22 11.67 C12.55 13.31, 10.96 15.68, 9.64 16.45 C8.31 17.21, 6.72 16.86, 5.25 16.26 C3.77 15.65, 1.73 14.28, 0.79 12.81 C-0.16 11.34, -0.63 9.16, -0.39 7.45 C-0.16 5.74, 1.04 3.71, 2.2 2.54 C3.35 1.37, 5.67 0.84, 6.54 0.41 C7.41 -0.03, 7.34 -0.17, 7.44 -0.08 M5.77 0.54 C7.31 0.07, 9.68 -0.22, 10.95 0.56 C12.21 1.35, 12.88 3.67, 13.36 5.25 C13.85 6.83, 14.28 8.34, 13.85 10.05 C13.42 11.76, 12.03 14.35, 10.81 15.5 C9.59 16.65, 7.95 17.27, 6.52 16.96 C5.09 16.65, 3.26 14.9, 2.25 13.65 C1.23 12.39, 0.64 11.08, 0.42 9.45 C0.2 7.82, 0.1 5.39, 0.93 3.88 C1.76 2.38, 4.65 0.93, 5.41 0.43 C6.18 -0.07, 5.42 0.85, 5.52 0.89" stroke="none" stroke-width="0" fill="#ffc9c9"></path><path d="M7.57 -0.01 C8.89 -0.02, 10.42 1.36, 11.57 2.51 C12.72 3.67, 14.12 5.13, 14.44 6.91 C14.77 8.68, 14.42 11.63, 13.54 13.17 C12.66 14.7, 10.64 15.67, 9.18 16.09 C7.72 16.51, 6.26 16.35, 4.77 15.67 C3.29 14.98, 0.99 13.54, 0.28 11.99 C-0.42 10.43, 0.12 8.08, 0.52 6.31 C0.93 4.54, 1.45 2.37, 2.71 1.38 C3.97 0.4, 7.17 0.64, 8.07 0.38 C8.98 0.12, 8.11 -0.31, 8.13 -0.17 M8.39 -0.41 C9.85 -0.12, 11.61 1.76, 12.52 3.27 C13.42 4.78, 13.77 6.84, 13.83 8.66 C13.88 10.48, 13.7 12.78, 12.87 14.21 C12.04 15.63, 10.33 16.98, 8.86 17.18 C7.39 17.38, 5.51 16.37, 4.03 15.4 C2.55 14.42, 0.67 13.07, -0.03 11.34 C-0.73 9.6, -0.73 6.73, -0.19 5.01 C0.36 3.29, 1.84 1.79, 3.25 1 C4.65 0.2, 7.51 0.41, 8.25 0.23 C9 0.05, 7.84 -0.22, 7.71 -0.09" stroke="#e03131" stroke-width="4" fill="none"></path></g><g stroke-linecap="round" transform="translate(98.19268525520829 407.3985775665543) rotate(0 7.124136827010034 8.38133744354127)"><path d="M6.79 0.22 C8.26 0.19, 10.52 0.87, 11.8 1.96 C13.07 3.04, 14.18 4.99, 14.43 6.76 C14.67 8.52, 14.09 10.94, 13.27 12.53 C12.45 14.11, 10.87 15.61, 9.5 16.24 C8.13 16.88, 6.44 16.94, 5.04 16.36 C3.64 15.77, 1.86 14.32, 1.09 12.74 C0.32 11.17, 0.12 8.64, 0.41 6.89 C0.7 5.13, 1.61 3.36, 2.83 2.22 C4.05 1.08, 6.97 0.44, 7.73 0.04 C8.49 -0.36, 7.42 -0.28, 7.38 -0.17 M7.77 0.15 C9.15 0.31, 11.21 1.42, 12.27 2.66 C13.34 3.9, 14.19 5.77, 14.14 7.57 C14.08 9.38, 12.97 11.88, 11.96 13.5 C10.95 15.13, 9.42 16.92, 8.08 17.31 C6.73 17.7, 5.11 16.8, 3.89 15.84 C2.67 14.87, 1.3 13.28, 0.75 11.52 C0.21 9.76, 0.06 7.11, 0.6 5.28 C1.15 3.45, 2.63 1.5, 4.02 0.55 C5.41 -0.41, 8.14 -0.41, 8.92 -0.47 C9.7 -0.53, 8.71 -0.01, 8.67 0.17" stroke="none" stroke-width="0" fill="#ffc9c9"></path><path d="M5.08 0.61 C6.48 0.08, 8.91 -0.03, 10.35 0.65 C11.79 1.33, 13.03 2.92, 13.71 4.68 C14.39 6.43, 14.95 9.47, 14.44 11.17 C13.94 12.88, 11.95 14.04, 10.67 14.91 C9.4 15.77, 8.21 16.52, 6.8 16.34 C5.39 16.16, 3.41 15.04, 2.2 13.82 C0.99 12.59, -0.28 10.72, -0.46 8.99 C-0.63 7.25, 0.03 4.83, 1.15 3.42 C2.27 2.01, 5.47 1.05, 6.26 0.54 C7.05 0.02, 6.04 0.24, 5.9 0.33 M5.76 0.04 C7.31 -0.27, 9.86 0.6, 11.34 1.48 C12.81 2.36, 14.14 3.72, 14.59 5.31 C15.05 6.91, 14.86 9.18, 14.09 11.04 C13.32 12.9, 11.37 15.56, 9.96 16.49 C8.55 17.42, 7.07 17.05, 5.6 16.62 C4.14 16.18, 2.06 15.24, 1.17 13.87 C0.28 12.51, 0.16 10.33, 0.25 8.42 C0.33 6.51, 0.55 3.93, 1.68 2.43 C2.81 0.93, 6.32 -0.33, 7.03 -0.58 C7.75 -0.83, 5.98 0.64, 5.99 0.93" stroke="#e03131" stroke-width="4" fill="none"></path></g><g transform="translate(54.19066367661662 404.04604258913787) rotate(0 13.75 17.5)"><text x="0" y="24.668" font-family="'Virgil 3 YOFF'" font-size="28px" fill="#e03131" text-anchor="start" style="white-space: pre;" direction="ltr" dominant-baseline="alphabetic">-q</text></g><g transform="translate(61.73386737580404 87.23148722328028) rotate(0 8.5 17.5)"><text x="0" y="24.668" font-family="'Virgil 3 YOFF'" font-size="28px" fill="#e03131" text-anchor="start" style="white-space: pre;" direction="ltr" dominant-baseline="alphabetic">q</text></g><g stroke-linecap="round"><g transform="translate(96.09735089432274 123.27123823050727) rotate(0 1.257200616531236 138.29206781843004)"><path d="M-0.39 -0.12 C0.15 45.77, 1.98 230.1, 2.64 276.18 M1.6 -1.23 C2.05 44.75, 1.47 231.04, 1.76 277.51" stroke="#e03131" stroke-width="4" fill="none"></path></g><g transform="translate(96.09735089432274 123.27123823050727) rotate(0 1.257200616531236 138.29206781843004)"><path d="M8.41 23.28 C5.85 17.63, 3.19 13.34, -0.39 -0.12 M8.41 23.28 C4.92 17.61, 3.28 10.8, -0.39 -0.12" stroke="#e03131" stroke-width="4" fill="none"></path></g><g transform="translate(96.09735089432274 123.27123823050727) rotate(0 1.257200616531236 138.29206781843004)"><path d="M-8.69 23.46 C-6.99 17.82, -5.39 13.49, -0.39 -0.12 M-8.69 23.46 C-7.37 17.58, -4.19 10.71, -0.39 -0.12" stroke="#e03131" stroke-width="4" fill="none"></path></g><g transform="translate(96.09735089432274 123.27123823050727) rotate(0 1.257200616531236 138.29206781843004)"><path d="M-6.82 254.03 C-4.72 260.11, -3.05 267.51, 1.76 277.51 M-6.82 254.03 C-5.33 261.39, -2.08 267.76, 1.76 277.51" stroke="#e03131" stroke-width="4" fill="none"></path></g><g transform="translate(96.09735089432274 123.27123823050727) rotate(0 1.257200616531236 138.29206781843004)"><path d="M10.28 254.01 C8.12 260.04, 5.53 267.44, 1.76 277.51 M10.28 254.01 C6.96 261.54, 5.4 267.92, 1.76 277.51" stroke="#e03131" stroke-width="4" fill="none"></path></g></g><mask></mask><g transform="translate(151.60509081063105 33.467744841915646) rotate(0 8.008333206176758 17.5)"><text x="0" y="24.668" font-family="'Virgil 3 YOFF'" font-size="28px" fill="#1e1e1e" text-anchor="start" style="white-space: pre;" direction="ltr" dominant-baseline="alphabetic">z</text></g><g transform="translate(561.4524917997971 305.86121175700487) rotate(0 7.5 17.5)"><text x="0" y="24.668" font-family="'Virgil 3 YOFF'" font-size="28px" fill="#1e1e1e" text-anchor="start" style="white-space: pre;" direction="ltr" dominant-baseline="alphabetic">y</text></g><g stroke-linecap="round" transform="translate(480.991652341801 41.01094854110238) rotate(0 6.705069954832993 6.286003082655839)"><path d="M6.3 -0.33 C7.67 -0.47, 9.32 0, 10.53 0.98 C11.73 1.96, 13.16 4.06, 13.53 5.53 C13.9 7.01, 13.55 8.79, 12.74 9.82 C11.94 10.84, 10.16 11.21, 8.73 11.68 C7.29 12.14, 5.4 12.94, 4.15 12.6 C2.89 12.26, 1.94 10.94, 1.2 9.64 C0.46 8.35, -0.51 6.13, -0.27 4.84 C-0.03 3.54, 1.43 2.75, 2.63 1.88 C3.83 1, 6.25 -0.12, 6.93 -0.42 C7.62 -0.72, 6.83 -0.14, 6.76 0.08 M6.73 0.05 C8.13 0.02, 9.82 1.26, 10.84 2.06 C11.86 2.85, 12.68 3.51, 12.83 4.84 C12.98 6.17, 12.52 8.69, 11.76 10.05 C11 11.41, 9.67 12.54, 8.27 12.98 C6.87 13.43, 4.56 13.48, 3.37 12.73 C2.18 11.98, 1.58 9.91, 1.15 8.48 C0.72 7.06, 0.59 5.49, 0.78 4.19 C0.97 2.89, 1.26 1.48, 2.31 0.68 C3.36 -0.11, 6.28 -0.54, 7.06 -0.58 C7.84 -0.63, 7.01 0.21, 6.98 0.41" stroke="none" stroke-width="0" fill="#b2f2bb"></path><path d="M8.11 -0.26 C9.59 -0.29, 11.17 0.63, 12.08 1.73 C12.99 2.83, 13.66 4.91, 13.59 6.34 C13.53 7.76, 12.59 9.3, 11.69 10.29 C10.79 11.27, 9.55 11.94, 8.2 12.23 C6.84 12.52, 4.9 12.63, 3.56 12 C2.21 11.38, 0.66 9.69, 0.13 8.48 C-0.4 7.26, -0.16 6.02, 0.37 4.74 C0.9 3.45, 2.04 1.58, 3.29 0.77 C4.54 -0.04, 7.08 -0.05, 7.86 -0.14 C8.63 -0.23, 7.87 0.16, 7.92 0.22 M6.75 0.68 C7.98 0.5, 9.32 0.94, 10.39 1.52 C11.46 2.09, 12.76 2.9, 13.16 4.12 C13.55 5.35, 13.45 7.55, 12.76 8.87 C12.08 10.2, 10.45 11.61, 9.04 12.07 C7.63 12.53, 5.54 12.06, 4.32 11.62 C3.1 11.18, 2.42 10.42, 1.74 9.41 C1.06 8.41, 0.23 6.96, 0.24 5.59 C0.24 4.23, 0.62 2.06, 1.76 1.24 C2.9 0.42, 6.31 0.76, 7.07 0.68 C7.84 0.59, 6.5 0.68, 6.34 0.74" stroke="#2f9e44" stroke-width="4" fill="none"></path></g><g transform="translate(502.78312969500826 10) rotate(0 9.25 17.5)"><text x="0" y="24.668" font-family="'Virgil 3 YOFF'" font-size="28px" fill="#2f9e44" text-anchor="start" style="white-space: pre;" direction="ltr" dominant-baseline="alphabetic">P</text></g><g stroke-linecap="round"><g transform="translate(112.35670281198168 418.4429907389375) rotate(0 186.48475811879212 -182.2940893970213)"><path d="M-0.66 -1.11 C61.44 -61.97, 309.87 -305.35, 372.14 -365.79" stroke="#1971c2" stroke-width="2.5" fill="none" stroke-dasharray="8 10"></path></g></g><mask></mask><g transform="translate(294.9566544696131 41.54092080620853) rotate(0 14.766666412353516 17.5)"><text x="0" y="24.668" font-family="'Virgil 3 YOFF'" font-size="28px" fill="#1971c2" text-anchor="start" style="white-space: pre;" direction="ltr" dominant-baseline="alphabetic">r+</text></g><g transform="translate(343.5684116421521 202.46259972219968) rotate(0 11.766666412353516 17.5)"><text x="0" y="24.668" font-family="'Virgil 3 YOFF'" font-size="28px" fill="#1971c2" text-anchor="start" style="white-space: pre;" direction="ltr" dominant-baseline="alphabetic">r-</text></g><g stroke-linecap="round"><g transform="translate(109.72909696735223 269.5132992705294) rotate(0 185.22755750226077 -109.7955205103899)"><path d="M0.67 -0.25 C62.32 -36.84, 309.32 -182.6, 370.77 -219.08" stroke="#1971c2" stroke-width="2.5" fill="none" stroke-dasharray="8 10"></path></g></g><mask></mask><g transform="translate(257.2406359736776 139.60256889564062) rotate(0 6.5 17.5)"><text x="0" y="24.668" font-family="'Virgil 3 YOFF'" font-size="28px" fill="#1971c2" text-anchor="start" style="white-space: pre;" direction="ltr" dominant-baseline="alphabetic">r</text></g><g stroke-linecap="round"><g transform="translate(103.86216075687321 241.85488570684333) rotate(0 19.277076120144784 3.3525349774165534)"><path d="M-0.4 0.12 C3.5 -0.24, 16.52 -3.23, 23.05 -1.89 C29.58 -0.55, 36.19 6.54, 38.78 8.16 M0.39 -0.29 C4.5 -0.59, 17.7 -2.79, 24.06 -1.3 C30.42 0.19, 36.11 7.09, 38.55 8.65" stroke="#1971c2" stroke-width="2" fill="none"></path></g></g><mask></mask><g transform="translate(115.28923697238542 206.7540770754067) rotate(0 7.849999904632568 17.5)"><text x="0" y="24.668" font-family="'Virgil 3 YOFF'" font-size="28px" fill="#1971c2" text-anchor="start" style="white-space: pre;" direction="ltr" dominant-baseline="alphabetic">θ</text></g></svg>