<svg version="1.1" xmlns="http://www.w3.org/2000/svg" viewBox="0 0 634.2278527065882 628.6850937994741" width="634.2278527065882" height="628.6850937994741">
  <!-- svg-source:excalidraw -->
  
<rect x="0" y="0" width="634.2278527065882" height="628.6850937994741" fill="#ffffff"></rect><g stroke-linecap="round" transform="translate(79.53313585262958 459.3228404445409) rotate(0 238.0075486024764 68.53050988096899)"><path d="M476.02 68.53 C476.02 70.16, 475.81 71.79, 475.41 73.42 C475 75.04, 474.4 76.67, 473.59 78.28 C472.79 79.9, 471.78 81.51, 470.58 83.1 C469.37 84.69, 467.97 86.27, 466.37 87.84 C464.78 89.4, 462.99 90.95, 461.01 92.48 C459.03 94.01, 456.86 95.52, 454.51 97 C452.16 98.48, 449.61 99.94, 446.9 101.37 C444.19 102.8, 441.29 104.21, 438.23 105.58 C435.17 106.95, 431.93 108.29, 428.54 109.6 C425.15 110.9, 421.59 112.18, 417.88 113.41 C414.18 114.64, 410.31 115.84, 406.3 116.99 C402.3 118.14, 398.15 119.26, 393.87 120.32 C389.59 121.39, 385.17 122.42, 380.64 123.39 C376.11 124.37, 371.45 125.3, 366.68 126.18 C361.92 127.06, 357.04 127.9, 352.07 128.68 C347.1 129.46, 342.03 130.19, 336.88 130.87 C331.73 131.55, 326.49 132.17, 321.18 132.74 C315.88 133.31, 310.49 133.83, 305.06 134.29 C299.63 134.74, 294.13 135.15, 288.6 135.49 C283.07 135.84, 277.48 136.13, 271.88 136.36 C266.28 136.6, 260.63 136.77, 254.99 136.89 C249.34 137, 243.67 137.06, 238.01 137.06 C232.35 137.06, 226.67 137, 221.03 136.89 C215.38 136.77, 209.74 136.6, 204.14 136.36 C198.53 136.13, 192.95 135.84, 187.42 135.49 C181.88 135.15, 176.38 134.74, 170.95 134.29 C165.52 133.83, 160.14 133.31, 154.83 132.74 C149.53 132.17, 144.28 131.55, 139.14 130.87 C133.99 130.19, 128.91 129.46, 123.94 128.68 C118.98 127.9, 114.09 127.06, 109.33 126.18 C104.57 125.3, 99.91 124.37, 95.37 123.39 C90.84 122.42, 86.42 121.39, 82.15 120.32 C77.87 119.26, 73.71 118.14, 69.71 116.99 C65.71 115.84, 61.84 114.64, 58.13 113.41 C54.43 112.18, 50.86 110.9, 47.47 109.6 C44.08 108.29, 40.84 106.95, 37.78 105.58 C34.72 104.21, 31.83 102.8, 29.11 101.37 C26.4 99.94, 23.86 98.48, 21.51 97 C19.16 95.52, 16.98 94.01, 15.01 92.48 C13.03 90.95, 11.24 89.4, 9.64 87.84 C8.05 86.27, 6.64 84.69, 5.44 83.1 C4.24 81.51, 3.23 79.9, 2.42 78.28 C1.62 76.67, 1.01 75.04, 0.61 73.42 C0.2 71.79, 0 70.16, 0 68.53 C0 66.9, 0.2 65.27, 0.61 63.64 C1.01 62.02, 1.62 60.39, 2.42 58.78 C3.23 57.16, 4.24 55.56, 5.44 53.96 C6.64 52.37, 8.05 50.79, 9.64 49.22 C11.24 47.66, 13.03 46.11, 15.01 44.58 C16.98 43.05, 19.16 41.54, 21.51 40.06 C23.86 38.58, 26.4 37.12, 29.11 35.69 C31.83 34.26, 34.72 32.85, 37.78 31.48 C40.84 30.11, 44.08 28.77, 47.47 27.46 C50.86 26.16, 54.43 24.88, 58.13 23.65 C61.84 22.42, 65.71 21.22, 69.71 20.07 C73.71 18.92, 77.87 17.81, 82.15 16.74 C86.42 15.67, 90.84 14.65, 95.37 13.67 C99.91 12.69, 104.57 11.76, 109.33 10.88 C114.09 10, 118.98 9.16, 123.94 8.38 C128.91 7.6, 133.99 6.87, 139.14 6.19 C144.28 5.52, 149.53 4.89, 154.83 4.32 C160.14 3.75, 165.52 3.24, 170.95 2.78 C176.38 2.32, 181.88 1.91, 187.42 1.57 C192.95 1.22, 198.53 0.93, 204.14 0.7 C209.74 0.47, 215.38 0.29, 221.03 0.17 C226.67 0.06, 232.35 0, 238.01 0 C243.67 0, 249.34 0.06, 254.99 0.17 C260.63 0.29, 266.28 0.47, 271.88 0.7 C277.48 0.93, 283.07 1.22, 288.6 1.57 C294.13 1.91, 299.63 2.32, 305.06 2.78 C310.49 3.24, 315.88 3.75, 321.18 4.32 C326.49 4.89, 331.73 5.52, 336.88 6.19 C342.03 6.87, 347.1 7.6, 352.07 8.38 C357.04 9.16, 361.92 10, 366.68 10.88 C371.45 11.76, 376.11 12.69, 380.64 13.67 C385.17 14.65, 389.59 15.67, 393.87 16.74 C398.15 17.81, 402.3 18.92, 406.3 20.07 C410.31 21.22, 414.18 22.42, 417.88 23.65 C421.59 24.88, 425.15 26.16, 428.54 27.46 C431.93 28.77, 435.17 30.11, 438.23 31.48 C441.29 32.85, 444.19 34.26, 446.9 35.69 C449.61 37.12, 452.16 38.58, 454.51 40.06 C456.86 41.54, 459.03 43.05, 461.01 44.58 C462.99 46.11, 464.78 47.66, 466.37 49.22 C467.97 50.79, 469.37 52.37, 470.58 53.96 C471.78 55.56, 472.79 57.16, 473.59 58.78 C474.4 60.39, 475 62.02, 475.41 63.64 C475.81 65.27, 476.02 66.9, 476.02 68.53" stroke="#1971c2" stroke-width="2.5" fill="none" stroke-dasharray="1.5 8"></path></g><g stroke-linecap="round" transform="translate(129.94406841482123 470.46827242130075) rotate(0 185.2596853917073 53.34259679925759)"><path d="M370.52 53.34 C370.52 54.81, 370.31 56.28, 369.89 57.75 C369.47 59.21, 368.83 60.67, 367.99 62.12 C367.15 63.57, 366.1 65.01, 364.85 66.44 C363.6 67.86, 362.14 69.27, 360.48 70.66 C358.83 72.05, 356.96 73.43, 354.92 74.77 C352.87 76.11, 350.62 77.44, 348.19 78.73 C345.76 80.02, 343.14 81.29, 340.35 82.52 C337.56 83.75, 334.59 84.95, 331.46 86.11 C328.32 87.27, 325.01 88.39, 321.56 89.47 C318.11 90.55, 314.48 91.59, 310.73 92.59 C306.98 93.58, 303.07 94.54, 299.05 95.44 C295.02 96.34, 290.86 97.2, 286.59 98 C282.32 98.8, 277.92 99.56, 273.43 100.26 C268.95 100.95, 264.35 101.6, 259.68 102.19 C255.01 102.78, 250.24 103.32, 245.41 103.79 C240.59 104.27, 235.68 104.69, 230.74 105.05 C225.79 105.41, 220.78 105.72, 215.75 105.96 C210.72 106.2, 205.64 106.38, 200.56 106.5 C195.48 106.62, 190.36 106.69, 185.26 106.69 C180.16 106.69, 175.04 106.62, 169.96 106.5 C164.88 106.38, 159.8 106.2, 154.77 105.96 C149.74 105.72, 144.72 105.41, 139.78 105.05 C134.84 104.69, 129.93 104.27, 125.11 103.79 C120.28 103.32, 115.51 102.78, 110.84 102.19 C106.17 101.6, 101.57 100.95, 97.09 100.26 C92.6 99.56, 88.2 98.8, 83.93 98 C79.66 97.2, 75.5 96.34, 71.47 95.44 C67.45 94.54, 63.54 93.58, 59.79 92.59 C56.03 91.59, 52.41 90.55, 48.96 89.47 C45.51 88.39, 42.2 87.27, 39.06 86.11 C35.93 84.95, 32.96 83.75, 30.17 82.52 C27.38 81.29, 24.76 80.02, 22.33 78.73 C19.9 77.44, 17.65 76.11, 15.6 74.77 C13.56 73.43, 11.69 72.05, 10.04 70.66 C8.38 69.27, 6.92 67.86, 5.67 66.44 C4.42 65.01, 3.37 63.57, 2.53 62.12 C1.69 60.67, 1.05 59.21, 0.63 57.75 C0.21 56.28, 0 54.81, 0 53.34 C0 51.87, 0.21 50.4, 0.63 48.94 C1.05 47.47, 1.69 46.01, 2.53 44.56 C3.37 43.11, 4.42 41.67, 5.67 40.25 C6.92 38.82, 8.38 37.41, 10.04 36.02 C11.69 34.63, 13.56 33.26, 15.6 31.92 C17.65 30.57, 19.9 29.25, 22.33 27.95 C24.76 26.66, 27.38 25.4, 30.17 24.17 C32.96 22.94, 35.93 21.74, 39.06 20.58 C42.2 19.42, 45.51 18.29, 48.96 17.21 C52.41 16.13, 56.03 15.09, 59.79 14.1 C63.54 13.1, 67.45 12.15, 71.47 11.25 C75.5 10.35, 79.66 9.49, 83.93 8.69 C88.2 7.88, 92.6 7.13, 97.09 6.43 C101.57 5.73, 106.17 5.08, 110.84 4.49 C115.51 3.9, 120.28 3.37, 125.11 2.89 C129.93 2.41, 134.84 1.99, 139.78 1.63 C144.72 1.27, 149.74 0.97, 154.77 0.73 C159.8 0.49, 164.88 0.3, 169.96 0.18 C175.04 0.06, 180.16 0, 185.26 0 C190.36 0, 195.48 0.06, 200.56 0.18 C205.64 0.3, 210.72 0.49, 215.75 0.73 C220.78 0.97, 225.79 1.27, 230.74 1.63 C235.68 1.99, 240.59 2.41, 245.41 2.89 C250.24 3.37, 255.01 3.9, 259.68 4.49 C264.35 5.08, 268.95 5.73, 273.43 6.43 C277.92 7.13, 282.32 7.88, 286.59 8.69 C290.86 9.49, 295.02 10.35, 299.05 11.25 C303.07 12.15, 306.98 13.1, 310.73 14.1 C314.48 15.09, 318.11 16.13, 321.56 17.21 C325.01 18.29, 328.32 19.42, 331.46 20.58 C334.59 21.74, 337.56 22.94, 340.35 24.17 C343.14 25.4, 345.76 26.66, 348.19 27.95 C350.62 29.25, 352.87 30.57, 354.92 31.92 C356.96 33.26, 358.83 34.63, 360.48 36.02 C362.14 37.41, 363.6 38.82, 364.85 40.25 C366.1 41.67, 367.15 43.11, 367.99 44.56 C368.83 46.01, 369.47 47.47, 369.89 48.94 C370.31 50.4, 370.52 51.87, 370.52 53.34" stroke="#1971c2" stroke-width="2.5" fill="none" stroke-dasharray="1.5 8"></path></g><g stroke-linecap="round" transform="translate(178.68576479945523 479.2105535939925) rotate(0 143.4111395460086 41.29296979615421)"><path d="M286.82 41.29 C286.82 42.56, 286.62 43.84, 286.21 45.1 C285.8 46.37, 285.19 47.63, 284.38 48.88 C283.57 50.13, 282.55 51.37, 281.35 52.59 C280.14 53.81, 278.73 55.03, 277.14 56.21 C275.54 57.39, 273.75 58.56, 271.79 59.7 C269.82 60.84, 267.66 61.95, 265.34 63.03 C263.02 64.11, 260.51 65.16, 257.86 66.18 C255.2 67.19, 252.36 68.17, 249.39 69.11 C246.42 70.05, 243.29 70.95, 240.03 71.81 C236.77 72.66, 233.36 73.48, 229.84 74.25 C226.32 75.01, 222.66 75.73, 218.91 76.4 C215.16 77.07, 211.28 77.69, 207.33 78.26 C203.39 78.82, 199.33 79.34, 195.22 79.8 C191.1 80.26, 186.9 80.66, 182.66 81.01 C178.42 81.36, 174.1 81.65, 169.76 81.88 C165.43 82.12, 161.04 82.29, 156.64 82.41 C152.25 82.53, 147.82 82.59, 143.41 82.59 C139 82.59, 134.57 82.53, 130.18 82.41 C125.79 82.29, 121.4 82.12, 117.06 81.88 C112.72 81.65, 108.41 81.36, 104.16 81.01 C99.92 80.66, 95.72 80.26, 91.61 79.8 C87.49 79.34, 83.44 78.82, 79.49 78.26 C75.54 77.69, 71.67 77.07, 67.91 76.4 C64.16 75.73, 60.51 75.01, 56.99 74.25 C53.47 73.48, 50.06 72.66, 46.8 71.81 C43.54 70.95, 40.4 70.05, 37.43 69.11 C34.46 68.17, 31.62 67.19, 28.97 66.18 C26.31 65.16, 23.8 64.11, 21.48 63.03 C19.16 61.95, 17 60.84, 15.03 59.7 C13.07 58.56, 11.28 57.39, 9.68 56.21 C8.09 55.03, 6.68 53.81, 5.47 52.59 C4.27 51.37, 3.25 50.13, 2.44 48.88 C1.63 47.63, 1.02 46.37, 0.61 45.1 C0.2 43.84, 0 42.56, 0 41.29 C0 40.02, 0.2 38.75, 0.61 37.48 C1.02 36.22, 1.63 34.95, 2.44 33.71 C3.25 32.46, 4.27 31.21, 5.47 29.99 C6.68 28.77, 8.09 27.56, 9.68 26.38 C11.28 25.19, 13.07 24.02, 15.03 22.89 C17 21.75, 19.16 20.63, 21.48 19.56 C23.8 18.48, 26.31 17.42, 28.97 16.41 C31.62 15.39, 34.46 14.41, 37.43 13.47 C40.4 12.54, 43.54 11.63, 46.8 10.78 C50.06 9.92, 53.47 9.11, 56.99 8.34 C60.51 7.58, 64.16 6.85, 67.91 6.18 C71.67 5.52, 75.54 4.9, 79.49 4.33 C83.44 3.76, 87.49 3.25, 91.61 2.79 C95.72 2.33, 99.92 1.92, 104.16 1.58 C108.41 1.23, 112.72 0.94, 117.06 0.7 C121.4 0.47, 125.79 0.29, 130.18 0.18 C134.57 0.06, 139 0, 143.41 0 C147.82 0, 152.25 0.06, 156.64 0.18 C161.04 0.29, 165.43 0.47, 169.76 0.7 C174.1 0.94, 178.42 1.23, 182.66 1.58 C186.9 1.92, 191.1 2.33, 195.22 2.79 C199.33 3.25, 203.39 3.76, 207.33 4.33 C211.28 4.9, 215.16 5.52, 218.91 6.18 C222.66 6.85, 226.32 7.58, 229.84 8.34 C233.36 9.11, 236.77 9.92, 240.03 10.78 C243.29 11.63, 246.42 12.54, 249.39 13.47 C252.36 14.41, 255.2 15.39, 257.86 16.41 C260.51 17.42, 263.02 18.48, 265.34 19.56 C267.66 20.63, 269.82 21.75, 271.79 22.89 C273.75 24.02, 275.54 25.19, 277.14 26.38 C278.73 27.56, 280.14 28.77, 281.35 29.99 C282.55 31.21, 283.57 32.46, 284.38 33.71 C285.19 34.95, 285.8 36.22, 286.21 37.48 C286.62 38.75, 286.72 40.66, 286.82 41.29 C286.92 41.93, 286.92 40.66, 286.82 41.29" stroke="#1971c2" stroke-width="2.5" fill="none" stroke-dasharray="1.5 8"></path></g><g stroke-linecap="round" transform="translate(10 441.8278967221655) rotate(0 307.11392635329435 88.42859853865426)"><path d="M614.23 88.43 C614.23 90.36, 614.01 92.29, 613.57 94.21 C613.13 96.14, 612.47 98.06, 611.6 99.97 C610.73 101.88, 609.63 103.79, 608.33 105.68 C607.02 107.57, 605.5 109.45, 603.76 111.32 C602.03 113.18, 600.08 115.03, 597.93 116.85 C595.78 118.68, 593.41 120.49, 590.85 122.27 C588.29 124.05, 585.52 125.81, 582.56 127.54 C579.59 129.27, 576.43 130.97, 573.08 132.64 C569.73 134.31, 566.19 135.95, 562.47 137.56 C558.75 139.16, 554.84 140.73, 550.76 142.26 C546.69 143.79, 542.43 145.28, 538.01 146.73 C533.6 148.18, 529.01 149.59, 524.28 150.96 C519.54 152.32, 514.64 153.64, 509.61 154.91 C504.57 156.18, 499.38 157.41, 494.07 158.58 C488.76 159.76, 483.3 160.88, 477.74 161.95 C472.17 163.03, 466.47 164.05, 460.67 165.01 C454.87 165.97, 448.95 166.89, 442.95 167.74 C436.94 168.59, 430.83 169.39, 424.64 170.13 C418.46 170.86, 412.17 171.54, 405.83 172.16 C399.49 172.78, 393.07 173.35, 386.6 173.84 C380.13 174.34, 373.6 174.78, 367.03 175.16 C360.46 175.53, 353.84 175.85, 347.2 176.1 C340.56 176.35, 333.88 176.54, 327.2 176.67 C320.52 176.79, 313.81 176.86, 307.11 176.86 C300.42 176.86, 293.71 176.79, 287.03 176.67 C280.35 176.54, 273.67 176.35, 267.03 176.1 C260.39 175.85, 253.77 175.53, 247.2 175.16 C240.63 174.78, 234.09 174.34, 227.63 173.84 C221.16 173.35, 214.74 172.78, 208.4 172.16 C202.06 171.54, 195.77 170.86, 189.59 170.13 C183.4 169.39, 177.29 168.59, 171.28 167.74 C165.28 166.89, 159.36 165.97, 153.56 165.01 C147.76 164.05, 142.06 163.03, 136.49 161.95 C130.92 160.88, 125.47 159.76, 120.15 158.58 C114.84 157.41, 109.65 156.18, 104.62 154.91 C99.59 153.64, 94.69 152.32, 89.95 150.96 C85.22 149.59, 80.63 148.18, 76.21 146.73 C71.8 145.28, 67.54 143.79, 63.46 142.26 C59.39 140.73, 55.48 139.16, 51.76 137.56 C48.04 135.95, 44.49 134.31, 41.15 132.64 C37.8 130.97, 34.63 129.27, 31.67 127.54 C28.71 125.81, 25.94 124.05, 23.38 122.27 C20.82 120.49, 18.45 118.68, 16.3 116.85 C14.15 115.03, 12.2 113.18, 10.46 111.32 C8.73 109.45, 7.21 107.57, 5.9 105.68 C4.59 103.79, 3.5 101.88, 2.63 99.97 C1.75 98.06, 1.1 96.14, 0.66 94.21 C0.22 92.29, 0 90.36, 0 88.43 C0 86.5, 0.22 84.57, 0.66 82.65 C1.1 80.72, 1.75 78.8, 2.63 76.89 C3.5 74.98, 4.59 73.07, 5.9 71.18 C7.21 69.29, 8.73 67.4, 10.46 65.54 C12.2 63.68, 14.15 61.83, 16.3 60 C18.45 58.18, 20.82 56.37, 23.38 54.59 C25.94 52.81, 28.71 51.05, 31.67 49.32 C34.63 47.59, 37.8 45.88, 41.15 44.21 C44.49 42.54, 48.04 40.9, 51.76 39.3 C55.48 37.7, 59.39 36.13, 63.46 34.6 C67.54 33.07, 71.8 31.57, 76.21 30.12 C80.63 28.67, 85.22 27.26, 89.95 25.9 C94.69 24.54, 99.59 23.22, 104.62 21.94 C109.65 20.67, 114.84 19.45, 120.15 18.27 C125.47 17.1, 130.92 15.97, 136.49 14.9 C142.06 13.83, 147.76 12.81, 153.56 11.85 C159.36 10.88, 165.28 9.97, 171.28 9.12 C177.29 8.27, 183.4 7.47, 189.59 6.73 C195.77 5.99, 202.06 5.31, 208.4 4.69 C214.74 4.07, 221.16 3.51, 227.63 3.01 C234.09 2.51, 240.63 2.08, 247.2 1.7 C253.77 1.32, 260.39 1.01, 267.03 0.76 C273.67 0.5, 280.35 0.32, 287.03 0.19 C293.71 0.06, 300.42 0, 307.11 0 C313.81 0, 320.52 0.06, 327.2 0.19 C333.88 0.32, 340.56 0.5, 347.2 0.76 C353.84 1.01, 360.46 1.32, 367.03 1.7 C373.6 2.08, 380.13 2.51, 386.6 3.01 C393.07 3.51, 399.49 4.07, 405.83 4.69 C412.17 5.31, 418.46 5.99, 424.64 6.73 C430.83 7.47, 436.94 8.27, 442.95 9.12 C448.95 9.97, 454.87 10.88, 460.67 11.85 C466.47 12.81, 472.17 13.83, 477.74 14.9 C483.3 15.97, 488.76 17.1, 494.07 18.27 C499.38 19.45, 504.57 20.67, 509.61 21.94 C514.64 23.22, 519.54 24.54, 524.28 25.9 C529.01 27.26, 533.6 28.67, 538.01 30.12 C542.43 31.57, 546.69 33.07, 550.76 34.6 C554.84 36.13, 558.75 37.7, 562.47 39.3 C566.19 40.9, 569.73 42.54, 573.08 44.21 C576.43 45.88, 579.59 47.59, 582.56 49.32 C585.52 51.05, 588.29 52.81, 590.85 54.59 C593.41 56.37, 595.78 58.18, 597.93 60 C600.08 61.83, 602.03 63.68, 603.76 65.54 C605.5 67.4, 607.02 69.29, 608.33 71.18 C609.63 73.07, 610.73 74.98, 611.6 76.89 C612.47 78.8, 613.13 80.72, 613.57 82.65 C614.01 84.57, 614.23 86.5, 614.23 88.43" stroke="#1971c2" stroke-width="4" fill="none"></path></g><g stroke-linecap="round"><g transform="translate(320.3985685975995 531.6601238090524) rotate(0 0 -260.636539513803)"><path d="M0.84 0.06 C0.83 -86.68, -0.35 -434.63, -0.33 -521.66 M-0.17 -0.95 C-0.35 -87.42, -1.6 -433.61, -1.46 -520.33" stroke="#1e1e1e" stroke-width="2" fill="none"></path></g><g transform="translate(320.3985685975995 531.6601238090524) rotate(0 0 -260.636539513803)"><path d="M7.12 -496.85 C5.07 -503.88, 1.93 -508.26, -1.46 -520.33 M7.12 -496.85 C4.35 -503.02, 2.33 -506.79, -1.46 -520.33" stroke="#1e1e1e" stroke-width="2" fill="none"></path></g><g transform="translate(320.3985685975995 531.6601238090524) rotate(0 0 -260.636539513803)"><path d="M-9.98 -496.82 C-7.27 -503.98, -5.65 -508.37, -1.46 -520.33 M-9.98 -496.82 C-8.82 -503.07, -6.91 -506.85, -1.46 -520.33" stroke="#1e1e1e" stroke-width="2" fill="none"></path></g></g><mask></mask><g stroke-linecap="round" transform="translate(314.17504450633805 114.80394897928312) rotate(0 5.532021414454903 6.2235240912617655)"><path d="M6.5 -0.04 C7.64 0.18, 9.12 1.41, 9.89 2.48 C10.66 3.56, 11.09 5.13, 11.12 6.4 C11.15 7.67, 10.94 9.2, 10.08 10.12 C9.21 11.04, 7.1 11.68, 5.93 11.91 C4.75 12.15, 3.94 12.12, 3.04 11.53 C2.13 10.94, 0.91 9.62, 0.51 8.39 C0.1 7.15, 0.27 5.42, 0.6 4.13 C0.93 2.84, 1.47 1.34, 2.5 0.65 C3.53 -0.04, 5.98 0.08, 6.79 -0.03 C7.59 -0.13, 7.24 -0.17, 7.3 0.02 M6.24 -0.26 C7.43 0.12, 9.03 1.81, 9.9 2.95 C10.77 4.1, 11.5 5.4, 11.46 6.62 C11.42 7.83, 10.43 9.22, 9.64 10.26 C8.85 11.29, 8.03 12.72, 6.73 12.84 C5.44 12.96, 2.92 11.92, 1.86 10.99 C0.8 10.07, 0.58 8.39, 0.39 7.28 C0.2 6.17, 0.37 5.56, 0.71 4.35 C1.05 3.14, 1.3 0.71, 2.43 0.05 C3.56 -0.62, 6.78 0.31, 7.51 0.37 C8.25 0.42, 6.91 0.35, 6.86 0.38" stroke="none" stroke-width="0" fill="#ffc9c9"></path><path d="M6.85 -0.27 C7.95 -0.17, 8.68 0.87, 9.45 1.93 C10.22 2.99, 11.42 4.73, 11.47 6.11 C11.51 7.49, 10.59 9.22, 9.74 10.21 C8.9 11.2, 7.56 11.76, 6.4 12.03 C5.25 12.31, 3.86 12.42, 2.79 11.85 C1.72 11.28, 0.4 10, -0.04 8.6 C-0.47 7.21, -0.26 4.76, 0.17 3.47 C0.6 2.18, 1.49 1.39, 2.56 0.87 C3.63 0.34, 5.84 0.42, 6.62 0.34 C7.39 0.26, 7.22 0.28, 7.22 0.37 M5.12 -0.07 C6.39 -0.35, 7.93 -0.18, 8.81 0.49 C9.68 1.16, 10.14 2.59, 10.37 3.96 C10.6 5.33, 10.65 7.36, 10.2 8.69 C9.76 10.02, 8.76 11.27, 7.7 11.92 C6.65 12.58, 4.85 13.02, 3.89 12.61 C2.92 12.2, 2.58 10.58, 1.94 9.49 C1.29 8.4, 0.23 7.39, 0.03 6.08 C-0.17 4.76, 0.02 2.7, 0.76 1.58 C1.49 0.47, 3.92 -0.32, 4.46 -0.62 C5 -0.92, 3.9 -0.33, 4.01 -0.21" stroke="#e03131" stroke-width="2" fill="none"></path></g><g transform="translate(341.14364890180514 101.8248793823048) rotate(0 9.25 17.5)"><text x="0" y="24.668" font-family="'Virgil 3 YOFF'" font-size="28px" fill="#e03131" text-anchor="start" style="white-space: pre;" direction="ltr" dominant-baseline="alphabetic">P</text></g><g stroke-linecap="round"><g transform="translate(314.1750323369006 134.85069955239538) rotate(0 0.3457574231219951 193.96991437146815)"><path d="M0 0 C0.12 64.66, 0.58 323.28, 0.69 387.94" stroke="#e03131" stroke-width="4.5" fill="none" stroke-dasharray="8 12"></path></g><g transform="translate(314.1750323369006 134.85069955239538) rotate(0 0.3457574231219951 193.96991437146815)"><path d="M8.59 23.48 C6.73 18.39, 4.87 13.31, 0 0" stroke="#e03131" stroke-width="4.5" fill="none"></path></g><g transform="translate(314.1750323369006 134.85069955239538) rotate(0 0.3457574231219951 193.96991437146815)"><path d="M-8.51 23.51 C-6.67 18.42, -4.82 13.32, 0 0" stroke="#e03131" stroke-width="4.5" fill="none"></path></g><g transform="translate(314.1750323369006 134.85069955239538) rotate(0 0.3457574231219951 193.96991437146815)"><path d="M-7.9 364.46 C-6.04 369.55, -4.18 374.63, 0.69 387.94" stroke="#e03131" stroke-width="4.5" fill="none"></path></g><g transform="translate(314.1750323369006 134.85069955239538) rotate(0 0.3457574231219951 193.96991437146815)"><path d="M9.2 364.43 C7.36 369.52, 5.51 374.62, 0.69 387.94" stroke="#e03131" stroke-width="4.5" fill="none"></path></g></g><mask></mask><g transform="translate(292.04695884851844 253.79598701746238) rotate(0 8.008333206176758 17.5)"><text x="0" y="24.668" font-family="'Virgil 3 YOFF'" font-size="28px" fill="#e03131" text-anchor="start" style="white-space: pre;" direction="ltr" dominant-baseline="alphabetic">z</text></g><g stroke-linecap="round"><g transform="translate(321.0440862883461 529.4143181318801) rotate(0 150.74970608018202 0)"><path d="M0 0 C50.25 0, 251.25 0, 301.5 0 M0 0 C50.25 0, 251.25 0, 301.5 0" stroke="#2f9e44" stroke-width="4" fill="none"></path></g></g><mask></mask><g transform="translate(422.1053417610892 496.0875528443995) rotate(0 9.5 17.5)"><text x="0" y="24.668" font-family="'Virgil 3 YOFF'" font-size="28px" fill="#2f9e44" text-anchor="start" style="white-space: pre;" direction="ltr" dominant-baseline="alphabetic">R</text></g><g transform="translate(293.29262998290415 522.9665321266116) rotate(0 7.5 12.5)"><text x="0" y="17.619999999999997" font-family="'Virgil 3 YOFF'" font-size="20px" fill="#1e1e1e" text-anchor="start" style="white-space: pre;" direction="ltr" dominant-baseline="alphabetic">O</text></g></svg>