<svg version="1.1" xmlns="http://www.w3.org/2000/svg" viewBox="0 0 713.1473819304709 627.5131145353633" width="713.1473819304709" height="627.5131145353633">
  <!-- svg-source:excalidraw -->
  <rect x="0" y="0" width="713.1473819304709" height="627.5131145353633" fill="#ffffff"></rect><g stroke-linecap="round"><g transform="translate(357.4848359774991 124.04683981241391) rotate(0 152.4763402359132 201.57303028920026)"><path d="M0.82 -0.27 C51.99 66.78, 255.26 335.73, 305.83 402.85" stroke="#2f9e44" stroke-width="2.5" fill="none" stroke-dasharray="8 10"></path></g></g><mask></mask><g stroke-linecap="round"><g transform="translate(355.2518354734683 123.63943135228163) rotate(0 -154.20509692793019 199.49852225877967)"><path d="M0.76 -0.28 C-50.59 66.17, -255.98 332.18, -307.5 398.56" stroke="#2f9e44" stroke-width="2.5" fill="none" stroke-dasharray="8 10"></path></g></g><mask></mask><g stroke-linecap="round"><g transform="translate(11.805311930077096 537.5693640990322) rotate(0 345.45334750775186 0)"><path d="M-0.23 0.94 C114.82 0.91, 576.16 -0.76, 691.34 -0.81 M-1.81 0.39 C113.03 0.54, 575.31 0.59, 690.62 0.3" stroke="#1e1e1e" stroke-width="2" fill="none"></path></g></g><mask></mask><g stroke-linecap="round"><g transform="translate(356.1018306238849 563.842542261578) rotate(0 0 -275.56381670753444)"><path d="M0.3 0.79 C0.35 -91, -0.41 -459.55, -0.33 -551.46 M-0.99 0.16 C-1.09 -91.4, -1.68 -457.94, -1.45 -550.09" stroke="#1e1e1e" stroke-width="2" fill="none"></path></g><g transform="translate(356.1018306238849 563.842542261578) rotate(0 0 -275.56381670753444)"><path d="M7.1 -526.6 C6.4 -533.04, 2.38 -537.11, -1.45 -550.09 M7.1 -526.6 C3.84 -534.1, 1.71 -542.17, -1.45 -550.09" stroke="#1e1e1e" stroke-width="2" fill="none"></path></g><g transform="translate(356.1018306238849 563.842542261578) rotate(0 0 -275.56381670753444)"><path d="M-10 -526.6 C-6.4 -533.08, -6.11 -537.15, -1.45 -550.09 M-10 -526.6 C-7.48 -533.93, -3.82 -542, -1.45 -550.09" stroke="#1e1e1e" stroke-width="2" fill="none"></path></g></g><mask></mask><g stroke-linecap="round" transform="translate(49.05148732574537 530.6504137748489) rotate(0 307.37375618249564 3.5047746479243074)"><path d="M0.21 1.51 C0.21 1.51, 0.21 1.51, 0.21 1.51 M0.21 1.51 C0.21 1.51, 0.21 1.51, 0.21 1.51 M5.59 7.51 C7.45 5.93, 8.66 3.55, 11.5 0.72 M5.59 7.51 C6.75 5.84, 8.17 4.49, 11.5 0.72 M16.22 7.48 C17.65 5.42, 20.28 3.15, 22.13 0.69 M16.22 7.48 C18.04 5.52, 19.66 3.67, 22.13 0.69 M26.85 7.44 C28.31 5.47, 30.2 3.89, 32.76 0.65 M26.85 7.44 C28.22 6.25, 29.25 4.69, 32.76 0.65 M37.48 7.41 C39.94 4.57, 42.31 1.81, 43.39 0.62 M37.48 7.41 C39.31 5.26, 41.24 3.05, 43.39 0.62 M48.11 7.37 C50.84 4.61, 53.28 2.19, 54.02 0.58 M48.11 7.37 C50.61 4.85, 52.99 2.11, 54.02 0.58 M58.74 7.34 C60.76 5.55, 62.17 3.22, 64.65 0.55 M58.74 7.34 C60.71 5.2, 62.67 2.54, 64.65 0.55 M69.37 7.31 C71.08 4.9, 73.21 3.62, 75.28 0.51 M69.37 7.31 C71.61 5.1, 73.42 2.53, 75.28 0.51 M80 7.27 C82.14 5.39, 83.89 2.93, 85.91 0.48 M80 7.27 C81.67 5.34, 83.4 3.18, 85.91 0.48 M90.63 7.24 C92.6 5.45, 94.41 3.32, 96.54 0.44 M90.63 7.24 C91.74 5.7, 93.39 4.05, 96.54 0.44 M101.26 7.2 C103.98 4.61, 106.19 1.71, 107.17 0.41 M101.26 7.2 C103.43 4.39, 105.74 1.96, 107.17 0.41 M111.89 7.17 C114.38 4.48, 115.94 2.04, 117.8 0.37 M111.89 7.17 C113.84 4.71, 115.91 2.48, 117.8 0.37 M122.52 7.13 C124.65 4.9, 126.45 3.2, 128.43 0.34 M122.52 7.13 C124.43 4.65, 126.59 2.17, 128.43 0.34 M133.15 7.1 C135.09 4.96, 137.04 2.25, 139.06 0.31 M133.15 7.1 C134.88 5.26, 136.36 3.04, 139.06 0.31 M143.78 7.06 C144.92 5.35, 146.9 3.86, 149.69 0.27 M143.78 7.06 C145.15 5.75, 146.36 3.97, 149.69 0.27 M154.41 7.03 C156.01 4.9, 157.85 3.81, 160.32 0.24 M154.41 7.03 C156.79 4.54, 159.11 1.98, 160.32 0.24 M165.04 6.99 C166.57 5.16, 168.27 2.86, 170.95 0.2 M165.04 6.99 C166.77 4.98, 168.69 2.87, 170.95 0.2 M175.67 6.96 C176.89 4.82, 178.59 2.96, 181.58 0.17 M175.67 6.96 C177.12 5.66, 177.93 3.99, 181.58 0.17 M186.3 6.93 C187.6 5.21, 189.74 3.43, 191.55 0.89 M186.3 6.93 C187.92 5.27, 189.23 3.41, 191.55 0.89 M196.93 6.89 C198.86 4.97, 200.26 3.6, 202.18 0.85 M196.93 6.89 C198.56 5.03, 200.28 2.97, 202.18 0.85 M207.56 6.86 C209.44 4.56, 210.8 3.03, 212.81 0.82 M207.56 6.86 C208.95 5.27, 209.99 4.13, 212.81 0.82 M218.2 6.82 C219.84 4.74, 221.83 2.25, 223.44 0.78 M218.2 6.82 C219.52 5.3, 220.84 3.43, 223.44 0.78 M228.83 6.79 C230.07 4.64, 231.8 3.09, 234.07 0.75 M228.83 6.79 C230.05 5.21, 231.38 3.89, 234.07 0.75 M238.8 7.51 C240.89 5.04, 243.05 2.72, 244.7 0.72 M238.8 7.51 C240.28 5.75, 241.54 4.21, 244.7 0.72 M249.43 7.47 C251.27 5.27, 252.92 3.26, 255.33 0.68 M249.43 7.47 C250.64 6, 252.34 4.14, 255.33 0.68 M260.06 7.44 C261.62 5.59, 263.4 3.08, 265.96 0.65 M260.06 7.44 C262.38 4.72, 264.35 2.36, 265.96 0.65 M270.69 7.4 C272.33 6.16, 273.45 4.05, 276.59 0.61 M270.69 7.4 C272.38 5.68, 273.8 4.1, 276.59 0.61 M281.32 7.37 C283.49 4.56, 285.72 2.48, 287.22 0.58 M281.32 7.37 C282.99 5.61, 284.42 3.67, 287.22 0.58 M291.95 7.34 C293.44 5.83, 294.99 4.09, 297.85 0.54 M291.95 7.34 C293.63 5.56, 294.92 3.94, 297.85 0.54 M302.58 7.3 C303.96 5.49, 304.87 4.62, 308.48 0.51 M302.58 7.3 C304.54 5.29, 306.13 3.26, 308.48 0.51 M313.21 7.27 C314.89 5.74, 316.2 3.74, 319.11 0.47 M313.21 7.27 C314.81 5.09, 316.68 3.46, 319.11 0.47 M323.84 7.23 C326.07 4.11, 328.88 2.27, 329.74 0.44 M323.84 7.23 C325.3 5.57, 326.82 3.66, 329.74 0.44 M334.47 7.2 C336.78 4.25, 339.55 1.51, 340.37 0.41 M334.47 7.2 C336.34 5.19, 338.37 3, 340.37 0.41 M345.1 7.16 C346.53 5.61, 348.26 3.74, 351 0.37 M345.1 7.16 C346.7 5.07, 348.66 3.09, 351 0.37 M355.73 7.13 C357.76 5.15, 359.33 3.02, 361.63 0.34 M355.73 7.13 C358.08 4.32, 360.47 1.76, 361.63 0.34 M366.36 7.09 C367.58 5.03, 369.57 3.64, 372.26 0.3 M366.36 7.09 C367.61 5.7, 368.74 4.12, 372.26 0.3 M376.99 7.06 C378.7 4.46, 381.43 2.45, 382.89 0.27 M376.99 7.06 C378.6 5.11, 380.16 3.57, 382.89 0.27 M387.62 7.03 C389 5.43, 391.13 3.02, 393.52 0.23 M387.62 7.03 C388.96 5.62, 390.15 4.45, 393.52 0.23 M398.25 6.99 C399.89 5.71, 401.42 3.66, 404.16 0.2 M398.25 6.99 C399.6 5.59, 400.98 4, 404.16 0.2 M408.88 6.96 C410.75 5.19, 412.24 3.46, 414.13 0.92 M408.88 6.96 C410.04 5.4, 411.42 3.71, 414.13 0.92 M419.51 6.92 C421.18 5.31, 422.48 3.08, 424.76 0.88 M419.51 6.92 C420.93 5.4, 422.03 4.01, 424.76 0.88 M430.14 6.89 C432.06 4.47, 434.47 2.49, 435.39 0.85 M430.14 6.89 C432.15 4.72, 433.84 2.53, 435.39 0.85 M440.77 6.85 C442.14 4.58, 443.92 2.92, 446.02 0.81 M440.77 6.85 C442.67 4.92, 444.68 2.6, 446.02 0.81 M451.4 6.82 C453.01 5.53, 454.03 3.98, 456.65 0.78 M451.4 6.82 C453.23 4.91, 454.47 3.3, 456.65 0.78 M462.03 6.78 C463.55 4.78, 464.59 3.1, 467.28 0.75 M462.03 6.78 C463.89 4.53, 465.88 2.53, 467.28 0.75 M472.01 7.5 C473.53 5.72, 475.22 3.69, 477.91 0.71 M472.01 7.5 C473.79 5.59, 475.6 3.28, 477.91 0.71 M482.64 7.47 C484.01 5.86, 486.01 3.66, 488.54 0.68 M482.64 7.47 C484.68 4.98, 486.59 2.83, 488.54 0.68 M493.27 7.43 C494.66 5.01, 497.28 3.67, 499.17 0.64 M493.27 7.43 C495.68 4.76, 497.9 2.27, 499.17 0.64 M503.9 7.4 C504.97 5.58, 505.99 4.48, 509.8 0.61 M503.9 7.4 C505.51 5.57, 507.14 3.91, 509.8 0.61 M514.53 7.37 C516.29 4.51, 518.61 2.71, 520.43 0.57 M514.53 7.37 C516.28 5.03, 518.33 2.99, 520.43 0.57 M525.16 7.33 C526.38 5.17, 528.14 3.61, 531.06 0.54 M525.16 7.33 C526.69 5.7, 527.95 4.1, 531.06 0.54 M535.79 7.3 C538.17 4.38, 540.52 2.08, 541.69 0.5 M535.79 7.3 C537.96 5.04, 539.54 2.81, 541.69 0.5 M546.42 7.26 C548.53 4.3, 550.76 1.76, 552.32 0.47 M546.42 7.26 C547.75 5.99, 548.95 4.18, 552.32 0.47 M557.05 7.23 C558.47 5.55, 560.73 3.07, 562.95 0.44 M557.05 7.23 C558.21 5.52, 559.87 4.05, 562.95 0.44 M567.68 7.19 C569.75 4.76, 570.94 3, 573.58 0.4 M567.68 7.19 C569.64 4.89, 571.41 3.11, 573.58 0.4 M578.31 7.16 C580.23 4.8, 581.94 2.52, 584.21 0.37 M578.31 7.16 C579.7 5.35, 580.92 3.83, 584.21 0.37 M588.94 7.12 C590.23 5.56, 592.19 3.6, 594.84 0.33 M588.94 7.12 C590.9 4.81, 592.72 2.93, 594.84 0.33 M599.57 7.09 C601.14 4.99, 602.59 3.46, 605.47 0.3 M599.57 7.09 C601.9 4.53, 603.79 1.93, 605.47 0.3 M610.2 7.06 C611.51 5.52, 612.62 4.01, 614.79 1.77 M610.2 7.06 C611.8 5.5, 613.13 3.89, 614.79 1.77 M1.81 7.06 C1.81 7.06, 1.81 7.06, 1.81 7.06 M1.81 7.06 C1.81 7.06, 1.81 7.06, 1.81 7.06 M13.85 6.93 C11.95 4.66, 9.34 3.07, 5.55 -0.29 M13.85 6.93 C11.27 4.72, 8.71 2.23, 5.55 -0.29 M25.89 6.79 C22.96 4.32, 19.91 1.2, 17.59 -0.42 M25.89 6.79 C23.5 4.63, 20.72 2.12, 17.59 -0.42 M38.69 7.32 C36.11 5.22, 32.39 1.85, 29.63 -0.55 M38.69 7.32 C36.6 5.42, 34.51 4.01, 29.63 -0.55 M50.73 7.18 C47.38 3.87, 44.43 1.49, 41.67 -0.69 M50.73 7.18 C47.38 4.35, 43.7 1.26, 41.67 -0.69 M62.77 7.05 C59.93 5.41, 57.3 2.84, 53.71 -0.82 M62.77 7.05 C60.84 5.06, 58.67 3.18, 53.71 -0.82 M74.81 6.92 C72.44 5.25, 71.34 3.7, 66.51 -0.3 M74.81 6.92 C72.25 4.59, 69.68 2.5, 66.51 -0.3 M86.85 6.79 C84.02 4.82, 81.26 2.28, 78.55 -0.43 M86.85 6.79 C84.54 4.88, 82.27 3.17, 78.55 -0.43 M99.65 7.31 C95.85 4.6, 92.54 1.34, 90.59 -0.56 M99.65 7.31 C97.25 5.3, 94.56 2.73, 90.59 -0.56 M111.69 7.18 C109.13 5.77, 106.79 3.66, 102.63 -0.7 M111.69 7.18 C108.81 4.62, 105.73 1.99, 102.63 -0.7 M123.73 7.04 C120.14 4.03, 117.27 0.72, 114.67 -0.83 M123.73 7.04 C120.66 4.28, 117.2 1.09, 114.67 -0.83 M135.77 6.91 C133.67 5.1, 131.37 2.92, 127.47 -0.31 M135.77 6.91 C133.22 4.8, 130.06 1.89, 127.47 -0.31 M147.81 6.78 C145.03 4.02, 141.83 1.69, 139.51 -0.44 M147.81 6.78 C146.18 5.07, 144.35 3.49, 139.51 -0.44 M160.61 7.3 C158.45 5.59, 156.59 4.35, 151.55 -0.57 M160.61 7.3 C157.69 4.87, 155.18 2.45, 151.55 -0.57 M172.65 7.17 C170.09 5.66, 168.64 3.76, 163.59 -0.71 M172.65 7.17 C170.47 4.89, 167.73 3.08, 163.59 -0.71 M184.69 7.03 C182.4 5.24, 179.89 3.17, 175.63 -0.84 M184.69 7.03 C181.21 3.95, 178.36 1.19, 175.63 -0.84 M196.73 6.9 C193.43 4.24, 190.64 1.29, 188.43 -0.32 M196.73 6.9 C193.56 4.45, 190.62 1.48, 188.43 -0.32 M208.77 6.77 C205.6 4.18, 203.36 2.31, 200.47 -0.45 M208.77 6.77 C205.94 4.13, 203.36 2.09, 200.47 -0.45 M221.57 7.29 C217.85 4.3, 214.93 1.68, 212.51 -0.58 M221.57 7.29 C218.52 4.26, 214.84 1.67, 212.51 -0.58 M233.61 7.16 C230.78 4.5, 227.36 2.36, 224.55 -0.72 M233.61 7.16 C230.65 4.57, 227.43 1.91, 224.55 -0.72 M245.65 7.02 C241.8 3.78, 238.36 0.67, 236.59 -0.85 M245.65 7.02 C242.83 4.52, 239.9 2.02, 236.59 -0.85 M257.69 6.89 C255.82 5.86, 254.1 3.42, 249.39 -0.33 M257.69 6.89 C255.83 5.16, 254.08 3.79, 249.39 -0.33 M269.73 6.76 C266.45 4.17, 263.02 0.95, 261.43 -0.46 M269.73 6.76 C267.44 4.92, 265.69 2.79, 261.43 -0.46 M282.53 7.28 C279.72 4.14, 275.7 1.64, 273.47 -0.59 M282.53 7.28 C280.14 5.16, 277.4 2.9, 273.47 -0.59 M294.57 7.15 C292.15 5.66, 289.98 3.65, 285.51 -0.73 M294.57 7.15 C292.01 5.16, 289.54 2.79, 285.51 -0.73 M306.61 7.01 C303.34 4.55, 301.63 1.8, 297.55 -0.86 M306.61 7.01 C304.87 5.59, 303.06 3.56, 297.55 -0.86 M318.65 6.88 C316.37 4.76, 313.67 2.79, 310.35 -0.34 M318.65 6.88 C316.46 5.21, 314.66 3.13, 310.35 -0.34 M330.69 6.75 C328.1 5.39, 326.81 2.96, 322.39 -0.47 M330.69 6.75 C328.4 4.58, 325.62 2.23, 322.39 -0.47 M343.48 7.27 C341.27 4.67, 339.02 3.39, 334.43 -0.6 M343.48 7.27 C341.32 5.28, 339.58 4.09, 334.43 -0.6 M355.52 7.14 C353.76 4.95, 350.73 2.53, 346.47 -0.74 M355.52 7.14 C353.44 5.41, 351.48 3.78, 346.47 -0.74 M367.57 7 C364.99 4.37, 361.94 2.44, 359.26 -0.21 M367.57 7 C365.29 4.93, 363.26 3.49, 359.26 -0.21 M379.61 6.87 C377.07 5.35, 375.37 3.08, 371.3 -0.35 M379.61 6.87 C377.09 4.78, 374.18 2.2, 371.3 -0.35 M391.65 6.74 C390.08 5.46, 387.68 3.3, 383.35 -0.48 M391.65 6.74 C389.85 4.82, 387.68 3.31, 383.35 -0.48 M404.44 7.26 C401.3 5.33, 399.02 2.77, 395.39 -0.61 M404.44 7.26 C402.27 5.13, 400.01 3.59, 395.39 -0.61 M416.48 7.13 C413.89 4.33, 410.29 2.11, 407.43 -0.75 M416.48 7.13 C414.37 5.08, 412.3 3.55, 407.43 -0.75 M428.52 6.99 C426.45 4.95, 424.43 2.87, 420.22 -0.22 M428.52 6.99 C425.71 4.59, 423.25 2.19, 420.22 -0.22 M440.57 6.86 C438.69 4.31, 435.97 2.29, 432.26 -0.36 M440.57 6.86 C437.49 4.11, 434.96 2.03, 432.26 -0.36 M452.61 6.73 C449.86 4.42, 446.88 1.41, 444.3 -0.49 M452.61 6.73 C450.45 4.85, 448.73 3.43, 444.3 -0.49 M465.4 7.25 C463.19 5.46, 461.75 4.17, 456.35 -0.62 M465.4 7.25 C463.45 5.44, 460.88 3.38, 456.35 -0.62 M477.44 7.12 C474.87 5.34, 472.47 3.4, 468.39 -0.76 M477.44 7.12 C474.3 4.74, 471.55 2.14, 468.39 -0.76 M489.48 6.98 C486.39 4.45, 483.48 1.67, 481.18 -0.23 M489.48 6.98 C486.31 3.96, 482.99 1.41, 481.18 -0.23 M501.52 6.85 C499.37 4.64, 496.34 2.92, 493.22 -0.37 M501.52 6.85 C499.2 4.61, 496.64 2.88, 493.22 -0.37 M513.57 6.72 C511.32 5.48, 510.12 3.59, 505.26 -0.5 M513.57 6.72 C510.89 4.8, 508.82 2.16, 505.26 -0.5 M526.36 7.24 C523.72 4.72, 521.15 2.15, 517.3 -0.63 M526.36 7.24 C524.12 4.98, 521.55 3.41, 517.3 -0.63 M538.4 7.11 C534.86 4.9, 532.22 1.84, 529.35 -0.77 M538.4 7.11 C535.88 5.05, 533.41 2.94, 529.35 -0.77 M550.44 6.97 C548.63 5.54, 546.51 4.02, 542.14 -0.24 M550.44 6.97 C547.81 4.72, 545.37 2.73, 542.14 -0.24 M562.48 6.84 C560.59 4.71, 558.43 3.45, 554.18 -0.38 M562.48 6.84 C559.59 4.39, 556.21 1.54, 554.18 -0.38 M574.52 6.71 C572.54 5.09, 570.91 4.27, 566.22 -0.51 M574.52 6.71 C573.01 5.04, 571.31 3.63, 566.22 -0.51 M587.32 7.23 C583.87 4.63, 579.95 1.38, 578.26 -0.64 M587.32 7.23 C584.72 4.91, 581.4 2.17, 578.26 -0.64 M599.36 7.1 C596.79 4.46, 594.06 2.19, 590.3 -0.78 M599.36 7.1 C597.35 5.14, 594.76 3.32, 590.3 -0.78 M611.4 6.96 C609.47 5.04, 608.07 4.3, 603.1 -0.25 M611.4 6.96 C609.52 5.4, 608.18 4.21, 603.1 -0.25" stroke="#a5d8ff" stroke-width="1" fill="none"></path><path d="M1.75 0 C146.19 -0.72, 290.36 -0.47, 613 0 M1.75 0 C124.99 0.66, 248.25 0.41, 613 0 M613 0 C614.29 0.42, 614.99 0.84, 614.75 1.75 M613 0 C613.09 -0.74, 615.27 -0.05, 614.75 1.75 M614.75 1.75 C614.72 3, 614.73 4.41, 614.75 5.26 M614.75 1.75 C614.82 2.77, 614.78 4, 614.75 5.26 M614.75 5.26 C615.55 6.29, 613.44 6.46, 613 7.01 M614.75 5.26 C615.75 5.7, 613.73 6.54, 613 7.01 M613 7.01 C452.76 7.06, 292.85 7.2, 1.75 7.01 M613 7.01 C446.09 6.01, 279.16 5.8, 1.75 7.01 M1.75 7.01 C-0.29 6.68, -0.3 7.4, 0 5.26 M1.75 7.01 C1.48 7.21, -0.96 6.31, 0 5.26 M0 5.26 C0.12 4.48, 0.04 3.63, 0 1.75 M0 5.26 C0 4.51, 0 3.81, 0 1.75 M0 1.75 C-1 1.06, -0.27 0.88, 1.75 0 M0 1.75 C0.41 0.65, 1.44 -0.35, 1.75 0" stroke="#1971c2" stroke-width="2" fill="none"></path></g><g stroke-linecap="round"><g transform="translate(52.457290718349554 554.0155780943444) rotate(0 305.24512906211817 0)"><path d="M0.31 1.15 C102.32 1.18, 509.37 0.42, 610.93 0.23 M-0.98 0.72 C101 0.35, 508.03 -1.87, 610.21 -1.77" stroke="#1971c2" stroke-width="2" fill="none"></path></g><g transform="translate(52.457290718349554 554.0155780943444) rotate(0 305.24512906211817 0)"><path d="M23.79 -7.43 C20.84 -4.85, 14.41 -5.22, 0.31 1.15 M23.79 -7.43 C17.63 -4.72, 10.42 -2.36, 0.31 1.15" stroke="#1971c2" stroke-width="2" fill="none"></path></g><g transform="translate(52.457290718349554 554.0155780943444) rotate(0 305.24512906211817 0)"><path d="M23.82 9.67 C20.85 8.69, 14.41 4.76, 0.31 1.15 M23.82 9.67 C17.5 7.25, 10.28 4.48, 0.31 1.15" stroke="#1971c2" stroke-width="2" fill="none"></path></g><g transform="translate(52.457290718349554 554.0155780943444) rotate(0 305.24512906211817 0)"><path d="M586.74 6.84 C593.54 5.72, 596.89 1.77, 610.21 -1.77 M586.74 6.84 C594.52 4.4, 601.41 1.6, 610.21 -1.77" stroke="#1971c2" stroke-width="2" fill="none"></path></g><g transform="translate(52.457290718349554 554.0155780943444) rotate(0 305.24512906211817 0)"><path d="M586.69 -10.26 C593.52 -7.82, 596.87 -8.21, 610.21 -1.77 M586.69 -10.26 C594.64 -7.57, 601.53 -5.24, 610.21 -1.77" stroke="#1971c2" stroke-width="2" fill="none"></path></g></g><mask></mask><g transform="translate(338.8142637037139 572.5131145353633) rotate(0 24.81666666666672 22.5)"><text x="0" y="31.716" font-family="'Virgil 3 YOFF'" font-size="36px" fill="#1971c2" text-anchor="start" style="white-space: pre;" direction="ltr" dominant-baseline="alphabetic">2L</text></g><g stroke-linecap="round" transform="translate(349.8783065326237 117.13181304434528) rotate(0 5.532021414455016 6.2235240912617655)"><path d="M5.71 -0.11 C6.8 -0.15, 8.3 0.7, 9.26 1.64 C10.21 2.58, 11.24 4.18, 11.43 5.53 C11.63 6.87, 11.15 8.58, 10.42 9.71 C9.7 10.84, 8.28 11.87, 7.1 12.31 C5.92 12.76, 4.38 12.87, 3.35 12.36 C2.33 11.84, 1.46 10.52, 0.93 9.23 C0.4 7.93, 0 6.01, 0.16 4.58 C0.32 3.15, 0.86 1.36, 1.88 0.66 C2.9 -0.03, 5.56 0.54, 6.3 0.39 C7.04 0.25, 6.29 -0.28, 6.32 -0.2 M5.53 -0.05 C6.52 -0.08, 8.19 0.87, 9.13 1.84 C10.07 2.81, 11.1 4.41, 11.19 5.77 C11.29 7.14, 10.5 8.88, 9.72 10.02 C8.94 11.16, 7.48 12.36, 6.5 12.63 C5.52 12.9, 4.79 12.19, 3.84 11.65 C2.88 11.11, 1.46 10.63, 0.8 9.39 C0.13 8.15, -0.31 5.6, -0.14 4.2 C0.03 2.81, 0.84 1.59, 1.79 1.02 C2.73 0.45, 4.7 0.91, 5.52 0.77 C6.35 0.63, 6.64 0.23, 6.73 0.17" stroke="none" stroke-width="0" fill="#ffc9c9"></path><path d="M6.16 0.38 C7.39 0.29, 8.87 0.52, 9.64 1.3 C10.4 2.08, 10.73 3.67, 10.76 5.06 C10.79 6.44, 10.46 8.48, 9.82 9.59 C9.18 10.7, 8 11.31, 6.9 11.69 C5.81 12.07, 4.38 12.33, 3.26 11.85 C2.13 11.37, 0.77 10.03, 0.17 8.79 C-0.43 7.55, -0.72 5.69, -0.35 4.41 C0.03 3.12, 1.28 1.86, 2.4 1.09 C3.52 0.33, 5.84 0.04, 6.4 -0.19 C6.95 -0.42, 5.74 -0.41, 5.73 -0.28 M4.84 0.61 C5.98 0.47, 7.31 0.45, 8.28 1.15 C9.25 1.85, 10.38 3.6, 10.66 4.81 C10.93 6.01, 10.44 7.28, 9.92 8.38 C9.41 9.49, 8.55 10.83, 7.57 11.41 C6.6 11.98, 5.13 11.98, 4.06 11.84 C2.98 11.69, 1.89 11.48, 1.13 10.53 C0.37 9.58, -0.5 7.67, -0.51 6.14 C-0.53 4.6, 0.01 2.39, 1.03 1.32 C2.05 0.25, 4.99 -0.13, 5.6 -0.31 C6.21 -0.49, 4.79 0.16, 4.69 0.26" stroke="#e03131" stroke-width="2" fill="none"></path></g><g transform="translate(376.84691092809123 104.15274344736696) rotate(0 9.25 17.5)"><text x="0" y="24.668" font-family="'Virgil 3 YOFF'" font-size="28px" fill="#e03131" text-anchor="start" style="white-space: pre;" direction="ltr" dominant-baseline="alphabetic">P</text></g><g transform="translate(466.74225891298363 217.39970118134033) rotate(0 6.5 17.5)"><text x="0" y="24.668" font-family="'Virgil 3 YOFF'" font-size="28px" fill="#2f9e44" text-anchor="start" style="white-space: pre;" direction="ltr" dominant-baseline="alphabetic">r</text></g><g stroke-linecap="round"><g transform="translate(354.7188252702716 177.2925459265423) rotate(0 21.090831642609373 -2.0745080304205885)"><path d="M-0.05 0.54 C4.26 1.12, 18.56 4.59, 25.62 3.19 C32.68 1.79, 39.52 -6.08, 42.32 -7.88" stroke="#f08c00" stroke-width="4.5" fill="none" stroke-dasharray="1.5 10"></path></g></g><mask></mask><g transform="translate(374.08090022086355 183.51607001780405) rotate(0 7.849999904632568 17.5)"><text x="0" y="24.668" font-family="'Virgil 3 YOFF'" font-size="28px" fill="#f08c00" text-anchor="start" style="white-space: pre;" direction="ltr" dominant-baseline="alphabetic">θ</text></g><g stroke-linecap="round"><g transform="translate(349.87830044873124 137.18197760810506) rotate(0 0.3457543803496037 193.9682073761444)"><path d="M0 0 C0.12 64.66, 0.58 323.28, 0.69 387.94" stroke="#e03131" stroke-width="1.5" fill="none" stroke-dasharray="8 9"></path></g><g transform="translate(349.87830044873124 137.18197760810506) rotate(0 0.3457543803496037 193.9682073761444)"><path d="M8.59 23.48 C5.46 14.91, 2.32 6.34, 0 0" stroke="#e03131" stroke-width="1.5" fill="none"></path></g><g transform="translate(349.87830044873124 137.18197760810506) rotate(0 0.3457543803496037 193.9682073761444)"><path d="M-8.51 23.51 C-5.4 14.93, -2.3 6.35, 0 0" stroke="#e03131" stroke-width="1.5" fill="none"></path></g><g transform="translate(349.87830044873124 137.18197760810506) rotate(0 0.3457543803496037 193.9682073761444)"><path d="M-7.9 364.46 C-4.77 373.03, -1.63 381.59, 0.69 387.94" stroke="#e03131" stroke-width="1.5" fill="none"></path></g><g transform="translate(349.87830044873124 137.18197760810506) rotate(0 0.3457543803496037 193.9682073761444)"><path d="M9.2 364.43 C6.09 373.01, 2.99 381.59, 0.69 387.94" stroke="#e03131" stroke-width="1.5" fill="none"></path></g></g><mask></mask><g transform="translate(327.7502208748041 256.12385108252454) rotate(0 8.008333206176758 17.5)"><text x="0" y="24.668" font-family="'Virgil 3 YOFF'" font-size="28px" fill="#e03131" text-anchor="start" style="white-space: pre;" direction="ltr" dominant-baseline="alphabetic">z</text></g><g stroke-linecap="round"><g transform="translate(348.7843088923006 114.12501364833071) rotate(0 -38.68533493184509 -52.062506824165354)"><path d="M0 0 C-12.9 -17.35, -64.48 -86.77, -77.37 -104.13" stroke="#1971c2" stroke-width="4.5" fill="none" stroke-dasharray="8 12"></path></g><g transform="translate(348.7843088923006 114.12501364833071) rotate(0 -38.68533493184509 -52.062506824165354)"><path d="M-56.5 -90.37 C-62.29 -94.18, -68.08 -98, -77.37 -104.13" stroke="#1971c2" stroke-width="4.5" fill="none"></path></g><g transform="translate(348.7843088923006 114.12501364833071) rotate(0 -38.68533493184509 -52.062506824165354)"><path d="M-70.22 -80.17 C-72.21 -86.81, -74.19 -93.46, -77.37 -104.13" stroke="#1971c2" stroke-width="4.5" fill="none"></path></g></g><mask></mask><g stroke-linecap="round"><g transform="translate(362.76133051892464 115.08546607996055) rotate(0 39.046880118124136 -50.49581101695671)"><path d="M0 0 C13.02 -16.83, 65.08 -84.16, 78.09 -100.99" stroke="#1971c2" stroke-width="4.5" fill="none" stroke-dasharray="8 12"></path></g><g transform="translate(362.76133051892464 115.08546607996055) rotate(0 39.046880118124136 -50.49581101695671)"><path d="M70.49 -77.18 C72.35 -83.02, 74.22 -88.86, 78.09 -100.99" stroke="#1971c2" stroke-width="4.5" fill="none"></path></g><g transform="translate(362.76133051892464 115.08546607996055) rotate(0 39.046880118124136 -50.49581101695671)"><path d="M56.96 -87.64 C62.14 -90.91, 67.33 -94.19, 78.09 -100.99" stroke="#1971c2" stroke-width="4.5" fill="none"></path></g></g><mask></mask><g transform="translate(238.7647245979541 46.150850562778714) rotate(0 17.399999618530273 17.5)"><text x="0" y="24.668" font-family="'Virgil 3 YOFF'" font-size="28px" fill="#1971c2" text-anchor="start" style="white-space: pre;" direction="ltr" dominant-baseline="alphabetic">dE</text></g><g transform="translate(275.3343474848017 64.40347210440643) rotate(0 2.5 10)"><text x="0" y="14.096" font-family="'Virgil 3 YOFF'" font-size="16px" fill="#1971c2" text-anchor="start" style="white-space: pre;" direction="ltr" dominant-baseline="alphabetic">1</text></g><g transform="translate(440.28333174866054 51.6832604976548) rotate(0 17.399999618530273 17.5)"><text x="0" y="24.668" font-family="'Virgil 3 YOFF'" font-size="28px" fill="#1971c2" text-anchor="start" style="white-space: pre;" direction="ltr" dominant-baseline="alphabetic">dE</text></g><g transform="translate(471.18874770314835 68.04781306182917) rotate(0 6.5 10)"><text x="0" y="14.096" font-family="'Virgil 3 YOFF'" font-size="16px" fill="#1971c2" text-anchor="start" style="white-space: pre;" direction="ltr" dominant-baseline="alphabetic">2</text></g></svg>