<svg version="1.1" xmlns="http://www.w3.org/2000/svg" viewBox="0 0 662.323974324584 631.0129578645362" width="662.323974324584" height="631.0129578645362">
  <!-- svg-source:excalidraw -->
  <rect x="0" y="0" width="662.323974324584" height="631.0129578645362" fill="#ffffff"></rect><g stroke-linecap="round" transform="translate(11.664594470199063 444.1557607872277) rotate(0 307.11392635329435 88.42859853865426)"><path d="M614.23 88.43 C614.23 90.36, 614.01 92.29, 613.57 94.21 C613.13 96.14, 612.47 98.06, 611.6 99.97 C610.73 101.88, 609.63 103.79, 608.33 105.68 C607.02 107.57, 605.5 109.45, 603.76 111.32 C602.03 113.18, 600.08 115.03, 597.93 116.85 C595.78 118.68, 593.41 120.49, 590.85 122.27 C588.29 124.05, 585.52 125.81, 582.56 127.54 C579.59 129.27, 576.43 130.97, 573.08 132.64 C569.73 134.31, 566.19 135.95, 562.47 137.56 C558.75 139.16, 554.84 140.73, 550.76 142.26 C546.69 143.79, 542.43 145.28, 538.01 146.73 C533.6 148.18, 529.01 149.59, 524.28 150.96 C519.54 152.32, 514.64 153.64, 509.61 154.91 C504.57 156.18, 499.38 157.41, 494.07 158.58 C488.76 159.76, 483.3 160.88, 477.74 161.95 C472.17 163.03, 466.47 164.05, 460.67 165.01 C454.87 165.97, 448.95 166.89, 442.95 167.74 C436.94 168.59, 430.83 169.39, 424.64 170.13 C418.46 170.86, 412.17 171.54, 405.83 172.16 C399.49 172.78, 393.07 173.35, 386.6 173.84 C380.13 174.34, 373.6 174.78, 367.03 175.16 C360.46 175.53, 353.84 175.85, 347.2 176.1 C340.56 176.35, 333.88 176.54, 327.2 176.67 C320.52 176.79, 313.81 176.86, 307.11 176.86 C300.42 176.86, 293.71 176.79, 287.03 176.67 C280.35 176.54, 273.67 176.35, 267.03 176.1 C260.39 175.85, 253.77 175.53, 247.2 175.16 C240.63 174.78, 234.09 174.34, 227.63 173.84 C221.16 173.35, 214.74 172.78, 208.4 172.16 C202.06 171.54, 195.77 170.86, 189.59 170.13 C183.4 169.39, 177.29 168.59, 171.28 167.74 C165.28 166.89, 159.36 165.97, 153.56 165.01 C147.76 164.05, 142.06 163.03, 136.49 161.95 C130.92 160.88, 125.47 159.76, 120.15 158.58 C114.84 157.41, 109.65 156.18, 104.62 154.91 C99.59 153.64, 94.69 152.32, 89.95 150.96 C85.22 149.59, 80.63 148.18, 76.21 146.73 C71.8 145.28, 67.54 143.79, 63.46 142.26 C59.39 140.73, 55.48 139.16, 51.76 137.56 C48.04 135.95, 44.49 134.31, 41.15 132.64 C37.8 130.97, 34.63 129.27, 31.67 127.54 C28.71 125.81, 25.94 124.05, 23.38 122.27 C20.82 120.49, 18.45 118.68, 16.3 116.85 C14.15 115.03, 12.2 113.18, 10.46 111.32 C8.73 109.45, 7.21 107.57, 5.9 105.68 C4.59 103.79, 3.5 101.88, 2.63 99.97 C1.75 98.06, 1.1 96.14, 0.66 94.21 C0.22 92.29, 0 90.36, 0 88.43 C0 86.5, 0.22 84.57, 0.66 82.65 C1.1 80.72, 1.75 78.8, 2.63 76.89 C3.5 74.98, 4.59 73.07, 5.9 71.18 C7.21 69.29, 8.73 67.4, 10.46 65.54 C12.2 63.68, 14.15 61.83, 16.3 60 C18.45 58.18, 20.82 56.37, 23.38 54.59 C25.94 52.81, 28.71 51.05, 31.67 49.32 C34.63 47.59, 37.8 45.88, 41.15 44.21 C44.49 42.54, 48.04 40.9, 51.76 39.3 C55.48 37.7, 59.39 36.13, 63.46 34.6 C67.54 33.07, 71.8 31.57, 76.21 30.12 C80.63 28.67, 85.22 27.26, 89.95 25.9 C94.69 24.54, 99.59 23.22, 104.62 21.94 C109.65 20.67, 114.84 19.45, 120.15 18.27 C125.47 17.1, 130.92 15.97, 136.49 14.9 C142.06 13.83, 147.76 12.81, 153.56 11.85 C159.36 10.88, 165.28 9.97, 171.28 9.12 C177.29 8.27, 183.4 7.47, 189.59 6.73 C195.77 5.99, 202.06 5.31, 208.4 4.69 C214.74 4.07, 221.16 3.51, 227.63 3.01 C234.09 2.51, 240.63 2.08, 247.2 1.7 C253.77 1.32, 260.39 1.01, 267.03 0.76 C273.67 0.5, 280.35 0.32, 287.03 0.19 C293.71 0.06, 300.42 0, 307.11 0 C313.81 0, 320.52 0.06, 327.2 0.19 C333.88 0.32, 340.56 0.5, 347.2 0.76 C353.84 1.01, 360.46 1.32, 367.03 1.7 C373.6 2.08, 380.13 2.51, 386.6 3.01 C393.07 3.51, 399.49 4.07, 405.83 4.69 C412.17 5.31, 418.46 5.99, 424.64 6.73 C430.83 7.47, 436.94 8.27, 442.95 9.12 C448.95 9.97, 454.87 10.88, 460.67 11.85 C466.47 12.81, 472.17 13.83, 477.74 14.9 C483.3 15.97, 488.76 17.1, 494.07 18.27 C499.38 19.45, 504.57 20.67, 509.61 21.94 C514.64 23.22, 519.54 24.54, 524.28 25.9 C529.01 27.26, 533.6 28.67, 538.01 30.12 C542.43 31.57, 546.69 33.07, 550.76 34.6 C554.84 36.13, 558.75 37.7, 562.47 39.3 C566.19 40.9, 569.73 42.54, 573.08 44.21 C576.43 45.88, 579.59 47.59, 582.56 49.32 C585.52 51.05, 588.29 52.81, 590.85 54.59 C593.41 56.37, 595.78 58.18, 597.93 60 C600.08 61.83, 602.03 63.68, 603.76 65.54 C605.5 67.4, 607.02 69.29, 608.33 71.18 C609.63 73.07, 610.73 74.98, 611.6 76.89 C612.47 78.8, 613.13 80.72, 613.57 82.65 C614.01 84.57, 614.23 86.5, 614.23 88.43" stroke="#1971c2" stroke-width="4" fill="none"></path></g><g stroke-linecap="round"><g transform="translate(323.4461684214125 124.04683981241391) rotate(0 152.4763402359133 201.57303028920026)"><path d="M-0.86 -0.36 C50.13 66.6, 254.46 335.34, 305.46 402.58" stroke="#2f9e44" stroke-width="4.5" fill="none" stroke-dasharray="8 12"></path></g></g><mask></mask><g stroke-linecap="round"><g transform="translate(321.2131679173817 123.63943135228163) rotate(0 -154.2050969279303 199.49852225877967)"><path d="M0.51 -0.56 C-50.72 65.99, -256.83 332.31, -308.23 398.94" stroke="#2f9e44" stroke-width="4.5" fill="none" stroke-dasharray="8 12"></path></g></g><mask></mask><g stroke-linecap="round"><g transform="translate(322.06316306779854 533.9879878741145) rotate(0 0 -260.636539513803)"><path d="M0.51 0.21 C0.58 -86.56, 0.83 -433.75, 0.56 -520.69 M-0.68 -0.72 C-0.74 -87.85, -0.41 -435.93, -0.09 -522.51" stroke="#1e1e1e" stroke-width="2" fill="none"></path></g><g transform="translate(322.06316306779854 533.9879878741145) rotate(0 0 -260.636539513803)"><path d="M8.41 -499 C6.1 -505.43, 4.04 -515.58, -0.09 -522.51 M8.41 -499 C5.89 -504.78, 4.53 -511.66, -0.09 -522.51" stroke="#1e1e1e" stroke-width="2" fill="none"></path></g><g transform="translate(322.06316306779854 533.9879878741145) rotate(0 0 -260.636539513803)"><path d="M-8.69 -499.04 C-5.62 -505.53, -2.3 -515.66, -0.09 -522.51 M-8.69 -499.04 C-6.33 -504.74, -2.82 -511.61, -0.09 -522.51" stroke="#1e1e1e" stroke-width="2" fill="none"></path></g></g><mask></mask><g stroke-linecap="round" transform="translate(315.8396389765371 117.13181304434528) rotate(0 5.532021414454903 6.2235240912617655)"><path d="M5.72 0.19 C6.81 0.28, 8.57 1.18, 9.42 2.13 C10.27 3.08, 10.77 4.58, 10.83 5.9 C10.88 7.21, 10.42 8.9, 9.76 10.03 C9.09 11.15, 7.94 12.39, 6.83 12.65 C5.72 12.91, 4.21 12.18, 3.09 11.59 C1.97 10.99, 0.63 10.19, 0.13 9.08 C-0.36 7.97, -0.18 6.27, 0.12 4.93 C0.43 3.59, 0.97 1.91, 1.98 1.03 C3 0.15, 5.49 -0.22, 6.23 -0.34 C6.97 -0.47, 6.45 0.14, 6.44 0.26 M5.81 0.27 C6.79 0.15, 7.98 0.47, 8.85 1.2 C9.73 1.93, 10.94 3.14, 11.05 4.65 C11.16 6.15, 10.13 9.12, 9.51 10.25 C8.89 11.38, 8.38 11.05, 7.32 11.42 C6.26 11.8, 4.14 12.82, 3.15 12.5 C2.15 12.18, 1.97 10.78, 1.35 9.5 C0.73 8.22, -0.79 6.09, -0.55 4.82 C-0.31 3.54, 1.83 2.52, 2.8 1.83 C3.76 1.15, 4.73 0.95, 5.23 0.69 C5.74 0.42, 5.75 0.31, 5.82 0.22" stroke="none" stroke-width="0" fill="#ffc9c9"></path><path d="M6.12 0.05 C7.24 0.34, 9.45 1.61, 10.2 2.72 C10.94 3.83, 10.72 5.37, 10.58 6.72 C10.45 8.06, 10.02 9.88, 9.39 10.79 C8.75 11.7, 7.93 12.02, 6.78 12.18 C5.64 12.33, 3.65 12.33, 2.51 11.7 C1.38 11.07, 0.36 9.75, -0.01 8.39 C-0.38 7.03, -0.11 4.74, 0.3 3.51 C0.71 2.28, 1.42 1.62, 2.47 1.01 C3.52 0.4, 5.83 -0.02, 6.6 -0.14 C7.37 -0.27, 7.13 0.17, 7.08 0.26 M6.11 -0.19 C7.41 -0.2, 9.04 1.27, 9.95 2.17 C10.85 3.08, 11.59 4.01, 11.52 5.23 C11.44 6.46, 10.3 8.27, 9.48 9.51 C8.67 10.76, 7.55 12.32, 6.6 12.68 C5.66 13.04, 4.94 12.29, 3.84 11.68 C2.74 11.08, 0.61 10.15, 0 9.04 C-0.62 7.92, -0.16 6.31, 0.15 5.01 C0.46 3.71, 0.92 2.15, 1.86 1.23 C2.79 0.3, 5.18 -0.43, 5.76 -0.53 C6.35 -0.64, 5.27 0.41, 5.36 0.61" stroke="#e03131" stroke-width="2" fill="none"></path></g><g transform="translate(342.80824337200465 104.15274344736696) rotate(0 9.25 17.5)"><text x="0" y="24.668" font-family="'Virgil 3 YOFF'" font-size="28px" fill="#e03131" text-anchor="start" style="white-space: pre;" direction="ltr" dominant-baseline="alphabetic">P</text></g><g transform="translate(432.70359135689705 217.39970118134033) rotate(0 6.5 17.5)"><text x="0" y="24.668" font-family="'Virgil 3 YOFF'" font-size="28px" fill="#2f9e44" text-anchor="start" style="white-space: pre;" direction="ltr" dominant-baseline="alphabetic">r</text></g><g stroke-linecap="round"><g transform="translate(320.68015771418504 177.2925459265423) rotate(0 21.090831642609373 -2.0745080304205885)"><path d="M-0.06 0.41 C4.34 0.98, 18.94 4.32, 26.05 2.93 C33.16 1.53, 39.84 -6.28, 42.62 -7.97" stroke="#f08c00" stroke-width="4.5" fill="none" stroke-dasharray="1.5 10"></path></g></g><mask></mask><g transform="translate(340.0422326647772 183.51607001780405) rotate(0 7.849999904632568 17.5)"><text x="0" y="24.668" font-family="'Virgil 3 YOFF'" font-size="28px" fill="#f08c00" text-anchor="start" style="white-space: pre;" direction="ltr" dominant-baseline="alphabetic">θ</text></g><g stroke-linecap="round"><g transform="translate(315.83963289264466 137.18197760810506) rotate(0 0.3457543803497174 193.9682073761444)"><path d="M0 0 C0.12 64.66, 0.58 323.28, 0.69 387.94" stroke="#e03131" stroke-width="4.5" fill="none" stroke-dasharray="8 12"></path></g><g transform="translate(315.83963289264466 137.18197760810506) rotate(0 0.3457543803497174 193.9682073761444)"><path d="M8.59 23.48 C5.29 14.45, 1.99 5.43, 0 0" stroke="#e03131" stroke-width="4.5" fill="none"></path></g><g transform="translate(315.83963289264466 137.18197760810506) rotate(0 0.3457543803497174 193.9682073761444)"><path d="M-8.51 23.51 C-5.24 14.47, -1.97 5.43, 0 0" stroke="#e03131" stroke-width="4.5" fill="none"></path></g><g transform="translate(315.83963289264466 137.18197760810506) rotate(0 0.3457543803497174 193.9682073761444)"><path d="M-7.9 364.46 C-4.6 373.48, -1.29 382.51, 0.69 387.94" stroke="#e03131" stroke-width="4.5" fill="none"></path></g><g transform="translate(315.83963289264466 137.18197760810506) rotate(0 0.3457543803497174 193.9682073761444)"><path d="M9.2 364.43 C5.93 373.47, 2.66 382.5, 0.69 387.94" stroke="#e03131" stroke-width="4.5" fill="none"></path></g></g><mask></mask><g transform="translate(293.7115533187175 256.12385108252454) rotate(0 8.008333206176758 17.5)"><text x="0" y="24.668" font-family="'Virgil 3 YOFF'" font-size="28px" fill="#e03131" text-anchor="start" style="white-space: pre;" direction="ltr" dominant-baseline="alphabetic">z</text></g><g stroke-linecap="round"><g transform="translate(314.7456413362138 114.12501364833071) rotate(0 -38.68533493184509 -52.062506824165354)"><path d="M0 0 C-12.9 -17.35, -64.48 -86.77, -77.37 -104.13" stroke="#1971c2" stroke-width="4.5" fill="none" stroke-dasharray="8 12"></path></g><g transform="translate(314.7456413362138 114.12501364833071) rotate(0 -38.68533493184509 -52.062506824165354)"><path d="M-56.5 -90.37 C-64.82 -95.85, -73.14 -101.34, -77.37 -104.13" stroke="#1971c2" stroke-width="4.5" fill="none"></path></g><g transform="translate(314.7456413362138 114.12501364833071) rotate(0 -38.68533493184509 -52.062506824165354)"><path d="M-70.22 -80.17 C-73.07 -89.72, -75.92 -99.27, -77.37 -104.13" stroke="#1971c2" stroke-width="4.5" fill="none"></path></g></g><mask></mask><g stroke-linecap="round"><g transform="translate(328.72266296283806 115.08546607996055) rotate(0 39.046880118124136 -50.49581101695671)"><path d="M0 0 C13.02 -16.83, 65.08 -84.16, 78.09 -100.99" stroke="#1971c2" stroke-width="4.5" fill="none" stroke-dasharray="8 12"></path></g><g transform="translate(328.72266296283806 115.08546607996055) rotate(0 39.046880118124136 -50.49581101695671)"><path d="M70.49 -77.18 C72.48 -83.4, 74.47 -89.63, 78.09 -100.99" stroke="#1971c2" stroke-width="4.5" fill="none"></path></g><g transform="translate(328.72266296283806 115.08546607996055) rotate(0 39.046880118124136 -50.49581101695671)"><path d="M56.96 -87.64 C62.49 -91.13, 68.01 -94.62, 78.09 -100.99" stroke="#1971c2" stroke-width="4.5" fill="none"></path></g></g><mask></mask><g transform="translate(204.72605704186753 46.15085056277866) rotate(0 17.399999618530273 17.5)"><text x="0" y="24.668" font-family="'Virgil 3 YOFF'" font-size="28px" fill="#1971c2" text-anchor="start" style="white-space: pre;" direction="ltr" dominant-baseline="alphabetic">dE</text></g><g transform="translate(241.29567992871534 64.40347210440649) rotate(0 2.5 10)"><text x="0" y="14.096" font-family="'Virgil 3 YOFF'" font-size="16px" fill="#1971c2" text-anchor="start" style="white-space: pre;" direction="ltr" dominant-baseline="alphabetic">1</text></g><g transform="translate(406.24466419257396 51.68326049765477) rotate(0 17.399999618530273 17.5)"><text x="0" y="24.668" font-family="'Virgil 3 YOFF'" font-size="28px" fill="#1971c2" text-anchor="start" style="white-space: pre;" direction="ltr" dominant-baseline="alphabetic">dE</text></g><g transform="translate(437.15008014706154 68.04781306182912) rotate(0 6.5 10)"><text x="0" y="14.096" font-family="'Virgil 3 YOFF'" font-size="16px" fill="#1971c2" text-anchor="start" style="white-space: pre;" direction="ltr" dominant-baseline="alphabetic">2</text></g><g stroke-linecap="round"><g transform="translate(322.7086807585447 531.7421821969423) rotate(0 150.74970608018202 0)"><path d="M0 0 C50.25 0, 251.25 0, 301.5 0 M0 0 C50.25 0, 251.25 0, 301.5 0" stroke="#2f9e44" stroke-width="4" fill="none"></path></g></g><mask></mask><g transform="translate(423.76993623128783 498.41541690946167) rotate(0 9.5 17.5)"><text x="0" y="24.668" font-family="'Virgil 3 YOFF'" font-size="28px" fill="#2f9e44" text-anchor="start" style="white-space: pre;" direction="ltr" dominant-baseline="alphabetic">R</text></g><g stroke-linecap="round"><g transform="translate(10 510.80618043957946) rotate(0 9.354083230553897 1.03934258117269)"><path d="M0 0 C3.12 0.35, 15.59 1.73, 18.71 2.08 M0 0 C3.12 0.35, 15.59 1.73, 18.71 2.08" stroke="#e03131" stroke-width="2" fill="none"></path></g></g><mask></mask><g transform="translate(29.57428527875254 505.41275462785296) rotate(0 8.324999809265137 12.5)"><text x="0" y="17.619999999999997" font-family="'Virgil 3 YOFF'" font-size="20px" fill="#e03131" text-anchor="start" style="white-space: pre;" direction="ltr" dominant-baseline="alphabetic">dl</text></g><g stroke-linecap="round"><g transform="translate(612.2887666296679 541.8088342276368) rotate(0 11.086320865841799 2.4251326894028864)"><path d="M0 0 C3.7 0.81, 18.48 4.04, 22.17 4.85 M0 0 C3.7 0.81, 18.48 4.04, 22.17 4.85" stroke="#e03131" stroke-width="2" fill="none"></path></g></g><mask></mask><g transform="translate(635.6739747060537 535.3760658347376) rotate(0 8.324999809265137 12.5)"><text x="0" y="17.619999999999997" font-family="'Virgil 3 YOFF'" font-size="20px" fill="#e03131" text-anchor="start" style="white-space: pre;" direction="ltr" dominant-baseline="alphabetic">dl</text></g><g stroke-linecap="round"><g transform="translate(614.0312634248403 537.8290875500686) rotate(0 11.086320865841799 2.4251326894028864)"><path d="M0 0 C3.7 0.81, 18.48 4.04, 22.17 4.85 M0 0 C3.7 0.81, 18.48 4.04, 22.17 4.85" stroke="#e03131" stroke-width="2" fill="none"></path></g></g><mask></mask><g stroke-linecap="round"><g transform="translate(10.519671290586757 514.9635507642702) rotate(0 9.354083230553897 1.03934258117269)"><path d="M0 0 C3.12 0.35, 15.59 1.73, 18.71 2.08 M0 0 C3.12 0.35, 15.59 1.73, 18.71 2.08" stroke="#e03131" stroke-width="2" fill="none"></path></g></g><mask></mask><g transform="translate(294.9572244531032 525.2943961916737) rotate(0 7.5 12.5)"><text x="0" y="17.619999999999997" font-family="'Virgil 3 YOFF'" font-size="20px" fill="#1e1e1e" text-anchor="start" style="white-space: pre;" direction="ltr" dominant-baseline="alphabetic">O</text></g></svg>