<svg version="1.1" xmlns="http://www.w3.org/2000/svg" viewBox="0 0 306.1153064978148 350.78723740744954" width="612.2306129956296" height="701.5744748148991">
  <!-- svg-source:excalidraw -->
  
    
  <g stroke-linecap="round"><g transform="translate(104.06424336099053 340.78723740744954) rotate(0 0 -165.39361870372477)"><path d="M0 0 C2.87 -123.15, 2.89 -243.59, 0 -330.79" stroke="#1e1e1e" stroke-width="1.5" fill="none" stroke-dasharray="8 9"></path></g><g transform="translate(104.06424336099053 340.78723740744954) rotate(0 0 -165.39361870372477)"><path d="M-1.79 -328.93 L8.03 -318.51 L-7.06 -315.22 L0.09 -329.54" stroke="none" stroke-width="0" fill="#1e1e1e" fill-rule="evenodd"></path><path d="M0 -330.79 C3.39 -326.6, 5.85 -319.39, 6.62 -317.33 M6.62 -317.33 C2.14 -316.68, -0.67 -316.53, -6.05 -317.06 M-6.05 -317.06 C-3.46 -320.01, -1.9 -326.33, 0 -330.79 M0 -330.79 C0 -330.79, 0 -330.79, 0 -330.79" stroke="#1e1e1e" stroke-width="1.5" fill="none"></path></g></g><mask></mask><g stroke-linecap="round"><g transform="translate(11.181238682921958 106.34176012392481) rotate(0 0 109.13269434477024)"><path d="M0.18 0.4 C-0.05 36.91, -1.04 183.28, -0.99 219.46 M-1.18 -0.43 C-1.08 35.74, 1.02 181.5, 1.2 217.97" stroke="#1e1e1e" stroke-width="2" fill="none"></path></g></g><mask></mask><g stroke-linecap="round" transform="translate(10.53582297389039 82.46137888977364) rotate(0 97.13506420918179 24.848504797697842)"><path d="M78.86 -0.49 C91.74 -1.38, 109.18 -0.53, 122.99 0.46 C136.8 1.44, 151.27 3.12, 161.71 5.43 C172.15 7.74, 180.26 10.88, 185.6 14.31 C190.94 17.75, 194.1 22.47, 193.73 26.03 C193.35 29.6, 189.98 32.58, 183.36 35.72 C176.73 38.86, 165.61 42.73, 153.98 44.88 C142.35 47.03, 127.37 47.81, 113.57 48.63 C99.77 49.45, 84.43 50.58, 71.2 49.78 C57.97 48.97, 44.7 46.33, 34.18 43.79 C23.67 41.25, 13.8 38.02, 8.12 34.54 C2.44 31.06, -0.45 26.64, 0.11 22.91 C0.67 19.19, 4.79 15.27, 11.46 12.19 C18.14 9.11, 26.54 6.55, 40.15 4.44 C53.76 2.32, 81.77 0.04, 93.13 -0.52 C104.48 -1.09, 108.19 0.6, 108.27 1.03 M75.82 1.19 C88.57 0.36, 104.93 0.78, 118.76 1.25 C132.59 1.73, 148.08 1.92, 158.82 4.04 C169.57 6.17, 177.23 10.72, 183.23 14.01 C189.24 17.31, 194.66 20.28, 194.86 23.81 C195.07 27.33, 190.66 31.56, 184.46 35.16 C178.27 38.77, 168.78 43.37, 157.7 45.44 C146.62 47.51, 131.43 46.89, 117.99 47.58 C104.55 48.27, 90.62 50.14, 77.08 49.57 C63.53 49.01, 47.79 46.27, 36.71 44.18 C25.63 42.09, 16.71 40.23, 10.62 37.04 C4.52 33.85, 0.09 28.7, 0.12 25.05 C0.15 21.39, 4.94 18.41, 10.78 15.11 C16.63 11.82, 24.65 7.74, 35.17 5.29 C45.69 2.85, 66.92 1.33, 73.91 0.45 C80.89 -0.42, 76.68 -0.39, 77.1 0.04" stroke="#1e1e1e" stroke-width="2" fill="none"></path></g><g stroke-linecap="round"><g transform="translate(202.85894508532647 106.28142828565979) rotate(0 0 109.63529309930732)"><path d="M0.82 1.16 C1.09 37.66, 0.48 182.01, 0.51 218.48 M-0.21 0.72 C0.05 37.4, -0.33 183.39, -0.17 219.61" stroke="#1e1e1e" stroke-width="2" fill="none"></path></g></g><mask></mask><g stroke-linecap="round"><g transform="translate(129.93832401524833 233.12431149233453) rotate(0 12.647372082134098 -0.9236844779086368)"><path d="M0 0 C10.86 -0.96, 20.77 -2.29, 25.29 -1.85 M0 0 C6.17 -0.74, 12.92 -1.2, 25.29 -1.85" stroke="#e03131" stroke-width="2" fill="none"></path></g><g transform="translate(129.93832401524833 233.12431149233453) rotate(0 12.647372082134098 -0.9236844779086368)"><path d="M25.64 -1.94 L13.6 3.16 L13.28 -6.65 L25.02 -1.72" stroke="none" stroke-width="0" fill="#e03131" fill-rule="evenodd"></path><path d="M25.29 -1.85 C21.31 0.28, 16.76 2.29, 14.12 4.14 M25.29 -1.85 C22.22 -0.41, 19.48 1.14, 14.12 4.14 M14.12 4.14 C14.12 -0.39, 13.17 -4.5, 13.52 -6.56 M14.12 4.14 C13.9 1.72, 13.9 0.01, 13.52 -6.56 M13.52 -6.56 C18.21 -4.37, 22.8 -3.49, 25.29 -1.85 M13.52 -6.56 C17.82 -4.57, 22.17 -3.4, 25.29 -1.85 M25.29 -1.85 C25.29 -1.85, 25.29 -1.85, 25.29 -1.85 M25.29 -1.85 C25.29 -1.85, 25.29 -1.85, 25.29 -1.85" stroke="#e03131" stroke-width="2" fill="none"></path></g></g><mask></mask><g stroke-linecap="round"><g transform="translate(43.82250961330192 225.73483566906543) rotate(0 9.307897431233641 2.984211390166365)"><path d="M0 0 C6.89 2.01, 12.75 5.03, 18.62 5.97 M0 0 C5.09 1.33, 10.19 3.24, 18.62 5.97" stroke="#e03131" stroke-width="2" fill="none"></path></g><g transform="translate(43.82250961330192 225.73483566906543) rotate(0 9.307897431233641 2.984211390166365)"><path d="M19.3 5.65 L8.86 6.36 L12.06 -0.87 L18.22 6.34" stroke="none" stroke-width="0" fill="#e03131" fill-rule="evenodd"></path><path d="M18.62 5.97 C15.21 6.31, 11.27 7.15, 8.91 7.11 M18.62 5.97 C16.08 6.21, 13.54 6.68, 8.91 7.11 M8.91 7.11 C9.84 4.95, 10.24 2.76, 11.5 -0.74 M8.91 7.11 C9.77 4.13, 10.69 1.2, 11.5 -0.74 M11.5 -0.74 C13.19 0.18, 14.11 1.86, 18.62 5.97 M11.5 -0.74 C12.86 0.48, 14.32 1.91, 18.62 5.97 M18.62 5.97 C18.62 5.97, 18.62 5.97, 18.62 5.97 M18.62 5.97 C18.62 5.97, 18.62 5.97, 18.62 5.97" stroke="#e03131" stroke-width="2" fill="none"></path></g></g><mask></mask><g transform="translate(60.59093551995193 200.9243028949636) rotate(0 6.5 12.5)"><text x="0" y="17.619999999999997" font-family="Virgil 3 YOFF" font-size="20px" fill="#e03131" text-anchor="start" style="white-space: pre;" direction="ltr" dominant-baseline="alphabetic">K</text></g><g transform="translate(71.74809654772116 214.2219762950126) rotate(0 2.680192565866264 6.590637560086407)"><text x="0" y="9.290162704697837" font-family="Virgil 3 YOFF" font-size="10.545020096138295px" fill="#e03131" text-anchor="start" style="white-space: pre;" direction="ltr" dominant-baseline="alphabetic">b</text></g><g stroke-linecap="round"><g transform="translate(106.52727601350534 250.54938030212998) rotate(0 0 -94.48656708097428)"><path d="M0 0 C0.54 -58.58, 2.93 -113.53, 0 -188.97 M0 0 C-0.39 -44.3, -1.25 -90.31, 0 -188.97" stroke="#1971c2" stroke-width="2" fill="none"></path></g><g transform="translate(106.52727601350534 250.54938030212998) rotate(0 0 -94.48656708097428)"><path d="M0.45 -190.85 L7.51 -175.71 L-6.87 -176.14 L-0.37 -189.02" stroke="none" stroke-width="0" fill="#1971c2" fill-rule="evenodd"></path><path d="M0 -188.97 C0.93 -186.23, 4.6 -180.78, 6.23 -175.33 M0 -188.97 C1.43 -185.1, 2.28 -182.49, 6.23 -175.33 M6.23 -175.33 C2.18 -174.15, -3.32 -176.18, -6.45 -175.43 M6.23 -175.33 C1.45 -175.02, -2.91 -175.89, -6.45 -175.43 M-6.45 -175.43 C-4.04 -179.88, -3.29 -184.53, 0 -188.97 M-6.45 -175.43 C-4.13 -179.31, -3.48 -182.97, 0 -188.97 M0 -188.97 C0 -188.97, 0 -188.97, 0 -188.97 M0 -188.97 C0 -188.97, 0 -188.97, 0 -188.97" stroke="#1971c2" stroke-width="2" fill="none"></path></g></g><mask></mask><g transform="translate(117.44836555700795 150.39361919629755) rotate(0 8 12.5)"><text x="0" y="17.619999999999997" font-family="Virgil 3 YOFF" font-size="20px" fill="#1971c2" text-anchor="start" style="white-space: pre;" direction="ltr" dominant-baseline="alphabetic">B</text></g><g stroke-linecap="round"><g transform="translate(11.826654391952616 208.3611490572398) rotate(0 95.52152493660424 12.262898471591143)"><path d="M0.2 0.38 C7.26 3.73, 25.88 16.18, 42.16 20.2 C58.44 24.22, 80.14 24.42, 97.87 24.48 C115.6 24.54, 133.03 23.91, 148.54 20.56 C164.04 17.2, 183.73 7.36, 190.89 4.35 M-1.15 -0.47 C5.84 2.98, 25.26 16.75, 41.67 21.13 C58.08 25.5, 79.55 25.67, 97.32 25.78 C115.1 25.88, 132.99 25.8, 148.32 21.78 C163.66 17.76, 182.47 4.52, 189.34 1.66" stroke="#e03131" stroke-width="2" fill="none"></path></g></g><mask></mask><g stroke-linecap="round"><g transform="translate(183.78504059478973 159.84677416625618) rotate(0 42.28273876873618 0)"><path d="M-0.34 0.94 C13.43 0.9, 69.42 0.86, 83.75 0.81 M1.69 0.38 C15.73 0.53, 72.08 -0.59, 86.04 -0.88" stroke="#2f9e44" stroke-width="2" fill="none"></path></g></g><mask></mask><g stroke-linecap="round"><g transform="translate(268.3505181322621 158.90190849544615) rotate(0 0 44.64490294576035)"><path d="M0.48 1.02 C0.55 15.87, -0.3 74.87, -0.38 89.45 M-0.73 0.5 C-0.78 15.55, -1.53 76.26, -1.53 91.07" stroke="#2f9e44" stroke-width="2" fill="none"></path></g></g><mask></mask><g stroke-linecap="round"><g transform="translate(182.36774208857514 160.79163983706576) rotate(0 0 43.463820857248265)"><path d="M0.91 -1.16 C1.09 13.27, 0.98 72.02, 0.9 86.78 M-0.07 0.85 C0.05 15.45, 0.44 74.16, 0.42 88.25" stroke="#2f9e44" stroke-width="2" fill="none"></path></g></g><mask></mask><g stroke-linecap="round"><g transform="translate(182.84017492398016 247.7192815515623) rotate(0 42.75517160414097 0)"><path d="M-1.07 -0.44 C13.26 -0.16, 70.94 0.51, 85.17 0.46 M0.57 -1.72 C14.79 -1.7, 69.71 -1.73, 84.05 -1.41" stroke="#2f9e44" stroke-width="2" fill="none"></path></g></g><mask></mask><g transform="translate(283.23197329163804 187.8761567578331) rotate(0 6.441666603088379 12.5)"><text x="0" y="17.619999999999997" font-family="Virgil 3 YOFF" font-size="20px" fill="#2f9e44" text-anchor="start" style="white-space: pre;" direction="ltr" dominant-baseline="alphabetic">C</text></g><g stroke-linecap="round"><g transform="translate(196.1437087843683 160.31657938211492) rotate(0 19.934760968436194 0.18373051583807865)"><path d="M0 0 C12.55 -0.31, 26.22 -0.25, 39.87 0.37 M0 0 C14.81 -0.05, 30.59 0.23, 39.87 0.37" stroke="#2f9e44" stroke-width="2" fill="none"></path></g><g transform="translate(196.1437087843683 160.31657938211492) rotate(0 19.934760968436194 0.18373051583807865)"><path d="M38.94 0.68 L26.21 5.74 L25.78 -5.71 L40.57 0.8" stroke="none" stroke-width="0" fill="#2f9e44" fill-rule="evenodd"></path><path d="M39.87 0.37 C35.41 2.21, 31.8 4.11, 26.18 6.5 M39.87 0.37 C34.54 2.39, 29.9 4.81, 26.18 6.5 M26.18 6.5 C26.63 3.57, 26.8 1.53, 26.37 -6.18 M26.18 6.5 C26.12 1.78, 26.37 -2.63, 26.37 -6.18 M26.37 -6.18 C30.5 -4.08, 33.03 -2.61, 39.87 0.37 M26.37 -6.18 C30.07 -4.15, 33.98 -2.74, 39.87 0.37 M39.87 0.37 C39.87 0.37, 39.87 0.37, 39.87 0.37 M39.87 0.37 C39.87 0.37, 39.87 0.37, 39.87 0.37" stroke="#2f9e44" stroke-width="2" fill="none"></path></g></g><mask></mask><g stroke-linecap="round"><g transform="translate(266.8799573820447 180.89439715598473) rotate(0 0.36746103167638466 16.995072715026254)"><path d="M0 0 C-0.41 6.84, -0.3 14.22, 0.73 33.99 M0 0 C0.08 11.43, 0.78 22.33, 0.73 33.99" stroke="#2f9e44" stroke-width="2" fill="none"></path></g><g transform="translate(266.8799573820447 180.89439715598473) rotate(0 0.36746103167638466 16.995072715026254)"><path d="M1.67 33.93 L-6.08 20.56 L6.77 20.26 L0.48 33.24" stroke="none" stroke-width="0" fill="#2f9e44" fill-rule="evenodd"></path><path d="M0.73 33.99 C-0.93 31.02, -2.31 28.46, -5.77 20.47 M0.73 33.99 C-1.41 29.64, -3.23 24.9, -5.77 20.47 M-5.77 20.47 C-2.97 20.6, 0.32 20.23, 6.91 20.32 M-5.77 20.47 C-1.75 20.43, 2.48 20.7, 6.91 20.32 M6.91 20.32 C5.38 24.18, 2.73 28.19, 0.73 33.99 M6.91 20.32 C5.14 24.5, 2.76 28.88, 0.73 33.99 M0.73 33.99 C0.73 33.99, 0.73 33.99, 0.73 33.99 M0.73 33.99 C0.73 33.99, 0.73 33.99, 0.73 33.99" stroke="#2f9e44" stroke-width="2" fill="none"></path></g></g><mask></mask><g stroke-linecap="round"><g transform="translate(245.7509480606609 247.40484388938467) rotate(0 -15.157767556645013 -0.27559577375723165)"><path d="M0 0 C-10.57 -0.19, -23.3 0.23, -30.32 -0.55 M0 0 C-9.3 -0.13, -18.36 -0.37, -30.32 -0.55" stroke="#2f9e44" stroke-width="2" fill="none"></path></g><g transform="translate(245.7509480606609 247.40484388938467) rotate(0 -15.157767556645013 -0.27559577375723165)"><path d="M-30.15 -1.26 L-15.99 -6.5 L-16.19 5.22 L-30.71 -1.09" stroke="none" stroke-width="0" fill="#2f9e44" fill-rule="evenodd"></path><path d="M-30.32 -0.55 C-24.64 -2.65, -20.57 -4.46, -16.61 -6.65 M-30.32 -0.55 C-26.33 -2.35, -22.13 -4.25, -16.61 -6.65 M-16.61 -6.65 C-16.19 -2.81, -16.55 0.92, -16.83 6.02 M-16.61 -6.65 C-16.8 -4.05, -16.91 -1.5, -16.83 6.02 M-16.83 6.02 C-21.55 3.64, -26.82 0.91, -30.32 -0.55 M-16.83 6.02 C-19.64 4.81, -22.51 2.94, -30.32 -0.55 M-30.32 -0.55 C-30.32 -0.55, -30.32 -0.55, -30.32 -0.55 M-30.32 -0.55 C-30.32 -0.55, -30.32 -0.55, -30.32 -0.55" stroke="#2f9e44" stroke-width="2" fill="none"></path></g></g><mask></mask><g stroke-linecap="round"><g transform="translate(183.83376422321408 227.92940921054378) rotate(0 -0.27559577375723165 -15.800824362078401)"><path d="M0 0 C0.12 -11.52, -0.52 -23.54, -0.55 -31.6 M0 0 C-0.07 -6.52, -0.2 -13.87, -0.55 -31.6" stroke="#2f9e44" stroke-width="2" fill="none"></path></g><g transform="translate(183.83376422321408 227.92940921054378) rotate(0 -0.27559577375723165 -15.800824362078401)"><path d="M0.03 -32.42 L5.97 -17.47 L-6.17 -18.03 L-0.31 -32.24" stroke="none" stroke-width="0" fill="#2f9e44" fill-rule="evenodd"></path><path d="M-0.55 -31.6 C2.09 -26.59, 4.18 -21.98, 6.05 -18.13 M-0.55 -31.6 C0.95 -28.61, 2.34 -26.21, 6.05 -18.13 M6.05 -18.13 C2.42 -18.49, -0.87 -17.69, -6.62 -17.89 M6.05 -18.13 C1.54 -18.31, -2.97 -17.82, -6.62 -17.89 M-6.62 -17.89 C-4.53 -21.77, -3.33 -26.89, -0.55 -31.6 M-6.62 -17.89 C-4.83 -21, -4.03 -24.28, -0.55 -31.6 M-0.55 -31.6 C-0.55 -31.6, -0.55 -31.6, -0.55 -31.6 M-0.55 -31.6 C-0.55 -31.6, -0.55 -31.6, -0.55 -31.6" stroke="#2f9e44" stroke-width="2" fill="none"></path></g></g><mask></mask><g stroke-linecap="round"><g transform="translate(161.85545147122093 160.96432808680493) rotate(0 0 42.94466198593841)"><path d="M0 0 C1.89 31.34, 1.21 63.27, 0 85.89" stroke="#1e1e1e" stroke-width="2.5" fill="none" stroke-dasharray="8 10"></path></g><g transform="translate(161.85545147122093 160.96432808680493) rotate(0 0 42.94466198593841)"><path d="M1.66 1.94 L5.65 13.84 L-5.48 13.93 L-0.61 -1.38" stroke="none" stroke-width="0" fill="#1e1e1e" fill-rule="evenodd"></path><path d="M0 0 C3.81 4.76, 5.7 9.96, 6.53 13.5 M6.53 13.5 C1.43 13.53, -0.74 14.27, -6.15 13.68 M-6.15 13.68 C-4.7 9.14, -2.72 6.38, 0 0 M0 0 C0 0, 0 0, 0 0" stroke="#1e1e1e" stroke-width="2.5" fill="none"></path></g><g transform="translate(161.85545147122093 160.96432808680493) rotate(0 0 42.94466198593841)"><path d="M1.66 87.83 L-6.68 72.39 L7.54 72.81 L-0.61 84.51" stroke="none" stroke-width="0" fill="#1e1e1e" fill-rule="evenodd"></path><path d="M0 85.89 C-0.74 80.58, -3.39 75.71, -5.8 72.06 M-5.8 72.06 C-2.78 72.04, 3.15 72.88, 6.87 72.55 M6.87 72.55 C4.67 75.64, 2.93 80.6, 0 85.89 M0 85.89 C0 85.89, 0 85.89, 0 85.89" stroke="#1e1e1e" stroke-width="2.5" fill="none"></path></g></g><mask></mask><g transform="translate(145.6966028454067 191.12590945943793) rotate(0 5 10)"><text x="0" y="14.096" font-family="Virgil 3 YOFF" font-size="16px" fill="#1e1e1e" text-anchor="start" style="white-space: pre;" direction="ltr" dominant-baseline="alphabetic">L</text></g><g transform="translate(89.3520779967048 29.210502021773664) rotate(0 5 10)"><text x="0" y="14.096" font-family="Virgil 3 YOFF" font-size="16px" fill="#1e1e1e" text-anchor="start" style="white-space: pre;" direction="ltr" dominant-baseline="alphabetic">z</text></g></svg>
