<svg version="1.1" xmlns="http://www.w3.org/2000/svg" viewBox="0 0 400.246102984137 267.1698052543079" width="800.492205968274" height="534.3396105086158">
  <!-- svg-source:excalidraw -->
  
    
  <g stroke-linecap="round" transform="translate(57.00888188637691 10) rotate(0 80.38042447294538 123.58490262715395)"><path d="M7.86 8.16 C7.86 8.16, 7.86 8.16, 7.86 8.16 M7.86 8.16 C7.86 8.16, 7.86 8.16, 7.86 8.16 M1.43 27.75 C11.48 16.98, 19.8 8.35, 24.4 1.33 M1.43 27.75 C7.94 20.14, 14.95 13.25, 24.4 1.33 M0.91 40.54 C7.23 32.78, 17.66 20.16, 36.34 -0.21 M0.91 40.54 C9.2 30.99, 15.89 22.15, 36.34 -0.21 M1.04 52.58 C19.11 33.61, 32.36 17.57, 46.31 0.51 M1.04 52.58 C18.73 33.57, 36.23 12.27, 46.31 0.51 M1.18 64.62 C11.65 50.47, 21.63 37.64, 56.94 0.47 M1.18 64.62 C24.12 38.81, 45.01 12.49, 56.94 0.47 M1.31 76.67 C16.52 58.59, 34.05 40.65, 67.57 0.44 M1.31 76.67 C15.52 60.37, 29.99 43.18, 67.57 0.44 M0.79 89.46 C19.18 68.43, 35.95 44.47, 78.2 0.41 M0.79 89.46 C26.41 59.08, 50.71 31.15, 78.2 0.41 M0.92 101.5 C36.86 62.93, 69.91 23.32, 88.83 0.37 M0.92 101.5 C25.49 73.96, 47.44 46.62, 88.83 0.37 M1.05 113.54 C30.08 78.15, 62.85 40.12, 99.46 0.34 M1.05 113.54 C30.7 76.95, 62.26 41.63, 99.46 0.34 M1.19 125.58 C25.62 98.25, 49.06 70.61, 110.09 0.3 M1.19 125.58 C26.86 97.98, 50.94 69.88, 110.09 0.3 M0.66 138.38 C51.01 85.56, 94.68 31.66, 120.72 0.27 M0.66 138.38 C33.73 102.9, 63.58 67.27, 120.72 0.27 M0.8 150.42 C28.7 119.73, 55.97 87.25, 131.35 0.23 M0.8 150.42 C45.69 96.66, 93.14 43.01, 131.35 0.23 M0.93 162.46 C36.75 120.48, 75.27 78.21, 140.67 1.71 M0.93 162.46 C51.55 103.65, 101.79 44.81, 140.67 1.71 M1.06 174.5 C47.3 119.6, 95.06 63.95, 148.68 4.69 M1.06 174.5 C59.62 106.62, 118.59 39.29, 148.68 4.69 M0.54 187.3 C45.29 135.98, 88.85 86.49, 154.06 10.7 M0.54 187.3 C42.35 140.72, 81.87 93.47, 154.06 10.7 M0.67 199.34 C58.57 135.69, 114.01 70.55, 158.78 17.45 M0.67 199.34 C38.82 156.39, 76.38 112.96, 158.78 17.45 M0.81 211.38 C50.75 153.65, 103.18 93.6, 160.89 27.23 M0.81 211.38 C46.74 160.66, 90.97 107.11, 160.89 27.23 M0.94 223.42 C35.5 183.96, 67.46 146.25, 161.67 38.52 M0.94 223.42 C36.56 181.15, 72.8 138.74, 161.67 38.52 M3.7 232.44 C58.25 166.52, 112.92 105, 161.81 50.56 M3.7 232.44 C64.84 164.39, 122.93 96.36, 161.81 50.56 M8.42 239.2 C40.64 201.71, 70.38 166.79, 161.29 63.35 M8.42 239.2 C53.44 189.42, 94.74 141.52, 161.29 63.35 M15.12 243.69 C48.46 201.19, 86.07 161.86, 161.42 75.39 M15.12 243.69 C70.71 178.31, 128 112.54, 161.42 75.39 M23.12 246.68 C76.35 190.12, 126.83 133.21, 161.55 87.43 M23.12 246.68 C74.47 189.1, 125.74 128.8, 161.55 87.43 M32.44 248.15 C58.82 215.73, 86.71 185.05, 161.68 99.47 M32.44 248.15 C83.55 190.29, 134.71 131.4, 161.68 99.47 M43.07 248.12 C85.51 201.63, 123.65 152.73, 161.16 112.27 M43.07 248.12 C71.95 215.19, 98.43 182.72, 161.16 112.27 M53.7 248.08 C95.03 203.66, 133.2 155.37, 161.29 124.31 M53.7 248.08 C93.55 201.59, 132.71 157.6, 161.29 124.31 M64.33 248.05 C95.71 211.97, 124.78 178.21, 161.43 136.35 M64.33 248.05 C88.85 218.29, 115.1 187.8, 161.43 136.35 M74.96 248.01 C107.12 211.54, 137.42 178.37, 161.56 148.39 M74.96 248.01 C100.22 219.24, 125.89 190.24, 161.56 148.39 M85.59 247.98 C102.63 228.23, 119.31 209.78, 161.69 160.43 M85.59 247.98 C104.12 228.78, 120.84 209.31, 161.69 160.43 M96.22 247.95 C115.75 225.85, 132.29 203.78, 161.17 173.23 M96.22 247.95 C114.17 225.96, 132.38 206.07, 161.17 173.23 M106.85 247.91 C128.3 224.45, 146.7 199.54, 161.3 185.27 M106.85 247.91 C124.63 227.91, 141.52 207.89, 161.3 185.27 M117.48 247.88 C129.2 234.91, 140.58 222.65, 161.44 197.31 M117.48 247.88 C127 236.26, 138.86 224.48, 161.44 197.31 M128.11 247.84 C136.27 236.37, 146.66 226.01, 161.57 209.35 M128.11 247.84 C139.24 234.93, 149.93 222.18, 161.57 209.35 M140.05 246.3 C142.82 239.78, 149.75 234.77, 160.39 222.9 M140.05 246.3 C148.06 238.14, 156.34 227.78, 160.39 222.9 M12.77 242.91 C12.77 242.91, 12.77 242.91, 12.77 242.91 M12.77 242.91 C12.77 242.91, 12.77 242.91, 12.77 242.91 M29.34 246.71 C22.2 237.84, 11.57 233.06, 1.42 222.44 M29.34 246.71 C19.81 238.34, 10.69 231.65, 1.42 222.44 M41.38 246.58 C32.04 236.14, 21.61 227.83, 0.63 211.15 M41.38 246.58 C30.89 237.8, 19.31 227.91, 0.63 211.15 M53.42 246.44 C37.21 233.9, 23.77 219.06, 0.59 200.52 M53.42 246.44 C36.45 231.65, 19.97 217.86, 0.59 200.52 M66.22 246.97 C51.14 230.95, 32.55 216.59, 0.56 189.89 M66.22 246.97 C52.88 235.66, 39.27 222.12, 0.56 189.89 M78.26 246.83 C60.88 233.34, 44.64 218.86, 0.52 179.26 M78.26 246.83 C47.48 220.46, 17.68 193.13, 0.52 179.26 M90.3 246.7 C67.69 226.55, 45.49 206.5, 0.49 168.63 M90.3 246.7 C59.7 219.93, 31.09 194.62, 0.49 168.63 M102.34 246.57 C73.75 221.67, 47.78 199.02, 0.46 158 M102.34 246.57 C73.25 221.85, 43.55 196.1, 0.46 158 M114.38 246.43 C69.53 206.84, 22.88 169.25, 0.42 147.37 M114.38 246.43 C78.42 214.56, 43.28 184.53, 0.42 147.37 M127.18 246.96 C78.71 207.33, 32.38 163.62, 0.39 136.74 M127.18 246.96 C85.7 210.97, 43.66 175.55, 0.39 136.74 M137.71 245.51 C97.85 212.32, 56.98 175.14, 0.35 126.11 M137.71 245.51 C93.85 207.91, 50.94 169.1, 0.35 126.11 M146.73 242.75 C96.16 201.27, 45.64 157.21, 0.32 115.48 M146.73 242.75 C106.11 208.13, 64.44 172.49, 0.32 115.48 M153.49 238.03 C117.27 209.27, 84.7 177.47, 0.28 104.85 M153.49 238.03 C95.46 186.76, 37.76 136.53, 0.28 104.85 M157.98 231.33 C108.22 189.41, 59.03 147.94, 0.25 94.22 M157.98 231.33 C110.56 191.65, 64.67 152.12, 0.25 94.22 M160.21 222.67 C113.58 183.99, 68.15 144.78, 0.97 84.24 M160.21 222.67 C100.18 171.43, 41.49 120.41, 0.97 84.24 M161.69 213.35 C109.52 169.22, 60.75 123.24, 0.93 73.61 M161.69 213.35 C100.61 160.45, 40.51 109.14, 0.93 73.61 M161.65 202.72 C116.93 159.95, 69.5 120.88, 0.9 62.98 M161.65 202.72 C117.69 167.2, 76.45 130.71, 0.9 62.98 M161.62 192.09 C112.08 147, 58.65 101.48, 0.86 52.35 M161.62 192.09 C115.01 149.57, 67.84 109.13, 0.86 52.35 M161.58 181.46 C118.17 145.56, 75.89 108.24, 0.83 41.72 M161.58 181.46 C123.98 148.6, 85.03 115.46, 0.83 41.72 M161.55 170.83 C131.45 143.36, 98.91 112.23, 0.8 31.09 M161.55 170.83 C116.15 129.58, 70.6 90.01, 0.8 31.09 M161.51 160.2 C109.1 113.27, 53.42 65.97, 1.52 21.12 M161.51 160.2 C127.59 130.56, 92.91 99.82, 1.52 21.12 M161.48 149.57 C111.69 106.9, 62.28 65.4, 4.5 13.11 M161.48 149.57 C107.54 101.99, 54.42 55.05, 4.5 13.11 M161.45 138.94 C120.74 104.24, 81.44 68.05, 9.75 7.08 M161.45 138.94 C117.5 98.91, 71.34 58.76, 9.75 7.08 M161.41 128.31 C108.26 82.54, 54.11 37.17, 16.51 2.35 M161.41 128.31 C112.41 87.32, 65.45 45.23, 16.51 2.35 M161.38 117.68 C123.27 85.3, 84.12 50.02, 26.28 0.25 M161.38 117.68 C117 80.8, 74.61 41.55, 26.28 0.25 M161.34 107.05 C119.94 72.75, 81.29 36.56, 38.32 0.12 M161.34 107.05 C127.3 75.41, 92.02 45.12, 38.32 0.12 M161.31 96.42 C128.7 71.08, 97.87 41.95, 50.37 -0.02 M161.31 96.42 C122.54 61.62, 85.84 28.45, 50.37 -0.02 M161.27 85.79 C124.96 57.81, 92.5 27.06, 62.41 -0.15 M161.27 85.79 C133.86 60.39, 105.44 37.12, 62.41 -0.15 M161.24 75.16 C144.35 60.71, 123.4 43.17, 75.2 0.37 M161.24 75.16 C133.99 53.41, 105.89 28.79, 75.2 0.37 M161.2 64.53 C144.51 51.87, 130.17 37.48, 87.24 0.24 M161.2 64.53 C132.25 40.15, 103.52 14.78, 87.24 0.24 M161.17 53.9 C143.09 37.77, 124.14 22.68, 99.28 0.11 M161.17 53.9 C149.13 42.5, 134.85 32.9, 99.28 0.11 M161.14 43.27 C146.45 32.15, 134.9 19.37, 112.08 0.63 M161.14 43.27 C146.65 30.11, 130.93 16.08, 112.08 0.63 M161.1 32.64 C152.34 26.25, 146.48 19.44, 124.12 0.5 M161.1 32.64 C149.12 22.71, 137.41 12.54, 124.12 0.5 M159.56 20.7 C151.41 14.27, 144.13 6.34, 136.16 0.36 M159.56 20.7 C150.63 13.88, 143.08 6.92, 136.16 0.36" stroke="#a5d8ff" stroke-width="1" fill="none"></path><path d="M32 0 C55.83 -1.51, 75.32 -2.44, 128.76 0 M32 0 C53.72 0.29, 76.9 0.03, 128.76 0 M128.76 0 C148.16 0.52, 159.98 9.07, 160.76 32 M128.76 0 C149.71 0.4, 160.92 12.52, 160.76 32 M160.76 32 C159.87 90.97, 160.26 150.56, 160.76 215.17 M160.76 32 C160.57 93.55, 159.32 154.54, 160.76 215.17 M160.76 215.17 C162.37 235.13, 150.59 245.73, 128.76 247.17 M160.76 215.17 C159.73 235.83, 148.52 247.93, 128.76 247.17 M128.76 247.17 C97.74 246.2, 66.72 247.24, 32 247.17 M128.76 247.17 C101.72 247.23, 74.64 247.31, 32 247.17 M32 247.17 C10.63 248.08, -1.32 234.61, 0 215.17 M32 247.17 C12.9 248.21, -1.74 235.24, 0 215.17 M0 215.17 C0.29 154.37, 3.21 95.09, 0 32 M0 215.17 C1.19 168.8, 1.92 123.66, 0 32 M0 32 C-0.29 10.84, 9.89 0.37, 32 0 M0 32 C0.25 12.94, 10.66 0.75, 32 0" stroke="#1971c2" stroke-width="2" fill="none"></path></g><g stroke-linecap="round" transform="translate(105.98378554478586 80.33287141382698) rotate(0 102.28409014182262 57.07010137579164)"><path d="M28.54 0 C78.15 0.7, 131.94 -1.76, 176.03 0 M28.54 0 C75 1.26, 123.15 -0.13, 176.03 0 M176.03 0 C194.83 0.48, 205.84 10.73, 204.57 28.54 M176.03 0 C192.86 -2.27, 204.84 11.72, 204.57 28.54 M204.57 28.54 C203.75 45.64, 204.05 59.5, 204.57 85.61 M204.57 28.54 C203.48 49.11, 204.21 70.08, 204.57 85.61 M204.57 85.61 C203.01 105.19, 194.47 115.81, 176.03 114.14 M204.57 85.61 C202.82 106.59, 193.81 114.22, 176.03 114.14 M176.03 114.14 C124.55 114.95, 77.18 114.65, 28.54 114.14 M176.03 114.14 C125.77 113.61, 74.98 113.53, 28.54 114.14 M28.54 114.14 C7.82 113.05, 1.38 106.48, 0 85.61 M28.54 114.14 C10.26 112.36, 2.03 105.13, 0 85.61 M0 85.61 C-0.27 68.78, 1.44 50.1, 0 28.54 M0 85.61 C0.69 73.11, -0.98 62.55, 0 28.54 M0 28.54 C-0.63 8.04, 9.87 1.96, 28.54 0 M0 28.54 C0.8 8.35, 8.85 -0.49, 28.54 0" stroke="#1e1e1e" stroke-width="2" fill="none"></path></g><g transform="translate(10 22.46925537360039) rotate(0 8 12.5)"><text x="0" y="17.619999999999997" font-family="Virgil 3 YOFF" font-size="20px" fill="#1971c2" text-anchor="start" style="white-space: pre;" direction="ltr" dominant-baseline="alphabetic">B</text></g><g stroke-linecap="round"><g transform="translate(114.65485327099486 65.42304839092412) rotate(0 49.03205892849701 0)"><path d="M0 0 C22.51 0.88, 45.82 0.53, 98.06 0" stroke="#1e1e1e" stroke-width="2.5" fill="none" stroke-dasharray="8 10"></path></g><g transform="translate(114.65485327099486 65.42304839092412) rotate(0 49.03205892849701 0)"><path d="M-0.73 -0.4 L14.54 -5.76 L11.55 5.24 L-1.3 -0.8" stroke="none" stroke-width="0" fill="#1e1e1e" fill-rule="evenodd"></path><path d="M0 0 C3.55 -0.19, 7.64 -1.85, 13.64 -6.25 M13.64 -6.25 C14.1 -3.49, 12.42 -0.31, 13.55 6.43 M13.55 6.43 C8.48 3.61, 5.48 4.1, 0 0 M0 0 C0 0, 0 0, 0 0" stroke="#1e1e1e" stroke-width="2.5" fill="none"></path></g><g transform="translate(114.65485327099486 65.42304839092412) rotate(0 49.03205892849701 0)"><path d="M97.33 -0.4 L85.44 6.96 L82.41 -7.4 L96.76 -0.8" stroke="none" stroke-width="0" fill="#1e1e1e" fill-rule="evenodd"></path><path d="M98.06 0 C95.44 2.9, 93.45 4.09, 84.53 6.47 M84.53 6.47 C85.22 2.2, 83.53 -1.66, 84.41 -6.2 M84.41 -6.2 C86.85 -5.28, 91.47 -1.25, 98.06 0 M98.06 0 C98.06 0, 98.06 0, 98.06 0" stroke="#1e1e1e" stroke-width="2.5" fill="none"></path></g></g><mask></mask><g stroke-linecap="round"><g transform="translate(258.13391095520274 91.94858846699572) rotate(0 0 47.82635256140293)"><path d="M0 0 C1.96 30.86, 0.5 62.13, 0 95.65" stroke="#1e1e1e" stroke-width="2.5" fill="none" stroke-dasharray="8 10"></path></g><g transform="translate(258.13391095520274 91.94858846699572) rotate(0 0 47.82635256140293)"><path d="M-1.61 0.92 L5.64 13.43 L-7.02 12.82 L-0.72 -1.74" stroke="none" stroke-width="0" fill="#1e1e1e" fill-rule="evenodd"></path><path d="M0 0 C3.06 4.72, 4.01 9.77, 6.46 13.54 M6.46 13.54 C2.57 12.69, -0.61 12.9, -6.22 13.65 M-6.22 13.65 C-4.97 9.62, -0.14 4.37, 0 0 M0 0 C0 0, 0 0, 0 0" stroke="#1e1e1e" stroke-width="2.5" fill="none"></path></g><g transform="translate(258.13391095520274 91.94858846699572) rotate(0 0 47.82635256140293)"><path d="M-1.61 96.57 L-6.88 81.82 L5.81 81.35 L-0.72 93.91" stroke="none" stroke-width="0" fill="#1e1e1e" fill-rule="evenodd"></path><path d="M0 95.65 C-1.11 91.79, -4.12 88.22, -6.07 81.93 M-6.07 81.93 C-3.11 81.22, 0.55 81.47, 6.61 82.19 M6.61 82.19 C2.65 88.69, 2.47 94.03, 0 95.65 M0 95.65 C0 95.65, 0 95.65, 0 95.65" stroke="#1e1e1e" stroke-width="2.5" fill="none"></path></g></g><mask></mask><g stroke-linecap="round"><g transform="translate(321.9192785840705 142.87831636190413) rotate(0 34.163412200033235 0)"><path d="M0 0 C16.13 -1.3, 31.24 0.91, 68.33 0 M0 0 C16.32 -1.27, 31.22 0.45, 68.33 0" stroke="#2f9e44" stroke-width="2" fill="none"></path></g><g transform="translate(321.9192785840705 142.87831636190413) rotate(0 34.163412200033235 0)"><path d="M67.57 1.36 L54.01 7.03 L56.25 -6.87 L68.67 1.47" stroke="none" stroke-width="0" fill="#2f9e44" fill-rule="evenodd"></path><path d="M68.33 0 C66.32 -0.19, 63.59 2.84, 54.72 6.32 M68.33 0 C65.91 0.85, 62.4 3.58, 54.72 6.32 M54.72 6.32 C53.94 1.8, 54.93 -4.01, 54.74 -6.36 M54.72 6.32 C54.18 2.07, 54.41 -2.84, 54.74 -6.36 M54.74 -6.36 C58.88 -4.64, 66.05 -1.15, 68.33 0 M54.74 -6.36 C59.22 -4.49, 64.84 -2.19, 68.33 0 M68.33 0 C68.33 0, 68.33 0, 68.33 0 M68.33 0 C68.33 0, 68.33 0, 68.33 0" stroke="#2f9e44" stroke-width="2" fill="none"></path></g></g><mask></mask><g transform="translate(151.22794640618486 36.48609558066346) rotate(0 6.5 12.5)"><text x="0" y="17.619999999999997" font-family="Virgil 3 YOFF" font-size="20px" fill="#1e1e1e" text-anchor="start" style="white-space: pre;" direction="ltr" dominant-baseline="alphabetic">x</text></g><g transform="translate(238.84260908169563 124.10075825617423) rotate(0 5 12.5)"><text x="0" y="17.619999999999997" font-family="Virgil 3 YOFF" font-size="20px" fill="#1e1e1e" text-anchor="start" style="white-space: pre;" direction="ltr" dominant-baseline="alphabetic">h</text></g><g transform="translate(345.5144339764647 119.41028986602487) rotate(0 5.5 12.5)"><text x="0" y="17.619999999999997" font-family="Virgil 3 YOFF" font-size="20px" fill="#2f9e44" text-anchor="start" style="white-space: pre;" direction="ltr" dominant-baseline="alphabetic">v</text></g><g stroke-linecap="round" transform="translate(31.108894670771406 27.395174121023047) rotate(0 6.489031734342916 6.489031734342916)"><path d="M7.65 -0.16 C8.92 0.02, 10.48 1.15, 11.3 2.27 C12.12 3.39, 12.56 5.14, 12.58 6.56 C12.59 7.99, 12.32 9.69, 11.38 10.82 C10.44 11.95, 8.28 13.16, 6.91 13.33 C5.55 13.51, 4.25 12.76, 3.18 11.86 C2.1 10.95, 0.94 9.23, 0.48 7.89 C0.02 6.55, -0.11 4.96, 0.42 3.8 C0.94 2.64, 2.32 1.54, 3.64 0.91 C4.96 0.28, 7.45 0.04, 8.35 0.03 C9.25 0.03, 9.01 0.75, 9.05 0.89 M6.09 -0.37 C7.41 -0.73, 8.78 -0.39, 9.84 0.44 C10.9 1.28, 12.07 3.25, 12.44 4.64 C12.81 6.03, 12.56 7.59, 12.05 8.79 C11.55 9.99, 10.66 11.16, 9.39 11.85 C8.12 12.54, 5.86 13.31, 4.43 12.95 C2.99 12.59, 1.51 10.91, 0.77 9.68 C0.04 8.45, -0.1 6.74, 0.01 5.55 C0.11 4.35, 0.41 3.45, 1.39 2.51 C2.37 1.56, 5.24 0.2, 5.89 -0.12 C6.54 -0.43, 5.2 0.47, 5.32 0.63" stroke="#1971c2" stroke-width="2" fill="none"></path></g><g stroke-linecap="round"><g transform="translate(35.50616403943786 31.256039552986294) rotate(0 2.232774821683506 2.2327748216837335)"><path d="M-0.09 0.29 C0.61 1.03, 3.65 3.6, 4.45 4.25 M0.52 0.13 C1.14 0.94, 3.48 3.87, 4.16 4.59" stroke="#1971c2" stroke-width="2" fill="none"></path></g></g><mask></mask><g stroke-linecap="round"><g transform="translate(39.890151132241954 31.419164654113956) rotate(0 -2.1868958869913513 2.1868958869915787)"><path d="M0.25 -0.33 C-0.48 0.34, -3.45 3.52, -4.24 4.29 M-0.05 0.26 C-0.83 0.97, -3.66 3.97, -4.45 4.7" stroke="#1971c2" stroke-width="2" fill="none"></path></g></g><mask></mask><g stroke-linecap="round" transform="translate(282.3803488106605 207.04114292354734) rotate(0 6.489031734342916 6.489031734342916)"><path d="M6.9 -0.26 C8.14 -0.15, 10.35 1.09, 11.3 2.23 C12.24 3.37, 12.46 5.25, 12.54 6.57 C12.63 7.88, 12.59 9.09, 11.8 10.12 C11.02 11.15, 9.29 12.34, 7.85 12.76 C6.4 13.19, 4.29 13.27, 3.12 12.69 C1.95 12.1, 1.29 10.57, 0.83 9.24 C0.37 7.9, 0.08 6.08, 0.37 4.68 C0.65 3.27, 1.4 1.6, 2.54 0.8 C3.67 -0.01, 6.28 -0.03, 7.18 -0.14 C8.07 -0.25, 7.81 -0.01, 7.93 0.14 M6.81 0.47 C7.94 0.23, 9.62 0.21, 10.55 1.02 C11.48 1.84, 12.07 3.86, 12.37 5.36 C12.68 6.87, 12.99 8.75, 12.37 10.07 C11.76 11.38, 10.11 12.74, 8.67 13.25 C7.23 13.76, 5.11 13.68, 3.72 13.12 C2.32 12.56, 0.99 11.27, 0.32 9.87 C-0.35 8.47, -0.59 6.26, -0.3 4.72 C0 3.18, 0.85 1.35, 2.08 0.61 C3.31 -0.13, 6.27 0.26, 7.1 0.28 C7.92 0.3, 7.03 0.61, 7.04 0.73" stroke="#1e1e1e" stroke-width="2" fill="none"></path></g><g stroke-linecap="round"><g transform="translate(286.77761817932696 210.9020083555106) rotate(0 2.232774821683506 2.2327748216837335)"><path d="M0.2 0.34 C0.96 1.02, 3.78 3.44, 4.45 4.12 M-0.13 0.21 C0.6 0.91, 3.32 3.63, 4.17 4.4" stroke="#1e1e1e" stroke-width="2" fill="none"></path></g></g><mask></mask><g stroke-linecap="round"><g transform="translate(291.16160527212924 211.06513345663825) rotate(0 -2.1868958869913513 2.1868958869915787)"><path d="M-0.01 -0.34 C-0.81 0.33, -3.89 3.63, -4.6 4.37 M-0.45 0.25 C-1.15 1.13, -3.25 4.14, -3.93 4.82" stroke="#1e1e1e" stroke-width="2" fill="none"></path></g></g><mask></mask><g transform="translate(302.0490046472023 204.57797715450806) rotate(0 11.774999618530273 12.5)"><text x="0" y="17.619999999999997" font-family="Virgil 3 YOFF" font-size="20px" fill="#1e1e1e" text-anchor="start" style="white-space: pre;" direction="ltr" dominant-baseline="alphabetic">dS</text></g><g transform="translate(262.55258193523787 40.43383317300004) rotate(0 26.96666717529297 12.5)"><text x="0" y="17.619999999999997" font-family="Virgil 3 YOFF" font-size="20px" fill="#2f9e44" text-anchor="start" style="white-space: pre;" direction="ltr" dominant-baseline="alphabetic">v &gt; 0</text></g></svg>
