<svg version="1.1" xmlns="http://www.w3.org/2000/svg" viewBox="0 0 538.9017050663247 370.8557531883457" width="1077.8034101326493" height="741.7115063766914">
  <!-- svg-source:excalidraw -->
  <g stroke-linecap="round" transform="translate(10 11.759438857114219) rotate(0 174.54815716561575 174.54815716561575)"><path d="M253.2 18.84 C268.42 23.55, 282.77 36.71, 294.75 47.93 C306.73 59.16, 316.89 72.05, 325.09 86.17 C333.29 100.3, 339.88 116.75, 343.94 132.69 C348 148.62, 350.16 165.49, 349.45 181.8 C348.73 198.11, 345.1 214.97, 339.64 230.55 C334.18 246.13, 326.27 261.84, 316.7 275.25 C307.12 288.67, 295.1 300.85, 282.19 311.02 C269.27 321.18, 254.33 330.07, 239.2 336.26 C224.07 342.45, 207.44 346.69, 191.41 348.16 C175.39 349.63, 158.97 348.14, 143.05 345.07 C127.14 342, 110.55 336.99, 95.92 329.76 C81.29 322.52, 67.46 312.95, 55.29 301.65 C43.12 290.35, 31.29 276.29, 22.92 261.96 C14.54 247.62, 8.95 231.57, 5.04 215.65 C1.13 199.74, -1.32 182.62, -0.54 166.49 C0.23 150.36, 4.23 134.49, 9.69 118.88 C15.16 103.27, 22.71 86.34, 32.24 72.81 C41.78 59.29, 54.25 47.62, 66.91 37.74 C79.58 27.85, 93.07 19.73, 108.26 13.5 C123.45 7.26, 141.62 1.92, 158.08 0.32 C174.53 -1.29, 188.84 -0.44, 206.99 3.85 C225.13 8.13, 255.45 20.45, 266.93 26.01 C278.4 31.57, 277.4 34.65, 275.83 37.19 M141.82 2.39 C156.7 -3.09, 176.09 0.2, 192.73 1.99 C209.38 3.77, 226.72 7.05, 241.68 13.1 C256.65 19.15, 270.09 28.02, 282.52 38.26 C294.95 48.5, 306.48 60.9, 316.24 74.54 C326 88.18, 335.44 104.63, 341.07 120.1 C346.7 135.57, 349.39 151.43, 350.02 167.38 C350.66 183.33, 349.12 200.03, 344.88 215.8 C340.63 231.57, 333.21 247.87, 324.55 262 C315.89 276.13, 304.84 289.36, 292.92 300.59 C281 311.81, 267.56 321.63, 253 329.36 C238.45 337.1, 221.88 343.7, 205.6 347 C189.32 350.29, 171.4 351.15, 155.33 349.14 C139.26 347.13, 124.32 341.13, 109.18 334.94 C94.04 328.74, 77.44 321.87, 64.49 311.99 C51.54 302.11, 40.68 289.51, 31.47 275.66 C22.26 261.8, 14.57 244.43, 9.23 228.86 C3.89 213.29, -0.1 198.42, -0.58 182.23 C-1.05 166.05, 2.3 147.81, 6.39 131.75 C10.48 115.69, 16.05 100.14, 23.94 85.86 C31.83 71.58, 41.85 57.2, 53.72 46.05 C65.6 34.9, 80.29 26.13, 95.17 18.99 C110.05 11.84, 134.97 5.23, 143.01 3.17 C151.05 1.1, 143.09 3.85, 143.4 6.57" stroke="#1e1e1e" stroke-width="2" fill="none"></path></g><g stroke-linecap="round"><g transform="translate(128.16156274070727 176.8501821589191) rotate(0 49.71128004178922 13.808688900496804)"><path d="M-0.14 -0.37 C3.86 -8.57, 4.54 -42.2, 23.57 -50.13 C42.6 -58.05, 96.56 -63.53, 114.03 -47.92 C131.49 -32.31, 134.55 30.83, 128.37 43.53 C122.2 56.24, 90.83 22.39, 76.99 28.28 C63.15 34.18, 63.14 77.43, 45.32 78.88 C27.5 80.34, -22.31 50.11, -29.93 37.02 C-37.55 23.93, -5.56 6.47, -0.4 0.34 M-1.68 -1.61 C2.2 -10.04, 2.9 -43.62, 22.57 -51.64 C42.23 -59.66, 98.65 -65.25, 116.3 -49.74 C133.96 -34.22, 135.25 28.48, 128.49 41.46 C121.74 54.45, 89.43 22.13, 75.76 28.2 C62.1 34.26, 64.08 76.05, 46.5 77.83 C28.93 79.61, -21.65 51.83, -29.67 38.88 C-37.69 25.94, -6.57 6.82, -1.64 0.18" stroke="#1e1e1e" stroke-width="4" fill="none"></path></g></g><mask></mask><g stroke-linecap="round" transform="translate(420.4165883434748 130.76483607673958) rotate(0 14.992290806254005 14.992290806254005)"><path d="M14.14 -0.47 C17.13 -0.85, 21.51 0.49, 24.01 2.51 C26.51 4.53, 28.39 8.36, 29.13 11.63 C29.86 14.9, 29.83 19.32, 28.4 22.14 C26.97 24.96, 23.54 27.33, 20.55 28.55 C17.56 29.77, 13.43 30.35, 10.46 29.47 C7.49 28.59, 4.47 26.04, 2.72 23.25 C0.97 20.46, -0.29 15.95, -0.03 12.74 C0.23 9.53, 1.83 6.17, 4.3 4.02 C6.76 1.87, 12.9 0.49, 14.76 -0.17 C16.61 -0.82, 15.52 -0.23, 15.42 0.1 M13.89 0.62 C17.12 -0.09, 21.23 0.39, 23.82 2.06 C26.41 3.74, 28.52 7.4, 29.43 10.64 C30.33 13.88, 30.51 18.45, 29.25 21.49 C27.99 24.53, 24.75 27.55, 21.87 28.89 C18.99 30.22, 14.99 30.28, 11.96 29.49 C8.92 28.69, 5.64 26.61, 3.65 24.14 C1.65 21.66, 0.02 17.95, -0.02 14.62 C-0.05 11.3, 1.36 6.49, 3.44 4.18 C5.51 1.86, 10.81 1.5, 12.44 0.75 C14.06 0, 13.15 -0.38, 13.18 -0.31" stroke="#f08c00" stroke-width="2" fill="none"></path></g><g transform="translate(425.7526074010443 130.88992307147942) rotate(0 6.5 12.5)"><text x="0" y="17.619999999999997" font-family="'Virgil 3 YOFF'" font-size="20px" fill="#e03131" text-anchor="start" style="white-space: pre;" direction="ltr" dominant-baseline="alphabetic">+</text></g><g transform="translate(436.79955852144167 130.10085513430818) rotate(0 6.5 12.5)"><text x="0" y="17.619999999999997" font-family="'Virgil 3 YOFF'" font-size="20px" fill="#e03131" text-anchor="start" style="white-space: pre;" direction="ltr" dominant-baseline="alphabetic">+</text></g><g transform="translate(431.276082961243 137.20246656884933) rotate(0 6.5 12.5)"><text x="0" y="17.619999999999997" font-family="'Virgil 3 YOFF'" font-size="20px" fill="#e03131" text-anchor="start" style="white-space: pre;" direction="ltr" dominant-baseline="alphabetic">+</text></g><g transform="translate(452.76837376749654 133.39763226522587) rotate(0 38.06666564941406 17.5)"><text x="0" y="24.668" font-family="'Virgil 3 YOFF'" font-size="28px" fill="#f08c00" text-anchor="start" style="white-space: pre;" direction="ltr" dominant-baseline="alphabetic">q &gt; 0</text></g><g stroke-linecap="round" transform="translate(183.8025072760729 143.8575823887627) rotate(0 4.518179702852194 4.1954525812200245)"><path d="M4.59 -0.19 C5.57 -0.17, 7.21 0.76, 7.95 1.4 C8.69 2.03, 8.94 2.72, 9.03 3.62 C9.13 4.53, 9.09 6.03, 8.53 6.84 C7.97 7.64, 6.67 8.26, 5.68 8.45 C4.7 8.63, 3.48 8.35, 2.6 7.94 C1.72 7.53, 0.77 6.73, 0.4 5.99 C0.03 5.24, 0.07 4.28, 0.36 3.47 C0.65 2.66, 1.38 1.7, 2.14 1.12 C2.91 0.53, 4.5 0.07, 4.95 -0.06 C5.41 -0.18, 4.93 0.26, 4.89 0.38 M4.78 0.5 C5.6 0.47, 6.89 0.5, 7.56 1.11 C8.23 1.71, 8.67 3.15, 8.78 4.13 C8.9 5.11, 8.81 6.36, 8.25 7 C7.69 7.63, 6.41 7.73, 5.41 7.94 C4.41 8.14, 3.09 8.61, 2.25 8.24 C1.41 7.87, 0.68 6.54, 0.37 5.71 C0.06 4.89, 0.09 4.13, 0.38 3.28 C0.67 2.43, 1.23 1.13, 2.09 0.61 C2.95 0.1, 5.01 0.34, 5.55 0.19 C6.08 0.04, 5.4 -0.28, 5.31 -0.3" stroke="#1e1e1e" stroke-width="2" fill="none"></path></g><g stroke-linecap="round"><g transform="translate(187.9979598572927 152.24848755120274) rotate(0 0 7.261360236726773)"><path d="M0.14 0.3 C0.16 2.63, -0.07 11.71, -0.14 14.14 M-0.46 -0.02 C-0.49 2.35, -0.6 12.31, -0.64 14.64" stroke="#1e1e1e" stroke-width="2" fill="none"></path></g></g><mask></mask><g stroke-linecap="round"><g transform="translate(187.67523273566076 154.830304524261) rotate(0 5.486361067749158 4.356816142036109)"><path d="M0.08 0.41 C1.91 1.81, 9.06 7.1, 10.93 8.53 M-0.54 0.15 C1.22 1.61, 8.53 7.81, 10.48 9.13" stroke="#1e1e1e" stroke-width="2" fill="none"></path></g></g><mask></mask><g stroke-linecap="round"><g transform="translate(186.70705137076357 155.1530316458934) rotate(0 -2.7431805338744653 3.0659076555068623)"><path d="M-0.15 -0.05 C-1.08 0.98, -4.97 5.09, -5.83 6.12 M0.41 -0.38 C-0.39 0.71, -4.24 5.42, -5.2 6.56" stroke="#1e1e1e" stroke-width="2" fill="none"></path></g></g><mask></mask><g stroke-linecap="round"><g transform="translate(187.67523273566076 166.4484809030239) rotate(0 3.549998337955458 5.002270385300676)"><path d="M0.51 0.22 C1.53 1.74, 5.48 7.89, 6.66 9.56 M0.11 -0.15 C1.25 1.39, 6.43 8.45, 7.67 10.03" stroke="#1e1e1e" stroke-width="2" fill="none"></path></g></g><mask></mask><g stroke-linecap="round"><g transform="translate(187.9979598572927 166.4484809030239) rotate(0 -4.356816142035996 4.518179702852308)"><path d="M0.11 -0.01 C-1.45 1.47, -7.55 7.39, -9.06 8.91 M-0.26 -0.33 C-1.75 1.21, -6.94 7.65, -8.44 9.29" stroke="#1e1e1e" stroke-width="2" fill="none"></path></g></g><mask></mask><g transform="translate(86.46738135033547 30.602909817630234) rotate(0 6.5 12.5)"><text x="0" y="17.619999999999997" font-family="'Virgil 3 YOFF'" font-size="20px" fill="#e03131" text-anchor="start" style="white-space: pre;" direction="ltr" dominant-baseline="alphabetic">+</text></g><g transform="translate(61.05712590859139 53.26611061702329) rotate(0 6.5 12.5)"><text x="0" y="17.619999999999997" font-family="'Virgil 3 YOFF'" font-size="20px" fill="#e03131" text-anchor="start" style="white-space: pre;" direction="ltr" dominant-baseline="alphabetic">+</text></g><g transform="translate(46.63508903625143 79.36312971935445) rotate(0 6.5 12.5)"><text x="0" y="17.619999999999997" font-family="'Virgil 3 YOFF'" font-size="20px" fill="#e03131" text-anchor="start" style="white-space: pre;" direction="ltr" dominant-baseline="alphabetic">+</text></g><g transform="translate(28.779233860972 106.14691248227314) rotate(0 6.5 12.5)"><text x="0" y="17.619999999999997" font-family="'Virgil 3 YOFF'" font-size="20px" fill="#e03131" text-anchor="start" style="white-space: pre;" direction="ltr" dominant-baseline="alphabetic">+</text></g><g transform="translate(23.971888236857467 144.60567747518212) rotate(0 6.5 12.5)"><text x="0" y="17.619999999999997" font-family="'Virgil 3 YOFF'" font-size="20px" fill="#e03131" text-anchor="start" style="white-space: pre;" direction="ltr" dominant-baseline="alphabetic">+</text></g><g transform="translate(20.538069933919815 173.4497512198643) rotate(0 6.5 12.5)"><text x="0" y="17.619999999999997" font-family="'Virgil 3 YOFF'" font-size="20px" fill="#e03131" text-anchor="start" style="white-space: pre;" direction="ltr" dominant-baseline="alphabetic">+</text></g><g transform="translate(26.718942879208498 213.2820435339488) rotate(0 6.5 12.5)"><text x="0" y="17.619999999999997" font-family="'Virgil 3 YOFF'" font-size="20px" fill="#e03131" text-anchor="start" style="white-space: pre;" direction="ltr" dominant-baseline="alphabetic">+</text></g><g transform="translate(42.51450707272443 269.5966637021372) rotate(0 6.5 12.5)"><text x="0" y="17.619999999999997" font-family="'Virgil 3 YOFF'" font-size="20px" fill="#e03131" text-anchor="start" style="white-space: pre;" direction="ltr" dominant-baseline="alphabetic">+</text></g><g transform="translate(28.779233860972 239.37906263627997) rotate(0 6.5 12.5)"><text x="0" y="17.619999999999997" font-family="'Virgil 3 YOFF'" font-size="20px" fill="#e03131" text-anchor="start" style="white-space: pre;" direction="ltr" dominant-baseline="alphabetic">+</text></g><g transform="translate(74.79239912034564 308.0554286950462) rotate(0 6.5 12.5)"><text x="0" y="17.619999999999997" font-family="'Virgil 3 YOFF'" font-size="20px" fill="#e03131" text-anchor="start" style="white-space: pre;" direction="ltr" dominant-baseline="alphabetic">+</text></g><g transform="translate(55.563016623890235 286.76575521682867) rotate(0 6.5 12.5)"><text x="0" y="17.619999999999997" font-family="'Virgil 3 YOFF'" font-size="20px" fill="#e03131" text-anchor="start" style="white-space: pre;" direction="ltr" dominant-baseline="alphabetic">+</text></g><g transform="translate(103.63647286502737 321.79070190679954) rotate(0 6.5 12.5)"><text x="0" y="17.619999999999997" font-family="'Virgil 3 YOFF'" font-size="20px" fill="#e03131" text-anchor="start" style="white-space: pre;" direction="ltr" dominant-baseline="alphabetic">+</text></g><g transform="translate(110.50410947090359 20.98821856940299) rotate(0 6.5 12.5)"><text x="0" y="17.619999999999997" font-family="'Virgil 3 YOFF'" font-size="20px" fill="#e03131" text-anchor="start" style="white-space: pre;" direction="ltr" dominant-baseline="alphabetic">+</text></g><g transform="translate(135.22760125205923 14.807345624114305) rotate(0 6.5 12.5)"><text x="0" y="17.619999999999997" font-family="'Virgil 3 YOFF'" font-size="20px" fill="#e03131" text-anchor="start" style="white-space: pre;" direction="ltr" dominant-baseline="alphabetic">+</text></g><g transform="translate(204.92210687884062 10) rotate(0 4.108333110809326 12.5)"><text x="0" y="17.619999999999997" font-family="'Virgil 3 YOFF'" font-size="20px" fill="#1971c2" text-anchor="start" style="white-space: pre;" direction="ltr" dominant-baseline="alphabetic">-</text></g><g transform="translate(233.76618062352236 21.674982229990746) rotate(0 4.108333110809326 12.5)"><text x="0" y="17.619999999999997" font-family="'Virgil 3 YOFF'" font-size="20px" fill="#1971c2" text-anchor="start" style="white-space: pre;" direction="ltr" dominant-baseline="alphabetic">-</text></g><g transform="translate(279.779345882896 49.83229231408495) rotate(0 4.108333110809326 12.5)"><text x="0" y="17.619999999999997" font-family="'Virgil 3 YOFF'" font-size="20px" fill="#1971c2" text-anchor="start" style="white-space: pre;" direction="ltr" dominant-baseline="alphabetic">-</text></g><g transform="translate(256.4293814229163 31.976437138805522) rotate(0 4.108333110809326 12.5)"><text x="0" y="17.619999999999997" font-family="'Virgil 3 YOFF'" font-size="20px" fill="#1971c2" text-anchor="start" style="white-space: pre;" direction="ltr" dominant-baseline="alphabetic">-</text></g><g transform="translate(312.0572379305172 82.79694802229278) rotate(0 4.108333110809326 12.5)"><text x="0" y="17.619999999999997" font-family="'Virgil 3 YOFF'" font-size="20px" fill="#1971c2" text-anchor="start" style="white-space: pre;" direction="ltr" dominant-baseline="alphabetic">-</text></g><g transform="translate(325.79251114226963 113.70131274873756) rotate(0 4.108333110809326 12.5)"><text x="0" y="17.619999999999997" font-family="'Virgil 3 YOFF'" font-size="20px" fill="#1971c2" text-anchor="start" style="white-space: pre;" direction="ltr" dominant-baseline="alphabetic">-</text></g><g transform="translate(336.78072971167194 152.84684140223453) rotate(0 4.108333110809326 12.5)"><text x="0" y="17.619999999999997" font-family="'Virgil 3 YOFF'" font-size="20px" fill="#1971c2" text-anchor="start" style="white-space: pre;" direction="ltr" dominant-baseline="alphabetic">-</text></g><g transform="translate(342.96160265696153 171.3894602381015) rotate(0 4.108333110809326 12.5)"><text x="0" y="17.619999999999997" font-family="'Virgil 3 YOFF'" font-size="20px" fill="#1971c2" text-anchor="start" style="white-space: pre;" direction="ltr" dominant-baseline="alphabetic">-</text></g><g transform="translate(337.46749337225947 214.6555708551241) rotate(0 4.108333110809326 12.5)"><text x="0" y="17.619999999999997" font-family="'Virgil 3 YOFF'" font-size="20px" fill="#1971c2" text-anchor="start" style="white-space: pre;" direction="ltr" dominant-baseline="alphabetic">-</text></g><g transform="translate(313.43076525169226 253.11433584803308) rotate(0 4.108333110809326 12.5)"><text x="0" y="17.619999999999997" font-family="'Virgil 3 YOFF'" font-size="20px" fill="#1971c2" text-anchor="start" style="white-space: pre;" direction="ltr" dominant-baseline="alphabetic">-</text></g><g transform="translate(296.9484373975879 284.0187005744783) rotate(0 4.108333110809326 12.5)"><text x="0" y="17.619999999999997" font-family="'Virgil 3 YOFF'" font-size="20px" fill="#1971c2" text-anchor="start" style="white-space: pre;" direction="ltr" dominant-baseline="alphabetic">-</text></g><g transform="translate(274.28523659819575 312.86277431916005) rotate(0 4.108333110809326 12.5)"><text x="0" y="17.619999999999997" font-family="'Virgil 3 YOFF'" font-size="20px" fill="#1971c2" text-anchor="start" style="white-space: pre;" direction="ltr" dominant-baseline="alphabetic">-</text></g><g transform="translate(244.75439919292558 321.10393824621224) rotate(0 4.108333110809326 12.5)"><text x="0" y="17.619999999999997" font-family="'Virgil 3 YOFF'" font-size="20px" fill="#1971c2" text-anchor="start" style="white-space: pre;" direction="ltr" dominant-baseline="alphabetic">-</text></g><g transform="translate(215.2235617876554 332.7789204762021) rotate(0 4.108333110809326 12.5)"><text x="0" y="17.619999999999997" font-family="'Virgil 3 YOFF'" font-size="20px" fill="#1971c2" text-anchor="start" style="white-space: pre;" direction="ltr" dominant-baseline="alphabetic">-</text></g><g transform="translate(159.95109303321487 10.000000000000227) rotate(0 6.5 12.5)"><text x="0" y="17.619999999999997" font-family="'Virgil 3 YOFF'" font-size="20px" fill="#e03131" text-anchor="start" style="white-space: pre;" direction="ltr" dominant-baseline="alphabetic">+</text></g><g transform="translate(130.4202556279456 320.4171745856245) rotate(0 6.5 12.5)"><text x="0" y="17.619999999999997" font-family="'Virgil 3 YOFF'" font-size="20px" fill="#e03131" text-anchor="start" style="white-space: pre;" direction="ltr" dominant-baseline="alphabetic">+</text></g><g transform="translate(150.33640178498763 330.0318658338517) rotate(0 6.5 12.5)"><text x="0" y="17.619999999999997" font-family="'Virgil 3 YOFF'" font-size="20px" fill="#e03131" text-anchor="start" style="white-space: pre;" direction="ltr" dominant-baseline="alphabetic">+</text></g><g transform="translate(171.62607526320562 334.83921145796535) rotate(0 6.5 12.5)"><text x="0" y="17.619999999999997" font-family="'Virgil 3 YOFF'" font-size="20px" fill="#e03131" text-anchor="start" style="white-space: pre;" direction="ltr" dominant-baseline="alphabetic">+</text></g><g stroke-linecap="round"><g transform="translate(203.51653522995002 183.34948123838035) rotate(0 32.745483633860886 52.69945021739045)"><path d="M-0.71 -1.15 C11.01 2.37, 57.22 8.53, 69.94 21.55 C82.67 34.56, 81.83 63.87, 75.66 76.96 C69.49 90.05, 47.2 95.25, 32.92 100.1 C18.64 104.95, -2.78 105.01, -10.01 106.04 M1.12 0.87 C12.69 4.54, 56.63 10.16, 68.88 23.07 C81.12 35.98, 80.48 65.32, 74.59 78.32 C68.69 91.32, 47.8 96.34, 33.52 101.08 C19.24 105.83, -3.42 106, -11.09 106.77" stroke="#2f9e44" stroke-width="2" fill="none"></path></g><g transform="translate(203.51653522995002 183.34948123838035) rotate(0 32.745483633860886 52.69945021739045)"><path d="M8.73 98.06 C1.49 99.92, -2.01 101.68, -11.09 106.77 M8.73 98.06 C3.3 101.23, -3.15 104.11, -11.09 106.77" stroke="#2f9e44" stroke-width="2" fill="none"></path></g><g transform="translate(203.51653522995002 183.34948123838035) rotate(0 32.745483633860886 52.69945021739045)"><path d="M9.69 112.84 C2.13 110.7, -1.63 108.46, -11.09 106.77 M9.69 112.84 C3.88 111.46, -2.86 109.8, -11.09 106.77" stroke="#2f9e44" stroke-width="2" fill="none"></path></g></g><mask></mask><g stroke-linecap="round"><g transform="translate(183.83234616596428 292.09209288623424) rotate(0 -30.266058552779896 -52.99178417891562)"><path d="M-0.64 0 C-12.37 -3.5, -57.51 -8.92, -70.08 -21.73 C-82.65 -34.55, -82.23 -63.89, -76.05 -76.88 C-69.88 -89.88, -48.15 -94.66, -33.02 -99.7 C-17.9 -104.74, 6.54 -106.03, 14.69 -107.12 M1.23 -1.05 C-10.68 -4.29, -57.99 -7.85, -70.98 -20.28 C-83.97 -32.7, -83.02 -61.97, -76.72 -75.57 C-70.42 -89.18, -48.69 -96.63, -33.18 -101.92 C-17.67 -107.22, 7.92 -106.4, 16.34 -107.33" stroke="#2f9e44" stroke-width="2" fill="none"></path></g><g transform="translate(183.83234616596428 292.09209288623424) rotate(0 -30.266058552779896 -52.99178417891562)"><path d="M-5.91 -97.94 C1.4 -100.74, 8.39 -103.63, 16.34 -107.33 M-5.91 -97.94 C-0.06 -101.82, 7.55 -103.92, 16.34 -107.33" stroke="#2f9e44" stroke-width="2" fill="none"></path></g><g transform="translate(183.83234616596428 292.09209288623424) rotate(0 -30.266058552779896 -52.99178417891562)"><path d="M-6.74 -114.44 C0.74 -111.85, 8 -109.36, 16.34 -107.33 M-6.74 -114.44 C-0.74 -113.39, 7.11 -110.56, 16.34 -107.33" stroke="#2f9e44" stroke-width="2" fill="none"></path></g></g><mask></mask><g transform="translate(227.18480247191656 247.37775171869703) rotate(0 9.016666412353516 17.5)"><text x="0" y="24.668" font-family="'Virgil 3 YOFF'" font-size="28px" fill="#2f9e44" text-anchor="start" style="white-space: pre;" direction="ltr" dominant-baseline="alphabetic">C</text></g></svg>