<svg version="1.1" xmlns="http://www.w3.org/2000/svg" viewBox="0 0 513.2093185428021 365.01737736035557" width="1026.4186370856041" height="730.0347547207111">
  <!-- svg-source:excalidraw -->
  
    
  <g stroke-linecap="round"><g transform="translate(350.5961649362953 227.20306705056691) rotate(0 72.90197710812845 -39.5428134760607)"><path d="M-1.07 -0.13 C-0.26 -5.98, 2.13 -13.34, 4.01 -35.05 C5.89 -56.76, -3.76 -108.53, 10.2 -130.37 C24.17 -152.21, 72.21 -173.48, 87.79 -166.09 C103.37 -158.7, 93.28 -114.24, 103.68 -86.02 C114.09 -57.79, 160.07 -16.75, 150.2 3.25 C140.34 23.24, 70.36 20.07, 44.47 33.95 C18.59 47.84, 2.36 92.35, -5.1 86.58 C-12.57 80.81, -1.24 13.77, -0.31 -0.68 M0.58 -1.25 C1.25 -6.93, 1.31 -12.34, 2.86 -33.71 C4.4 -55.09, -4.35 -107.55, 9.84 -129.5 C24.03 -151.44, 72.56 -172.6, 88 -165.39 C103.44 -158.17, 91.92 -114.65, 102.48 -86.19 C113.04 -57.73, 160.9 -15.01, 151.36 5.35 C141.82 25.72, 71.5 22.47, 45.23 35.98 C18.96 49.49, 1.04 92.2, -6.24 86.42 C-13.53 80.63, 0.22 15.76, 1.52 1.24" stroke="#1e1e1e" stroke-width="2" fill="none"></path></g><g transform="translate(350.5961649362953 227.20306705056691) rotate(0 72.90197710812845 -39.5428134760607)"><path d="M0.34 -0.45 L-5.89 -13.17 L7.58 -11.72 L-0.97 1.26" stroke="none" stroke-width="0" fill="#1e1e1e" fill-rule="evenodd"></path><path d="M-1.07 -0.13 C-2.15 -4.04, -3.37 -5.97, -4.97 -14.61 M-1.07 -0.13 C-1.63 -4.16, -3.15 -7.43, -4.97 -14.61 M-4.97 -14.61 C-0.66 -14.23, 2.24 -12.69, 7.52 -12.43 M-4.97 -14.61 C-0.81 -13.68, 2.64 -13.43, 7.52 -12.43 M7.52 -12.43 C4.91 -9.99, 3.82 -7.57, -1.07 -0.13 M7.52 -12.43 C4.96 -8.94, 2.22 -4.88, -1.07 -0.13 M-1.07 -0.13 C-1.07 -0.13, -1.07 -0.13, -1.07 -0.13 M-1.07 -0.13 C-1.07 -0.13, -1.07 -0.13, -1.07 -0.13" stroke="#1e1e1e" stroke-width="2" fill="none"></path></g></g><mask></mask><g stroke-linecap="round"><g transform="translate(447.90728616544857 92.46459150250803) rotate(0 1.627276274734868 20.015498179240467)"><path d="M-0.18 -0.17 C0.5 6.44, 3.04 33, 3.6 39.65 M0.73 -0.74 C1.41 5.94, 3 33.34, 3.35 40.15" stroke="#1e1e1e" stroke-width="2" fill="none"></path></g><g transform="translate(447.90728616544857 92.46459150250803) rotate(0 1.627276274734868 20.015498179240467)"><path d="M-0.64 0.55 L7.46 13.1 L-5.14 14.66 L-0.07 -0.12" stroke="none" stroke-width="0" fill="#1e1e1e" fill-rule="evenodd"></path><path d="M-0.18 -0.17 C1.18 3.04, 2.5 5.25, 7.43 12.75 M-0.18 -0.17 C1.5 2.61, 3.52 5.81, 7.43 12.75 M7.43 12.75 C3.52 13.33, 0.25 13.52, -5.19 13.97 M7.43 12.75 C4.9 12.94, 1.77 13.28, -5.19 13.97 M-5.19 13.97 C-3.72 9.95, -2.62 7.19, -0.18 -0.17 M-5.19 13.97 C-3.4 8.71, -1.76 3.27, -0.18 -0.17 M-0.18 -0.17 C-0.18 -0.17, -0.18 -0.17, -0.18 -0.17 M-0.18 -0.17 C-0.18 -0.17, -0.18 -0.17, -0.18 -0.17" stroke="#1e1e1e" stroke-width="2" fill="none"></path></g></g><mask></mask><g stroke-linecap="round"><g transform="translate(442.04909157640304 250.63584540675083) rotate(0 -21.805502081449504 4.393645941784598)"><path d="M0.35 -0.39 C-6.89 1.05, -36.36 6.99, -43.65 8.44 M-0.13 0.61 C-7.44 2.12, -36.85 7.62, -44.1 8.96" stroke="#1e1e1e" stroke-width="2" fill="none"></path></g><g transform="translate(442.04909157640304 250.63584540675083) rotate(0 -21.805502081449504 4.393645941784598)"><path d="M0.38 -0.03 L-11.69 9.2 L-14.11 -3.87 L0.45 0.61" stroke="none" stroke-width="0" fill="#1e1e1e" fill-rule="evenodd"></path><path d="M0.35 -0.39 C-3.41 1.98, -6.59 4.72, -11.73 8.5 M0.35 -0.39 C-2.15 1.27, -4.83 3.41, -11.73 8.5 M-11.73 8.5 C-12.45 5.2, -13.59 2.24, -14.23 -3.93 M-11.73 8.5 C-12.8 4.37, -13.57 0.15, -14.23 -3.93 M-14.23 -3.93 C-10.24 -2.57, -5.73 -1.97, 0.35 -0.39 M-14.23 -3.93 C-10.74 -3.12, -6.43 -1.73, 0.35 -0.39 M0.35 -0.39 C0.35 -0.39, 0.35 -0.39, 0.35 -0.39 M0.35 -0.39 C0.35 -0.39, 0.35 -0.39, 0.35 -0.39" stroke="#1e1e1e" stroke-width="2" fill="none"></path></g></g><mask></mask><g stroke-linecap="round"><g transform="translate(375.20902610104986 82.78291268661133) rotate(0 15.296396982509123 -8.461836628621995)"><path d="M-0.04 -0.35 C5.04 -3.19, 25.76 -14.58, 30.83 -17.42 M-0.72 0.66 C4.28 -2.09, 25.41 -14.02, 30.52 -16.97" stroke="#1e1e1e" stroke-width="2" fill="none"></path></g><g transform="translate(375.20902610104986 82.78291268661133) rotate(0 15.296396982509123 -8.461836628621995)"><path d="M0.01 0.35 L8.91 -12.41 L15.03 -0.38 L0.8 -1.23" stroke="none" stroke-width="0" fill="#1e1e1e" fill-rule="evenodd"></path><path d="M-0.04 -0.35 C2.74 -4.43, 5.76 -9.46, 8.8 -12.47 M-0.04 -0.35 C1.81 -2.87, 3.71 -5.83, 8.8 -12.47 M8.8 -12.47 C10.35 -8.14, 13.17 -4.52, 14.93 -1.37 M8.8 -12.47 C10.27 -9.58, 12 -6.38, 14.93 -1.37 M14.93 -1.37 C11.9 -1.11, 7.46 -1.02, -0.04 -0.35 M14.93 -1.37 C10.49 -0.73, 5.69 -1.1, -0.04 -0.35 M-0.04 -0.35 C-0.04 -0.35, -0.04 -0.35, -0.04 -0.35 M-0.04 -0.35 C-0.04 -0.35, -0.04 -0.35, -0.04 -0.35" stroke="#1e1e1e" stroke-width="2" fill="none"></path></g></g><mask></mask><g transform="translate(182.97534535626983 330.01737736035557) rotate(0 48.933333333333394 12.5)"><text x="0" y="17.619999999999997" font-family="Virgil 3 YOFF" font-size="20px" fill="#2f9e44" text-anchor="start" style="white-space: pre;" direction="ltr" dominant-baseline="alphabetic">v dt = ds</text></g><g transform="translate(244.17703500202606 23.926261774342038) rotate(0 18.09166717529297 17.5)"><text x="0" y="24.668" font-family="Virgil 3 YOFF" font-size="28px" fill="#1971c2" text-anchor="start" style="white-space: pre;" direction="ltr" dominant-baseline="alphabetic">dΣ</text></g><g stroke-linecap="round"><g transform="translate(121.36058354947545 225.99918688198977) rotate(0 72.90197710812845 -39.5428134760607)"><path d="M-0.7 0.74 C0.06 -4.97, 3.35 -12.44, 4.85 -33.99 C6.36 -55.54, -5.62 -106.57, 8.35 -128.57 C22.32 -150.57, 73.08 -173.43, 88.7 -165.97 C104.32 -158.51, 91.81 -112.12, 102.06 -83.81 C112.3 -55.5, 159.69 -15.66, 150.19 3.91 C140.7 23.47, 70.83 19.93, 45.11 33.6 C19.39 47.26, 3.6 91.31, -4.12 85.91 C-11.83 80.51, -1.78 15.43, -1.18 1.19 M1.13 0.09 C1.75 -6, 2.55 -14.01, 4.14 -35.76 C5.73 -57.51, -3.53 -108.83, 10.67 -130.41 C24.88 -151.98, 73.89 -172.53, 89.38 -165.21 C104.88 -157.88, 93.33 -114.47, 103.66 -86.48 C113.99 -58.5, 161.54 -17.62, 151.35 2.7 C141.16 23.02, 68.55 21.66, 42.54 35.44 C16.52 49.22, 2.31 91.23, -4.74 85.39 C-11.8 79.56, -0.59 14.62, 0.19 0.43" stroke="#1e1e1e" stroke-width="2" fill="none"></path></g><g transform="translate(121.36058354947545 225.99918688198977) rotate(0 72.90197710812845 -39.5428134760607)"><path d="M-2.67 1.82 L-3.52 -11.91 L6.27 -11.81 L1.12 0.88" stroke="none" stroke-width="0" fill="#1e1e1e" fill-rule="evenodd"></path><path d="M-0.7 0.74 C-0.94 -3.45, -2.16 -10.1, -4.2 -13.84 M-0.7 0.74 C-2.83 -4.11, -3.77 -10.57, -4.2 -13.84 M-4.2 -13.84 C0.03 -14.23, 6.24 -12.6, 8.23 -11.31 M-4.2 -13.84 C-0.47 -12.79, 4.27 -12.54, 8.23 -11.31 M8.23 -11.31 C5.95 -5.77, 0.49 -1.85, -0.7 0.74 M8.23 -11.31 C5.79 -8.64, 3.14 -5.81, -0.7 0.74 M-0.7 0.74 C-0.7 0.74, -0.7 0.74, -0.7 0.74 M-0.7 0.74 C-0.7 0.74, -0.7 0.74, -0.7 0.74" stroke="#1e1e1e" stroke-width="2" fill="none"></path></g></g><mask></mask><g stroke-linecap="round"><g transform="translate(218.67170477862874 91.26071133393134) rotate(0 1.627276274734868 20.015498179240467)"><path d="M0.23 -0.34 C0.89 6.41, 2.96 33.55, 3.44 40.27 M-0.31 0.68 C0.34 7.27, 2.61 32.77, 3.1 39.42" stroke="#1e1e1e" stroke-width="2" fill="none"></path></g><g transform="translate(218.67170477862874 91.26071133393134) rotate(0 1.627276274734868 20.015498179240467)"><path d="M-0.19 -1.33 L7.09 13.64 L-4.88 13.65 L-0.67 0.49" stroke="none" stroke-width="0" fill="#1e1e1e" fill-rule="evenodd"></path><path d="M0.23 -0.34 C1.29 2.61, 3.62 4.85, 7.64 12.7 M0.23 -0.34 C2.28 3.4, 4.4 7.62, 7.64 12.7 M7.64 12.7 C4.51 13.31, 0.81 12.82, -4.99 13.72 M7.64 12.7 C2.92 13.32, -2.17 13.41, -4.99 13.72 M-4.99 13.72 C-3.47 8.39, -1.11 4.03, 0.23 -0.34 M-4.99 13.72 C-3.08 8.42, -1.31 4.04, 0.23 -0.34 M0.23 -0.34 C0.23 -0.34, 0.23 -0.34, 0.23 -0.34 M0.23 -0.34 C0.23 -0.34, 0.23 -0.34, 0.23 -0.34" stroke="#1e1e1e" stroke-width="2" fill="none"></path></g></g><mask></mask><g stroke-linecap="round"><g transform="translate(212.8135101895832 249.4319652381737) rotate(0 -21.805502081449504 4.393645941784598)"><path d="M0.24 -0.02 C-7.04 1.44, -36.36 7.08, -43.73 8.59 M-0.31 -0.51 C-7.66 1.05, -37.14 7.76, -44.23 9.18" stroke="#1e1e1e" stroke-width="2" fill="none"></path></g><g transform="translate(212.8135101895832 249.4319652381737) rotate(0 -21.805502081449504 4.393645941784598)"><path d="M-0.45 -0.08 L-11.31 9.34 L-14.22 -4.59 L1 0.04" stroke="none" stroke-width="0" fill="#1e1e1e" fill-rule="evenodd"></path><path d="M0.24 -0.02 C-3.3 2.37, -7.03 4.57, -11.89 8.8 M0.24 -0.02 C-3.63 3.31, -7.88 5.7, -11.89 8.8 M-11.89 8.8 C-12.31 5.23, -13.8 0.9, -14.32 -3.64 M-11.89 8.8 C-12.89 4.08, -13.45 -0.14, -14.32 -3.64 M-14.32 -3.64 C-9.7 -2.7, -2.9 -0.86, 0.24 -0.02 M-14.32 -3.64 C-10 -2.75, -6.1 -1.3, 0.24 -0.02 M0.24 -0.02 C0.24 -0.02, 0.24 -0.02, 0.24 -0.02 M0.24 -0.02 C0.24 -0.02, 0.24 -0.02, 0.24 -0.02" stroke="#1e1e1e" stroke-width="2" fill="none"></path></g></g><mask></mask><g stroke-linecap="round"><g transform="translate(145.97344471423003 81.57903251803418) rotate(0 15.296396982509123 -8.461836628621995)"><path d="M-0.23 -0.55 C4.75 -3.34, 25.14 -13.67, 30.29 -16.41 M0.65 0.36 C5.78 -2.6, 26.42 -14.32, 31.36 -17.11" stroke="#1e1e1e" stroke-width="2" fill="none"></path></g><g transform="translate(145.97344471423003 81.57903251803418) rotate(0 15.296396982509123 -8.461836628621995)"><path d="M-0.06 0.42 L9.08 -12.1 L14.32 -1.88 L0.7 0.38" stroke="none" stroke-width="0" fill="#1e1e1e" fill-rule="evenodd"></path><path d="M-0.23 -0.55 C2.34 -5.32, 7.15 -9.19, 8.9 -12.44 M-0.23 -0.55 C2.57 -4.17, 4.89 -7.26, 8.9 -12.44 M8.9 -12.44 C11.21 -7.87, 13.79 -4.69, 14.75 -1.2 M8.9 -12.44 C11.22 -8.46, 13.22 -3.9, 14.75 -1.2 M14.75 -1.2 C11.68 -0.93, 7.1 -0.28, -0.23 -0.55 M14.75 -1.2 C9.79 -0.71, 5.3 -0.48, -0.23 -0.55 M-0.23 -0.55 C-0.23 -0.55, -0.23 -0.55, -0.23 -0.55 M-0.23 -0.55 C-0.23 -0.55, -0.23 -0.55, -0.23 -0.55" stroke="#1e1e1e" stroke-width="2" fill="none"></path></g></g><mask></mask><g transform="translate(164.58645859184253 150.2526843204182) rotate(0 8.508333206176758 17.5)"><text x="0" y="24.668" font-family="Virgil 3 YOFF" font-size="28px" fill="#1e1e1e" text-anchor="start" style="white-space: pre;" direction="ltr" dominant-baseline="alphabetic">S</text></g><g transform="translate(182.3767759809889 167.0355385066946) rotate(0 1.75 10)"><text x="0" y="14.096" font-family="Virgil 3 YOFF" font-size="16px" fill="#1e1e1e" text-anchor="start" style="white-space: pre;" direction="ltr" dominant-baseline="alphabetic">i</text></g><g transform="translate(400.5302643254099 150.60124687924645) rotate(0 8.508333206176758 17.5)"><text x="0" y="24.668" font-family="Virgil 3 YOFF" font-size="28px" fill="#1e1e1e" text-anchor="start" style="white-space: pre;" direction="ltr" dominant-baseline="alphabetic">S</text></g><g transform="translate(415.8338711408842 168.78655525073736) rotate(0 5 10)"><text x="0" y="14.096" font-family="Virgil 3 YOFF" font-size="16px" fill="#1e1e1e" text-anchor="start" style="white-space: pre;" direction="ltr" dominant-baseline="alphabetic">f</text></g><g stroke-linecap="round"><g transform="translate(26.006395292386514 84.1474808926846) rotate(0 29.254523813183823 29.254523813183823)"><path d="M-1.08 0.24 C8.64 10.23, 47.25 49.93, 57.34 59.64 M0.56 -0.69 C10.72 9.03, 49.67 48.03, 59.44 58.12" stroke="#e03131" stroke-width="2" fill="none"></path></g><g transform="translate(26.006395292386514 84.1474808926846) rotate(0 29.254523813183823 29.254523813183823)"><path d="M58.04 56.27 L44.16 54.19 L55.94 42.78 L60.46 58.96" stroke="none" stroke-width="0" fill="#e03131" fill-rule="evenodd"></path><path d="M59.44 58.12 C56.68 55.39, 54.72 56.9, 45.38 52.89 M59.44 58.12 C54.93 57.1, 50.75 55.13, 45.38 52.89 M45.38 52.89 C47.66 50.58, 51.52 48.56, 54.41 43.99 M45.38 52.89 C48.07 50.71, 50.15 48.21, 54.41 43.99 M54.41 43.99 C55.09 49.84, 57.92 53.51, 59.44 58.12 M54.41 43.99 C56.22 49.98, 58.64 55.6, 59.44 58.12 M59.44 58.12 C59.44 58.12, 59.44 58.12, 59.44 58.12 M59.44 58.12 C59.44 58.12, 59.44 58.12, 59.44 58.12" stroke="#e03131" stroke-width="2" fill="none"></path></g></g><mask></mask><g stroke-linecap="round"><g transform="translate(26.597395773463177 129.58966259733916) rotate(0 25.265270565930678 27.62927249022823)"><path d="M0.7 -0.58 C8.9 8.47, 41.56 45.46, 49.88 54.75 M-0.39 1.73 C8.15 10.9, 43.87 46.91, 52.25 56.03" stroke="#e03131" stroke-width="2" fill="none"></path></g><g transform="translate(26.597395773463177 129.58966259733916) rotate(0 25.265270565930678 27.62927249022823)"><path d="M51.19 55.88 L38.17 49.9 L48.32 40.99 L51.92 55.7" stroke="none" stroke-width="0" fill="#e03131" fill-rule="evenodd"></path><path d="M52.25 56.03 C46.56 53.38, 41.69 52.39, 38.27 50.61 M52.25 56.03 C48.64 55.24, 44.45 52.43, 38.27 50.61 M38.27 50.61 C40.72 46.27, 44.15 45.08, 47.41 41.83 M38.27 50.61 C42.03 47.01, 45.19 43.73, 47.41 41.83 M47.41 41.83 C49.46 46.23, 48.79 49.63, 52.25 56.03 M47.41 41.83 C48.77 45.81, 49.83 47.93, 52.25 56.03 M52.25 56.03 C52.25 56.03, 52.25 56.03, 52.25 56.03 M52.25 56.03 C52.25 56.03, 52.25 56.03, 52.25 56.03" stroke="#e03131" stroke-width="2" fill="none"></path></g></g><mask></mask><g stroke-linecap="round"><g transform="translate(39.00840587602579 63.46956125413226) rotate(0 29.10677369291352 17.730014432231883)"><path d="M1.19 -0.65 C10.66 4.98, 48.37 28.81, 57.86 34.82 M0.35 1.63 C9.54 7.93, 47.23 30.18, 56.72 36.02" stroke="#e03131" stroke-width="2" fill="none"></path></g><g transform="translate(39.00840587602579 63.46956125413226) rotate(0 29.10677369291352 17.730014432231883)"><path d="M56.3 37.96 L43.63 32.86 L50.09 25.29 L58.14 34.36" stroke="none" stroke-width="0" fill="#e03131" fill-rule="evenodd"></path><path d="M56.72 36.02 C50.15 35.11, 44.4 34.83, 41.81 34.44 M56.72 36.02 C52.01 35.5, 47.8 35.23, 41.81 34.44 M41.81 34.44 C42.61 31.9, 45.96 28.22, 48.35 23.58 M41.81 34.44 C44.11 31.1, 46.09 27.32, 48.35 23.58 M48.35 23.58 C50.51 25.21, 52.25 29.65, 56.72 36.02 M48.35 23.58 C50.76 26.51, 53.07 30.86, 56.72 36.02 M56.72 36.02 C56.72 36.02, 56.72 36.02, 56.72 36.02 M56.72 36.02 C56.72 36.02, 56.72 36.02, 56.72 36.02" stroke="#e03131" stroke-width="2" fill="none"></path></g></g><mask></mask><g transform="translate(17.925589154066074 174.92383282507672) rotate(0 10.5 17.5)"><text x="0" y="24.668" font-family="Virgil 3 YOFF" font-size="28px" fill="#e03131" text-anchor="start" style="white-space: pre;" direction="ltr" dominant-baseline="alphabetic">B</text></g><g transform="translate(10 218.08528665818812) rotate(0 42.04999923706055 10)"><text x="0" y="14.096" font-family="Virgil 3 YOFF" font-size="16px" fill="#e03131" text-anchor="start" style="white-space: pre;" direction="ltr" dominant-baseline="alphabetic">non-uniform</text></g><g stroke-linecap="round"><g transform="translate(210.34793775857815 60.264508196091356) rotate(0 110.8829681924285 0)"><path d="M0.29 -1.19 C37.5 -1.04, 185.86 -0.04, 222.76 0.35 M-1.02 0.8 C36.16 0.62, 185.35 -1.36, 222.33 -1.58" stroke="#1971c2" stroke-width="2" fill="none"></path></g></g><mask></mask><g stroke-linecap="round"><g transform="translate(120.77108579045034 312.2047582167297) rotate(0 110.8829681924285 0)"><path d="M0.86 -0.87 C37.56 -0.92, 184.38 -0.38, 221.36 -0.18 M-0.14 1.29 C36.26 1.41, 183.1 1.78, 220.2 1.27" stroke="#1971c2" stroke-width="2" fill="none"></path></g></g><mask></mask><g stroke-linecap="round"><g transform="translate(353.9172508370275 57.79706521596836) rotate(0 0 -23.819525341312783)"><path d="M-0.52 0.31 C-0.62 -7.71, -0.58 -39.86, -0.51 -47.8 M0.21 -0.01 C0.27 -7.98, 0.59 -39.15, 0.46 -47.18" stroke="#f08c00" stroke-width="2" fill="none"></path></g><g transform="translate(353.9172508370275 57.79706521596836) rotate(0 0 -23.819525341312783)"><path d="M0.53 -47.84 L5.98 -33.11 L-5.79 -33.44 L0.33 -47.48" stroke="none" stroke-width="0" fill="#f08c00" fill-rule="evenodd"></path><path d="M0.46 -47.18 C2.91 -43.59, 4.26 -38.8, 6.82 -33.59 M0.46 -47.18 C2.65 -42.08, 4.72 -37.41, 6.82 -33.59 M6.82 -33.59 C3.04 -33.11, -0.66 -33.69, -5.86 -33.58 M6.82 -33.59 C2.14 -33.33, -2.69 -33.73, -5.86 -33.58 M-5.86 -33.58 C-3.63 -38.48, -1.12 -42.57, 0.46 -47.18 M-5.86 -33.58 C-3.74 -38.73, -0.97 -43.33, 0.46 -47.18 M0.46 -47.18 C0.46 -47.18, 0.46 -47.18, 0.46 -47.18 M0.46 -47.18 C0.46 -47.18, 0.46 -47.18, 0.46 -47.18" stroke="#f08c00" stroke-width="2" fill="none"></path></g></g><mask></mask><g transform="translate(365.96712836263305 19.988121768845758) rotate(0 4.666666507720947 12.5)"><text x="0" y="17.619999999999997" font-family="Virgil 3 YOFF" font-size="20px" fill="#f08c00" text-anchor="start" style="white-space: pre;" direction="ltr" dominant-baseline="alphabetic">n</text></g><g transform="translate(372.67568275646863 36.72799167500534) rotate(0 5.491666793823242 5.306152359211865)"><text x="0" y="7.479552365545046" font-family="Virgil 3 YOFF" font-size="8.489843774738985px" fill="#f08c00" text-anchor="start" style="white-space: pre;" direction="ltr" dominant-baseline="alphabetic">dΣ</text></g><g stroke-linecap="round"><g transform="translate(208.4429533894563 201.95479796506606) rotate(0 14.025245441795505 0)"><path d="M0.07 0.31 C4.61 0.28, 23.12 0.3, 27.7 0.34 M-0.56 -0.01 C4.12 0.04, 23.9 -0.41, 28.75 -0.45" stroke="#f08c00" stroke-width="2" fill="none"></path></g><g transform="translate(208.4429533894563 201.95479796506606) rotate(0 14.025245441795505 0)"><path d="M29 -0.92 L15.82 6.22 L15.66 -5.53 L28.6 -1.44" stroke="none" stroke-width="0" fill="#f08c00" fill-rule="evenodd"></path><path d="M28.75 -0.45 C24.34 1.46, 19.54 3.58, 16.14 5.68 M28.75 -0.45 C24.06 1.76, 18.83 4.15, 16.14 5.68 M16.14 5.68 C16.37 1.66, 16.55 -3.74, 15.95 -6.17 M16.14 5.68 C16.06 1.84, 16.01 -1.8, 15.95 -6.17 M15.95 -6.17 C20.13 -4.17, 24.51 -2.06, 28.75 -0.45 M15.95 -6.17 C20.8 -4.4, 25.5 -2.28, 28.75 -0.45 M28.75 -0.45 C28.75 -0.45, 28.75 -0.45, 28.75 -0.45 M28.75 -0.45 C28.75 -0.45, 28.75 -0.45, 28.75 -0.45" stroke="#f08c00" stroke-width="2" fill="none"></path></g></g><mask></mask><g transform="translate(211.7319979691447 203.87745806298426) rotate(0 4.666666507720947 12.5)"><text x="0" y="17.619999999999997" font-family="Virgil 3 YOFF" font-size="20px" fill="#f08c00" text-anchor="start" style="white-space: pre;" direction="ltr" dominant-baseline="alphabetic">n</text></g><g transform="translate(221.03413262424965 214.8783504495991) rotate(0 1.0666667222976685 6.084056670916425)"><text x="0" y="8.576086283323857" font-family="Virgil 3 YOFF" font-size="9.734490673466352px" fill="#f08c00" text-anchor="start" style="white-space: pre;" direction="ltr" dominant-baseline="alphabetic">i</text></g><g stroke-linecap="round"><g transform="translate(423.9598093130189 197.40131665454965) rotate(0 14.025245441795505 0)"><path d="M0.39 0.3 C5.06 0.35, 23.36 0.52, 27.98 0.46 M-0.07 -0.02 C4.52 -0.13, 22.87 -0.36, 27.51 -0.28" stroke="#f08c00" stroke-width="2" fill="none"></path></g><g transform="translate(423.9598093130189 197.40131665454965) rotate(0 14.025245441795505 0)"><path d="M27.31 0.62 L15.51 4.74 L15.71 -5.91 L28.31 -0.42" stroke="none" stroke-width="0" fill="#f08c00" fill-rule="evenodd"></path><path d="M27.51 -0.28 C24.15 1.43, 20.6 3.32, 14.8 5.65 M27.51 -0.28 C23.86 1.17, 20.14 3.03, 14.8 5.65 M14.8 5.65 C15.31 0.63, 14.25 -4.25, 14.8 -6.21 M14.8 5.65 C15.1 1.79, 14.93 -2.01, 14.8 -6.21 M14.8 -6.21 C20.22 -3.26, 24.47 -1.08, 27.51 -0.28 M14.8 -6.21 C17.61 -4.73, 20.96 -3.15, 27.51 -0.28 M27.51 -0.28 C27.51 -0.28, 27.51 -0.28, 27.51 -0.28 M27.51 -0.28 C27.51 -0.28, 27.51 -0.28, 27.51 -0.28" stroke="#f08c00" stroke-width="2" fill="none"></path></g></g><mask></mask><g transform="translate(427.2488538927064 199.32397675246784) rotate(0 4.666666507720947 12.5)"><text x="0" y="17.619999999999997" font-family="Virgil 3 YOFF" font-size="20px" fill="#f08c00" text-anchor="start" style="white-space: pre;" direction="ltr" dominant-baseline="alphabetic">n</text></g><g transform="translate(436.9136603802144 213.4680250199085) rotate(0 3 6.084056670916425)"><text x="0" y="8.576086283323857" font-family="Virgil 3 YOFF" font-size="9.734490673466352px" fill="#f08c00" text-anchor="start" style="white-space: pre;" direction="ltr" dominant-baseline="alphabetic">f</text></g><g transform="translate(269.85392047950063 11.669971325134156) rotate(0 32.64117386707994 5.242158543963569)"><text x="0" y="7.389346683571048" font-family="Virgil 3 YOFF" font-size="8.387453670341712px" fill="#1971c2" text-anchor="start" style="white-space: pre;" direction="ltr" dominant-baseline="alphabetic">lateral surface</text></g><g stroke-linecap="round"><g transform="translate(307.42336807558695 23.312767623079253) rotate(0 -10.502806420123306 8.432427041447)"><path d="M0.51 -0.53 C0.28 1.04, 0.15 7.09, -1.42 9.78 C-2.99 12.47, -5.58 14.5, -8.9 15.62 C-12.22 16.74, -19.38 16.31, -21.33 16.52 M0.11 0.39 C0.06 1.78, 1.22 6.68, -0.33 9.06 C-1.87 11.45, -5.67 13.43, -9.18 14.72 C-12.69 16.02, -19.4 16.46, -21.38 16.84" stroke="#1971c2" stroke-width="1" fill="none"></path></g><g transform="translate(307.42336807558695 23.312767623079253) rotate(0 -10.502806420123306 8.432427041447)"><path d="M-22.08 16.02 L-15.35 14.03 L-16.37 18.47 L-21.28 17.48" stroke="none" stroke-width="0" fill="#1971c2" fill-rule="evenodd"></path><path d="M-21.38 16.84 C-20.16 15.69, -18.09 14.94, -16.3 13.58 M-21.38 16.84 C-19.44 15.68, -17.72 14.61, -16.3 13.58 M-16.3 13.58 C-15.86 15.3, -15.64 17.36, -15.62 18.64 M-16.3 13.58 C-16.16 15.17, -15.92 17.03, -15.62 18.64 M-15.62 18.64 C-16.56 18.32, -17.65 17.97, -21.38 16.84 M-15.62 18.64 C-17.16 18.19, -18.58 17.76, -21.38 16.84 M-21.38 16.84 C-21.38 16.84, -21.38 16.84, -21.38 16.84 M-21.38 16.84 C-21.38 16.84, -21.38 16.84, -21.38 16.84" stroke="#1971c2" stroke-width="1" fill="none"></path></g></g><mask></mask><g stroke-linecap="round"><g transform="translate(122.47384420451544 322.9189203718215) rotate(0 109.47777829708457 0)"><path d="M-0.81 -0.31 C35.61 -0.44, 182.06 -1.15, 218.57 -1.01 M0.97 -1.52 C37.2 -1.51, 181.39 0, 217.42 -0.01" stroke="#2f9e44" stroke-width="2" fill="none"></path></g><g transform="translate(122.47384420451544 322.9189203718215) rotate(0 109.47777829708457 0)"><path d="M-0.69 0.12 L11.94 -5.39 L14.32 7.46 L-2.11 -0.13" stroke="none" stroke-width="0" fill="#2f9e44" fill-rule="evenodd"></path><path d="M-0.81 -0.31 C2.95 -2.64, 6.2 -4.96, 12.76 -6.7 M-0.81 -0.31 C3.57 -3, 8.11 -4.6, 12.76 -6.7 M12.76 -6.7 C13.25 -2.43, 13.95 0.31, 12.81 5.98 M12.76 -6.7 C12.4 -3.62, 13.46 0.33, 12.81 5.98 M12.81 5.98 C8.45 4.09, 5.49 0.85, -0.81 -0.31 M12.81 5.98 C7.95 4.5, 2.69 1.11, -0.81 -0.31 M-0.81 -0.31 C-0.81 -0.31, -0.81 -0.31, -0.81 -0.31 M-0.81 -0.31 C-0.81 -0.31, -0.81 -0.31, -0.81 -0.31" stroke="#2f9e44" stroke-width="2" fill="none"></path></g><g transform="translate(122.47384420451544 322.9189203718215) rotate(0 109.47777829708457 0)"><path d="M217.54 0.42 L202.96 7.56 L205.37 -4.94 L216.11 0.17" stroke="none" stroke-width="0" fill="#2f9e44" fill-rule="evenodd"></path><path d="M217.42 -0.01 C212.87 1.33, 207.85 2.87, 203.79 6.26 M217.42 -0.01 C212.54 1.77, 207.74 4.52, 203.79 6.26 M203.79 6.26 C204.45 2.44, 205.16 -2.89, 203.86 -6.42 M203.79 6.26 C203.19 1.97, 204.26 -1.44, 203.86 -6.42 M203.86 -6.42 C207.59 -4.69, 212.6 -4.21, 217.42 -0.01 M203.86 -6.42 C209.23 -3.41, 214.15 -2.04, 217.42 -0.01 M217.42 -0.01 C217.42 -0.01, 217.42 -0.01, 217.42 -0.01 M217.42 -0.01 C217.42 -0.01, 217.42 -0.01, 217.42 -0.01" stroke="#2f9e44" stroke-width="2" fill="none"></path></g></g><mask></mask></svg>
