<svg version="1.1" xmlns="http://www.w3.org/2000/svg" viewBox="0 0 247.54233501491035 229.67479826048202" width="495.0846700298207" height="459.34959652096404">
  <!-- svg-source:excalidraw -->
  
    
  <g stroke-linecap="round"><g transform="translate(123.47425773934538 149.5368874721048) rotate(0 7.6086721876135925 3.4209533866790025)"><path d="M-0.22 -0.06 C1.08 -0.01, 5.68 -0.63, 8.23 0.5 C10.79 1.63, 14.04 5.74, 15.12 6.72 M0.66 -0.57 C2.1 -0.7, 6.87 -1.69, 9.21 -0.39 C11.55 0.91, 13.82 6.08, 14.72 7.26" stroke="#1971c2" stroke-width="1" fill="none"></path></g></g><mask></mask><g stroke-linecap="round"><g transform="translate(14.505788812176434 119.93009269910272) rotate(0 0 32.04116488658792)"><path d="M0.2 0.86 C0.12 11.51, -0.24 54.1, -0.21 64.57" stroke="#1e1e1e" stroke-width="1.5" fill="none" stroke-dasharray="8 9"></path></g></g><mask></mask><g stroke-linecap="round"><g transform="translate(16.258040016911764 119.42944949774983) rotate(0 53.06817934341143 0)"><path d="M0.06 0.49 C17.54 0.47, 87.27 -0.36, 104.95 -0.36" stroke="#1e1e1e" stroke-width="1.5" fill="none" stroke-dasharray="8 9"></path></g></g><mask></mask><g stroke-linecap="round"><g transform="translate(123.38657060584592 184.00232651079477) rotate(0 0 -70.19054392992166)"><path d="M0 0 C1.8 -57.05, 0.9 -111.24, 0 -140.38 M0 0 C-0.88 -35.43, -0.99 -71.49, 0 -140.38" stroke="#1e1e1e" stroke-width="2" fill="none"></path></g><g transform="translate(123.38657060584592 184.00232651079477) rotate(0 0 -70.19054392992166)"><path d="M0.55 -139.58 L7.41 -125.81 L-5.11 -127.96 L-1.14 -138.4" stroke="none" stroke-width="0" fill="#1e1e1e" fill-rule="evenodd"></path><path d="M0 -140.38 C3.2 -136.57, 4.95 -130.54, 6.19 -126.72 M0 -140.38 C1.15 -136.95, 2.63 -133.94, 6.19 -126.72 M6.19 -126.72 C4.33 -127.08, 1.18 -127.72, -6.49 -126.86 M6.19 -126.72 C1.95 -127.18, -1.41 -127.09, -6.49 -126.86 M-6.49 -126.86 C-4.77 -132.95, -1.01 -137.77, 0 -140.38 M-6.49 -126.86 C-5.51 -129.97, -4.1 -133.89, 0 -140.38 M0 -140.38 C0 -140.38, 0 -140.38, 0 -140.38 M0 -140.38 C0 -140.38, 0 -140.38, 0 -140.38" stroke="#1e1e1e" stroke-width="2" fill="none"></path></g></g><mask></mask><g stroke-linecap="round"><g transform="translate(122.572767197963 43.621238650951454) rotate(0 38.77486240314056 0)"><path d="M0 0 C25.96 0.24, 46.23 0.43, 77.55 0 M0 0 C27.97 -0.39, 56.2 -0.45, 77.55 0" stroke="#1e1e1e" stroke-width="2" fill="none"></path></g><g transform="translate(122.572767197963 43.621238650951454) rotate(0 38.77486240314056 0)"><path d="M76.41 -1.14 L63.53 4.33 L62.19 -5.18 L77.88 0.3" stroke="none" stroke-width="0" fill="#1e1e1e" fill-rule="evenodd"></path><path d="M77.55 0 C74.72 1.4, 67.68 3.45, 63.87 6.16 M77.55 0 C72.27 2.61, 67.23 4.81, 63.87 6.16 M63.87 6.16 C64.27 3.35, 64.74 0.11, 64.04 -6.52 M63.87 6.16 C64.63 1.99, 63.97 -2.79, 64.04 -6.52 M64.04 -6.52 C69.68 -3.65, 72.62 -2.62, 77.55 0 M64.04 -6.52 C68.63 -4.62, 72.78 -2.68, 77.55 0 M77.55 0 C77.55 0, 77.55 0, 77.55 0 M77.55 0 C77.55 0, 77.55 0, 77.55 0" stroke="#1e1e1e" stroke-width="2" fill="none"></path></g></g><mask></mask><g stroke-linecap="round"><g transform="translate(122.97966890190492 182.3747196950285) rotate(0 39.331194326484365 -68.12362689583551)"><path d="M0 0 C21.1 -41.2, 44.45 -78.34, 78.66 -136.25 M0 0 C22.84 -38.98, 44.32 -75.9, 78.66 -136.25" stroke="#1971c2" stroke-width="2" fill="none"></path></g><g transform="translate(122.97966890190492 182.3747196950285) rotate(0 39.331194326484365 -68.12362689583551)"><path d="M80.66 -135 L77.58 -119.43 L65.56 -128.81 L80.39 -134.85" stroke="none" stroke-width="0" fill="#1971c2" fill-rule="evenodd"></path><path d="M78.66 -136.25 C77.6 -132.7, 77.43 -126.18, 77.42 -121.3 M78.66 -136.25 C78.1 -132.72, 77.18 -127.3, 77.42 -121.3 M77.42 -121.3 C73.16 -122.36, 69.21 -124.08, 66.41 -127.59 M77.42 -121.3 C73.3 -123.68, 70.04 -125.71, 66.41 -127.59 M66.41 -127.59 C69.14 -131.01, 73.05 -133.54, 78.66 -136.25 M66.41 -127.59 C69.77 -130.61, 74.12 -133, 78.66 -136.25 M78.66 -136.25 C78.66 -136.25, 78.66 -136.25, 78.66 -136.25 M78.66 -136.25 C78.66 -136.25, 78.66 -136.25, 78.66 -136.25" stroke="#1971c2" stroke-width="2" fill="none"></path></g></g><mask></mask><g stroke-linecap="round"><g transform="translate(122.572767197963 182.78162139896995) rotate(0 -54.34305364887314 -31.374976652763507)"><path d="M0 0 C-24.76 -15.69, -48.1 -30.89, -108.69 -62.75 M0 0 C-29.6 -19.05, -60.44 -35.21, -108.69 -62.75" stroke="#e03131" stroke-width="2" fill="none"></path></g><g transform="translate(122.572767197963 182.78162139896995) rotate(0 -54.34305364887314 -31.374976652763507)"><path d="M-109.26 -62.03 L-93.86 -60.61 L-98.78 -50.93 L-109.68 -63.64" stroke="none" stroke-width="0" fill="#e03131" fill-rule="evenodd"></path><path d="M-108.69 -62.75 C-105.04 -63.04, -100.58 -63.46, -93.73 -61.59 M-108.69 -62.75 C-104.11 -62.95, -100.21 -61.56, -93.73 -61.59 M-93.73 -61.59 C-94.92 -59.25, -95.94 -57.95, -99.96 -50.55 M-93.73 -61.59 C-94.71 -58.76, -95.89 -56.29, -99.96 -50.55 M-99.96 -50.55 C-100.97 -53.98, -104.9 -56.99, -108.69 -62.75 M-99.96 -50.55 C-103.04 -55.18, -105.8 -59.79, -108.69 -62.75 M-108.69 -62.75 C-108.69 -62.75, -108.69 -62.75, -108.69 -62.75 M-108.69 -62.75 C-108.69 -62.75, -108.69 -62.75, -108.69 -62.75" stroke="#e03131" stroke-width="2" fill="none"></path></g></g><mask></mask><g stroke-linecap="round"><g transform="translate(111.4114784278463 174.85446926427994) rotate(0 3.075871149788327 -5.327565108968429)"><path d="M-0.33 -0.06 C0.8 -1.86, 5.4 -8.71, 6.4 -10.55 M0.5 -0.57 C1.61 -2.57, 5.06 -9.77, 6.1 -11.46" stroke="#e03131" stroke-width="2" fill="none"></path></g></g><mask></mask><g stroke-linecap="round"><g transform="translate(118.68740351840097 163.07943044595322) rotate(0 5.880243110876108 3.3949599429640784)"><path d="M-0.33 0.3 C1.66 1.4, 9.89 5.77, 11.83 6.76 M0.5 -0.02 C2.44 1.16, 9.45 6.35, 11.43 7.45" stroke="#e03131" stroke-width="2" fill="none"></path></g></g><mask></mask><g stroke-linecap="round"><g transform="translate(122.14407710305841 183.26145767024946) rotate(0 -56.072038551529204 0)"><path d="M0 0 C-25.92 1.72, -48.96 0.02, -112.14 0" stroke="#e03131" stroke-width="2.5" fill="none" stroke-dasharray="8 10"></path></g><g transform="translate(122.14407710305841 183.26145767024946) rotate(0 -56.072038551529204 0)"><path d="M-113.24 -0.7 L-98.3 -4.65 L-98.76 7.75 L-111.57 -1.44" stroke="none" stroke-width="0" fill="#e03131" fill-rule="evenodd"></path><path d="M-112.14 0 C-110.02 -0.47, -105.67 -3.12, -98.51 -6.24 M-98.51 -6.24 C-99.17 -0.39, -99.09 2.52, -98.59 6.44 M-98.59 6.44 C-104.28 4.97, -108.82 1.02, -112.14 0 M-112.14 0 C-112.14 0, -112.14 0, -112.14 0" stroke="#e03131" stroke-width="2.5" fill="none"></path></g></g><mask></mask><g stroke-linecap="round"><g transform="translate(122.89504190508796 183.26145767024946) rotate(0 57.32364655491119 0)"><path d="M0 0 C23.93 -1.62, 48.06 -0.75, 114.65 0 M0 0 C28.22 -1.45, 56.65 0.09, 114.65 0" stroke="#2f9e44" stroke-width="2" fill="none"></path></g><g transform="translate(122.89504190508796 183.26145767024946) rotate(0 57.32364655491119 0)"><path d="M113.76 0.2 L100.13 4.55 L102.97 -4.46 L114.04 1.27" stroke="none" stroke-width="0" fill="#2f9e44" fill-rule="evenodd"></path><path d="M114.65 0 C111.15 0.86, 107.81 2.86, 101.02 6.27 M114.65 0 C111.01 1.06, 107.58 3.77, 101.02 6.27 M101.02 6.27 C101.4 2.12, 101.83 -3.3, 101.09 -6.41 M101.02 6.27 C101.19 3.04, 100.85 0.23, 101.09 -6.41 M101.09 -6.41 C102.68 -6.43, 107.13 -4.1, 114.65 0 M101.09 -6.41 C105.27 -4.59, 108.24 -2.72, 114.65 0 M114.65 0 C114.65 0, 114.65 0, 114.65 0 M114.65 0 C114.65 0, 114.65 0, 114.65 0" stroke="#2f9e44" stroke-width="2" fill="none"></path></g></g><mask></mask><g transform="translate(181.4844368293143 96.39842456797669) rotate(0 7 12.5)"><text x="0" y="17.619999999999997" font-family="Virgil 3 YOFF" font-size="20px" fill="#1971c2" text-anchor="start" style="white-space: pre;" direction="ltr" dominant-baseline="alphabetic">w</text></g><g transform="translate(104.55236171367324 75.08944458776068) rotate(0 5.683333396911621 12.5)"><text x="0" y="17.619999999999997" font-family="Virgil 3 YOFF" font-size="20px" fill="#1e1e1e" text-anchor="start" style="white-space: pre;" direction="ltr" dominant-baseline="alphabetic">u</text></g><g transform="translate(150.45814239107676 16.667199994134535) rotate(0 5.5 12.5)"><text x="0" y="17.619999999999997" font-family="Virgil 3 YOFF" font-size="20px" fill="#1e1e1e" text-anchor="start" style="white-space: pre;" direction="ltr" dominant-baseline="alphabetic">v</text></g><g transform="translate(170.8323234879117 190.5339274767498) rotate(0 6 12.5)"><text x="0" y="17.619999999999997" font-family="Virgil 3 YOFF" font-size="20px" fill="#2f9e44" text-anchor="start" style="white-space: pre;" direction="ltr" dominant-baseline="alphabetic">f</text></g><g transform="translate(176.16878299543532 201.97375455016027) rotate(0 4 6.675494823446115)"><text x="0" y="9.409777503129519" font-family="Virgil 3 YOFF" font-size="10.680791717513642px" fill="#2f9e44" text-anchor="start" style="white-space: pre;" direction="ltr" dominant-baseline="alphabetic">w</text></g><g transform="translate(52.21045400730782 191.48307444368356) rotate(0 6.5 12.5)"><text x="0" y="17.619999999999997" font-family="Virgil 3 YOFF" font-size="20px" fill="#e03131" text-anchor="start" style="white-space: pre;" direction="ltr" dominant-baseline="alphabetic">F</text></g><g transform="translate(60.56064461236656 205.09555997017833) rotate(0 3.644809572575923 7.289619145151846)"><text x="0" y="10.275447147006041" font-family="Virgil 3 YOFF" font-size="11.663390632242953px" fill="#e03131" text-anchor="start" style="white-space: pre;" direction="ltr" dominant-baseline="alphabetic">L</text></g><g stroke-linecap="round"><g transform="translate(70.02802015247653 194.20034670504265) rotate(0 0 1.7272696078948684)"><path d="M0.3 -0.06 C0.3 0.6, -0.07 3.01, -0.14 3.62 M0.02 -0.39 C-0.02 0.19, -0.42 2.52, -0.49 3.08" stroke="#e03131" stroke-width="1" fill="none"></path></g></g><mask></mask><g stroke-linecap="round"><g transform="translate(68.2447942336903 197.5833799913744) rotate(0 1.8585800153305172 0)"><path d="M-0.28 0 C0.36 -0.01, 3.3 -0.24, 3.96 -0.23 M0.23 -0.31 C0.82 -0.27, 3.28 -0.02, 3.8 0.1" stroke="#e03131" stroke-width="1" fill="none"></path></g></g><mask></mask><g transform="translate(71.84173647463012 127.59785194256165) rotate(0 6.5 12.5)"><text x="0" y="17.619999999999997" font-family="Virgil 3 YOFF" font-size="20px" fill="#e03131" text-anchor="start" style="white-space: pre;" direction="ltr" dominant-baseline="alphabetic">F</text></g><g transform="translate(80.19192707968887 141.21033746905596) rotate(0 3.644809572575923 7.289619145151846)"><text x="0" y="10.275447147006041" font-family="Virgil 3 YOFF" font-size="11.663390632242953px" fill="#e03131" text-anchor="start" style="white-space: pre;" direction="ltr" dominant-baseline="alphabetic">L</text></g><g transform="translate(128.1435271975579 126.2843359624876) rotate(0 5.608333110809326 12.5)"><text x="0" y="17.619999999999997" font-family="Virgil 3 YOFF" font-size="20px" fill="#1971c2" text-anchor="start" style="white-space: pre;" direction="ltr" dominant-baseline="alphabetic">θ</text></g><g transform="translate(51.69517577986062 71.65723752358463) rotate(0 30.222495121689917 5.8092253958077436)"><text x="0" y="8.18868411793061" font-family="Virgil 3 YOFF" font-size="9.294760633292405px" fill="#1e1e1e" text-anchor="start" style="white-space: pre;" direction="ltr" dominant-baseline="alphabetic">drift velocity</text></g><g stroke-linecap="round"><g transform="translate(68.83098031644477 85.24690725764822) rotate(0 15.42121114180918 2.747998987965957)"><path d="M-0.16 -0.33 C0.13 0.39, -1.11 3.47, 1.81 4.47 C4.74 5.47, 12.49 5.71, 17.4 5.69 C22.31 5.67, 29 4.63, 31.3 4.34 M0.76 0.69 C0.97 1.48, -1.33 4.41, 1.36 5.08 C4.06 5.76, 11.89 4.77, 16.94 4.73 C21.99 4.69, 29.35 4.98, 31.65 4.84" stroke="#1e1e1e" stroke-width="1" fill="none"></path></g><g transform="translate(68.83098031644477 85.24690725764822) rotate(0 15.42121114180918 2.747998987965957)"><path d="M32.26 5.71 L25.47 7.02 L26.44 2.35 L31.52 4.78" stroke="none" stroke-width="0" fill="#1e1e1e" fill-rule="evenodd"></path><path d="M31.65 4.84 C29.61 5.69, 27.87 6.46, 25.66 7.7 M31.65 4.84 C29.75 5.68, 27.57 6.91, 25.66 7.7 M25.66 7.7 C25.59 5.96, 25.89 4.53, 25.61 2.09 M25.66 7.7 C25.57 5.48, 25.56 3.37, 25.61 2.09 M25.61 2.09 C27.98 3.27, 30.69 4.19, 31.65 4.84 M25.61 2.09 C27.36 2.87, 29.48 3.91, 31.65 4.84 M31.65 4.84 C31.65 4.84, 31.65 4.84, 31.65 4.84 M31.65 4.84 C31.65 4.84, 31.65 4.84, 31.65 4.84" stroke="#1e1e1e" stroke-width="1" fill="none"></path></g></g><mask></mask><g transform="translate(52.88580063165682 10) rotate(0 39.24166666666679 5.8092253958077436)"><text x="0" y="8.18868411793061" font-family="Virgil 3 YOFF" font-size="9.294760633292405px" fill="#1e1e1e" text-anchor="start" style="white-space: pre;" direction="ltr" dominant-baseline="alphabetic">velocity due to f</text></g><g transform="translate(129.41654835981353 16.176863961861272) rotate(0 1.7058447053450436 2.8430745089085576)"><text x="0" y="4.0075978277575" font-family="Virgil 3 YOFF" font-size="4.54891921425369px" fill="#1e1e1e" text-anchor="start" style="white-space: pre;" direction="ltr" dominant-baseline="alphabetic">w</text></g><g stroke-linecap="round"><g transform="translate(107.8857737087701 22.605240151464386) rotate(0 19.799398663977172 4.285584126402227)"><path d="M-0.24 0.54 C0.1 2, -1.84 7.31, 2.19 8.51 C6.22 9.71, 17.7 7.79, 23.95 7.73 C30.2 7.67, 37.09 8.2, 39.69 8.15 M0.64 0.34 C1.14 1.91, -0.59 7.86, 3.27 9.18 C7.13 10.49, 17.7 8.57, 23.79 8.25 C29.89 7.93, 37.34 7.37, 39.84 7.25" stroke="#1e1e1e" stroke-width="1" fill="none"></path></g><g transform="translate(107.8857737087701 22.605240151464386) rotate(0 19.799398663977172 4.285584126402227)"><path d="M40.69 7.22 L32.78 11.05 L33.33 4.4 L39.49 6.5" stroke="none" stroke-width="0" fill="#1e1e1e" fill-rule="evenodd"></path><path d="M39.84 7.25 C37.91 8.28, 35.15 10.03, 32.8 11.08 M39.84 7.25 C37.9 8.25, 36.16 9.21, 32.8 11.08 M32.8 11.08 C32.74 9.3, 32.41 8.1, 32.38 4.31 M32.8 11.08 C32.6 8.82, 32.43 6.87, 32.38 4.31 M32.38 4.31 C34.38 4.75, 35.88 5.43, 39.84 7.25 M32.38 4.31 C34.11 5.06, 35.71 5.57, 39.84 7.25 M39.84 7.25 C39.84 7.25, 39.84 7.25, 39.84 7.25 M39.84 7.25 C39.84 7.25, 39.84 7.25, 39.84 7.25" stroke="#1e1e1e" stroke-width="1" fill="none"></path></g></g><mask></mask></svg>
