<svg version="1.1" xmlns="http://www.w3.org/2000/svg" viewBox="0 0 472.63877083241937 256.0103847323321" width="945.2775416648387" height="512.0207694646642">
  <!-- svg-source:excalidraw -->
  <g stroke-linecap="round" transform="translate(147.05272750421295 36.21307963163008) rotate(0 20.38969393804325 86.65619923668407)"><path d="M10.19 0 C15.69 -3.07, 22.39 3.4, 30.58 0 C34.43 -0.36, 42.31 6.1, 40.78 10.19 C37.62 45.87, 37.28 77.76, 40.78 163.12 C42.05 169.25, 40.03 175.3, 30.58 173.31 C23.01 171.36, 20.08 174.22, 10.19 173.31 C2.63 176.79, 0.81 171.35, 0 163.12 C1.61 122.17, 3.54 84.14, 0 10.19 C-0.47 3.31, 3.58 -2.3, 10.19 0" stroke="none" stroke-width="0" fill="#ffc9c9"></path><path d="M10.19 0 C19.72 -1.02, 27.14 1.31, 30.58 0 M10.19 0 C14.94 0.46, 21.06 -0.3, 30.58 0 M30.58 0 C35.44 -1.71, 41 3.69, 40.78 10.19 M30.58 0 C35.62 -0.01, 42.4 4.96, 40.78 10.19 M40.78 10.19 C40.45 43.84, 40.13 75.57, 40.78 163.12 M40.78 10.19 C42.84 64.13, 43.09 117.31, 40.78 163.12 M40.78 163.12 C38.87 168.43, 36.14 174.03, 30.58 173.31 M40.78 163.12 C39.88 169.91, 36.44 174.36, 30.58 173.31 M30.58 173.31 C25.56 171.96, 18.49 173.75, 10.19 173.31 M30.58 173.31 C22.94 173.82, 16.63 173.2, 10.19 173.31 M10.19 173.31 C4.29 171.62, -1.2 171.22, 0 163.12 M10.19 173.31 C3.37 174.3, 2.25 168.13, 0 163.12 M0 163.12 C-0.95 109.78, -0.15 54.3, 0 10.19 M0 163.12 C-1.14 114.43, -0.64 64.83, 0 10.19 M0 10.19 C0.41 1.42, 5.2 -1.16, 10.19 0 M0 10.19 C1.49 4.86, 2.18 -2.3, 10.19 0" stroke="#e03131" stroke-width="2" fill="none"></path></g><g stroke-linecap="round"><g transform="translate(76.04207748767908 187.9431231047497) rotate(89.99999999999994 1.1368683772161603e-13 -65.55786931251191)"><path d="M-0.43 0.48 C-0.32 -21.66, -0.59 -109.65, -0.39 -131.71 M1.55 -0.31 C1.56 -21.79, -1.35 -108.72, -1.54 -130.49" stroke="#1e1e1e" stroke-width="2" fill="none"></path></g></g><mask></mask><g stroke-linecap="round"><g transform="translate(60.42073029849962 120.98067088179369) rotate(89.99999999999994 85.40815690670297 0)"><path d="M-0.39 -0.6 C28.28 -0.8, 143.07 -0.81, 171.58 -0.74 M1.61 1.7 C30.23 1.6, 143 0.51, 171.04 0.4" stroke="#1e1e1e" stroke-width="2" fill="none"></path></g></g><mask></mask><g stroke-linecap="round"><g transform="translate(405.0165835893001 54.772323539809804) rotate(89.99999999999994 0 56.87748900139388)"><path d="M0.77 -0.74 C0.81 18.28, -0.03 94.38, -0.13 113.58 M-0.29 1.48 C-0.38 20.75, -1.11 96.53, -1.14 115.02" stroke="#1e1e1e" stroke-width="2" fill="none"></path></g></g><mask></mask><g stroke-linecap="round"><g transform="translate(261.421305784688 118.80083056015928) rotate(89.99999999999994 85.40815690670297 0)"><path d="M-0.13 -0.18 C28.24 0.06, 142.53 0.83, 171.01 0.67 M-1.66 -1.31 C26.51 -1.36, 141.56 -1.25, 170.16 -1.11" stroke="#1e1e1e" stroke-width="2" fill="none"></path></g></g><mask></mask><g stroke-linecap="round"><g transform="translate(188.72043302606812 39.41844832766628) rotate(0 0 88.1670208981891)"><path d="M-0.38 -0.42 C-0.33 28.89, 0.5 146.76, 0.74 176.27" stroke="#e03131" stroke-width="2.5" fill="none" stroke-dasharray="8 10"></path></g></g><mask></mask><g stroke-linecap="round"><g transform="translate(188.51308666345062 211.43206544587656) rotate(0 79.16884469096897 0)"><path d="M-0.52 -0.93 C26.03 -0.9, 131.93 1.17, 158.52 1.15 M1.42 1.19 C27.88 0.84, 131.47 -0.12, 157.67 -0.37" stroke="#1971c2" stroke-width="2" fill="none"></path></g><g transform="translate(188.51308666345062 211.43206544587656) rotate(0 79.16884469096897 0)"><path d="M-1.66 0.84 L11.18 -8.37 L14.17 5.92 L-0.57 -2.39" stroke="none" stroke-width="0" fill="#1971c2" fill-rule="evenodd"></path><path d="M-0.52 -0.93 C1.54 -2.11, 7.42 -2.96, 13.17 -7.08 M-0.52 -0.93 C2.34 -1.83, 5.59 -3.38, 13.17 -7.08 M13.17 -7.08 C13.55 -1.33, 13.19 3.41, 12.99 5.6 M13.17 -7.08 C12.95 -2.38, 13.06 2.19, 12.99 5.6 M12.99 5.6 C8.17 3.04, 6.13 3.4, -0.52 -0.93 M12.99 5.6 C10.31 3.41, 6.64 1.82, -0.52 -0.93 M-0.52 -0.93 C-0.52 -0.93, -0.52 -0.93, -0.52 -0.93 M-0.52 -0.93 C-0.52 -0.93, -0.52 -0.93, -0.52 -0.93" stroke="#1971c2" stroke-width="2" fill="none"></path></g><g transform="translate(188.51308666345062 211.43206544587656) rotate(0 79.16884469096897 0)"><path d="M156.52 1.4 L142.14 4.81 L145.2 -6.26 L157.61 -1.82" stroke="none" stroke-width="0" fill="#1971c2" fill-rule="evenodd"></path><path d="M157.67 -0.37 C153.32 1.35, 152.69 3.52, 144.14 6.1 M157.67 -0.37 C154.79 1.21, 152.25 2.34, 144.14 6.1 M144.14 6.1 C144.75 2.14, 144.42 -2.82, 144.02 -6.58 M144.14 6.1 C143.79 2.08, 143.92 -2.06, 144.02 -6.58 M144.02 -6.58 C146.55 -5.6, 151.82 -1.81, 157.67 -0.37 M144.02 -6.58 C147.85 -5.52, 150.72 -4.04, 157.67 -0.37 M157.67 -0.37 C157.67 -0.37, 157.67 -0.37, 157.67 -0.37 M157.67 -0.37 C157.67 -0.37, 157.67 -0.37, 157.67 -0.37" stroke="#1971c2" stroke-width="2" fill="none"></path></g></g><mask></mask><g stroke-linecap="round"><g transform="translate(143.56098690079943 211.98470201653936) rotate(0 23.372648828865408 -0.013528818309055168)"><path d="M0 0 C12.34 0.55, 25.68 0.19, 46.75 -0.03 M0 0 C10.16 0.2, 19.37 0.43, 46.75 -0.03" stroke="#e03131" stroke-width="2" fill="none"></path></g><g transform="translate(143.56098690079943 211.98470201653936) rotate(0 23.372648828865408 -0.013528818309055168)"><path d="M-0.53 0.78 L14.26 -6.82 L13.23 7.23 L-0.23 0.62" stroke="none" stroke-width="0" fill="#e03131" fill-rule="evenodd"></path><path d="M0 0 C3.44 -1.32, 7.66 -3.28, 13.63 -6.26 M0 0 C3.07 -1.2, 5.44 -2.36, 13.63 -6.26 M13.63 -6.26 C13.96 -2.82, 13.91 0.03, 13.56 6.42 M13.63 -6.26 C13.36 -3.38, 13.51 0.08, 13.56 6.42 M13.56 6.42 C10.85 4.32, 8 3.03, 0 0 M13.56 6.42 C8 3.97, 2.81 1.68, 0 0 M0 0 C0 0, 0 0, 0 0 M0 0 C0 0, 0 0, 0 0" stroke="#e03131" stroke-width="2" fill="none"></path></g><g transform="translate(143.56098690079943 211.98470201653936) rotate(0 23.372648828865408 -0.013528818309055168)"><path d="M46.21 0.76 L33.86 5.92 L32.75 -5.39 L46.51 0.59" stroke="none" stroke-width="0" fill="#e03131" fill-rule="evenodd"></path><path d="M46.75 -0.03 C42.91 2.04, 39.8 3.53, 33.23 6.48 M46.75 -0.03 C44.09 1.43, 40.7 2.98, 33.23 6.48 M33.23 6.48 C33.41 4.09, 33.35 1.12, 33.07 -6.2 M33.23 6.48 C32.87 3.11, 33 0.33, 33.07 -6.2 M33.07 -6.2 C36.58 -5.53, 39.88 -3.96, 46.75 -0.03 M33.07 -6.2 C38.14 -3.81, 43.56 -1.18, 46.75 -0.03 M46.75 -0.03 C46.75 -0.03, 46.75 -0.03, 46.75 -0.03 M46.75 -0.03 C46.75 -0.03, 46.75 -0.03, 46.75 -0.03" stroke="#e03131" stroke-width="2" fill="none"></path></g></g><mask></mask><g stroke-linecap="round"><g transform="translate(142.3445125447504 43.9839052415814) rotate(0 -29.589858118257553 -0.584327206553553)"><path d="M0 0 C-15.31 0.05, -29.85 1.17, -59.18 -1.17 M0 0 C-14.87 -0.91, -27.88 0.36, -59.18 -1.17" stroke="#2f9e44" stroke-width="2" fill="none"></path></g><g transform="translate(142.3445125447504 43.9839052415814) rotate(0 -29.589858118257553 -0.584327206553553)"><path d="M-57.48 -0.19 L-45.72 -7.01 L-45.31 5.78 L-59.1 0.01" stroke="none" stroke-width="0" fill="#2f9e44" fill-rule="evenodd"></path><path d="M-59.18 -1.17 C-56.97 -2.23, -54.18 -2.58, -45.39 -7.07 M-59.18 -1.17 C-56.28 -3.44, -51.95 -3.71, -45.39 -7.07 M-45.39 -7.07 C-46.76 -1.34, -46.79 1.74, -45.79 5.6 M-45.39 -7.07 C-45.84 -3.06, -45.82 1.63, -45.79 5.6 M-45.79 5.6 C-49.37 5.05, -51.63 1.81, -59.18 -1.17 M-45.79 5.6 C-50.99 3.28, -55.06 0.64, -59.18 -1.17 M-59.18 -1.17 C-59.18 -1.17, -59.18 -1.17, -59.18 -1.17 M-59.18 -1.17 C-59.18 -1.17, -59.18 -1.17, -59.18 -1.17" stroke="#2f9e44" stroke-width="2" fill="none"></path></g></g><mask></mask><g stroke-linecap="round"><g transform="translate(185.11160298305435 44.1653376598797) rotate(0 18.748077520409197 0)"><path d="M0 0 C10.72 0, 21.85 0.01, 37.5 0 M0 0 C13.73 0.15, 27.77 0.35, 37.5 0" stroke="#2f9e44" stroke-width="2" fill="none"></path></g><g transform="translate(185.11160298305435 44.1653376598797) rotate(0 18.748077520409197 0)"><path d="M36.67 0.42 L24.47 7.21 L23.15 -7.06 L37.84 0.4" stroke="none" stroke-width="0" fill="#2f9e44" fill-rule="evenodd"></path><path d="M37.5 0 C33.75 1.92, 30.3 3.79, 24.02 6.59 M37.5 0 C32.38 2.39, 27.54 4.97, 24.02 6.59 M24.02 6.59 C23.88 3.68, 24.27 1.3, 23.79 -6.09 M24.02 6.59 C24.06 2.85, 23.69 -0.77, 23.79 -6.09 M23.79 -6.09 C29.7 -4.23, 34.45 -1.41, 37.5 0 M23.79 -6.09 C26.47 -4.75, 29.46 -3.89, 37.5 0 M37.5 0 C37.5 0, 37.5 0, 37.5 0 M37.5 0 C37.5 0, 37.5 0, 37.5 0" stroke="#2f9e44" stroke-width="2" fill="none"></path></g></g><mask></mask><g transform="translate(256.4469513107572 210.7219049733917) rotate(0 7.945777469514724 17.381388214563458)"><text x="0" y="24.50080482724867" font-family="'Virgil 3 YOFF'" font-size="27.810221143301554px" fill="#1971c2" text-anchor="start" style="white-space: pre;" direction="ltr" dominant-baseline="alphabetic">d</text></g><g transform="translate(148.47203045165884 211.2476083032052) rotate(0 16.85166971659578 17.381388214563458)"><text x="0" y="24.50080482724867" font-family="'Virgil 3 YOFF'" font-size="27.810221143301554px" fill="#e03131" text-anchor="start" style="white-space: pre;" direction="ltr" dominant-baseline="alphabetic">dx</text></g><g transform="translate(200.96371840428492 49.737068741591884) rotate(0 19.243679808981028 17.381388214563458)"><text x="0" y="24.50080482724867" font-family="'Virgil 3 YOFF'" font-size="27.810221143301554px" fill="#2f9e44" text-anchor="start" style="white-space: pre;" direction="ltr" dominant-baseline="alphabetic">Fel</text></g><g transform="translate(112.9038165793429 10) rotate(0 9 17.5)"><text x="0" y="24.668" font-family="'Virgil 3 YOFF'" font-size="28px" fill="#2f9e44" text-anchor="start" style="white-space: pre;" direction="ltr" dominant-baseline="alphabetic">F</text></g></svg>