<svg version="1.1" xmlns="http://www.w3.org/2000/svg" viewBox="0 0 708.779065981324 335.6607232500064" width="1417.558131962648" height="671.3214465000128">
  <!-- svg-source:excalidraw -->
  
    <g stroke-linecap="round"><g transform="translate(289.9816721582033 325.6607232500064) rotate(0 -116.0001423345368 -116.00014233453703)"><path d="M0 0 C-71.5 -67.7, -139.25 -137.01, -232 -232 M0 0 C-62.03 -62.57, -125.74 -125.5, -232 -232" stroke="#1971c2" stroke-width="1" fill="none"></path></g><g transform="translate(289.9816721582033 325.6607232500064) rotate(0 -116.0001423345368 -116.00014233453703)"><path d="M-231.26 -233.32 L-217.63 -227.85 L-228.13 -217.1 L-231.36 -230.61" stroke="none" stroke-width="0" fill="#1971c2" fill-rule="evenodd"></path><path d="M-232 -232 C-229.09 -229.13, -223.11 -227.54, -217.9 -226.87 M-232 -232 C-228.12 -230.14, -225.06 -228.67, -217.9 -226.87 M-217.9 -226.87 C-219.53 -225.97, -221.65 -223.33, -226.87 -217.9 M-217.9 -226.87 C-220.69 -224.93, -223.25 -222.41, -226.87 -217.9 M-226.87 -217.9 C-228.06 -222.29, -228.99 -226.17, -232 -232 M-226.87 -217.9 C-228.65 -223.85, -229.93 -228.9, -232 -232 M-232 -232 C-232 -232, -232 -232, -232 -232 M-232 -232 C-232 -232, -232 -232, -232 -232" stroke="#1971c2" stroke-width="1" fill="none"></path></g></g><mask></mask><g stroke-linecap="round"><g transform="translate(56.81508218095087 213.03889814235708) rotate(0 139.70234213547405 0)"><path d="M0 0 C77.07 -2.3, 154.41 -0.08, 279.4 0 M0 0 C55.74 -0.7, 112.69 -1.6, 279.4 0" stroke="#1971c2" stroke-width="1" fill="none"></path></g><g transform="translate(56.81508218095087 213.03889814235708) rotate(0 139.70234213547405 0)"><path d="M279.32 -1.36 L264.72 5.81 L267.33 -7.67 L277.93 1.81" stroke="none" stroke-width="0" fill="#1971c2" fill-rule="evenodd"></path><path d="M279.4 0 C276.21 0.74, 273.22 4.62, 265.77 6.25 M279.4 0 C276.41 1.71, 274.59 2.09, 265.77 6.25 M265.77 6.25 C265.41 1.92, 266.49 -4.42, 265.85 -6.43 M265.77 6.25 C265.87 3.92, 265.91 0.97, 265.85 -6.43 M265.85 -6.43 C267.87 -5.75, 271.61 -3.67, 279.4 0 M265.85 -6.43 C270.03 -5.03, 273.44 -2.63, 279.4 0 M279.4 0 C279.4 0, 279.4 0, 279.4 0 M279.4 0 C279.4 0, 279.4 0, 279.4 0" stroke="#1971c2" stroke-width="1" fill="none"></path></g></g><mask></mask><g stroke-linecap="round"><g transform="translate(174.43390441424526 215.45494384170343) rotate(0 0 -94.28200094774911)"><path d="M0 0 C0.85 -54.33, 0.05 -113.09, 0 -188.56 M0 0 C-0.14 -73.97, -1.77 -147.02, 0 -188.56" stroke="#1971c2" stroke-width="1" fill="none"></path></g><g transform="translate(174.43390441424526 215.45494384170343) rotate(0 0 -94.28200094774911)"><path d="M-0.97 -186.84 L4.49 -175.92 L-5.99 -173.3 L1.05 -187.75" stroke="none" stroke-width="0" fill="#1971c2" fill-rule="evenodd"></path><path d="M0 -188.56 C1.38 -183.36, 2.59 -181.52, 6.1 -174.86 M0 -188.56 C3.12 -183.47, 4.28 -177.66, 6.1 -174.86 M6.1 -174.86 C1.85 -173.85, -1.61 -173.97, -6.58 -175.08 M6.1 -174.86 C3.59 -175.2, 1.1 -175.61, -6.58 -175.08 M-6.58 -175.08 C-4.24 -180.68, -1.4 -184.45, 0 -188.56 M-6.58 -175.08 C-4.83 -179.65, -1.65 -184.63, 0 -188.56 M0 -188.56 C0 -188.56, 0 -188.56, 0 -188.56 M0 -188.56 C0 -188.56, 0 -188.56, 0 -188.56" stroke="#1971c2" stroke-width="1" fill="none"></path></g></g><mask></mask><g stroke-linecap="round"><g transform="translate(175.60428146876848 213.03889814235663) rotate(0 -37.31925180807684 -37.31925180807684)"><path d="M0 0 C-14.44 -17.65, -29.86 -32.3, -74.64 -74.64 M0 0 C-28.45 -27.5, -55.7 -54.29, -74.64 -74.64" stroke="#e03131" stroke-width="2" fill="none"></path></g><g transform="translate(175.60428146876848 213.03889814235663) rotate(0 -37.31925180807684 -37.31925180807684)"><path d="M-74.79 -72.99 L-60 -67.83 L-67.92 -62.12 L-74.17 -76.58" stroke="none" stroke-width="0" fill="#e03131" fill-rule="evenodd"></path><path d="M-74.64 -74.64 C-70.92 -74.77, -67.72 -72.8, -60.65 -69.22 M-74.64 -74.64 C-70.1 -72.98, -65.12 -70.78, -60.65 -69.22 M-60.65 -69.22 C-62.88 -67, -67.63 -62.97, -69.8 -60.44 M-60.65 -69.22 C-63.41 -67.1, -65.66 -65.46, -69.8 -60.44 M-69.8 -60.44 C-72.48 -63.79, -72.14 -68.64, -74.64 -74.64 M-69.8 -60.44 C-71.3 -65.36, -74 -71.18, -74.64 -74.64 M-74.64 -74.64 C-74.64 -74.64, -74.64 -74.64, -74.64 -74.64 M-74.64 -74.64 C-74.64 -74.64, -74.64 -74.64, -74.64 -74.64" stroke="#e03131" stroke-width="2" fill="none"></path></g></g><mask></mask><g stroke-linecap="round"><g transform="translate(174.99212655124347 212.42674322483163) rotate(0 36.720580085683196 36.720580085683196)"><path d="M0 0 C21.01 20.91, 41 39.8, 73.44 73.44 M0 0 C20.14 19.9, 40.14 39.38, 73.44 73.44" stroke="#e03131" stroke-width="2" fill="none"></path></g><g transform="translate(174.99212655124347 212.42674322483163) rotate(0 36.720580085683196 36.720580085683196)"><path d="M73.66 74.69 L57.56 69.68 L67.39 57.34 L71.63 74.55" stroke="none" stroke-width="0" fill="#e03131" fill-rule="evenodd"></path><path d="M73.44 73.44 C70.38 71.69, 66.03 68.99, 59.38 68.21 M73.44 73.44 C69.59 72.76, 66.14 71.27, 59.38 68.21 M59.38 68.21 C61.78 64.58, 66.47 60.65, 68.41 59.31 M59.38 68.21 C61.9 66.08, 65.25 62.72, 68.41 59.31 M68.41 59.31 C68.96 63.2, 72.73 68.7, 73.44 73.44 M68.41 59.31 C69.36 64.56, 71.86 69.83, 73.44 73.44 M73.44 73.44 C73.44 73.44, 73.44 73.44, 73.44 73.44 M73.44 73.44 C73.44 73.44, 73.44 73.44, 73.44 73.44" stroke="#e03131" stroke-width="2" fill="none"></path></g></g><mask></mask><g transform="translate(183.1651572597243 25.45668715490183) rotate(0 5 10)"><text x="0" y="14.096" font-family="Virgil 3 YOFF" font-size="16px" fill="#1971c2" text-anchor="start" style="white-space: pre;" direction="ltr" dominant-baseline="alphabetic">z</text></g><g transform="translate(321.8548382207914 181.1168354065626) rotate(0 4.5 10)"><text x="0" y="14.096" font-family="Virgil 3 YOFF" font-size="16px" fill="#1971c2" text-anchor="start" style="white-space: pre;" direction="ltr" dominant-baseline="alphabetic">y</text></g><g transform="translate(74.9052797162758 67.59026111775665) rotate(0 5.5 10)"><text x="0" y="14.096" font-family="Virgil 3 YOFF" font-size="16px" fill="#1971c2" text-anchor="start" style="white-space: pre;" direction="ltr" dominant-baseline="alphabetic">x</text></g><g stroke-linecap="round"><g transform="translate(173.26759910606597 212.52900120539425) rotate(0 38.6224427992845 -54.12993877172448)"><path d="M0 0 C26.32 -35.34, 51.91 -68.09, 77.24 -108.26 M0 0 C19.77 -30.45, 41.05 -60.08, 77.24 -108.26" stroke="#1e1e1e" stroke-width="2" fill="none"></path></g><g transform="translate(173.26759910606597 212.52900120539425) rotate(0 38.6224427992845 -54.12993877172448)"><path d="M78.36 -107.7 L73.68 -95.27 L62.09 -100.88 L77.47 -107.54" stroke="none" stroke-width="0" fill="#1e1e1e" fill-rule="evenodd"></path><path d="M77.24 -108.26 C77.06 -103.99, 76.38 -97.29, 74.22 -93.57 M77.24 -108.26 C76.06 -104.13, 75.19 -99.88, 74.22 -93.57 M74.22 -93.57 C72.37 -95.83, 67.11 -99.08, 64.05 -101.13 M74.22 -93.57 C70.02 -96.48, 65.76 -100.13, 64.05 -101.13 M64.05 -101.13 C66.57 -103.53, 69.99 -104.24, 77.24 -108.26 M64.05 -101.13 C68.28 -103.77, 73.1 -106.03, 77.24 -108.26 M77.24 -108.26 C77.24 -108.26, 77.24 -108.26, 77.24 -108.26 M77.24 -108.26 C77.24 -108.26, 77.24 -108.26, 77.24 -108.26" stroke="#1e1e1e" stroke-width="2" fill="none"></path></g></g><mask></mask><g transform="translate(257.53474703177744 87.13941048039806) rotate(0 6.5 12.5)"><text x="0" y="17.619999999999997" font-family="Virgil 3 YOFF" font-size="20px" fill="#1e1e1e" text-anchor="start" style="white-space: pre;" direction="ltr" dominant-baseline="alphabetic">m</text></g><g stroke-linecap="round"><g transform="translate(173.26759910606597 170.98061576980035) rotate(0 11.99636480886852 4.3889139544639875)"><path d="M0.2 -0.4 C2.64 -0.55, 10.67 -2.3, 14.55 -0.63 C18.42 1.04, 21.87 8.06, 23.46 9.64 M-0.35 0.58 C2.01 0.49, 9.93 -1.31, 14.07 0.05 C18.22 1.4, 22.8 7.22, 24.51 8.71" stroke="#1e1e1e" stroke-width="2" fill="none"></path></g></g><mask></mask><g transform="translate(182.04542701499395 146.40269762480148) rotate(0 5.608333110809326 12.5)"><text x="0" y="17.619999999999997" font-family="Virgil 3 YOFF" font-size="20px" fill="#1e1e1e" text-anchor="start" style="white-space: pre;" direction="ltr" dominant-baseline="alphabetic">θ</text></g><g transform="translate(89.00045118035405 141.72118940670634) rotate(0 5 12.5)"><text x="0" y="17.619999999999997" font-family="Virgil 3 YOFF" font-size="20px" fill="#e03131" text-anchor="start" style="white-space: pre;" direction="ltr" dominant-baseline="alphabetic">r</text></g><g transform="translate(95.43752498023514 155.3397714246821) rotate(0 6.658333333333303 7.636738639904024)"><text x="0" y="10.76474678680875" font-family="Virgil 3 YOFF" font-size="12.21878182384648px" fill="#e03131" text-anchor="start" style="white-space: pre;" direction="ltr" dominant-baseline="alphabetic">12</text></g><g transform="translate(245.31712268945557 256.60182428269036) rotate(0 5 12.5)"><text x="0" y="17.619999999999997" font-family="Virgil 3 YOFF" font-size="20px" fill="#e03131" text-anchor="start" style="white-space: pre;" direction="ltr" dominant-baseline="alphabetic">r</text></g><g transform="translate(251.75419648933712 270.2204063006666) rotate(0 8.174999999999955 7.636738639904024)"><text x="0" y="10.76474678680875" font-family="Virgil 3 YOFF" font-size="12.21878182384648px" fill="#e03131" text-anchor="start" style="white-space: pre;" direction="ltr" dominant-baseline="alphabetic">34</text></g><g stroke-linecap="round"><g transform="translate(173.26759910606597 208.43268151456095) rotate(0 0 -69.0522462169024)"><path d="M0 0 C-0.56 -41.57, -0.38 -82.2, 0 -138.1 M0 0 C0.7 -49.61, 1.15 -97.19, 0 -138.1" stroke="#2f9e44" stroke-width="2" fill="none"></path></g><g transform="translate(173.26759910606597 208.43268151456095) rotate(0 0 -69.0522462169024)"><path d="M0.08 -138.03 L5.87 -124.08 L-6.71 -123.26 L-1.98 -137.49" stroke="none" stroke-width="0" fill="#2f9e44" fill-rule="evenodd"></path><path d="M0 -138.1 C1.44 -134.09, 3.55 -129.36, 6.56 -124.62 M0 -138.1 C2.02 -133.64, 4.69 -127.73, 6.56 -124.62 M6.56 -124.62 C2.9 -124.42, 0.91 -125.26, -6.11 -124.41 M6.56 -124.62 C2.79 -124.59, -0.24 -124.45, -6.11 -124.41 M-6.11 -124.41 C-5.48 -126.32, -4.66 -131.23, 0 -138.1 M-6.11 -124.41 C-5.23 -127.72, -3.28 -132.1, 0 -138.1 M0 -138.1 C0 -138.1, 0 -138.1, 0 -138.1 M0 -138.1 C0 -138.1, 0 -138.1, 0 -138.1" stroke="#2f9e44" stroke-width="2" fill="none"></path></g></g><mask></mask><g transform="translate(188.48250081487504 78.97272087251304) rotate(0 6.5 10)"><text x="0" y="14.096" font-family="Virgil 3 YOFF" font-size="16px" fill="#2f9e44" text-anchor="start" style="white-space: pre;" direction="ltr" dominant-baseline="alphabetic">B</text></g><g stroke-linecap="round"><g transform="translate(101.28941025285394 138.07676212596334) rotate(0 -45.64470512642697 0)"><path d="M0 0 C-25.87 0.7, -51.55 2.48, -91.29 0 M0 0 C-26.9 1.46, -52.9 -0.12, -91.29 0" stroke="#f08c00" stroke-width="2" fill="none"></path></g><g transform="translate(101.28941025285394 138.07676212596334) rotate(0 -45.64470512642697 0)"><path d="M-91.04 -0.42 L-77.27 -4.68 L-79.38 8.36 L-90.02 1.65" stroke="none" stroke-width="0" fill="#f08c00" fill-rule="evenodd"></path><path d="M-91.29 0 C-87.36 -1.94, -83.31 -2.38, -77.65 -6.24 M-91.29 0 C-87.33 -1.46, -82.69 -4.49, -77.65 -6.24 M-77.65 -6.24 C-78.11 -0.54, -77.15 4.56, -77.74 6.44 M-77.65 -6.24 C-78.07 -2.09, -78.13 0.73, -77.74 6.44 M-77.74 6.44 C-82.42 3.4, -86.44 3.13, -91.29 0 M-77.74 6.44 C-81.81 4.62, -86.22 2.35, -91.29 0 M-91.29 0 C-91.29 0, -91.29 0, -91.29 0 M-91.29 0 C-91.29 0, -91.29 0, -91.29 0" stroke="#f08c00" stroke-width="2" fill="none"></path></g></g><mask></mask><g stroke-linecap="round"><g transform="translate(244.66059943201617 284.9590824686966) rotate(0 57.64106993529572 0)"><path d="M0 0 C39.2 0.15, 74.34 0.77, 115.28 0 M0 0 C44.21 -0.85, 87.08 0.18, 115.28 0" stroke="#f08c00" stroke-width="2" fill="none"></path></g><g transform="translate(244.66059943201617 284.9590824686966) rotate(0 57.64106993529572 0)"><path d="M117.28 -0.95 L100.07 4.68 L101.79 -4.46 L113.36 -0.18" stroke="none" stroke-width="0" fill="#f08c00" fill-rule="evenodd"></path><path d="M115.28 0 C111.82 1.47, 105.35 4, 101.67 6.3 M115.28 0 C110.83 1.86, 105.43 4.99, 101.67 6.3 M101.67 6.3 C101.9 2.6, 100.64 -1.86, 101.71 -6.38 M101.67 6.3 C101.51 1.85, 101.3 -2.5, 101.71 -6.38 M101.71 -6.38 C108.33 -3.73, 111.98 -2.4, 115.28 0 M101.71 -6.38 C106.92 -3.72, 112.22 -1.03, 115.28 0 M115.28 0 C115.28 0, 115.28 0, 115.28 0 M115.28 0 C115.28 0, 115.28 0, 115.28 0" stroke="#f08c00" stroke-width="2" fill="none"></path></g></g><mask></mask><g transform="translate(10.071334730177568 102.56394549564357) rotate(0 6.5 12.5)"><text x="0" y="17.619999999999997" font-family="Virgil 3 YOFF" font-size="20px" fill="#f08c00" text-anchor="start" style="white-space: pre;" direction="ltr" dominant-baseline="alphabetic">F</text></g><g transform="translate(16.508408530059114 116.18252751361888) rotate(0 6.658333333333303 7.636738639904024)"><text x="0" y="10.76474678680875" font-family="Virgil 3 YOFF" font-size="12.21878182384648px" fill="#f08c00" text-anchor="start" style="white-space: pre;" direction="ltr" dominant-baseline="alphabetic">12</text></g><g transform="translate(315.5397459608821 254.71296258373422) rotate(0 6.5 12.5)"><text x="0" y="17.619999999999997" font-family="Virgil 3 YOFF" font-size="20px" fill="#f08c00" text-anchor="start" style="white-space: pre;" direction="ltr" dominant-baseline="alphabetic">F</text></g><g transform="translate(321.97681976076365 268.33154460170863) rotate(0 8.174999999999955 7.636738639904024)"><text x="0" y="10.76474678680875" font-family="Virgil 3 YOFF" font-size="12.21878182384648px" fill="#f08c00" text-anchor="start" style="white-space: pre;" direction="ltr" dominant-baseline="alphabetic">34</text></g><g stroke-linecap="round"><g transform="translate(667.1654303004625 63.35027715364595) rotate(0 -63.132437275940674 0)"><path d="M0 0 C-38.93 0.34, -79.22 2.94, -126.26 0 M0 0 C-41.33 0.11, -82.83 0.72, -126.26 0" stroke="#1e1e1e" stroke-width="2" fill="none"></path></g><g transform="translate(667.1654303004625 63.35027715364595) rotate(0 -63.132437275940674 0)"><path d="M-126.91 -1.39 L-111.53 -6.07 L-113.87 7.04 L-126.07 -1.76" stroke="none" stroke-width="0" fill="#1e1e1e" fill-rule="evenodd"></path><path d="M-126.26 0 C-122.13 -2.62, -119 -2.58, -112.62 -6.22 M-126.26 0 C-121.27 -2.88, -116.45 -4.49, -112.62 -6.22 M-112.62 -6.22 C-111.56 -3.16, -113.49 2.45, -112.73 6.46 M-112.62 -6.22 C-112.19 -0.72, -112.63 3.92, -112.73 6.46 M-112.73 6.46 C-118.74 3.28, -124.34 1.23, -126.26 0 M-112.73 6.46 C-116.63 4.69, -120.94 2.81, -126.26 0 M-126.26 0 C-126.26 0, -126.26 0, -126.26 0 M-126.26 0 C-126.26 0, -126.26 0, -126.26 0" stroke="#1e1e1e" stroke-width="2" fill="none"></path></g></g><mask></mask><g stroke-linecap="round"><g transform="translate(540.4512145580052 62.45159477249399) rotate(0 -37.07064822252755 37.07064822252755)"><path d="M0 0 C-21.25 21.91, -40.12 42.17, -74.14 74.14 M0 0 C-27.12 26.08, -54.5 53.96, -74.14 74.14" stroke="#1e1e1e" stroke-width="2" fill="none"></path></g><g transform="translate(540.4512145580052 62.45159477249399) rotate(0 -37.07064822252755 37.07064822252755)"><path d="M-75.67 72.44 L-68.8 59.82 L-59.62 66.98 L-74.57 73" stroke="none" stroke-width="0" fill="#1e1e1e" fill-rule="evenodd"></path><path d="M-74.14 74.14 C-73.41 70.92, -70.8 66.83, -69.16 59.99 M-74.14 74.14 C-72.11 68.54, -70.91 64.42, -69.16 59.99 M-69.16 59.99 C-66.22 61, -64.51 65.21, -60.1 68.86 M-69.16 59.99 C-65.83 63.05, -63.52 66.14, -60.1 68.86 M-60.1 68.86 C-65.88 71.24, -67.56 72.6, -74.14 74.14 M-60.1 68.86 C-62.97 70.6, -66.6 71.4, -74.14 74.14 M-74.14 74.14 C-74.14 74.14, -74.14 74.14, -74.14 74.14 M-74.14 74.14 C-74.14 74.14, -74.14 74.14, -74.14 74.14" stroke="#1e1e1e" stroke-width="2" fill="none"></path></g></g><mask></mask><g stroke-linecap="round"><g transform="translate(465.8605769223741 136.14355002697266) rotate(0 65.15447263353326 0)"><path d="M0 0 C29.22 -0.01, 61.33 2.05, 130.31 0 M0 0 C48.38 0.94, 96.33 -0.4, 130.31 0" stroke="#1e1e1e" stroke-width="2" fill="none"></path></g><g transform="translate(465.8605769223741 136.14355002697266) rotate(0 65.15447263353326 0)"><path d="M131.78 1.29 L115.85 4.96 L116.01 -8.06 L129.39 0.67" stroke="none" stroke-width="0" fill="#1e1e1e" fill-rule="evenodd"></path><path d="M130.31 0 C126.75 0.76, 125.39 3.76, 116.71 6.34 M130.31 0 C125.17 2.96, 119.65 4.32, 116.71 6.34 M116.71 6.34 C116.78 3.14, 117.47 -2.46, 116.71 -6.34 M116.71 6.34 C116.45 1.69, 116.52 -2.84, 116.71 -6.34 M116.71 -6.34 C120.1 -4.02, 124.51 -2.59, 130.31 0 M116.71 -6.34 C121.12 -4.04, 123.77 -3.23, 130.31 0 M130.31 0 C130.31 0, 130.31 0, 130.31 0 M130.31 0 C130.31 0, 130.31 0, 130.31 0" stroke="#1e1e1e" stroke-width="2" fill="none"></path></g></g><mask></mask><g stroke-linecap="round"><g transform="translate(596.1695221894406 136.14355002697266) rotate(0 34.82394226964698 -34.82394226964698)"><path d="M0 0 C27.32 -24.26, 50.77 -52.73, 69.65 -69.65 M0 0 C19.37 -18.27, 37.08 -35.74, 69.65 -69.65" stroke="#1e1e1e" stroke-width="2" fill="none"></path></g><g transform="translate(596.1695221894406 136.14355002697266) rotate(0 34.82394226964698 -34.82394226964698)"><path d="M68.08 -70.56 L63.82 -54.13 L55.5 -62.51 L71.11 -70.8" stroke="none" stroke-width="0" fill="#1e1e1e" fill-rule="evenodd"></path><path d="M69.65 -69.65 C68.92 -63.45, 65.35 -60.21, 64.73 -55.48 M69.65 -69.65 C68.48 -66.04, 66.63 -61.56, 64.73 -55.48 M64.73 -55.48 C64.19 -57.37, 61 -59.06, 55.63 -64.3 M64.73 -55.48 C62.36 -57.6, 60.41 -59.4, 55.63 -64.3 M55.63 -64.3 C62.22 -66.53, 65.45 -68.73, 69.65 -69.65 M55.63 -64.3 C59.79 -66.19, 62.85 -67.53, 69.65 -69.65 M69.65 -69.65 C69.65 -69.65, 69.65 -69.65, 69.65 -69.65 M69.65 -69.65 C69.65 -69.65, 69.65 -69.65, 69.65 -69.65" stroke="#1e1e1e" stroke-width="2" fill="none"></path></g></g><mask></mask><g stroke-linecap="round"><g transform="translate(563.3676152773855 102.44296073376563) rotate(0 0 -45.3834602481852)"><path d="M0 0 C-0.84 -22.77, -0.56 -44.28, 0 -90.77 M0 0 C0.41 -22.88, 0.25 -45.59, 0 -90.77" stroke="#1971c2" stroke-width="2" fill="none"></path></g><g transform="translate(563.3676152773855 102.44296073376563) rotate(0 0 -45.3834602481852)"><path d="M0.02 -91.07 L5.89 -75.97 L-5.97 -75.26 L0.05 -89.56" stroke="none" stroke-width="0" fill="#1971c2" fill-rule="evenodd"></path><path d="M0 -90.77 C0.33 -87.27, 2.16 -82.83, 6.41 -77.21 M0 -90.77 C1.28 -87.89, 2.74 -84.82, 6.41 -77.21 M6.41 -77.21 C4.64 -78.23, 1.51 -77.02, -6.27 -77.14 M6.41 -77.21 C4.05 -77.45, -0.1 -76.92, -6.27 -77.14 M-6.27 -77.14 C-2.71 -80.91, -1.87 -87.02, 0 -90.77 M-6.27 -77.14 C-5.37 -79.79, -3.21 -83.88, 0 -90.77 M0 -90.77 C0 -90.77, 0 -90.77, 0 -90.77 M0 -90.77 C0 -90.77, 0 -90.77, 0 -90.77" stroke="#1971c2" stroke-width="2" fill="none"></path></g></g><mask></mask><g transform="translate(571.4557567077554 10) rotate(0 6.5 12.5)"><text x="0" y="17.619999999999997" font-family="Virgil 3 YOFF" font-size="20px" fill="#1971c2" text-anchor="start" style="white-space: pre;" direction="ltr" dominant-baseline="alphabetic">m</text></g><g stroke-linecap="round"><g transform="translate(605.3845329056608 184.97864340483648) rotate(0 -53.51755945101286 0)"><path d="M0 0 C-24.37 0.2, -50.69 1.76, -107.04 0 M0 0 C-27.26 1.05, -54.19 -0.28, -107.04 0" stroke="#1e1e1e" stroke-width="2" fill="none"></path></g><g transform="translate(605.3845329056608 184.97864340483648) rotate(0 -53.51755945101286 0)"><path d="M-108.61 0.62 L-92.4 -4.67 L-95.45 5.86 L-107.74 -1.76" stroke="none" stroke-width="0" fill="#1e1e1e" fill-rule="evenodd"></path><path d="M-107.04 0 C-102.69 -1.74, -99.76 -2.1, -93.43 -6.31 M-107.04 0 C-103.65 -1.39, -100.05 -3.99, -93.43 -6.31 M-93.43 -6.31 C-92.92 -2.31, -93.21 0.47, -93.45 6.36 M-93.43 -6.31 C-93.69 -3.19, -93.86 -0.49, -93.45 6.36 M-93.45 6.36 C-98.15 6.11, -102.05 1.91, -107.04 0 M-93.45 6.36 C-98.01 5.08, -101.71 2.25, -107.04 0 M-107.04 0 C-107.04 0, -107.04 0, -107.04 0 M-107.04 0 C-107.04 0, -107.04 0, -107.04 0" stroke="#1e1e1e" stroke-width="2" fill="none"></path></g></g><mask></mask><g stroke-linecap="round"><g transform="translate(496.37760164100337 184.8365827250591) rotate(0 0 54.54591898145509)"><path d="M0 0 C1.8 38.36, -0.13 73, 0 109.09 M0 0 C-0.07 38.51, -0.34 77.9, 0 109.09" stroke="#1e1e1e" stroke-width="2" fill="none"></path></g><g transform="translate(496.37760164100337 184.8365827250591) rotate(0 0 54.54591898145509)"><path d="M1.03 110.73 L-8.41 95.03 L5.56 93.7 L-1.97 110.23" stroke="none" stroke-width="0" fill="#1e1e1e" fill-rule="evenodd"></path><path d="M0 109.09 C-1.53 105.49, -5.15 99.1, -6.41 95.53 M0 109.09 C-2.25 103.51, -4.77 98.57, -6.41 95.53 M-6.41 95.53 C-2.07 95.14, 0.63 96.06, 6.27 95.46 M-6.41 95.53 C-4.06 95.53, -1 95.78, 6.27 95.46 M6.27 95.46 C2.35 99.39, 1.9 105.17, 0 109.09 M6.27 95.46 C4.42 100.81, 1.37 106.25, 0 109.09 M0 109.09 C0 109.09, 0 109.09, 0 109.09 M0 109.09 C0 109.09, 0 109.09, 0 109.09" stroke="#1e1e1e" stroke-width="2" fill="none"></path></g></g><mask></mask><g stroke-linecap="round"><g transform="translate(495.7631963396029 293.3140153865688) rotate(0 58.81144698981939 0)"><path d="M0 0 C33.05 -1.83, 69.2 -1.05, 117.62 0 M0 0 C39.71 0.12, 79.97 1.61, 117.62 0" stroke="#1e1e1e" stroke-width="2" fill="none"></path></g><g transform="translate(495.7631963396029 293.3140153865688) rotate(0 58.81144698981939 0)"><path d="M115.62 -0.5 L103.46 4.86 L101.93 -4.92 L117.86 -0.04" stroke="none" stroke-width="0" fill="#1e1e1e" fill-rule="evenodd"></path><path d="M117.62 0 C113.07 1.22, 110.8 3.72, 104.17 6.63 M117.62 0 C112.91 1.38, 108.6 4.75, 104.17 6.63 M104.17 6.63 C103.12 2.99, 102.98 -2.52, 103.9 -6.05 M104.17 6.63 C103.92 2.66, 104.55 -2.43, 103.9 -6.05 M103.9 -6.05 C109.58 -4.14, 115.85 -1.5, 117.62 0 M103.9 -6.05 C109.36 -3.64, 113.95 -1.77, 117.62 0 M117.62 0 C117.62 0, 117.62 0, 117.62 0 M117.62 0 C117.62 0, 117.62 0, 117.62 0" stroke="#1e1e1e" stroke-width="2" fill="none"></path></g></g><mask></mask><g stroke-linecap="round"><g transform="translate(610.1368168022145 291.2572963256848) rotate(0 0 -54.227453403474556)"><path d="M0 0 C1.74 -40.06, 1.29 -79.45, 0 -108.45 M0 0 C0.36 -21.86, 0.57 -44.45, 0 -108.45" stroke="#1e1e1e" stroke-width="2" fill="none"></path></g><g transform="translate(610.1368168022145 291.2572963256848) rotate(0 0 -54.227453403474556)"><path d="M-0.71 -110.22 L4.46 -93.77 L-6.01 -94.86 L0.49 -110.12" stroke="none" stroke-width="0" fill="#1e1e1e" fill-rule="evenodd"></path><path d="M0 -108.45 C3.22 -103.64, 5.25 -98.37, 6.43 -94.9 M0 -108.45 C1.41 -105.22, 2.89 -102.59, 6.43 -94.9 M6.43 -94.9 C1.98 -95.46, -0.03 -95.76, -6.25 -94.82 M6.43 -94.9 C2.98 -95.28, -0.86 -95.41, -6.25 -94.82 M-6.25 -94.82 C-3.54 -98.01, -2.2 -99.47, 0 -108.45 M-6.25 -94.82 C-5.16 -99.27, -2.38 -102.22, 0 -108.45 M0 -108.45 C0 -108.45, 0 -108.45, 0 -108.45 M0 -108.45 C0 -108.45, 0 -108.45, 0 -108.45" stroke="#1e1e1e" stroke-width="2" fill="none"></path></g></g><mask></mask><g transform="translate(533.7277285679684 207.83989650548983) rotate(0 6.5 12.5)"><text x="0" y="17.619999999999997" font-family="Virgil 3 YOFF" font-size="20px" fill="#1971c2" text-anchor="start" style="white-space: pre;" direction="ltr" dominant-baseline="alphabetic">m</text></g><g stroke-linecap="round" transform="translate(548.5734747473662 233.38133457347567) rotate(0 6.001168060185819 6.001168060185819)"><path d="M5.11 -0.09 C6.15 -0.51, 7.42 -0.28, 8.42 0.28 C9.42 0.85, 10.52 2.03, 11.09 3.31 C11.67 4.58, 12.1 6.67, 11.88 7.92 C11.65 9.18, 10.75 10.18, 9.72 10.82 C8.69 11.47, 7.02 11.87, 5.68 11.78 C4.33 11.7, 2.54 11.23, 1.66 10.3 C0.78 9.38, 0.51 7.57, 0.39 6.22 C0.28 4.87, 0.26 3.19, 0.97 2.21 C1.67 1.23, 3.89 0.72, 4.61 0.32 C5.33 -0.07, 5.2 -0.3, 5.29 -0.16 M5.38 -0.69 C6.62 -0.69, 7.83 0.81, 8.92 1.61 C10.01 2.42, 11.52 2.91, 11.94 4.16 C12.36 5.41, 12.04 7.98, 11.42 9.09 C10.81 10.21, 9.49 10.4, 8.25 10.86 C7.02 11.31, 5.22 11.98, 4.01 11.83 C2.81 11.68, 1.72 10.91, 1.01 9.95 C0.3 8.99, -0.39 7.33, -0.27 6.07 C-0.14 4.82, 0.91 3.43, 1.78 2.42 C2.65 1.4, 4.45 0.33, 4.97 -0.04 C5.49 -0.4, 4.7 0.07, 4.89 0.22" stroke="none" stroke-width="0" fill="#a5d8ff"></path><path d="M5.5 0.23 C6.72 -0.04, 7.77 0.17, 8.81 0.75 C9.85 1.34, 11.34 2.56, 11.74 3.73 C12.14 4.9, 11.63 6.47, 11.2 7.77 C10.77 9.07, 10.29 10.82, 9.18 11.53 C8.06 12.23, 5.76 12.24, 4.51 12.02 C3.25 11.8, 2.46 11.29, 1.64 10.22 C0.81 9.15, -0.4 7.04, -0.45 5.6 C-0.5 4.17, 0.41 2.52, 1.33 1.61 C2.25 0.7, 4.38 0.4, 5.06 0.16 C5.74 -0.07, 5.39 0.13, 5.41 0.21 M5.41 -0.69 C6.52 -0.73, 8.42 1.03, 9.59 2.04 C10.76 3.05, 12.13 4.2, 12.43 5.36 C12.73 6.51, 12.1 7.82, 11.38 8.97 C10.66 10.11, 9.38 11.76, 8.1 12.22 C6.81 12.68, 4.76 12.36, 3.67 11.72 C2.58 11.09, 2.08 9.65, 1.57 8.41 C1.06 7.18, 0.47 5.56, 0.63 4.32 C0.79 3.07, 1.71 1.72, 2.5 0.95 C3.29 0.18, 4.84 -0.19, 5.36 -0.3 C5.88 -0.42, 5.5 0.11, 5.62 0.25" stroke="#1971c2" stroke-width="2" fill="none"></path></g><g transform="translate(533.2152620843635 37.99295124221726) rotate(0 2.5 10)"><text x="0" y="14.096" font-family="Virgil 3 YOFF" font-size="16px" fill="#1e1e1e" text-anchor="start" style="white-space: pre;" direction="ltr" dominant-baseline="alphabetic">1</text></g><g transform="translate(441.7666059405565 127.47500087673734) rotate(0 6.5 10)"><text x="0" y="14.096" font-family="Virgil 3 YOFF" font-size="16px" fill="#1e1e1e" text-anchor="start" style="white-space: pre;" direction="ltr" dominant-baseline="alphabetic">2</text></g><g transform="translate(599.9267541922181 141.5713205675711) rotate(0 5.5 10)"><text x="0" y="14.096" font-family="Virgil 3 YOFF" font-size="16px" fill="#1e1e1e" text-anchor="start" style="white-space: pre;" direction="ltr" dominant-baseline="alphabetic">3</text></g><g transform="translate(674.0864512635253 47.88936116912146) rotate(0 5.116666793823242 10)"><text x="0" y="14.096" font-family="Virgil 3 YOFF" font-size="16px" fill="#1e1e1e" text-anchor="start" style="white-space: pre;" direction="ltr" dominant-baseline="alphabetic">4</text></g><g transform="translate(482.72980284888945 169.0233863123317) rotate(0 2.5 10)"><text x="0" y="14.096" font-family="Virgil 3 YOFF" font-size="16px" fill="#1e1e1e" text-anchor="start" style="white-space: pre;" direction="ltr" dominant-baseline="alphabetic">1</text></g><g transform="translate(476.9742372671035 291.9129770373279) rotate(0 6.5 10)"><text x="0" y="14.096" font-family="Virgil 3 YOFF" font-size="16px" fill="#1e1e1e" text-anchor="start" style="white-space: pre;" direction="ltr" dominant-baseline="alphabetic">2</text></g><g transform="translate(617.8342952826943 291.32778851006606) rotate(0 5.5 10)"><text x="0" y="14.096" font-family="Virgil 3 YOFF" font-size="16px" fill="#1e1e1e" text-anchor="start" style="white-space: pre;" direction="ltr" dominant-baseline="alphabetic">3</text></g><g transform="translate(619.3880055433938 170.77895189411674) rotate(0 5.116666793823242 10)"><text x="0" y="14.096" font-family="Virgil 3 YOFF" font-size="16px" fill="#1e1e1e" text-anchor="start" style="white-space: pre;" direction="ltr" dominant-baseline="alphabetic">4</text></g><g transform="translate(474.22980224912726 227.02984272935373) rotate(0 5.5 10)"><text x="0" y="14.096" font-family="Virgil 3 YOFF" font-size="16px" fill="#1e1e1e" text-anchor="start" style="white-space: pre;" direction="ltr" dominant-baseline="alphabetic">a</text></g><g transform="translate(484.99649959424596 78.90435311400142) rotate(0 5.5 10)"><text x="0" y="14.096" font-family="Virgil 3 YOFF" font-size="16px" fill="#1e1e1e" text-anchor="start" style="white-space: pre;" direction="ltr" dominant-baseline="alphabetic">a</text></g><g transform="translate(528.227729156863 141.05153453102275) rotate(0 5.5 10)"><text x="0" y="14.096" font-family="Virgil 3 YOFF" font-size="16px" fill="#1e1e1e" text-anchor="start" style="white-space: pre;" direction="ltr" dominant-baseline="alphabetic">a</text></g><g transform="translate(548.4042663569821 301.91297730994665) rotate(0 5.5 10)"><text x="0" y="14.096" font-family="Virgil 3 YOFF" font-size="16px" fill="#1e1e1e" text-anchor="start" style="white-space: pre;" direction="ltr" dominant-baseline="alphabetic">a</text></g><g transform="translate(631.379065981324 228.7146929637015) rotate(0 33.700000000000045 10)"><text x="0" y="14.096" font-family="Virgil 3 YOFF" font-size="16px" fill="#1e1e1e" text-anchor="start" style="white-space: pre;" direction="ltr" dominant-baseline="alphabetic">top view</text></g></svg>