<svg version="1.1" xmlns="http://www.w3.org/2000/svg" viewBox="0 0 393.1781507960962 318.7488523195266" width="786.3563015921924" height="637.4977046390532">
  <!-- svg-source:excalidraw -->
  
 <g stroke-linecap="round" transform="translate(113.89493137257834 75.900488314629) rotate(0 85.63612389787477 85.63612389787477)"><path d="M119.3 7.38 C129.82 10.26, 139.82 17.72, 147.78 26.07 C155.74 34.42, 163.22 46.33, 167.05 57.48 C170.89 68.64, 171.74 81.6, 170.79 92.99 C169.84 104.39, 167.05 115.66, 161.37 125.86 C155.68 136.05, 145.99 147.03, 136.67 154.15 C127.35 161.28, 116.68 166.09, 105.43 168.62 C94.19 171.15, 80.6 171.27, 69.2 169.33 C57.8 167.38, 46.39 163.39, 37.03 156.95 C27.68 150.5, 19.04 140.72, 13.09 130.65 C7.13 120.59, 2.93 108.21, 1.29 96.55 C-0.34 84.9, 0.22 71.97, 3.29 60.72 C6.36 49.48, 12.11 37.85, 19.72 29.1 C27.32 20.35, 38.35 13.21, 48.95 8.22 C59.54 3.23, 70.93 -0.94, 83.28 -0.85 C95.63 -0.75, 115.74 6.7, 123.05 8.78 C130.37 10.87, 127.81 10.53, 127.16 11.66 M58.09 3.04 C68.1 -1.36, 83.18 0.18, 94.62 1.59 C106.06 3.01, 116.94 5.77, 126.74 11.51 C136.54 17.25, 146.2 26.9, 153.43 36.04 C160.66 45.19, 167.24 55.5, 170.13 66.36 C173.02 77.22, 173.46 89.7, 170.76 101.2 C168.07 112.7, 160.71 125.77, 153.98 135.35 C147.26 144.93, 140.24 152.64, 130.41 158.68 C120.58 164.72, 106.65 169.92, 95 171.6 C83.34 173.29, 71.46 172.23, 60.51 168.8 C49.55 165.37, 37.96 159.15, 29.27 151.01 C20.58 142.87, 13.33 130.74, 8.37 119.94 C3.42 109.15, -0.02 97.63, -0.47 86.23 C-0.92 74.82, 1.01 62.23, 5.69 51.53 C10.36 40.82, 18.65 29.72, 27.56 22.01 C36.47 14.31, 53.86 8.01, 59.12 5.28 C64.39 2.56, 58.85 4.42, 59.15 5.67" stroke="#1e1e1e" stroke-width="2" fill="none"></path></g><g stroke-linecap="round" transform="translate(267.2348363469734 42.84260888882545) rotate(0 48.09700109332687 48.09700109332687)"><path d="M52.48 -0.54 C60.11 -0.61, 70.03 4.29, 76.55 9.13 C83.07 13.97, 88.27 21.38, 91.6 28.49 C94.93 35.59, 97.41 43.79, 96.54 51.77 C95.67 59.76, 91.11 69.77, 86.38 76.39 C81.64 83, 75.38 88.29, 68.15 91.48 C60.91 94.67, 50.94 96.06, 42.97 95.5 C35 94.95, 26.66 92.65, 20.33 88.17 C13.99 83.68, 8.2 76.03, 4.95 68.59 C1.69 61.15, 0.19 51.66, 0.79 43.54 C1.4 35.41, 4.19 26.51, 8.58 19.86 C12.96 13.2, 17.98 6.51, 27.11 3.6 C36.24 0.7, 55.8 1.86, 63.37 2.44 C70.95 3.02, 72.82 6.32, 72.54 7.1 M53.83 -0.46 C61.86 -0.11, 72.6 4.64, 79.04 9.55 C85.48 14.45, 89.58 21.19, 92.49 28.99 C95.4 36.78, 97.79 48.09, 96.51 56.32 C95.22 64.56, 90.05 72.08, 84.77 78.4 C79.48 84.71, 71.92 91.44, 64.79 94.2 C57.66 96.96, 49.53 96.63, 41.97 94.99 C34.41 93.34, 26.09 89.19, 19.43 84.33 C12.76 79.48, 4.92 73.16, 1.98 65.83 C-0.96 58.5, 0.44 48.14, 1.78 40.36 C3.12 32.57, 5.15 25.03, 10.02 19.11 C14.88 13.2, 23.39 7.75, 30.96 4.85 C38.53 1.96, 51.34 2.49, 55.45 1.72 C59.56 0.95, 55.87 -0.34, 55.62 0.22" stroke="#1e1e1e" stroke-width="2" fill="none"></path></g><g transform="translate(307.6054551140162 73.429894354324) rotate(0 7.7166666984558105 17.5)"><text x="7.7166666984558105" y="24.668" font-family="'Virgil 3 YOFF'" font-size="28px" fill="#1e1e1e" text-anchor="middle" style="white-space: pre;" direction="ltr" dominant-baseline="alphabetic">H</text></g><g stroke-linecap="round" transform="translate(33.70370000312779 42.84260911116826) rotate(0 48.09700109332686 48.09700109332687)"><path d="M30.28 3.8 C37.1 0.19, 47.98 -1.46, 55.78 -0.27 C63.58 0.92, 70.92 5.86, 77.09 10.93 C83.27 16, 89.85 22.86, 92.83 30.16 C95.82 37.46, 96.19 46.62, 95.01 54.74 C93.84 62.86, 90.57 72.46, 85.78 78.88 C80.99 85.31, 73.64 90.5, 66.27 93.28 C58.9 96.06, 49.63 96.9, 41.56 95.58 C33.49 94.25, 24.38 90.42, 17.86 85.31 C11.34 80.2, 5.31 72.32, 2.42 64.93 C-0.46 57.53, -0.74 48.87, 0.55 40.93 C1.84 32.99, 4.25 23.83, 10.17 17.27 C16.09 10.72, 30.66 4.4, 36.06 1.59 C41.45 -1.22, 42.36 -0.18, 42.54 0.44 M32.49 1.09 C39.45 -1.64, 50.75 0.27, 58.49 2.17 C66.23 4.06, 73.22 7.15, 78.92 12.49 C84.62 17.82, 89.81 26.78, 92.68 34.2 C95.55 41.61, 97.35 49.58, 96.13 56.97 C94.91 64.35, 91.03 72.36, 85.34 78.49 C79.65 84.61, 69.57 91.05, 61.98 93.73 C54.39 96.4, 47.49 95.96, 39.8 94.51 C32.11 93.06, 21.99 89.97, 15.86 85.03 C9.74 80.08, 5.5 72.41, 3.07 64.86 C0.64 57.31, -0.31 48.05, 1.3 39.74 C2.9 31.43, 7.53 21.24, 12.7 15 C17.87 8.76, 29.17 4.22, 32.34 2.29 C35.51 0.35, 31.42 2.69, 31.72 3.4" stroke="#1e1e1e" stroke-width="2" fill="none"></path></g><g transform="translate(74.07431877017062 73.42989457666681) rotate(0 7.7166666984558105 17.5)"><text x="7.7166666984558105" y="24.668" font-family="'Virgil 3 YOFF'" font-size="28px" fill="#1e1e1e" text-anchor="middle" style="white-space: pre;" direction="ltr" dominant-baseline="alphabetic">H</text></g><g transform="translate(187.9393891704035 139.0366116315845) rotate(0 13.066666603088379 22.5)"><text x="0" y="31.716" font-family="'Virgil 3 YOFF'" font-size="36px" fill="#1e1e1e" text-anchor="start" style="white-space: pre;" direction="ltr" dominant-baseline="alphabetic">O</text></g><g stroke-linecap="round"><g transform="translate(208.52480344237603 68.47086961349191) rotate(0 -11.730975876421098 91.11057930687127)"><path d="M0.55 0.67 C9.85 -3, 34.1 -16.02, 56.13 -22.26 C78.16 -28.5, 113.09 -48.31, 132.73 -36.78 C152.38 -25.25, 179.15 23.84, 174.01 46.92 C168.87 70.01, 125.36 72.94, 101.87 101.73 C78.38 130.51, 61.95 200.98, 33.07 219.65 C4.18 238.32, -45.57 232.53, -71.43 213.73 C-97.29 194.92, -100.95 137.26, -122.11 106.8 C-143.26 76.34, -195.75 54.23, -198.37 30.96 C-200.98 7.69, -170.85 -27.61, -137.8 -32.83 C-104.75 -38.05, -22.85 -5.79, -0.05 -0.35 M-0.62 -0.02 C9.02 -3.57, 36.19 -15.42, 58.34 -21.32 C80.49 -27.23, 112.98 -46.97, 132.26 -35.48 C151.55 -23.99, 178.8 24.68, 174.05 47.62 C169.3 70.55, 127.54 73.59, 103.76 102.15 C79.98 130.71, 60.39 200.53, 31.35 218.96 C2.3 237.4, -44.76 231.53, -70.52 212.75 C-96.27 193.97, -102.17 136.29, -123.19 106.28 C-144.21 76.26, -194.25 55.92, -196.64 32.66 C-199.03 9.4, -170.34 -27.9, -137.53 -33.27 C-104.72 -38.64, -22.79 -4.98, 0.24 0.45" stroke="#1971c2" stroke-width="2" fill="none"></path></g></g><mask></mask><g transform="translate(138.80361132329614 251.32326251049972) rotate(0 4.108333110809326 12.5)"><text x="0" y="17.619999999999997" font-family="'Virgil 3 YOFF'" font-size="20px" fill="#1971c2" text-anchor="start" style="white-space: pre;" direction="ltr" dominant-baseline="alphabetic">-</text></g><g transform="translate(138.80361132329614 251.32326251049972) rotate(0 4.108333110809326 12.5)"><text x="0" y="17.619999999999997" font-family="'Virgil 3 YOFF'" font-size="20px" fill="#1971c2" text-anchor="start" style="white-space: pre;" direction="ltr" dominant-baseline="alphabetic">-</text></g><g transform="translate(173.21447389413157 261.49010827006487) rotate(0 4.108333110809326 12.5)"><text x="0" y="17.619999999999997" font-family="'Virgil 3 YOFF'" font-size="20px" fill="#1971c2" text-anchor="start" style="white-space: pre;" direction="ltr" dominant-baseline="alphabetic">-</text></g><g transform="translate(165.3938233098507 265.4004335622053) rotate(0 4.108333110809326 12.5)"><text x="0" y="17.619999999999997" font-family="'Virgil 3 YOFF'" font-size="20px" fill="#1971c2" text-anchor="start" style="white-space: pre;" direction="ltr" dominant-baseline="alphabetic">-</text></g><g transform="translate(158.3552377839979 256.79771791949634) rotate(0 4.108333110809326 12.5)"><text x="0" y="17.619999999999997" font-family="'Virgil 3 YOFF'" font-size="20px" fill="#1971c2" text-anchor="start" style="white-space: pre;" direction="ltr" dominant-baseline="alphabetic">-</text></g><g transform="translate(153.66284743342936 256.01565286106825) rotate(0 4.108333110809326 12.5)"><text x="0" y="17.619999999999997" font-family="'Virgil 3 YOFF'" font-size="20px" fill="#1971c2" text-anchor="start" style="white-space: pre;" direction="ltr" dominant-baseline="alphabetic">-</text></g><g transform="translate(173.99653895255966 249.75913239364354) rotate(0 4.108333110809326 12.5)"><text x="0" y="17.619999999999997" font-family="'Virgil 3 YOFF'" font-size="20px" fill="#1971c2" text-anchor="start" style="white-space: pre;" direction="ltr" dominant-baseline="alphabetic">-</text></g><g transform="translate(198.24055576382995 258.3618480363525) rotate(0 4.108333110809326 12.5)"><text x="0" y="17.619999999999997" font-family="'Virgil 3 YOFF'" font-size="20px" fill="#1971c2" text-anchor="start" style="white-space: pre;" direction="ltr" dominant-baseline="alphabetic">-</text></g><g transform="translate(199.02262082225803 264.6183685037772) rotate(0 4.108333110809326 12.5)"><text x="0" y="17.619999999999997" font-family="'Virgil 3 YOFF'" font-size="20px" fill="#1971c2" text-anchor="start" style="white-space: pre;" direction="ltr" dominant-baseline="alphabetic">-</text></g><g transform="translate(198.24055576382995 270.8748889712019) rotate(0 4.108333110809326 12.5)"><text x="0" y="17.619999999999997" font-family="'Virgil 3 YOFF'" font-size="20px" fill="#1971c2" text-anchor="start" style="white-space: pre;" direction="ltr" dominant-baseline="alphabetic">-</text></g><g transform="translate(217.79218222453216 255.23358780264016) rotate(0 4.108333110809326 12.5)"><text x="0" y="17.619999999999997" font-family="'Virgil 3 YOFF'" font-size="20px" fill="#1971c2" text-anchor="start" style="white-space: pre;" direction="ltr" dominant-baseline="alphabetic">-</text></g><g transform="translate(235.77967856837796 243.50261192621883) rotate(0 4.108333110809326 12.5)"><text x="0" y="17.619999999999997" font-family="'Virgil 3 YOFF'" font-size="20px" fill="#1971c2" text-anchor="start" style="white-space: pre;" direction="ltr" dominant-baseline="alphabetic">-</text></g><g transform="translate(213.8818569323917 263.83630344534913) rotate(0 4.108333110809326 12.5)"><text x="0" y="17.619999999999997" font-family="'Virgil 3 YOFF'" font-size="20px" fill="#1971c2" text-anchor="start" style="white-space: pre;" direction="ltr" dominant-baseline="alphabetic">-</text></g><g transform="translate(227.17696292566922 261.49010827006487) rotate(0 4.108333110809326 12.5)"><text x="0" y="17.619999999999997" font-family="'Virgil 3 YOFF'" font-size="20px" fill="#1971c2" text-anchor="start" style="white-space: pre;" direction="ltr" dominant-baseline="alphabetic">-</text></g><g transform="translate(173.99653895255966 273.2210841464862) rotate(0 4.108333110809326 12.5)"><text x="0" y="17.619999999999997" font-family="'Virgil 3 YOFF'" font-size="20px" fill="#1971c2" text-anchor="start" style="white-space: pre;" direction="ltr" dominant-baseline="alphabetic">-</text></g><g transform="translate(186.50957988740885 261.49010827006487) rotate(0 4.108333110809326 12.5)"><text x="0" y="17.619999999999997" font-family="'Virgil 3 YOFF'" font-size="20px" fill="#1971c2" text-anchor="start" style="white-space: pre;" direction="ltr" dominant-baseline="alphabetic">-</text></g><g stroke-linecap="round"><g transform="translate(193.74617323193053 308.7488523195266) rotate(0 7.105427357601002e-15 -149.3744261597633)"><path d="M0 0 C1.62 -97.44, 1.6 -195.36, 0 -298.75 M0 0 C0.38 -66.19, 0.19 -132.06, 0 -298.75" stroke="#2f9e44" stroke-width="2" fill="none"></path></g><g transform="translate(193.74617323193053 308.7488523195266) rotate(0 7.105427357601002e-15 -149.3744261597633)"><path d="M-0.68 -298.91 L6.33 -285.18 L-6 -283.52 L-0.34 -297.28" stroke="none" stroke-width="0" fill="#2f9e44" fill-rule="evenodd"></path><path d="M0 -298.75 C2.44 -294.72, 4.49 -291.13, 6.36 -285.16 M0 -298.75 C1.66 -296.33, 2.86 -293.52, 6.36 -285.16 M6.36 -285.16 C1.15 -284.07, -3.8 -284.02, -6.32 -285.15 M6.36 -285.16 C3.86 -285.02, 0.98 -284.82, -6.32 -285.15 M-6.32 -285.15 C-3.08 -290.1, -0.7 -295.8, 0 -298.75 M-6.32 -285.15 C-4.62 -289.37, -1.71 -293.3, 0 -298.75 M0 -298.75 C0 -298.75, 0 -298.75, 0 -298.75 M0 -298.75 C0 -298.75, 0 -298.75, 0 -298.75" stroke="#2f9e44" stroke-width="2" fill="none"></path></g></g><mask></mask><g transform="translate(207.823344283636 22.20543128541749) rotate(0 7 17.5)"><text x="0" y="24.668" font-family="'Virgil 3 YOFF'" font-size="28px" fill="#2f9e44" text-anchor="start" style="white-space: pre;" direction="ltr" dominant-baseline="alphabetic">p</text></g></svg>