<svg version="1.1" xmlns="http://www.w3.org/2000/svg" viewBox="0 0 570.9326706389487 330.3833645566003" width="1141.8653412778974" height="660.7667291132007">
  <!-- svg-source:excalidraw -->
    <g stroke-linecap="round" transform="translate(127.37188119119605 32.28885481127031) rotate(0 85.63612389787477 85.63612389787477)"><path d="M71.38 1.02 C81.97 -2.34, 94.8 -0.55, 105.81 2.25 C116.81 5.05, 128.25 10.81, 137.42 17.81 C146.6 24.81, 155.21 34.01, 160.86 44.23 C166.51 54.45, 170.47 67.53, 171.3 79.13 C172.13 90.72, 169.81 102.79, 165.81 113.78 C161.81 124.77, 155.44 136.64, 147.31 145.07 C139.19 153.49, 127.66 159.99, 117.08 164.32 C106.5 168.66, 95.43 171.22, 83.84 171.1 C72.24 170.98, 58.18 168.5, 47.53 163.6 C36.89 158.71, 27.15 150.89, 19.96 141.73 C12.76 132.57, 7.64 120.11, 4.36 108.66 C1.07 97.21, -1.29 84.49, 0.24 73.03 C1.78 61.56, 7.23 49.64, 13.56 39.86 C19.9 30.08, 26.86 21.08, 38.26 14.33 C49.67 7.58, 73.22 1.54, 81.97 -0.62 C90.72 -2.78, 90.68 -0.17, 90.77 1.39 M59.47 3.41 C69.45 -1.45, 84.45 -1.07, 95.96 0.13 C107.48 1.33, 118.86 4.54, 128.54 10.62 C138.23 16.7, 147.26 26.92, 154.06 36.6 C160.85 46.29, 166.64 57.62, 169.31 68.74 C171.99 79.87, 172.59 92, 170.11 103.36 C167.63 114.72, 161.67 127.63, 154.44 136.9 C147.21 146.16, 136.77 153.31, 126.73 158.95 C116.69 164.59, 105.6 169.61, 94.19 170.75 C82.78 171.89, 69.23 169.64, 58.26 165.82 C47.28 161.99, 36.88 155.55, 28.35 147.79 C19.83 140.04, 11.63 129.95, 7.1 119.29 C2.57 108.63, 1.2 95.56, 1.16 83.85 C1.12 72.14, 2.43 59.36, 6.88 49.04 C11.33 38.71, 19.27 29.59, 27.86 21.9 C36.46 14.21, 52.89 5.79, 58.44 2.9 C63.99 0.02, 60.57 3.06, 61.16 4.61" stroke="#1e1e1e" stroke-width="2" fill="none"></path></g><g stroke-linecap="round" transform="translate(298.6441281655911 69.82797738546697) rotate(0 48.09700109332686 48.09700109332687)"><path d="M51.38 0.68 C59.28 0.27, 68.53 3.55, 75.11 7.72 C81.7 11.88, 87.23 18.63, 90.9 25.68 C94.57 32.74, 97.57 41.95, 97.13 50.04 C96.69 58.13, 92.63 67.52, 88.25 74.21 C83.88 80.9, 77.94 86.54, 70.86 90.17 C63.77 93.79, 53.84 96.36, 45.75 95.97 C37.65 95.59, 29.02 92.12, 22.28 87.85 C15.53 83.58, 8.83 77.54, 5.28 70.36 C1.73 63.17, 0.44 52.89, 0.98 44.73 C1.52 36.56, 4.15 27.99, 8.51 21.35 C12.87 14.72, 18.93 8.2, 27.14 4.92 C35.35 1.63, 51.17 1.75, 57.76 1.62 C64.35 1.5, 66.85 3.51, 66.69 4.16 M41.39 -0.73 C49.07 -2.22, 58.55 1.21, 65.78 4.19 C73 7.17, 79.67 11.32, 84.74 17.15 C89.82 22.98, 94.79 31.21, 96.23 39.16 C97.68 47.1, 96.35 57.19, 93.44 64.82 C90.53 72.44, 85.27 79.6, 78.77 84.91 C72.27 90.22, 62.28 95.12, 54.44 96.68 C46.6 98.23, 38.96 97.38, 31.72 94.23 C24.48 91.08, 16.4 84.41, 11.01 77.79 C5.62 71.16, 0.74 62.31, -0.61 54.47 C-1.97 46.62, -0.23 37.85, 2.88 30.71 C5.99 23.58, 11.7 16.48, 18.03 11.67 C24.35 6.86, 36.92 3.78, 40.82 1.86 C44.72 -0.06, 41.31 -0.56, 41.41 0.14" stroke="#1e1e1e" stroke-width="2" fill="none"></path></g><g transform="translate(336.5647466465316 100.41526285096552) rotate(0 10.166666984558105 17.5)"><text x="10.166666984558105" y="24.668" font-family="'Virgil 3 YOFF'" font-size="28px" fill="#1e1e1e" text-anchor="middle" style="white-space: pre;" direction="ltr" dominant-baseline="alphabetic">O</text></g><g stroke-linecap="round" transform="translate(31.17787953632771 69.82797763262488) rotate(0 48.09700109332686 48.09700109332687)"><path d="M43.44 -0.22 C50.87 -1.79, 59.47 -0.28, 66.88 3.15 C74.29 6.58, 83.04 13.71, 87.89 20.36 C92.74 27.02, 95.25 35.33, 95.96 43.06 C96.67 50.79, 95.55 59.57, 92.18 66.73 C88.8 73.89, 82.35 81.29, 75.73 86.04 C69.11 90.8, 60.49 94.38, 52.47 95.26 C44.45 96.13, 34.88 94.33, 27.63 91.28 C20.39 88.23, 13.44 83.43, 9.01 76.97 C4.58 70.5, 1.84 60.51, 1.04 52.49 C0.25 44.48, 1.01 35.96, 4.24 28.88 C7.48 21.81, 12.51 14.95, 20.43 10.03 C28.36 5.11, 45.37 0.51, 51.82 -0.64 C58.27 -1.8, 59.38 2.1, 59.13 3.1 M58.13 1.68 C65.88 2.86, 74.92 8.47, 80.83 13.97 C86.73 19.47, 91.38 27.47, 93.53 34.67 C95.69 41.86, 95.54 49.6, 93.77 57.15 C92.01 64.71, 88.09 73.69, 82.93 79.99 C77.78 86.3, 70.18 92.57, 62.84 95 C55.51 97.43, 46.87 96.58, 38.93 94.57 C30.99 92.56, 21.29 88.03, 15.21 82.93 C9.13 77.84, 4.81 71.36, 2.47 64.01 C0.13 56.66, -0.66 46.86, 1.18 38.83 C3.03 30.8, 8.09 22.07, 13.52 15.81 C18.94 9.55, 26.15 3.8, 33.73 1.25 C41.31 -1.31, 54.77 0.39, 58.98 0.46 C63.19 0.53, 59.35 0.69, 58.99 1.67" stroke="#1e1e1e" stroke-width="2" fill="none"></path></g><g transform="translate(69.09849801726824 100.41526309812343) rotate(0 10.166666984558105 17.5)"><text x="10.166666984558105" y="24.668" font-family="'Virgil 3 YOFF'" font-size="28px" fill="#1e1e1e" text-anchor="middle" style="white-space: pre;" direction="ltr" dominant-baseline="alphabetic">O</text></g><g transform="translate(201.41633898902123 95.4249781282258) rotate(0 11.591666221618654 22.5)"><text x="0" y="31.716" font-family="'Virgil 3 YOFF'" font-size="36px" fill="#1e1e1e" text-anchor="start" style="white-space: pre;" direction="ltr" dominant-baseline="alphabetic">C</text></g><g stroke-linecap="round"><g transform="translate(222.00175326099372 11.564130116856404) rotate(0 -11.730975876421184 105.5787828877908)"><path d="M0.12 0.09 C14.76 6.89, 58.61 30.21, 88.54 41.07 C118.47 51.92, 166.09 46.83, 179.7 65.23 C193.32 83.62, 186.56 134.3, 170.25 151.45 C153.95 168.6, 109.33 158.3, 81.89 168.13 C54.45 177.96, 35.32 210.22, 5.61 210.43 C-24.11 210.63, -63.44 177.18, -96.4 169.37 C-129.36 161.55, -174.38 179.99, -192.15 163.53 C-209.92 147.08, -218.01 92.45, -203.03 70.64 C-188.04 48.83, -136.26 44.4, -102.24 32.65 C-68.22 20.89, -15.84 5.4, 1.11 0.12 M-1.27 -0.91 C13.22 6.03, 58.08 31.2, 88.1 42.4 C118.12 53.6, 165.13 48.04, 178.85 66.3 C192.56 84.57, 186.26 134.96, 170.38 152 C154.49 169.03, 110.76 158.41, 83.55 168.52 C56.33 178.63, 37.06 212.17, 7.09 212.67 C-22.88 213.16, -62.99 179.81, -96.27 171.5 C-129.56 163.19, -174.6 179.77, -192.64 162.82 C-210.68 145.87, -219.21 91.05, -204.53 69.8 C-189.86 48.55, -138.42 46.78, -104.61 35.34 C-70.8 23.9, -19.32 6.89, -1.65 1.16" stroke="#1971c2" stroke-width="2" fill="none"></path></g></g><mask></mask><g stroke-linecap="round"><g transform="translate(468.35224666583906 178.9260526204655) rotate(0 0 -84.46302631023275)"><path d="M0 0 C0.64 -45.84, 1.11 -93.72, 0 -168.93 M0 0 C-1.4 -60.8, -1.78 -121.54, 0 -168.93" stroke="#1971c2" stroke-width="2" fill="none"></path></g><g transform="translate(468.35224666583906 178.9260526204655) rotate(0 0 -84.46302631023275)"><path d="M-1.39 -170.07 L4.18 -156.64 L-6.94 -155.04 L-1.61 -167.13" stroke="none" stroke-width="0" fill="#1971c2" fill-rule="evenodd"></path><path d="M0 -168.93 C2.28 -164.96, 4.28 -162.47, 6.03 -155.19 M0 -168.93 C2.4 -164.22, 4.27 -159.46, 6.03 -155.19 M6.03 -155.19 C2.9 -154.68, -2.23 -154.76, -6.65 -155.48 M6.03 -155.19 C2.92 -155.62, -0.23 -155.16, -6.65 -155.48 M-6.65 -155.48 C-3.92 -159.2, -3.88 -163.96, 0 -168.93 M-6.65 -155.48 C-4.9 -159.96, -0.96 -164.92, 0 -168.93 M0 -168.93 C0 -168.93, 0 -168.93, 0 -168.93 M0 -168.93 C0 -168.93, 0 -168.93, 0 -168.93" stroke="#1971c2" stroke-width="2" fill="none"></path></g></g><mask></mask><g transform="translate(501.98104417824663 110.1043274787944) rotate(0 12.133333206176758 22.5)"><text x="0" y="31.716" font-family="'Virgil 3 YOFF'" font-size="36px" fill="#1971c2" text-anchor="start" style="white-space: pre;" direction="ltr" dominant-baseline="alphabetic">E</text></g><g transform="translate(521.5326706389487 134.96356358892808) rotate(0 19.69999999999999 12.5)"><text x="0" y="17.619999999999997" font-family="'Virgil 3 YOFF'" font-size="20px" fill="#1971c2" text-anchor="start" style="white-space: pre;" direction="ltr" dominant-baseline="alphabetic">perp</text></g><g transform="translate(186.63219258803304 270.52412844646665) rotate(0 12.133333206176758 22.5)"><text x="0" y="31.716" font-family="'Virgil 3 YOFF'" font-size="36px" fill="#1971c2" text-anchor="start" style="white-space: pre;" direction="ltr" dominant-baseline="alphabetic">E</text></g><g transform="translate(206.18381904873513 295.3833645566003) rotate(0 16.6 12.5)"><text x="0" y="17.619999999999997" font-family="'Virgil 3 YOFF'" font-size="20px" fill="#1971c2" text-anchor="start" style="white-space: pre;" direction="ltr" dominant-baseline="alphabetic">par</text></g><g stroke-linecap="round"><g transform="translate(86.9000149574837 262.60701404755423) rotate(0 125.13040934849289 0)"><path d="M0 0 C61.29 0.07, 124.67 -0.29, 250.26 0 M0 0 C64.29 1.18, 128.67 1.77, 250.26 0" stroke="#1971c2" stroke-width="2" fill="none"></path></g><g transform="translate(86.9000149574837 262.60701404755423) rotate(0 125.13040934849289 0)"><path d="M248.99 -1.85 L236.52 5.14 L237.13 -5.81 L251.1 -0.21" stroke="none" stroke-width="0" fill="#1971c2" fill-rule="evenodd"></path><path d="M250.26 0 C245.51 1.92, 242.74 3.21, 236.73 6.48 M250.26 0 C246.4 0.96, 242.62 3.17, 236.73 6.48 M236.73 6.48 C237.59 1.94, 237.19 -3.8, 236.6 -6.2 M236.73 6.48 C237.22 2, 237.13 -1.76, 236.6 -6.2 M236.6 -6.2 C240.64 -6.16, 240.91 -3.76, 250.26 0 M236.6 -6.2 C239.77 -4, 242.7 -2.84, 250.26 0 M250.26 0 C250.26 0, 250.26 0, 250.26 0 M250.26 0 C250.26 0, 250.26 0, 250.26 0" stroke="#1971c2" stroke-width="2" fill="none"></path></g></g><mask></mask></svg>
