<svg version="1.1" xmlns="http://www.w3.org/2000/svg" viewBox="0 0 486.3284692462946 376.00934150332296" width="972.6569384925892" height="752.0186830066459">
  <!-- svg-source:excalidraw -->
  <g stroke-linecap="round" transform="translate(10 10) rotate(0 219.44569772320688 81.04861102577115)"><path d="M7.86 8.16 C7.86 8.16, 7.86 8.16, 7.86 8.16 M7.86 8.16 C7.86 8.16, 7.86 8.16, 7.86 8.16 M1.43 27.75 C9.42 19.91, 19.8 9.67, 24.4 1.33 M1.43 27.75 C8.27 21.24, 13.59 14.55, 24.4 1.33 M0.91 40.54 C10.07 29.79, 23.09 14.02, 36.34 -0.21 M0.91 40.54 C12.89 29.54, 22.7 16.51, 36.34 -0.21 M1.04 52.58 C13.43 35.98, 30.9 18.93, 46.97 -0.25 M1.04 52.58 C17.81 32.6, 35.47 12.39, 46.97 -0.25 M1.18 64.62 C17.59 42.82, 38 24.81, 57.6 -0.28 M1.18 64.62 C14.89 49.65, 27.76 34.78, 57.6 -0.28 M1.31 76.67 C20.15 55.55, 33.33 36.01, 67.57 0.44 M1.31 76.67 C18.6 57.64, 34.53 38.06, 67.57 0.44 M1.44 88.71 C14.82 70.38, 30.56 54.96, 78.2 0.41 M1.44 88.71 C23.4 61.75, 46.92 35.97, 78.2 0.41 M0.92 101.5 C20.21 80.75, 39.87 58.57, 88.83 0.37 M0.92 101.5 C33.14 64.78, 66.61 27.18, 88.83 0.37 M1.05 113.54 C31 80.7, 59.94 49.51, 99.46 0.34 M1.05 113.54 C23.4 87.73, 47.11 61.7, 99.46 0.34 M1.19 125.58 C45.48 76.15, 86.54 26.05, 110.09 0.3 M1.19 125.58 C31.26 92.39, 58.31 59.89, 110.09 0.3 M0.66 138.38 C34.29 101.39, 64.86 67.5, 120.72 0.27 M0.66 138.38 C38.01 95.16, 75.67 52.29, 120.72 0.27 M4.08 146.65 C28.3 117.71, 55.49 88.24, 131.35 0.23 M4.08 146.65 C48.64 93.64, 94.35 40.72, 131.35 0.23 M8.8 153.4 C48.57 108.16, 88.96 60.91, 141.98 0.2 M8.8 153.4 C52.93 103.15, 96.45 51.3, 141.98 0.2 M14.84 158.65 C46.12 125.72, 73.67 93.17, 152.61 0.16 M14.84 158.65 C66.36 99.39, 115.99 40.71, 152.61 0.16 M23.5 160.88 C72.58 100.55, 126.27 43.68, 163.24 0.13 M23.5 160.88 C59.02 119.66, 94.68 77.72, 163.24 0.13 M32.82 162.36 C61.47 128.32, 91.03 94.82, 173.87 0.09 M32.82 162.36 C75.67 114.16, 119.44 65.44, 173.87 0.09 M43.45 162.32 C89.44 111.09, 134.87 57.07, 184.5 0.06 M43.45 162.32 C93.18 107.56, 141.73 51.66, 184.5 0.06 M54.08 162.29 C100.42 109.22, 149.48 52.73, 195.13 0.03 M54.08 162.29 C86.57 124.41, 119.7 86.86, 195.13 0.03 M64.71 162.25 C96.63 126.91, 126.23 92.68, 205.76 -0.01 M64.71 162.25 C99.83 124.47, 133.14 86.06, 205.76 -0.01 M74.69 162.97 C126.2 102.65, 178.34 41.59, 216.39 -0.04 M74.69 162.97 C124.11 106.26, 172.67 50.16, 216.39 -0.04 M85.32 162.94 C137.05 103.02, 191.6 41.4, 227.02 -0.08 M85.32 162.94 C122.96 120.65, 159.24 78.57, 227.02 -0.08 M95.95 162.9 C128.09 127.51, 162.48 88.53, 237.65 -0.11 M95.95 162.9 C137.03 116.58, 175.99 71.91, 237.65 -0.11 M106.58 162.87 C153.36 109.58, 200.31 55.37, 248.28 -0.15 M106.58 162.87 C153.09 108.49, 198.98 55.79, 248.28 -0.15 M117.21 162.84 C155.66 118.23, 196.88 73.41, 258.91 -0.18 M117.21 162.84 C146.67 129.33, 175.83 94.92, 258.91 -0.18 M127.84 162.8 C170.27 115.02, 209.58 67.93, 269.54 -0.22 M127.84 162.8 C160.97 122.93, 195.38 85.46, 269.54 -0.22 M138.47 162.77 C193.45 95.79, 250.35 33.68, 280.17 -0.25 M138.47 162.77 C186.24 109.67, 231.21 56.66, 280.17 -0.25 M149.1 162.73 C185.43 120.41, 220.41 78.71, 290.8 -0.28 M149.1 162.73 C203.38 101.67, 256.37 41.38, 290.8 -0.28 M159.73 162.7 C203.79 108.79, 250.8 56.52, 300.78 0.44 M159.73 162.7 C212.43 99.93, 266.95 37.67, 300.78 0.44 M170.36 162.66 C215.24 109.38, 258.84 58.27, 311.41 0.4 M170.36 162.66 C201.88 128.02, 231.59 92.62, 311.41 0.4 M180.99 162.63 C230.04 107.36, 281.61 48.09, 322.04 0.37 M180.99 162.63 C229.37 106.69, 276.82 50.84, 322.04 0.37 M191.62 162.59 C241.45 104.06, 294.86 44.97, 332.67 0.33 M191.62 162.59 C223.5 127.59, 252.35 93.24, 332.67 0.33 M202.25 162.56 C252.62 104.13, 305.3 46.32, 343.3 0.3 M202.25 162.56 C248.49 108.81, 295.67 55.27, 343.3 0.3 M212.88 162.53 C262.74 103.54, 310.82 46.37, 353.93 0.26 M212.88 162.53 C257.06 112.76, 299.72 61.9, 353.93 0.26 M223.51 162.49 C253.25 124, 285.25 89.09, 364.56 0.23 M223.51 162.49 C264.78 116.17, 306.28 67.91, 364.56 0.23 M234.14 162.46 C271.91 121.73, 307.21 78.54, 375.19 0.19 M234.14 162.46 C265 126.46, 297.99 87.92, 375.19 0.19 M244.77 162.42 C275.79 126.1, 306.28 90.37, 385.82 0.16 M244.77 162.42 C289.75 113.28, 333.68 62.21, 385.82 0.16 M255.4 162.39 C299.51 113.01, 342.91 64.26, 396.45 0.12 M255.4 162.39 C311.93 98.51, 368.18 33.17, 396.45 0.12 M266.03 162.35 C319.91 98.08, 373.06 37.62, 407.08 0.09 M266.03 162.35 C309.05 112.44, 351.75 62.96, 407.08 0.09 M276.66 162.32 C325.84 105.82, 376.02 49.18, 416.4 1.57 M276.66 162.32 C305.63 130.6, 334.29 96.67, 416.4 1.57 M287.29 162.28 C338.71 100.32, 392.22 40, 424.4 4.55 M287.29 162.28 C333.45 110.79, 378.6 57.97, 424.4 4.55 M297.92 162.25 C339.74 117.81, 379.17 70.81, 431.75 8.29 M297.92 162.25 C343.66 107.87, 391.3 54.34, 431.75 8.29 M307.89 162.97 C337.39 127.46, 367.29 95.59, 435.82 15.8 M307.89 162.97 C345.6 122.97, 382.27 81.37, 435.82 15.8 M318.52 162.94 C354.95 122.31, 391.75 80.06, 438.58 24.82 M318.52 162.94 C354.91 122.93, 388.88 82.7, 438.58 24.82 M329.15 162.9 C367.5 117.59, 405.41 72.44, 438.71 36.86 M329.15 162.9 C372.17 112.72, 414.54 64.82, 438.71 36.86 M339.78 162.87 C370.96 128.09, 402.12 91.8, 438.85 48.91 M339.78 162.87 C360.94 140.78, 381.05 116.87, 438.85 48.91 M350.41 162.83 C380.94 124.25, 416.48 88.18, 438.98 60.95 M350.41 162.83 C377.87 131.81, 406.62 99.93, 438.98 60.95 M361.04 162.8 C386.95 131.96, 418.3 100.1, 439.11 72.99 M361.04 162.8 C378.2 143.7, 395.66 124.27, 439.11 72.99 M371.67 162.76 C390.76 141.02, 409.66 120.96, 439.25 85.03 M371.67 162.76 C388.7 142.74, 407.12 123.57, 439.25 85.03 M382.3 162.73 C401.27 140.07, 416.59 120.74, 438.72 97.82 M382.3 162.73 C403.88 138.7, 423.3 114.19, 438.72 97.82 M392.93 162.69 C404.82 149.07, 413.68 135.31, 438.86 109.86 M392.93 162.69 C403.6 149.01, 415.8 137.26, 438.86 109.86 M403.56 162.66 C411.76 150.89, 419.15 140.79, 438.99 121.9 M403.56 162.66 C414.06 151.08, 422.26 139.88, 438.99 121.9 M414.85 161.87 C422.35 154.43, 427.96 147.86, 439.12 133.95 M414.85 161.87 C422.35 155.03, 428.34 146.93, 439.12 133.95 M12.63 157.71 C12.63 157.71, 12.63 157.71, 12.63 157.71 M12.63 157.71 C12.63 157.71, 12.63 157.71, 12.63 157.71 M29.2 161.51 C22.49 152.78, 15.25 148.01, 1.28 137.24 M29.2 161.51 C21.91 155, 14.59 148.64, 1.28 137.24 M41.24 161.38 C24.58 149.26, 12 136.04, 1.24 126.61 M41.24 161.38 C29.17 150.08, 17.1 140.54, 1.24 126.61 M54.04 161.9 C35.55 144.22, 14.38 128.38, 1.21 115.98 M54.04 161.9 C36.98 147.51, 19.58 132.41, 1.21 115.98 M66.08 161.77 C49.47 144.31, 30.58 131.79, 1.17 105.35 M66.08 161.77 C47.07 146.31, 31.13 130.55, 1.17 105.35 M78.12 161.64 C59.93 150.08, 44.66 134.77, 1.14 94.72 M78.12 161.64 C52.34 138.95, 25.48 118.15, 1.14 94.72 M90.16 161.5 C63.07 135.04, 33.28 111.75, 1.1 84.09 M90.16 161.5 C65.91 141.36, 43.79 121.26, 1.1 84.09 M102.2 161.37 C68.72 131.36, 34.74 105.55, 1.07 73.46 M102.2 161.37 C77.58 140.54, 52.96 118.19, 1.07 73.46 M115 161.89 C84.95 135.81, 52.31 107.28, 1.03 62.83 M115 161.89 C83.82 136.73, 53.49 109.46, 1.03 62.83 M127.04 161.76 C89.28 127.55, 51.44 95.03, 1 52.2 M127.04 161.76 C81.38 124.02, 37.96 85.59, 1 52.2 M139.08 161.63 C91.68 116.65, 43.2 74.47, 0.97 41.57 M139.08 161.63 C95.7 126.23, 53.01 88.67, 0.97 41.57 M151.12 161.49 C100.95 114.13, 48.42 68.62, 0.93 30.94 M151.12 161.49 C90.15 111.13, 30.72 57.69, 0.93 30.94 M163.16 161.36 C115.42 119.42, 67.08 78.01, 1.65 20.96 M163.16 161.36 C118.51 122.87, 75.05 86.12, 1.65 20.96 M175.95 161.88 C122.09 113.87, 66.6 67.98, 4.64 12.96 M175.95 161.88 C134.52 125.26, 93.77 88.5, 4.64 12.96 M188 161.75 C138.16 118.39, 87.41 76.53, 9.88 6.92 M188 161.75 C148.1 124.31, 106.49 89.31, 9.88 6.92 M200.04 161.62 C150.33 118.59, 103.86 76.78, 17.4 2.85 M200.04 161.62 C161.79 129.9, 123.23 95.05, 17.4 2.85 M212.08 161.48 C170.1 124.58, 130.42 90.46, 26.42 0.09 M212.08 161.48 C143.99 103.67, 76.17 43.87, 26.42 0.09 M224.12 161.35 C160.96 105.68, 95.51 48.86, 38.46 -0.04 M224.12 161.35 C160.64 104.75, 95.82 49, 38.46 -0.04 M236.91 161.87 C190.64 119.99, 140.94 77.86, 50.5 -0.17 M236.91 161.87 C193.55 123.27, 151.81 88.23, 50.5 -0.17 M248.95 161.74 C195.36 114.93, 141.13 67.04, 62.54 -0.3 M248.95 161.74 C185.69 106.22, 121.79 51.09, 62.54 -0.3 M260.99 161.61 C208.38 114.04, 156.93 70.2, 74.58 -0.44 M260.99 161.61 C212.14 120.25, 162.85 78.55, 74.58 -0.44 M273.04 161.48 C217.34 112.16, 160.57 64.36, 87.38 0.08 M273.04 161.48 C230.92 123.54, 188.6 88.11, 87.38 0.08 M285.08 161.34 C246.78 130.31, 209.09 96.57, 99.42 -0.05 M285.08 161.34 C228.65 112.97, 170.93 63.25, 99.42 -0.05 M297.87 161.87 C228.56 101.9, 156.23 40.73, 111.46 -0.18 M297.87 161.87 C248.3 120.57, 199.88 76.56, 111.46 -0.18 M309.91 161.73 C255.69 115.37, 203.76 68.24, 123.5 -0.31 M309.91 161.73 C256.08 114.72, 201.64 67, 123.5 -0.31 M321.95 161.6 C281.31 127.48, 240.5 91.27, 135.54 -0.45 M321.95 161.6 C269.67 117.46, 220.19 72.86, 135.54 -0.45 M333.99 161.47 C293.05 125.71, 250.92 89.64, 148.34 0.08 M333.99 161.47 C272.82 107.4, 211.12 55.1, 148.34 0.08 M346.04 161.33 C290.72 114.35, 237.3 66.07, 160.38 -0.06 M346.04 161.33 C292.55 115.34, 240.07 68.27, 160.38 -0.06 M358.83 161.86 C312.17 123.21, 267.05 83.51, 172.42 -0.19 M358.83 161.86 C318.68 126.18, 276.69 91.13, 172.42 -0.19 M370.87 161.72 C304.44 105.16, 238 48.4, 184.46 -0.32 M370.87 161.72 C313.86 112.16, 258.89 63.02, 184.46 -0.32 M382.91 161.59 C343.09 127.64, 303.72 91.26, 196.5 -0.46 M382.91 161.59 C316.66 101.9, 249.53 43.26, 196.5 -0.46 M394.95 161.46 C330.03 107.69, 263.27 48.87, 209.3 0.07 M394.95 161.46 C331.58 107.46, 270.15 53.54, 209.3 0.07 M406.99 161.32 C347.15 109.12, 286.49 57.27, 221.34 -0.07 M406.99 161.32 C365.03 123.75, 322.21 87.78, 221.34 -0.07 M417.53 159.88 C361.29 110.67, 301.93 58.01, 233.38 -0.2 M417.53 159.88 C351.46 103.32, 285.76 45.68, 233.38 -0.2 M426.55 157.12 C387.55 122.56, 347.45 86.78, 245.42 -0.33 M426.55 157.12 C373.14 109.28, 318.82 63.09, 245.42 -0.33 M432.55 151.74 C387.65 113.47, 342.14 75.18, 257.46 -0.47 M432.55 151.74 C368.11 97.9, 303.93 41.84, 257.46 -0.47 M436.29 144.39 C392.25 107.87, 351.13 66.57, 270.25 0.06 M436.29 144.39 C383.23 97.15, 329.08 49.58, 270.25 0.06 M438.52 135.73 C392.76 98.75, 349.7 60.07, 282.3 -0.08 M438.52 135.73 C390.09 94.95, 343.41 53.06, 282.3 -0.08 M439.24 125.75 C397.46 94.17, 360.19 58.02, 294.34 -0.21 M439.24 125.75 C400.56 92.62, 362.33 58.91, 294.34 -0.21 M439.21 115.12 C399.67 82.72, 364.6 47.31, 306.38 -0.34 M439.21 115.12 C393.76 73.68, 347.19 33.78, 306.38 -0.34 M439.17 104.49 C392.97 64.03, 348.35 23.12, 318.42 -0.48 M439.17 104.49 C396.25 68.04, 354.81 32.34, 318.42 -0.48 M439.14 93.86 C413.42 73.81, 388.55 50.03, 331.21 0.05 M439.14 93.86 C414.23 73.88, 390.82 51.97, 331.21 0.05 M439.1 83.23 C402.86 52.33, 365.17 17.92, 343.25 -0.09 M439.1 83.23 C419.4 66.93, 399.25 48.55, 343.25 -0.09 M439.07 72.6 C413.39 51.05, 391.41 29.18, 355.29 -0.22 M439.07 72.6 C415.57 49.6, 391.23 29.14, 355.29 -0.22 M439.03 61.97 C412.62 39.78, 386.56 14.08, 367.34 -0.35 M439.03 61.97 C414.37 40.41, 388.3 18.61, 367.34 -0.35 M439 51.34 C420.87 38.54, 406.79 22.24, 379.38 -0.49 M439 51.34 C424.84 38.92, 410.01 25.78, 379.38 -0.49 M438.96 40.71 C423.71 29.22, 407.55 15.93, 392.17 0.04 M438.96 40.71 C425.52 27.7, 410.08 17.22, 392.17 0.04 M438.93 30.08 C431.09 21.29, 419.77 13.92, 404.21 -0.1 M438.93 30.08 C431.61 23.83, 422.85 16.84, 404.21 -0.1 M435.88 16.83 C431.56 10.36, 424.63 9.13, 417.76 1.08 M435.88 16.83 C432.35 12.49, 426.51 9.59, 417.76 1.08" stroke="#a5d8ff" stroke-width="1" fill="none"></path><path d="M32 0 C180.52 0.43, 329.31 -0.12, 406.89 0 M32 0 C145.59 -1.27, 258.77 -1.21, 406.89 0 M406.89 0 C427.31 -0.15, 438.34 11.82, 438.89 32 M406.89 0 C430.33 1.54, 441 10.35, 438.89 32 M438.89 32 C438.67 65.54, 438.26 97.1, 438.89 130.1 M438.89 32 C437.79 58.99, 438.62 87.45, 438.89 130.1 M438.89 130.1 C439.74 150.14, 427.88 161.14, 406.89 162.1 M438.89 130.1 C440.24 150.5, 427.77 160.92, 406.89 162.1 M406.89 162.1 C314.69 160.79, 221.29 162.28, 32 162.1 M406.89 162.1 C328.3 161.15, 247.99 160.13, 32 162.1 M32 162.1 C11.32 160.23, 0.3 152.62, 0 130.1 M32 162.1 C11.19 161.61, -2.3 149.81, 0 130.1 M0 130.1 C2.13 92.78, 1.99 54.57, 0 32 M0 130.1 C-0.56 97.13, 0.18 65.25, 0 32 M0 32 C0.79 10.81, 12.13 -0.26, 32 0 M0 32 C0.28 11.9, 9.23 2.15, 32 0" stroke="#1971c2" stroke-width="2" fill="none"></path></g><g stroke-linecap="round"><g transform="translate(66.1780986171409 254.02361586820598) rotate(0 0 -79.0004511803545)"><path d="M0.57 0.87 C0.53 -25.34, 0.44 -131.54, 0.33 -158.04 M-0.59 0.28 C-0.8 -25.66, -0.39 -130.32, -0.44 -156.52" stroke="#1e1e1e" stroke-width="2" fill="none"></path></g></g><mask></mask><g stroke-linecap="round"><g transform="translate(66.1780986171409 96.02271350749697) rotate(0 162.97500484243506 0)"><path d="M-0.2 -0.9 C54.26 -1.01, 271.78 -1.15, 326.1 -1.19 M-1.76 1.24 C52.61 1.28, 270.79 0, 325.23 -0.27" stroke="#1e1e1e" stroke-width="2" fill="none"></path></g></g><mask></mask><g stroke-linecap="round"><g transform="translate(388.03178861117794 94.8523364529733) rotate(0 0 81.63379955303299)"><path d="M0 0.56 C-0.01 27.47, -0.64 135.37, -0.83 162.44 M-1.45 -0.19 C-1.02 26.77, 1.02 136.15, 1.45 163.55" stroke="#1e1e1e" stroke-width="2" fill="none"></path></g></g><mask></mask><g stroke-linecap="round"><g transform="translate(66.1780986171409 258.1199355590393) rotate(0 33.0631517902965 0)"><path d="M0.2 -0.31 C11.48 -0.05, 55.6 0.51, 66.78 0.72 M-1.16 -1.52 C10.11 -1.52, 54.8 -1.13, 66.18 -1.02" stroke="#1e1e1e" stroke-width="2" fill="none"></path></g></g><mask></mask><g stroke-linecap="round"><g transform="translate(129.96364808868634 234.12720594130224) rotate(0 0 26.04088946315369)"><path d="M0.94 -0.43 C0.68 8.08, -0.76 42.27, -1.02 51 M-0.02 -1.71 C0.02 6.92, 1.44 42.81, 1.16 51.97" stroke="#1e1e1e" stroke-width="2" fill="none"></path></g></g><mask></mask><g stroke-linecap="round"><g transform="translate(139.91185305213844 244.07541090475388) rotate(0 0 13.166741863392417)"><path d="M0.2 -0.25 C0.27 4.12, -0.01 22.06, -0.08 26.51 M-0.36 0.81 C-0.33 4.99, -0.5 21.26, -0.55 25.63" stroke="#1e1e1e" stroke-width="2" fill="none"></path></g></g><mask></mask><g stroke-linecap="round"><g transform="translate(139.91185305213844 256.9495585045156) rotate(0 123.4747792522578 0)"><path d="M-0.56 -0.11 C40.51 -0.02, 205.52 0.84, 246.71 0.83 M1.35 -1.21 C42.21 -1.48, 204.93 -1.23, 245.63 -0.86" stroke="#1e1e1e" stroke-width="2" fill="none"></path></g></g><mask></mask><g stroke-linecap="round"><g transform="translate(235.29758299582568 257.53474703177744) rotate(0 0 31.014991944879966)"><path d="M-0.08 0.24 C-0.01 10.45, 0.58 51.57, 0.54 61.97 M-1.58 -0.67 C-1.64 9.67, -0.19 53.26, -0.12 63.47" stroke="#1e1e1e" stroke-width="2" fill="none"></path></g></g><mask></mask><g stroke-linecap="round" transform="translate(148.4627978520191 321.00934150332296) rotate(0 86.31530777112812 22.5)"><path d="M11.25 0 C61.99 -0.57, 114.39 0.86, 161.38 0 M11.25 0 C58.05 0.03, 104.53 0.56, 161.38 0 M161.38 0 C168.23 1.21, 174.1 5.49, 172.63 11.25 M161.38 0 C166.72 -1.01, 172.77 2.78, 172.63 11.25 M172.63 11.25 C172.26 17.81, 173 27.17, 172.63 33.75 M172.63 11.25 C172 16.98, 173.15 22.33, 172.63 33.75 M172.63 33.75 C170.98 42.33, 169.62 46.99, 161.38 45 M172.63 33.75 C174.26 42.2, 168.07 43.22, 161.38 45 M161.38 45 C117.91 46.82, 78.69 47.3, 11.25 45 M161.38 45 C122.41 44.19, 83.23 43.63, 11.25 45 M11.25 45 C3.86 43.19, 1.51 39.81, 0 33.75 M11.25 45 C2.1 45.04, -1.85 40.62, 0 33.75 M0 33.75 C-1.24 24.65, -0.94 17.44, 0 11.25 M0 33.75 C0.81 25.36, -0.18 18.7, 0 11.25 M0 11.25 C-1.63 4.12, 4.57 -0.12, 11.25 0 M0 11.25 C0.69 1.56, 2.69 -1.42, 11.25 0" stroke="#f08c00" stroke-width="2" fill="none"></path></g><g transform="translate(225.7781056231472 326.00934150332296) rotate(0 9 17.5)"><text x="9" y="24.668" font-family="'Virgil 3 YOFF'" font-size="28px" fill="#f08c00" text-anchor="middle" style="white-space: pre;" direction="ltr" dominant-baseline="alphabetic">m</text></g><g transform="translate(455.3284692462946 42.87800838107023) rotate(0 10.5 17.5)"><text x="0" y="24.668" font-family="'Virgil 3 YOFF'" font-size="28px" fill="#1971c2" text-anchor="start" style="white-space: pre;" direction="ltr" dominant-baseline="alphabetic">B</text></g><g transform="translate(108.5880879864419 266.100060309127) rotate(0 7.713708170193854 15.427416340387708)"><text x="0" y="21.746486073410452" font-family="'Virgil 3 YOFF'" font-size="24.683866144620264px" fill="#e03131" text-anchor="start" style="white-space: pre;" direction="ltr" dominant-baseline="alphabetic">+</text></g><g transform="translate(142.2949055900565 266.17769335053026) rotate(0 5.372424154644591 15.349783298984676)"><text x="0" y="21.637054538248787" font-family="'Virgil 3 YOFF'" font-size="24.559653278375468px" fill="#1971c2" text-anchor="start" style="white-space: pre;" direction="ltr" dominant-baseline="alphabetic">-</text></g><g mask="url(#mask-0sO9_W6XnA3HUrZEqs50N)" stroke-linecap="round"><g transform="translate(54.62369687201226 90.17082823487817) rotate(0 0 37.74466000839175)"><path d="M0 0 C-1.63 31.48, -0.94 60.04, 0 75.49 M0 0 C-0.08 26.86, -0.95 55.75, 0 75.49" stroke="#2f9e44" stroke-width="2" fill="none"></path></g><g transform="translate(54.62369687201226 90.17082823487817) rotate(0 0 37.74466000839175)"><path d="M-0.42 1.37 L6.17 14.74 L-8.21 13.55 L1.32 -0.69" stroke="none" stroke-width="0" fill="#2f9e44" fill-rule="evenodd"></path><path d="M0 0 C1.32 6.53, 4.29 10.87, 6.17 13.67 M0 0 C2.25 4.5, 3.85 10.51, 6.17 13.67 M6.17 13.67 C-0.03 12.34, -4.91 13.7, -6.51 13.51 M6.17 13.67 C1.79 14.19, -3.26 13.89, -6.51 13.51 M-6.51 13.51 C-4.43 9.38, -2.67 4.39, 0 0 M-6.51 13.51 C-3.89 8.87, -1.74 5.09, 0 0 M0 0 C0 0, 0 0, 0 0 M0 0 C0 0, 0 0, 0 0" stroke="#2f9e44" stroke-width="2" fill="none"></path></g><g transform="translate(54.62369687201226 90.17082823487817) rotate(0 0 37.74466000839175)"><path d="M-0.42 76.86 L-6.63 63.11 L4.34 61.8 L1.32 74.8" stroke="none" stroke-width="0" fill="#2f9e44" fill-rule="evenodd"></path><path d="M0 75.49 C-3.71 71.22, -5.84 64.77, -6.63 62.04 M0 75.49 C-2.37 70.08, -5.44 66.2, -6.63 62.04 M-6.63 62.04 C-2.8 60.81, 2.36 62.12, 6.04 61.76 M-6.63 62.04 C-1.02 62.32, 3.92 61.98, 6.04 61.76 M6.04 61.76 C4.23 66.17, 2.01 69.83, 0 75.49 M6.04 61.76 C4.4 66.36, 2.33 71.73, 0 75.49 M0 75.49 C0 75.49, 0 75.49, 0 75.49 M0 75.49 C0 75.49, 0 75.49, 0 75.49" stroke="#2f9e44" stroke-width="2" fill="none"></path></g></g><mask id="mask-0sO9_W6XnA3HUrZEqs50N"><rect x="0" y="0" fill="#fff" width="154.62369687201226" height="265.66014825166167"></rect><rect x="50.55703026892388" y="117.91548824326992" fill="#000" width="8.133333206176758" height="20" opacity="1"></rect></mask><g transform="translate(50.55703026892388 117.91548824326992) rotate(0 3.576065314043035 10)"><text x="4.066666603088379" y="14.096" font-family="'Virgil 3 YOFF'" font-size="16px" fill="#2f9e44" text-anchor="middle" style="white-space: pre;" direction="ltr" dominant-baseline="alphabetic">b</text></g><g mask="url(#mask-rNxHMD99h7mmzD-mCh6TW)" stroke-linecap="round"><g transform="translate(69.25341005355949 80.80781179868791) rotate(0 155.66014825166144 0)"><path d="M0 0 C90.49 -1.84, 182.24 -2.57, 311.32 0 M0 0 C116.8 -1.1, 233.38 -0.68, 311.32 0" stroke="#2f9e44" stroke-width="2" fill="none"></path></g><g transform="translate(69.25341005355949 80.80781179868791) rotate(0 155.66014825166144 0)"><path d="M1.24 0.25 L12.94 -8.01 L12.67 5.2 L0.88 -1.97" stroke="none" stroke-width="0" fill="#2f9e44" fill-rule="evenodd"></path><path d="M0 0 C3.31 -1.76, 7.97 -4.41, 13.55 -6.44 M0 0 C5.42 -2.88, 10.63 -4.85, 13.55 -6.44 M13.55 -6.44 C13.25 -1.26, 13.54 2.87, 13.64 6.24 M13.55 -6.44 C13.35 -4.03, 13.23 -0.73, 13.64 6.24 M13.64 6.24 C10.4 3.05, 5.64 2.93, 0 0 M13.64 6.24 C10.22 4.16, 6.1 3.22, 0 0 M0 0 C0 0, 0 0, 0 0 M0 0 C0 0, 0 0, 0 0" stroke="#2f9e44" stroke-width="2" fill="none"></path></g><g transform="translate(69.25341005355949 80.80781179868791) rotate(0 155.66014825166144 0)"><path d="M312.56 0.25 L297.07 4.68 L296.8 -7.47 L312.2 -1.97" stroke="none" stroke-width="0" fill="#2f9e44" fill-rule="evenodd"></path><path d="M311.32 0 C306.74 2.21, 303.44 3.27, 297.69 6.25 M311.32 0 C306.62 1.95, 301.66 4.73, 297.69 6.25 M297.69 6.25 C297.52 2.81, 297.81 -1.69, 297.77 -6.43 M297.69 6.25 C297.48 3.21, 297.36 1.06, 297.77 -6.43 M297.77 -6.43 C302.76 -5.54, 306.33 -1.78, 311.32 0 M297.77 -6.43 C302.4 -4.68, 306.41 -1.83, 311.32 0 M311.32 0 C311.32 0, 311.32 0, 311.32 0 M311.32 0 C311.32 0, 311.32 0, 311.32 0" stroke="#2f9e44" stroke-width="2" fill="none"></path></g></g><mask id="mask-rNxHMD99h7mmzD-mCh6TW"><rect x="0" y="0" fill="#fff" width="480.57370655688237" height="180.8078117986879"></rect><rect x="219.41355830522093" y="70.80781179868791" fill="#000" width="11" height="20" opacity="1"></rect></mask><g transform="translate(219.41355830522093 70.80781179868791) rotate(0 5.5 9.166083134901783)"><text x="5.5" y="14.096" font-family="'Virgil 3 YOFF'" font-size="16px" fill="#2f9e44" text-anchor="middle" style="white-space: pre;" direction="ltr" dominant-baseline="alphabetic">a</text></g><g mask="url(#mask-b_zEXxKS-6mekm_eyY6-E)" stroke-linecap="round"><g transform="translate(76.8608609079638 232.37164035951628) rotate(0 0 -47.400270708212474)"><path d="M0 0 C-0.98 -21.75, -0.96 -40.04, 0 -94.8 M0 0 C0.61 -24.14, 0.46 -48.97, 0 -94.8" stroke="#e03131" stroke-width="2" fill="none"></path></g><g transform="translate(76.8608609079638 232.37164035951628) rotate(0 0 -47.400270708212474)"><path d="M0.57 -95.39 L4.87 -80.24 L-7.9 -82.69 L-0.9 -95.67" stroke="none" stroke-width="0" fill="#e03131" fill-rule="evenodd"></path><path d="M0 -94.8 C-0.08 -92.59, 1.36 -87.75, 6.46 -81.26 M0 -94.8 C1.78 -91.43, 3.31 -88.55, 6.46 -81.26 M6.46 -81.26 C2.64 -82.31, 1.11 -81.83, -6.22 -81.15 M6.46 -81.26 C1.35 -80.7, -3.57 -81.45, -6.22 -81.15 M-6.22 -81.15 C-4.99 -85.2, -2.46 -90.9, 0 -94.8 M-6.22 -81.15 C-4.05 -83.58, -3.26 -87.86, 0 -94.8 M0 -94.8 C0 -94.8, 0 -94.8, 0 -94.8 M0 -94.8 C0 -94.8, 0 -94.8, 0 -94.8" stroke="#e03131" stroke-width="2" fill="none"></path></g></g><mask id="mask-b_zEXxKS-6mekm_eyY6-E"><rect x="0" y="0" fill="#fff" width="176.8608609079638" height="427.1721817759412"></rect><rect x="72.3608609079638" y="174.97136965130358" fill="#000" width="9" height="20" opacity="1"></rect></mask><g transform="translate(72.3608609079638 174.97136965130358) rotate(0 4.336814302005223 10.000000000000227)"><text x="4.5" y="14.096" font-family="'Virgil 3 YOFF'" font-size="16px" fill="#e03131" text-anchor="middle" style="white-space: pre;" direction="ltr" dominant-baseline="alphabetic">I</text></g><g mask="url(#mask-aYJ76Sk-Rfna8aRY9tLYY)" stroke-linecap="round"><g transform="translate(122.505566034391 112.7005865344604) rotate(0 99.77464389815145 0)"><path d="M0 0 C49.35 -1.08, 97.69 2.68, 199.55 0 M0 0 C69.37 0.08, 138.7 -1.19, 199.55 0" stroke="#e03131" stroke-width="2" fill="none"></path></g><g transform="translate(122.505566034391 112.7005865344604) rotate(0 99.77464389815145 0)"><path d="M198.79 -1.61 L186.63 6.13 L187 -7.46 L199.16 0.49" stroke="none" stroke-width="0" fill="#e03131" fill-rule="evenodd"></path><path d="M199.55 0 C196.54 0.09, 192.79 4.43, 185.9 6.22 M199.55 0 C195 2.94, 190.4 4.14, 185.9 6.22 M185.9 6.22 C185.45 2.76, 184.75 -2.5, 186.01 -6.46 M185.9 6.22 C185.74 1.81, 186.45 -2.83, 186.01 -6.46 M186.01 -6.46 C188.55 -4.7, 190.61 -3.73, 199.55 0 M186.01 -6.46 C189.41 -4.3, 192.4 -3.83, 199.55 0 M199.55 0 C199.55 0, 199.55 0, 199.55 0 M199.55 0 C199.55 0, 199.55 0, 199.55 0" stroke="#e03131" stroke-width="2" fill="none"></path></g></g><mask id="mask-aYJ76Sk-Rfna8aRY9tLYY"><rect x="0" y="0" fill="#fff" width="422.0548538306939" height="212.7005865344604"></rect><rect x="217.78020993254245" y="102.7005865344604" fill="#000" width="9" height="20" opacity="1"></rect></mask><g transform="translate(217.78020993254245 102.7005865344604) rotate(0 4.5 10.236880106399212)"><text x="4.5" y="14.096" font-family="'Virgil 3 YOFF'" font-size="16px" fill="#e03131" text-anchor="middle" style="white-space: pre;" direction="ltr" dominant-baseline="alphabetic">I</text></g><g mask="url(#mask-8Pc2BSqb24a8O6yEpXcXj)" stroke-linecap="round"><g transform="translate(370.04031306616844 139.91185305213867) rotate(0 0 42.133573962855735)"><path d="M0 0 C-0.81 23.98, -1.29 45.63, 0 84.27 M0 0 C0.09 24.27, 0.71 47.91, 0 84.27" stroke="#e03131" stroke-width="2" fill="none"></path></g><g transform="translate(370.04031306616844 139.91185305213867) rotate(0 0 42.133573962855735)"><path d="M-0.16 84.06 L-7.66 70.11 L7.76 71.05 L-0.38 85.24" stroke="none" stroke-width="0" fill="#e03131" fill-rule="evenodd"></path><path d="M0 84.27 C-2.68 82.07, -4.67 78.1, -6.19 70.6 M0 84.27 C-2.1 80.27, -3.41 75.82, -6.19 70.6 M-6.19 70.6 C-1.88 71.75, 2.66 69.66, 6.49 70.74 M-6.19 70.6 C-2.01 70.69, 2.42 70.1, 6.49 70.74 M6.49 70.74 C4.34 76.23, 2.03 81.42, 0 84.27 M6.49 70.74 C4.54 73.84, 2.63 76.85, 0 84.27 M0 84.27 C0 84.27, 0 84.27, 0 84.27 M0 84.27 C0 84.27, 0 84.27, 0 84.27" stroke="#e03131" stroke-width="2" fill="none"></path></g></g><mask id="mask-8Pc2BSqb24a8O6yEpXcXj"><rect x="0" y="0" fill="#fff" width="470.04031306616844" height="324.17900097785014"></rect><rect x="365.54031306616844" y="172.0454270149944" fill="#000" width="9" height="20" opacity="1"></rect></mask><g transform="translate(365.54031306616844 172.0454270149944) rotate(0 4.26840206009058 10)"><text x="4.5" y="14.096" font-family="'Virgil 3 YOFF'" font-size="16px" fill="#e03131" text-anchor="middle" style="white-space: pre;" direction="ltr" dominant-baseline="alphabetic">I</text></g></svg>