<svg xmlns="http://www.w3.org/2000/svg" width="605" height="306"><g fill="none" stroke-width="2"><path stroke="#CBCED4" d="M13 203l42-18 18-63m-18 63h87"/><path stroke="#262627" d="M73 122l-60 81h87l42-18zm0 0l27 81"/></g><g fill="none" stroke="#000"><path d="M363 23l135 69M282 221l135 66M363 92l162 66M309 92l162 66m-54-66l162 66M255 92l162 66m-108 0l162 63m-216-63l162 63m-54-63l162 63m-324-63l162 63m-54-63l-27 63 81-63m-162 0l81 63-27-63m108-66V23l54 69m-162 0l108-69-54 69"/><path d="M255 92l-54 66 108-66v66l108-66-54 66V92l-108 66zm216 129l-54 66 108-66m-162 0l54 66v-66m108-63l-27-66 81 66m-162 0l81-66-27 66m-54 0l-54 63 108-63v63l108-63-54 63v-63l-108 63z"/></g><path d="M435 287c0 6.6-5.4 12-12 12h-12c-6.6 0-12-5.4-12-12v-3c0-6.6 5.4-12 12-12h12c6.6 0 12 5.4 12 12v3m108-66c0 6.6-5.4 12-12 12h-12c-6.6 0-12-5.4-12-12v-3c0-6.6 5.4-12 12-12h12c6.6 0 12 5.4 12 12v3m-54 0c0 6.6-5.4 12-12 12h-12c-6.6 0-12-5.4-12-12v-3c0-6.6 5.4-12 12-12h12c6.6 0 12 5.4 12 12v3m-54 0c0 6.6-5.4 12-12 12h-12c-6.6 0-12-5.4-12-12v-3c0-6.6 5.4-12 12-12h12c6.6 0 12 5.4 12 12v3m-54 0c0 6.6-5.4 12-12 12h-12c-6.6 0-12-5.4-12-12v-3c0-6.6 5.4-12 12-12h12c6.6 0 12 5.4 12 12v3m-81 0c0 6.6-5.4 12-12 12h-12c-6.6 0-12-5.4-12-12v-3c0-6.6 5.4-12 12-12h12c6.6 0 12 5.4 12 12v3m297-63c0 6.6-5.4 12-12 12h-12c-6.6 0-12-5.4-12-12v-3c0-6.6 5.4-12 12-12h12c6.6 0 12 5.4 12 12v3m-54 0c0 6.6-5.4 12-12 12h-12c-6.6 0-12-5.4-12-12v-3c0-6.6 5.4-12 12-12h12c6.6 0 12 5.4 12 12v3m-54 0c0 6.6-5.4 12-12 12h-12c-6.6 0-12-5.4-12-12v-3c0-6.6 5.4-12 12-12h12c6.6 0 12 5.4 12 12v3m-54 0c0 6.6-5.4 12-12 12h-12c-6.6 0-12-5.4-12-12v-3c0-6.6 5.4-12 12-12h12c6.6 0 12 5.4 12 12v3m90-66c0 6.6-5.4 12-12 12h-30c-6.6 0-12-5.4-12-12v-3c0-6.6 5.4-12 12-12h30c6.6 0 12 5.4 12 12v3m-144 66c0 6.6-5.4 12-12 12h-12c-6.6 0-12-5.4-12-12v-3c0-6.6 5.4-12 12-12h12c6.6 0 12 5.4 12 12v3m-54 0c0 6.6-5.4 12-12 12h-12c-6.6 0-12-5.4-12-12v-3c0-6.6 5.4-12 12-12h12c6.6 0 12 5.4 12 12v3m-54 0c0 6.6-5.4 12-12 12h-12c-6.6 0-12-5.4-12-12v-3c0-6.6 5.4-12 12-12h12c6.6 0 12 5.4 12 12v3m-54 0c0 6.6-5.4 12-12 12h-12c-6.6 0-12-5.4-12-12v-3c0-6.6 5.4-12 12-12h12c6.6 0 12 5.4 12 12v3m216-66c0 6.6-5.4 12-12 12h-12c-6.6 0-12-5.4-12-12v-3c0-6.6 5.4-12 12-12h12c6.6 0 12 5.4 12 12v3m-54 0c0 6.6-5.4 12-12 12h-12c-6.6 0-12-5.4-12-12v-3c0-6.6 5.4-12 12-12h12c6.6 0 12 5.4 12 12v3m-54 0c0 6.6-5.4 12-12 12h-12c-6.6 0-12-5.4-12-12v-3c0-6.6 5.4-12 12-12h12c6.6 0 12 5.4 12 12v3m-54 0c0 6.6-5.4 12-12 12h-12c-6.6 0-12-5.4-12-12v-3c0-6.6 5.4-12 12-12h12c6.6 0 12 5.4 12 12v3m117-69c0 6.6-5.4 12-12 12h-30c-6.6 0-12-5.4-12-12v-3c0-6.6 5.4-12 12-12h30c6.6 0 12 5.4 12 12v3" fill="#FFF" stroke="#000"/><g font-family="Times,serif" font-style="italic" font-size="18"><text transform="translate(342 27)">abcde</text><text transform="translate(70 117)">a</text><text transform="translate(278 225)">a</text><text transform="translate(44 184)">b</text><text transform="translate(360 225)">b</text><text transform="translate(8 218)">d</text><text transform="translate(466 225)">d</text><text transform="translate(95 218)">e</text><text transform="translate(521 225)">e</text><text transform="translate(144 184)">c</text><text transform="translate(413 225)">c</text><text transform="translate(243 96)">abc</text><text transform="translate(295 96)">abd</text><text transform="translate(351 96)">ace</text><text transform="translate(405 96)">ade</text><text transform="translate(481 96)">bcde</text><text transform="translate(191 162)">ab</text><text transform="translate(246 162)">ac</text><text transform="translate(299 162)">ad</text><text transform="translate(353 162)">ae</text><text transform="translate(408 162)">bc</text><text transform="translate(461 162)">bd</text><text transform="translate(515 162)">ce</text><text transform="translate(569 162)">de</text><text transform="translate(410.186 291.18)">Ø</text></g></svg>