<svg version="1.1" xmlns="http://www.w3.org/2000/svg" viewBox="0 0 267.6784612353267 258.1591728955186" width="535.3569224706534" height="516.3183457910372"><!-- svg-source:excalidraw --><metadata></metadata>
      <g stroke-linecap="round"><g transform="translate(134.3091509089868 246.7482602357918) rotate(0 0 -117.93667749334395)"><path d="M-0.04 -0.79 C-0.14 -40.06, -1.25 -197.77, -1.2 -236.75 M-1.53 1.41 C-1.22 -37.63, 0.7 -196.03, 0.88 -235.67" stroke="#1e1e1e" stroke-width="2" fill="none"></path></g><g transform="translate(134.3091509089868 246.7482602357918) rotate(0 0 -117.93667749334395)"><path d="M2.39 -235.65 L6.35 -220.96 L-4.84 -223.02 L1.65 -236.39" stroke="none" stroke-width="0" fill="#1e1e1e" fill-rule="evenodd"></path><path d="M0.88 -235.67 C1.32 -233.77, 2.76 -228.56, 7.1 -222.02 M0.88 -235.67 C3.45 -230.48, 5.87 -224.14, 7.1 -222.02 M7.1 -222.02 C0.98 -222.59, -3.04 -222.45, -5.58 -222.13 M7.1 -222.02 C3.16 -222.55, -0.86 -222.59, -5.58 -222.13 M-5.58 -222.13 C-3.44 -224.87, -4.09 -228.36, 0.88 -235.67 M-5.58 -222.13 C-3.12 -226.28, -2.2 -229.82, 0.88 -235.67 M0.88 -235.67 C0.88 -235.67, 0.88 -235.67, 0.88 -235.67 M0.88 -235.67 C0.88 -235.67, 0.88 -235.67, 0.88 -235.67" stroke="#1e1e1e" stroke-width="2" fill="none"></path></g></g><mask></mask><g stroke-linecap="round"><g transform="translate(10.678978640101832 188.18659968737256) rotate(0 123.63017226888473 0)"><path d="M0.51 0.9 C41.68 0.91, 205.79 0.87, 247 0.73 M-0.68 0.32 C40.31 -0.06, 204.59 -1.19, 245.91 -1" stroke="#1e1e1e" stroke-width="2" fill="none"></path></g><g transform="translate(10.678978640101832 188.18659968737256) rotate(0 123.63017226888473 0)"><path d="M245.49 -2.34 L230.86 6.81 L232.99 -8.12 L245.03 -1.18" stroke="none" stroke-width="0" fill="#1e1e1e" fill-rule="evenodd"></path><path d="M245.91 -1 C243 0.64, 238.72 3.52, 232.33 5.36 M245.91 -1 C242.31 1.1, 237.29 3.44, 232.33 5.36 M232.33 5.36 C231.92 0.4, 232.07 -4, 232.31 -7.32 M232.33 5.36 C231.72 2.43, 232.77 0, 232.31 -7.32 M232.31 -7.32 C235.93 -6.01, 237.73 -4.45, 245.91 -1 M232.31 -7.32 C235.81 -4.83, 240.16 -3.13, 245.91 -1 M245.91 -1 C245.91 -1, 245.91 -1, 245.91 -1 M245.91 -1 C245.91 -1, 245.91 -1, 245.91 -1" stroke="#1e1e1e" stroke-width="2" fill="none"></path></g></g><mask></mask><g stroke-linecap="round" transform="translate(77.3742031535794 82.4502681416161) rotate(0 52.05480937637253 52.05480937637253)"><path d="M7.9 24.09 C7.9 24.09, 7.9 24.09, 7.9 24.09 M7.9 24.09 C7.9 24.09, 7.9 24.09, 7.9 24.09 M1.47 43.68 C10.11 33.9, 16.46 27.14, 36.24 3.68 M1.47 43.68 C8.7 36.16, 15.56 27.23, 36.24 3.68 M1.61 55.72 C15.6 39.97, 30.17 21.78, 48.19 2.14 M1.61 55.72 C11.82 43.03, 24.05 30.59, 48.19 2.14 M3.05 66.25 C25.83 42.11, 45.95 18.6, 58.82 2.1 M3.05 66.25 C17.64 49.92, 31.3 32.88, 58.82 2.1 M5.81 75.28 C28.72 46.73, 52.62 18.57, 66.82 5.09 M5.81 75.28 C28.31 51.01, 49 25.1, 66.82 5.09 M11.19 81.28 C34.21 57.14, 55 31.01, 74.83 8.07 M11.19 81.28 C28.92 60.13, 48.13 37.9, 74.83 8.07 M15.92 88.04 C34.69 68.25, 50.04 47.45, 82.18 11.81 M15.92 88.04 C37.47 62.82, 58.53 38.5, 82.18 11.81 M21.3 94.04 C46.18 64.73, 70.76 35.33, 87.56 17.81 M21.3 94.04 C45.18 67.24, 69.01 40.06, 87.56 17.81 M29.3 97.02 C52.3 67.75, 79.44 39.85, 93.6 23.06 M29.3 97.02 C52.84 70.5, 77.77 41.58, 93.6 23.06 M37.31 100.01 C58.12 76.66, 78.67 50.62, 98.98 29.07 M37.31 100.01 C57.78 75.98, 78.2 53.06, 98.98 29.07 M45.32 102.99 C58.08 89.01, 67.92 77.78, 101.08 38.84 M45.32 102.99 C60.65 86.52, 75.21 68.98, 101.08 38.84 M55.29 103.71 C68.98 87.09, 83.68 71.73, 103.18 48.62 M55.29 103.71 C72.38 81.25, 91.29 60.84, 103.18 48.62 M69.2 99.9 C82.39 87.8, 93.12 71.71, 103.31 60.66 M69.2 99.9 C79.29 88.97, 87.55 78.86, 103.31 60.66 M91.64 86.29 C94.06 84.48, 96.78 80.35, 97.54 79.49 M91.64 86.29 C93.09 84.74, 94.7 82.26, 97.54 79.49 M22.38 94.68 C22.38 94.68, 22.38 94.68, 22.38 94.68 M22.38 94.68 C22.38 94.68, 22.38 94.68, 22.38 94.68 M44.23 103.07 C37.66 97.46, 29.75 89.27, 8 71.58 M44.23 103.07 C30.47 91.46, 17.01 79.61, 8 71.58 M52.49 99.66 C38.78 88.94, 21.39 75.15, 4.95 58.33 M52.49 99.66 C35.29 84.83, 17.44 70.52, 4.95 58.33 M62.27 97.56 C47.61 83.1, 31.04 71.85, 2.65 45.73 M62.27 97.56 C41.76 78.19, 19.08 59.32, 2.65 45.73 M71.29 94.8 C48.52 74.4, 24.36 53.64, 4.88 37.07 M71.29 94.8 C50.7 78.16, 31.36 59.45, 4.88 37.07 M80.32 92.04 C64.18 78.69, 50.47 64.72, 7.86 29.06 M80.32 92.04 C60.2 75.52, 40.95 58.48, 7.86 29.06 M86.32 86.66 C71.42 72.88, 55.84 56.98, 10.85 21.05 M86.32 86.66 C63.11 67.19, 40.49 45.94, 10.85 21.05 M93.08 81.94 C74.4 66.95, 56 48.94, 16.85 15.67 M93.08 81.94 C68.17 59.76, 43 38.59, 16.85 15.67 M99.83 77.21 C73.65 54.34, 53.09 35.14, 22.1 9.64 M99.83 77.21 C73.85 54.32, 45.37 31.93, 22.1 9.64 M102.06 68.55 C82.84 51.45, 60.2 33.37, 28.1 4.25 M102.06 68.55 C75.44 45.04, 49.72 22.78, 28.1 4.25 M105.05 60.54 C77.82 40.16, 53.81 16.63, 34.11 -1.13 M105.05 60.54 C89.2 46.63, 74.89 34.28, 34.11 -1.13 M107.28 51.88 C87.56 34.33, 66.79 17.33, 44.64 -2.57 M107.28 51.88 C91.59 38.26, 76.68 25.59, 44.64 -2.57 M104.98 39.28 C94.11 27.34, 78.95 17.2, 58.19 -1.39 M104.98 39.28 C94.48 31.15, 86.46 21.35, 58.19 -1.39" stroke="#a5d8ff" stroke-width="1" fill="none"></path><path d="M56.31 0.76 C64.3 0.76, 73.26 5.15, 80.42 9.92 C87.58 14.69, 95.38 21.79, 99.27 29.4 C103.16 37.01, 104.34 46.83, 103.76 55.59 C103.17 64.35, 100.53 74.92, 95.74 81.97 C90.94 89.03, 82.92 94.17, 75 97.92 C67.07 101.67, 57.03 105.05, 48.21 104.46 C39.39 103.88, 29.27 99.38, 22.07 94.41 C14.86 89.44, 8.68 82.32, 4.96 74.65 C1.24 66.99, -0.77 56.92, -0.23 48.44 C0.3 39.97, 3.31 31.11, 8.16 23.8 C13.01 16.48, 20.15 8.35, 28.85 4.53 C37.55 0.71, 54.55 1.29, 60.36 0.87 C66.16 0.46, 63.85 1.28, 63.67 2.04 M49.2 -0.41 C57.7 -1.63, 68.66 2.42, 76.25 6.25 C83.84 10.08, 89.86 15.4, 94.74 22.56 C99.61 29.72, 104.73 40.41, 105.51 49.22 C106.28 58.02, 103.61 67.77, 99.37 75.4 C95.12 83.04, 87.5 90.35, 80.05 95.05 C72.6 99.75, 63.38 102.96, 54.67 103.6 C45.96 104.23, 35.49 102.88, 27.79 98.85 C20.09 94.83, 12.99 86.62, 8.47 79.45 C3.95 72.29, 1.29 64.29, 0.67 55.89 C0.05 47.49, 0.84 36.9, 4.75 29.07 C8.67 21.24, 17 13.54, 24.16 8.91 C31.33 4.28, 43.43 2.52, 47.74 1.3 C52.05 0.07, 49.92 0.95, 50.03 1.56" stroke="#1971c2" stroke-width="2" fill="none"></path></g><g stroke-linecap="round" transform="translate(60.022600028121815 81.36579294627472) rotate(0 36.329919043926566 53.41040337054892)"><path d="M0 0 C0 0, 0 0, 0 0 M0 0 C0 0, 0 0, 0 0 M0.13 12.04 C5.08 6.01, 9.53 3.44, 10.63 -0.03 M0.13 12.04 C3.82 8.97, 6.7 4, 10.63 -0.03 M0.27 24.08 C4.94 16.63, 12.43 9.21, 21.26 -0.07 M0.27 24.08 C6.62 15.51, 13.82 8.67, 21.26 -0.07 M-0.26 36.88 C5.86 29.18, 11.55 22.84, 31.89 -0.1 M-0.26 36.88 C9.9 25.06, 18.41 15.58, 31.89 -0.1 M-0.12 48.92 C11.79 33.44, 24.9 18.92, 42.52 -0.14 M-0.12 48.92 C9.76 37, 21.82 23.72, 42.52 -0.14 M0.01 60.96 C15.69 41.87, 36.53 20.28, 53.15 -0.17 M0.01 60.96 C12.67 46.33, 24.75 34.08, 53.15 -0.17 M0.14 73 C20.98 48.8, 45.86 22.62, 63.78 -0.21 M0.14 73 C21.72 46.94, 46.11 21.41, 63.78 -0.21 M0.28 85.04 C16.41 64.77, 34.44 43.15, 73.1 1.27 M0.28 85.04 C29.19 52.93, 57.88 19.87, 73.1 1.27 M-0.25 97.84 C26.14 67.93, 53.15 33.5, 72.58 14.06 M-0.25 97.84 C22.42 71.15, 44.29 47.36, 72.58 14.06 M1.85 107.61 C20.49 85.68, 39.72 62.54, 72.71 26.1 M1.85 107.61 C23.2 84.16, 42.91 60.9, 72.71 26.1 M12.48 107.58 C29.9 89.12, 43.47 72.99, 72.84 38.15 M12.48 107.58 C32.14 85.32, 50.38 64.37, 72.84 38.15 M23.11 107.54 C41.2 87.17, 61.41 65.45, 72.98 50.19 M23.11 107.54 C38.95 87.81, 57.03 70.14, 72.98 50.19 M33.74 107.51 C45.72 92.65, 58.76 80.52, 73.11 62.23 M33.74 107.51 C45.31 95.92, 55.16 83.35, 73.11 62.23 M44.37 107.48 C53.04 99.11, 60.52 91.11, 72.59 75.02 M44.37 107.48 C55.11 96.32, 65.07 83.39, 72.59 75.02 M55 107.44 C61.24 100.25, 66.34 94.86, 72.72 87.06 M55 107.44 C62.26 100.41, 69.93 91.66, 72.72 87.06 M65.63 107.41 C68.58 103.58, 71.27 100.84, 72.85 99.1 M65.63 107.41 C67.15 105.51, 69.46 103.3, 72.85 99.1 M-0.06 106.77 C-0.06 106.77, -0.06 106.77, -0.06 106.77 M-0.06 106.77 C-0.06 106.77, -0.06 106.77, -0.06 106.77 M11.98 106.63 C9.54 104.86, 3.45 99.23, -0.1 96.14 M11.98 106.63 C8.38 103.33, 6.35 101.96, -0.1 96.14 M24.02 106.5 C17.61 100.53, 11.84 93.91, -0.13 85.51 M24.02 106.5 C16.25 101.3, 10.63 95.87, -0.13 85.51 M36.82 107.02 C23.46 95.39, 8.7 85.13, -0.16 74.88 M36.82 107.02 C28.67 100.92, 20.36 93.59, -0.16 74.88 M48.86 106.89 C29.87 90.75, 13.4 76.93, -0.2 64.25 M48.86 106.89 C36.76 97.32, 26.56 88.33, -0.2 64.25 M60.9 106.76 C38.83 88.74, 15.37 66.55, -0.23 53.62 M60.9 106.76 C44.9 92.72, 29.17 78.43, -0.23 53.62 M72.94 106.63 C45.33 81.33, 16.22 56.86, -0.27 42.99 M72.94 106.63 C50.24 86.91, 27.35 68.47, -0.27 42.99 M72.9 95.99 C55 78.65, 33.03 63.82, -0.3 32.36 M72.9 95.99 C54.78 78.11, 34.33 62.42, -0.3 32.36 M72.87 85.36 C49.53 63.53, 26.7 42.63, -0.34 21.73 M72.87 85.36 C45.58 62.73, 20.14 38.66, -0.34 21.73 M72.84 74.73 C52.33 58.09, 32.39 38.28, -0.37 11.1 M72.84 74.73 C47.8 53.41, 23.91 32.4, -0.37 11.1 M72.8 64.1 C50.04 45.37, 27.77 25.24, 0.35 1.12 M72.8 64.1 C45.96 42.26, 20.08 19, 0.35 1.12 M72.77 53.47 C50.95 35.36, 28.37 14.76, 10.88 -0.32 M72.77 53.47 C59.71 42.19, 45.7 29.17, 10.88 -0.32 M72.73 42.84 C62.28 33.27, 52.08 25.35, 22.92 -0.46 M72.73 42.84 C59.12 32, 44.74 20.25, 22.92 -0.46 M72.7 32.21 C59.78 21.6, 43.59 8.26, 34.96 -0.59 M72.7 32.21 C62.63 24.23, 52.65 13.46, 34.96 -0.59 M72.66 21.58 C62.67 15.42, 55.33 5.79, 47.76 -0.07 M72.66 21.58 C67.02 16.03, 60.58 11.25, 47.76 -0.07 M72.63 10.95 C68.17 9.37, 65.58 5.02, 59.8 -0.2 M72.63 10.95 C68.7 8.24, 66.18 5.54, 59.8 -0.2 M72.59 0.32 C72.34 0.15, 72.25 -0.05, 71.84 -0.33 M72.59 0.32 C72.31 0.07, 72.03 -0.13, 71.84 -0.33" stroke="#a5d8ff" stroke-width="1" fill="none"></path><path d="M0 0 C26.16 0.12, 53.06 2.11, 72.66 0 M0 0 C17.69 -0.99, 33.55 0.19, 72.66 0 M72.66 0 C71.19 36.57, 73.99 68.72, 72.66 106.82 M72.66 0 C72.17 35.07, 71.79 71.18, 72.66 106.82 M72.66 106.82 C49.17 106.79, 27.25 104.74, 0 106.82 M72.66 106.82 C51.43 107.33, 32.88 107.2, 0 106.82 M0 106.82 C-0.77 79.95, 0.98 54.74, 0 0 M0 106.82 C1.59 77.19, 1.14 44.97, 0 0" stroke="#1971c2" stroke-width="2" fill="none"></path></g><g stroke-linecap="round" transform="translate(125.633349346258 180.59527331998515) rotate(0 7.0490887697169455 7.0490887697169455)"><path d="M7.68 -0.18 C8.99 -0.02, 10.78 1.18, 11.88 2.28 C12.98 3.39, 14.08 5, 14.29 6.46 C14.5 7.92, 14.08 9.8, 13.15 11.03 C12.23 12.25, 10.27 13.47, 8.76 13.8 C7.25 14.13, 5.49 13.7, 4.1 13.02 C2.7 12.34, 1.07 11.07, 0.4 9.72 C-0.27 8.37, -0.42 6.43, 0.09 4.93 C0.6 3.42, 2.18 1.45, 3.46 0.67 C4.74 -0.11, 6.93 0.34, 7.76 0.24 C8.6 0.14, 8.47 -0.05, 8.49 0.08 M8.29 0.35 C9.69 0.56, 11.45 1.38, 12.39 2.62 C13.33 3.85, 14.04 6.21, 13.94 7.78 C13.83 9.35, 12.77 11.04, 11.76 12.01 C10.74 12.99, 9.2 13.55, 7.83 13.62 C6.46 13.68, 4.73 13.11, 3.54 12.4 C2.34 11.68, 1.24 10.61, 0.68 9.33 C0.11 8.05, -0.54 6.1, 0.12 4.73 C0.79 3.35, 3.31 1.79, 4.66 1.07 C6.01 0.34, 7.65 0.54, 8.22 0.38 C8.79 0.21, 8.08 0.07, 8.07 0.08" stroke="none" stroke-width="0" fill="#ffc9c9"></path><path d="M6.52 0.39 C7.94 0.23, 9.53 1.02, 10.82 1.85 C12.11 2.68, 13.79 3.93, 14.27 5.37 C14.74 6.81, 14.36 9.16, 13.68 10.48 C13 11.79, 11.62 12.72, 10.19 13.26 C8.77 13.79, 6.55 14.04, 5.1 13.68 C3.66 13.32, 2.32 12.27, 1.52 11.11 C0.72 9.94, 0.11 8.29, 0.3 6.69 C0.49 5.08, 1.47 2.64, 2.64 1.49 C3.82 0.34, 6.55 0.07, 7.34 -0.22 C8.14 -0.52, 7.4 -0.4, 7.42 -0.28 M5.85 0.16 C7.28 -0.21, 9.02 -0.18, 10.29 0.57 C11.57 1.32, 13.06 3.17, 13.5 4.64 C13.93 6.12, 13.48 7.87, 12.91 9.42 C12.34 10.97, 11.25 13.14, 10.06 13.93 C8.88 14.72, 7.22 14.47, 5.77 14.16 C4.32 13.86, 2.27 13.33, 1.37 12.07 C0.47 10.82, 0.26 8.14, 0.36 6.63 C0.46 5.12, 0.95 4.2, 1.97 3 C2.99 1.8, 5.92 -0.01, 6.49 -0.55 C7.07 -1.09, 5.59 -0.43, 5.4 -0.24" stroke="#e03131" stroke-width="2" fill="none"></path></g><g transform="translate(140.81600208103373 190.02196070524042) rotate(0 8.600000381469727 15.603438289901305)"><text x="0" y="21.994606613444954" font-family="Virgil, Segoe UI Emoji" font-size="24.96550126384217px" fill="#e03131" text-anchor="start" style="white-space: pre;" direction="ltr" dominant-baseline="alphabetic">0</text></g></svg>
