<svg xmlns="http://www.w3.org/2000/svg" width="578.603" height="421.566" viewBox="0 0 578.603 421.566">
    <path fill="#fff" d="M0 0h578.603v421.566H0z"/>
    <path fill="none" stroke="#e03131" stroke-linecap="round" stroke-width="2" d="M42.86 267.03c82.73-29.83 414.63-149 497.44-179.17M44.89 266.45c82.53-30.22 412.23-150.36 494.53-180.32"/>
    <path fill="none" stroke="#1971c2" stroke-linecap="round" stroke-width="2" d="M47.296 91.518c83.01 29.41 415.3 145.23 498.36 174.52M45.826 90.978c83.37 29.64 418.44 147.16 502.16 176.19"/>
    <path fill="none" stroke="#2f9e44" stroke-linecap="round" stroke-width="2" d="M47.736 200.044c82.64-.33 412.27-1.03 494.93-1.18m-496.17-.09c83.05-.24 415.62.92 498.37 1.14"/>
    <g stroke-linecap="round">
        <path fill="none" stroke="#1e1e1e" stroke-width="2" d="M45.157 360.222c.17-57.57 1.72-287.03 1.74-344.63m-.17 346.77c.1-57.92-.63-290.87-.49-348.64"/>
        <path fill="none" stroke="#1e1e1e" stroke-width="2" d="M54.797 37.202c-3.74-5.36-3.7-14.27-8.56-23.48m8.56 23.48c-2.67-5.94-5.18-13.06-8.56-23.48"/>
        <path fill="none" stroke="#1e1e1e" stroke-width="2" d="M37.697 37.212c.76-5.19 5.29-14.11 8.54-23.49m-8.54 23.49c1.77-5.89 3.71-13.01 8.54-23.49"/>
    </g>
    <g stroke-linecap="round">
        <path fill="none" stroke="#1e1e1e" stroke-width="2" d="M43.817 360.262c87.41.05 437.17-.85 524.79-1.09m-526.01.64c87.21.28 437.39.89 525.19.93M544.277 369.262c10.42-2.77 17.13-4.31 23.51-8.52m-23.51 8.52c5.8-1.65 12.77-4.79 23.51-8.52"/>
        <path fill="none" stroke="#1e1e1e" stroke-width="2" d="M544.297 352.162c10.37 3.42 17.07 8.08 23.49 8.58m-23.49-8.58c5.78 3.08 12.74 4.68 23.49 8.58"/>
    </g>
    <text y="24.668" fill="#1e1e1e" dominant-baseline="alphabetic" font-family="Excalifont" font-size="28" style="white-space:pre" transform="translate(11.916 10)">u</text>
    <text y="14.096" fill="#1e1e1e" dominant-baseline="alphabetic" font-family="Excalifont" font-size="16" style="white-space:pre" transform="translate(25.919 27.336)">s</text>
    <text y="24.668" fill="#1e1e1e" dominant-baseline="alphabetic" font-family="Excalifont" font-size="28" style="white-space:pre" transform="translate(482.452 312.887)">P (R)</text>
    <text y="14.096" fill="#1e1e1e" dominant-baseline="alphabetic" font-family="Excalifont" font-size="16" style="white-space:pre" transform="translate(500.357 329.965)">G</text>
    <g stroke-linecap="round">
        <path fill="#b2f2bb" stroke-width="0" d="M46.79 194.313c1.29.18 2.97.99 3.88 1.97.9.99 1.6 2.52 1.57 3.94-.03 1.43-1 3.62-1.77 4.6s-1.61 1.11-2.84 1.27c-1.24.17-3.37.33-4.57-.3-1.2-.62-2.1-2.18-2.65-3.47-.56-1.29-1.1-3.06-.68-4.25.42-1.18 1.97-2.22 3.18-2.85 1.21-.64 3.22-.88 4.07-.94.85-.07 1.06.44 1.03.53m-2.19.02c1.38-.09 3.08.14 4.03.75.94.61 1.4 1.58 1.67 2.9.27 1.33.31 3.72-.06 5.04-.37 1.33-.97 2.31-2.15 2.91-1.18.61-3.66 1.03-4.92.72s-1.9-1.34-2.65-2.6c-.74-1.26-1.76-3.59-1.81-4.98-.05-1.38.56-2.53 1.51-3.32.94-.79 3.47-1.14 4.19-1.4.71-.26.06-.1.1-.18"/>
        <path fill="none" stroke="#2f9e44" stroke-width="2" d="M46.28 194.463c1.19.1 3 .65 3.95 1.51.96.86 1.65 2.23 1.79 3.64.14 1.42-.16 3.66-.93 4.85-.78 1.18-2.39 1.98-3.75 2.26-1.36.29-3.28.06-4.43-.55s-2.02-1.84-2.49-3.09c-.47-1.26-.61-3.22-.33-4.44.28-1.23.86-2.23 2.02-2.92 1.15-.69 4.04-.98 4.88-1.21.84-.24.19-.32.15-.19m-.54.12c1.32.01 3.75.28 4.81 1.44s1.71 3.95 1.55 5.49c-.15 1.55-1.41 2.87-2.46 3.77-1.05.89-2.65 1.45-3.84 1.6-1.2.14-2.23.04-3.34-.76-1.1-.8-2.69-2.84-3.28-4.06-.59-1.21-.77-1.96-.26-3.22.5-1.25 2.05-3.71 3.29-4.32 1.24-.62 3.5.71 4.16.64.67-.07-.06-.99-.17-1.05"/>
    </g>
    <g stroke-linecap="round">
        <path fill="#a5d8ff" stroke-width="0" d="M48.155 82.834c1.34.08 3.15 1.28 4 2.29.85 1 1.11 2.37 1.09 3.75-.01 1.38-.42 3.37-1.16 4.53-.75 1.15-2.07 2.26-3.32 2.39-1.24.14-2.91-.75-4.15-1.58-1.23-.82-2.7-2.2-3.26-3.37-.57-1.18-.65-2.5-.13-3.68s2-2.69 3.22-3.41c1.23-.72 3.32-.76 4.15-.91.84-.15.86-.07.87.02m-.28.6c1.32.08 2.14.87 2.9 1.84.77.97 1.62 2.64 1.71 3.98s-.21 3.15-1.17 4.06c-.97.92-3.16 1.3-4.62 1.44s-2.97-.04-4.14-.62c-1.17-.57-2.46-1.6-2.89-2.82-.42-1.23-.1-3.32.33-4.53s1.07-2.06 2.27-2.75c1.2-.68 4.03-1.22 4.91-1.36.88-.15.29.28.37.5"/>
        <path fill="none" stroke="#1971c2" stroke-width="2" d="M45.745 82.994c1.27-.3 3.78.33 4.95.95 1.16.62 1.65 1.64 2.04 2.79.39 1.14.7 2.74.3 4.08-.4 1.33-1.69 3.13-2.73 3.91-1.04.79-2.25 1.1-3.49.81s-2.96-1.5-3.95-2.55c-.98-1.06-1.93-2.57-1.95-3.79-.01-1.21.94-2.46 1.86-3.5.91-1.03 2.97-2.38 3.64-2.72.66-.34.3.56.33.68m-.1-.06c1.31-.23 3.09.05 4.26.57 1.16.52 2.43 1.43 2.74 2.57.32 1.13-.26 3.01-.86 4.26-.59 1.26-1.54 2.54-2.71 3.28-1.16.74-2.9 1.42-4.28 1.16-1.37-.26-3.24-1.54-3.96-2.73s-.61-3.12-.37-4.4c.23-1.29 1.03-2.31 1.79-3.32.75-1 2.1-2.52 2.73-2.72.64-.19 1.07 1.3 1.07 1.53"/>
    </g>
    <g stroke-linecap="round">
        <path fill="#ffc9c9" stroke-width="0" d="M45.442 261.412c1.18-.03 2.34.85 3.38 1.63 1.03.78 2.63 1.76 2.85 3.07.22 1.32-.71 3.53-1.51 4.79-.8 1.27-2.05 2.41-3.29 2.81s-3.04.05-4.16-.43a4.95 4.95 0 0 1-2.52-2.46c-.54-1.13-.81-2.89-.68-4.31.12-1.41.35-3.36 1.42-4.17s4.2-.53 5.01-.67c.8-.14-.11-.2-.17-.16m-.91-.07c1.07-.23 2.34-.33 3.49.53 1.15.87 2.96 3.37 3.41 4.66.45 1.28.07 1.92-.72 3.04-.79 1.13-2.68 2.99-4.04 3.69s-2.93.9-4.09.52c-1.17-.38-2.21-1.66-2.89-2.81-.67-1.15-1.26-2.64-1.14-4.07.12-1.44.82-3.47 1.84-4.52s3.58-1.51 4.27-1.79c.7-.27 0-.07-.1.16"/>
        <path fill="none" stroke="#e03131" stroke-width="2" d="M44.492 261.032c1.12-.28 2.33.08 3.44.83 1.1.75 2.68 2.42 3.19 3.69.5 1.27.22 2.74-.16 3.92-.37 1.18-1.06 2.39-2.1 3.15-1.03.75-2.73 1.51-4.11 1.4-1.39-.1-3.29-.98-4.2-2.04-.91-1.07-1.21-3.03-1.24-4.34-.02-1.31.25-2.41 1.1-3.52.86-1.11 3.32-2.71 4.04-3.14s.3.38.28.54m.12-.04c1.27-.33 3.18-.07 4.17.73.99.79 1.46 2.88 1.75 4.05.3 1.18.42 1.81.03 2.99-.4 1.18-1.21 3.42-2.38 4.1s-3.39.41-4.64-.04-1.99-1.75-2.87-2.65c-.88-.91-2.31-1.58-2.42-2.78s.69-3.36 1.78-4.43c1.1-1.06 3.98-1.57 4.77-1.95.78-.38.06-.53-.06-.35"/>
    </g>
    <text y="24.668" fill="#1971c2" dominant-baseline="alphabetic" font-family="Excalifont" font-size="28" style="white-space:pre" transform="translate(10 74.66)">9</text>
    <text y="24.668" fill="#2f9e44" dominant-baseline="alphabetic" font-family="Excalifont" font-size="28" style="white-space:pre" transform="translate(12.765 192.699)">6</text>
    <text y="24.668" fill="#e03131" dominant-baseline="alphabetic" font-family="Excalifont" font-size="28" style="white-space:pre" transform="translate(13.456 252.145)">4</text>
    <g stroke-linecap="round">
        <path fill="#a5d8ff" stroke-width="0" d="M540.694 261.272c1.21-.12 2.8.13 4 .97s2.83 2.73 3.21 4.07c.37 1.34-.17 2.74-.94 3.94-.78 1.21-2.43 2.79-3.73 3.3-1.29.52-2.86.21-4.06-.19-1.2-.41-2.52-1.13-3.12-2.23-.61-1.11-.74-3.03-.51-4.42.23-1.38.96-2.95 1.9-3.88.95-.92 3.02-1.43 3.77-1.67.75-.23.77.21.75.28m-.15-.27c1.13.05 2.56 1.51 3.58 2.53 1.01 1.01 2.28 2.27 2.51 3.55.22 1.27-.3 3-1.14 4.07-.84 1.08-2.58 2.01-3.89 2.38s-2.76.52-3.97-.16c-1.2-.68-2.7-2.58-3.26-3.91-.55-1.33-.42-2.84-.07-4.07.36-1.23 1.08-2.5 2.2-3.29 1.13-.78 4.02-1.18 4.56-1.41.53-.23-1.35-.2-1.36.04"/>
        <path fill="none" stroke="#1971c2" stroke-width="2" d="M542.104 261.632c1.24.16 3.49.39 4.37 1.46s.95 3.51.92 4.97c-.04 1.46-.26 2.82-1.15 3.78-.89.97-2.92 1.9-4.18 2.03-1.27.13-2.28-.62-3.42-1.26-1.13-.63-2.98-1.38-3.42-2.54s.31-3.15.79-4.43c.47-1.27.89-2.5 2.05-3.22 1.16-.71 4.14-.9 4.9-1.07.77-.17-.19-.08-.31.03m.12-.55c1.2.13 1.76 2.17 2.67 3.2.92 1.04 2.67 1.73 2.81 3s-1.06 3.56-1.97 4.63-2.18 1.44-3.49 1.78-3.07.79-4.36.26c-1.29-.54-2.77-2.09-3.38-3.47-.61-1.39-.76-3.4-.28-4.84s2.02-3.09 3.17-3.8c1.14-.72 2.93-.41 3.7-.5.76-.08.79-.04.89-.01"/>
    </g>
    <text y="24.668" fill="#1e1e1e" dominant-baseline="alphabetic" font-family="Excalifont" font-size="28" style="white-space:pre" transform="translate(39.723 369.654)">0</text>
    <text y="24.668" fill="#1e1e1e" dominant-baseline="alphabetic" font-family="Excalifont" font-size="28" style="white-space:pre" transform="translate(540.174 376.566)">1</text>
    <g stroke-linecap="round">
        <path fill="#b2f2bb" stroke-width="0" d="M542.284 194.543c1.27.15 2.68 1.37 3.63 2.23.96.86 2.01 1.75 2.09 2.94.07 1.2-.7 3.05-1.66 4.21-.96 1.15-2.82 2.4-4.11 2.71-1.29.3-2.54-.17-3.62-.89-1.08-.71-2.4-2.2-2.86-3.4-.47-1.19-.26-2.55.07-3.77s.75-2.93 1.89-3.56c1.13-.63 4.05-.22 4.91-.23.85-.02.36.07.22.14m-1.66-.86c1.22.08 3.76 1.48 4.9 2.44 1.14.97 1.94 2.19 1.94 3.35s-1.01 2.57-1.93 3.61c-.92 1.03-2.47 2.19-3.58 2.6-1.1.41-1.85.28-3.05-.16-1.21-.44-3.54-1.32-4.15-2.47s-.02-3.17.5-4.45c.53-1.28 1.71-2.34 2.63-3.23.93-.88 2.39-1.97 2.92-2.1.54-.13.13 1.15.3 1.35"/>
        <path fill="none" stroke="#2f9e44" stroke-width="2" d="M542.024 194.013c1.31.08 2.9 1.4 3.89 2.39.99 1 1.99 2.29 2.04 3.56.05 1.28-.76 2.93-1.73 4.08-.96 1.16-2.81 2.6-4.06 2.84-1.26.24-2.43-.61-3.47-1.38s-2.26-2.11-2.75-3.26c-.49-1.14-.62-2.35-.18-3.61s1.74-3.19 2.82-3.93c1.09-.74 2.9-.51 3.68-.52.77 0 .89.4.98.49m-1.23-.53c1.16-.18 2.31.75 3.2 1.57.89.81 1.9 1.91 2.12 3.33.22 1.43-.04 4.04-.79 5.22-.75 1.17-2.51 1.54-3.7 1.83s-2.29.43-3.45-.08c-1.17-.52-2.81-1.8-3.54-3.01-.73-1.2-1.14-3.11-.86-4.24.28-1.12 1.37-1.62 2.55-2.49s3.86-2.38 4.55-2.72c.69-.35-.31.36-.41.63"/>
    </g>
    <g stroke-linecap="round">
        <path fill="#ffc9c9" stroke-width="0" d="M540.404 83.344c1.3-.44 2.88-.7 3.93-.05s1.81 2.66 2.38 3.93c.56 1.28 1.3 2.59.99 3.73-.3 1.13-1.65 2.28-2.8 3.06-1.16.79-2.75 1.73-4.14 1.67-1.38-.06-3.22-.97-4.18-2.02s-1.59-2.93-1.57-4.29c.01-1.36.74-2.84 1.67-3.87.94-1.04 3.37-1.87 3.93-2.34.55-.47-.47-.49-.59-.46m1.26.74c1.28-.04 3.23.32 4.22 1.18 1 .87 1.51 2.71 1.75 4.02.25 1.31.45 2.7-.26 3.84s-2.63 2.59-4 2.98c-1.38.38-3.14.01-4.25-.65-1.12-.65-1.89-2.14-2.47-3.27-.57-1.12-1.1-2.19-.98-3.46s.76-3.3 1.69-4.16c.94-.87 3.17-.84 3.93-1.04.75-.21.52-.29.6-.19"/>
        <path fill="none" stroke="#e03131" stroke-width="2" d="M540.454 83.304c1.27-.15 3.5.39 4.62 1.05 1.12.65 1.72 1.71 2.1 2.88.39 1.18.64 3 .23 4.17-.42 1.17-1.45 2.23-2.73 2.84-1.29.61-3.67 1.06-4.99.83-1.33-.24-2.23-1.28-2.98-2.25-.75-.96-1.47-2.33-1.53-3.56-.07-1.23.24-2.75 1.14-3.8.91-1.05 3.55-2.14 4.28-2.5.73-.37.03.21.11.31m1.55.49c1.27.18 2.69.91 3.69 1.85 1 .95 2.29 2.59 2.3 3.81.02 1.21-1.12 2.59-2.22 3.47-1.1.87-3.08 1.52-4.38 1.77-1.29.24-2.44.35-3.41-.31-.97-.65-1.87-2.35-2.39-3.64s-1.12-2.82-.71-4.1 1.83-3.03 3.18-3.58 4.32.19 4.93.28c.6.09-1.13.11-1.29.26"/>
    </g>
</svg>
