<svg version="1.1" xmlns="http://www.w3.org/2000/svg" viewBox="0 0 1911.336650601171 1001.9185404629509" width="3822.673301202342" height="2003.8370809259018">
  <!-- svg-source:excalidraw -->
  <g stroke-linecap="round" transform="translate(207.2553851265891 46.282727688644854) rotate(0 38.4591836734694 38.999999999999986)">
    <path d="M27.85 1.17 C34.53 -1.3, 44.87 -0.91, 51.92 1.69 C58.98 4.29, 65.98 10.45, 70.18 16.79 C74.39 23.13, 77.49 32.13, 77.17 39.72 C76.85 47.31, 72.91 56.15, 68.26 62.33 C63.61 68.5, 56.33 74.63, 49.29 76.75 C42.25 78.86, 33.25 77.59, 26.04 75.02 C18.82 72.45, 10.4 67.46, 6.01 61.33 C1.62 55.19, -0.72 45.98, -0.3 38.19 C0.11 30.4, 3.43 20.87, 8.5 14.58 C13.57 8.28, 26.2 2.73, 30.13 0.42 C34.05 -1.89, 31.88 0.09, 32.04 0.71 M49.49 1.12 C56.37 2.44, 62.88 8.05, 67.57 13.96 C72.27 19.87, 77.2 28.77, 77.64 36.59 C78.08 44.41, 74.72 54.27, 70.2 60.87 C65.69 67.46, 57.38 73.51, 50.56 76.15 C43.75 78.79, 36.39 79.07, 29.31 76.7 C22.24 74.32, 12.89 67.95, 8.12 61.9 C3.35 55.85, 0.98 47.85, 0.69 40.42 C0.41 32.98, 2.43 23.42, 6.39 17.29 C10.36 11.16, 17.29 6.14, 24.49 3.65 C31.68 1.17, 45.52 2.44, 49.56 2.39 C53.6 2.34, 48.93 2.73, 48.74 3.36" stroke="#1e1e1e" stroke-width="4" fill="none"></path>
  </g>
  <g transform="translate(233.71241795742878 62.705563222369506) rotate(0 11.807401268220644 22.5)">
    <text x="11.807401268220639" y="31.536" font-family="'Virgil 3 YOFF'" font-size="36px" fill="#1e1e1e" text-anchor="middle" style="white-space: pre;" direction="ltr" dominant-baseline="alphabetic">A</text>
  </g>
  <g transform="translate(285.2553851265891 26.282727688644854) rotate(0 9.633333206176758 35)">
    <text x="0" y="24.528" font-family="'Virgil 3 YOFF'" font-size="28px" fill="#1e1e1e" text-anchor="start" style="white-space: pre;" direction="ltr" dominant-baseline="alphabetic">0</text>
    <text x="0" y="59.528" font-family="'Virgil 3 YOFF'" font-size="28px" fill="#1e1e1e" text-anchor="start" style="white-space: pre;" direction="ltr" dominant-baseline="alphabetic"></text>
  </g>
  <g stroke-linecap="round" transform="translate(323.61981117878577 49.282727688644854) rotate(0 38.4591836734694 38.999999999999986)">
    <path d="M34.35 -0.04 C41.4 -0.96, 51.33 2.15, 58.03 6.12 C64.73 10.1, 71.42 16.99, 74.53 23.81 C77.65 30.63, 78.64 39.64, 76.72 47.04 C74.79 54.44, 68.72 63.07, 62.97 68.21 C57.21 73.34, 49.57 77.22, 42.17 77.87 C34.78 78.51, 25.07 76.05, 18.61 72.08 C12.16 68.12, 6.21 61.13, 3.43 54.07 C0.66 47.01, 0.18 37.19, 1.96 29.71 C3.75 22.23, 7.83 14.18, 14.15 9.19 C20.48 4.19, 34.68 1.09, 39.89 -0.27 C45.11 -1.63, 45.44 0.16, 45.44 1 M20.53 2.39 C26.97 -1.66, 39.07 -2.19, 46.55 -0.82 C54.04 0.56, 60.37 5.04, 65.44 10.64 C70.51 16.25, 75.98 24.79, 76.97 32.81 C77.96 40.84, 74.98 51.93, 71.37 58.79 C67.75 65.64, 62.07 70.68, 55.28 73.94 C48.49 77.21, 38.08 79.64, 30.63 78.39 C23.17 77.14, 15.41 72.33, 10.55 66.47 C5.7 60.61, 2.66 50.85, 1.49 43.24 C0.32 35.64, 0.21 27.33, 3.54 20.86 C6.87 14.39, 18.46 6.98, 21.45 4.43 C24.44 1.88, 21.28 5.04, 21.48 5.54" stroke="#1e1e1e" stroke-width="4" fill="none"></path>
  </g>
  <g transform="translate(348.7990260530372 65.7055632223695) rotate(0 13.085219224808839 22.5)">
    <text x="13.085219224808828" y="31.536" font-family="'Virgil 3 YOFF'" font-size="36px" fill="#1e1e1e" text-anchor="middle" style="white-space: pre;" direction="ltr" dominant-baseline="alphabetic">B</text>
  </g>
  <g transform="translate(401.61981117878577 29.282727688644854) rotate(0 9.633333206176758 35)">
    <text x="0" y="24.528" font-family="'Virgil 3 YOFF'" font-size="28px" fill="#1e1e1e" text-anchor="start" style="white-space: pre;" direction="ltr" dominant-baseline="alphabetic">0</text>
    <text x="0" y="59.528" font-family="'Virgil 3 YOFF'" font-size="28px" fill="#1e1e1e" text-anchor="start" style="white-space: pre;" direction="ltr" dominant-baseline="alphabetic"></text>
  </g>
  <g stroke-linecap="round" transform="translate(439.43759815268754 53.782727688644854) rotate(0 38.4591836734694 38.999999999999986)">
    <path d="M44.48 0.91 C51.81 1.28, 60.68 5.34, 65.9 10.77 C71.11 16.19, 74.74 25.77, 75.76 33.46 C76.79 41.16, 75.41 50.22, 72.05 56.93 C68.7 63.65, 62.24 70.42, 55.63 73.74 C49.03 77.05, 39.75 78.05, 32.43 76.81 C25.11 75.58, 16.89 71.71, 11.7 66.33 C6.51 60.96, 2.71 52.19, 1.3 44.58 C-0.12 36.98, -0.01 27.49, 3.24 20.71 C6.49 13.94, 13.15 7.12, 20.82 3.94 C28.48 0.76, 43.62 1.59, 49.23 1.61 C54.84 1.64, 54.55 3.44, 54.47 4.08 M23.04 1.99 C29.06 -1.41, 38.51 -1.78, 45.72 0.1 C52.92 1.99, 61.01 7.51, 66.28 13.32 C71.54 19.13, 76.27 27.17, 77.31 34.97 C78.35 42.77, 76.31 53.48, 72.51 60.13 C68.7 66.77, 61.31 71.76, 54.49 74.83 C47.66 77.91, 39.04 80.44, 31.55 78.57 C24.05 76.71, 14.65 69.49, 9.52 63.65 C4.4 57.81, 1.76 50.96, 0.81 43.54 C-0.14 36.12, 0.11 25.8, 3.83 19.15 C7.55 12.5, 19.89 5.99, 23.13 3.63 C26.36 1.27, 23.12 4.56, 23.25 5.01" stroke="#1e1e1e" stroke-width="4" fill="none"></path>
  </g>
  <g transform="translate(466.1081831796256 70.2055632223695) rotate(0 11.593849072122168 22.5)">
    <text x="11.593849072122174" y="31.536" font-family="'Virgil 3 YOFF'" font-size="36px" fill="#1e1e1e" text-anchor="middle" style="white-space: pre;" direction="ltr" dominant-baseline="alphabetic">C</text>
  </g>
  <g transform="translate(517.4375981526875 33.782727688644854) rotate(0 9.633333206176758 35)">
    <text x="0" y="24.528" font-family="'Virgil 3 YOFF'" font-size="28px" fill="#1e1e1e" text-anchor="start" style="white-space: pre;" direction="ltr" dominant-baseline="alphabetic">0</text>
    <text x="0" y="59.528" font-family="'Virgil 3 YOFF'" font-size="28px" fill="#1e1e1e" text-anchor="start" style="white-space: pre;" direction="ltr" dominant-baseline="alphabetic"></text>
  </g>
  <g stroke-linecap="round" transform="translate(555.8020242048842 56.782727688644854) rotate(0 38.4591836734694 38.999999999999986)">
    <path d="M30.41 1.27 C37.35 -0.74, 47.32 0.85, 54.21 3.88 C61.1 6.91, 68.01 12.87, 71.77 19.45 C75.53 26.04, 77.53 35.82, 76.77 43.38 C76.02 50.93, 72.56 59.3, 67.25 64.8 C61.93 70.3, 52.38 74.88, 44.88 76.38 C37.38 77.88, 28.98 76.9, 22.24 73.79 C15.5 70.69, 8.08 64.4, 4.43 57.74 C0.78 51.07, -0.73 41.36, 0.32 33.79 C1.37 26.22, 4.37 17.84, 10.73 12.32 C17.09 6.8, 32.48 2.42, 38.46 0.67 C44.45 -1.09, 46.64 1.34, 46.63 1.76 M28.76 1.17 C35.83 -1.08, 45.75 1.11, 52.83 3.84 C59.9 6.57, 66.95 11.17, 71.19 17.56 C75.43 23.95, 78.72 34.78, 78.26 42.2 C77.79 49.61, 73.21 56.2, 68.4 62.06 C63.58 67.92, 56.84 75.12, 49.36 77.35 C41.87 79.58, 30.66 78.18, 23.51 75.44 C16.35 72.7, 10.36 67.09, 6.42 60.9 C2.49 54.72, -0.31 46.11, -0.11 38.33 C0.09 30.56, 2.8 20.52, 7.64 14.24 C12.49 7.95, 25.6 2.42, 28.94 0.63 C32.28 -1.16, 27.47 2.76, 27.67 3.51" stroke="#1e1e1e" stroke-width="4" fill="none"></path>
  </g>
  <g transform="translate(580.0230376565468 73.2055632223695) rotate(0 14.043420647397681 22.5)">
    <text x="14.043420647397696" y="31.536" font-family="'Virgil 3 YOFF'" font-size="36px" fill="#1e1e1e" text-anchor="middle" style="white-space: pre;" direction="ltr" dominant-baseline="alphabetic">D</text>
  </g>
  <g transform="translate(633.8020242048842 36.782727688644854) rotate(0 9.633333206176758 35)">
    <text x="0" y="24.528" font-family="'Virgil 3 YOFF'" font-size="28px" fill="#1e1e1e" text-anchor="start" style="white-space: pre;" direction="ltr" dominant-baseline="alphabetic">0</text>
    <text x="0" y="59.528" font-family="'Virgil 3 YOFF'" font-size="28px" fill="#1e1e1e" text-anchor="start" style="white-space: pre;" direction="ltr" dominant-baseline="alphabetic"></text>
  </g>
  <g stroke-linecap="round" transform="translate(673.4375981526875 60.782727688644854) rotate(0 38.4591836734694 38.999999999999986)">
    <path d="M46.92 0.92 C54.01 2.01, 63.4 7.44, 68.39 13.31 C73.37 19.17, 76.42 28.3, 76.81 36.08 C77.19 43.86, 74.65 53.62, 70.71 59.99 C66.76 66.36, 60 71.55, 53.14 74.32 C46.27 77.09, 36.75 78.11, 29.51 76.61 C22.28 75.11, 14.75 71.03, 9.71 65.31 C4.67 59.59, 0.03 49.95, -0.73 42.31 C-1.5 34.66, 1.17 25.89, 5.12 19.42 C9.07 12.95, 15.18 6.25, 22.96 3.49 C30.75 0.72, 46.12 2.54, 51.84 2.84 C57.56 3.15, 57.52 4.67, 57.27 5.3 M42.3 0.31 C49.82 0.42, 59.44 3.31, 64.87 8.09 C70.3 12.86, 73.52 21.14, 74.86 28.94 C76.2 36.74, 75.69 47.63, 72.9 54.9 C70.11 62.16, 64.55 68.93, 58.13 72.53 C51.71 76.13, 41.68 77.38, 34.38 76.49 C27.08 75.61, 19.8 72.18, 14.36 67.22 C8.92 62.26, 3.57 53.89, 1.76 46.75 C-0.05 39.62, 0.56 31.23, 3.52 24.4 C6.47 17.57, 13.37 9.96, 19.5 5.77 C25.62 1.58, 36.37 0.24, 40.26 -0.74 C44.15 -1.71, 42.4 -0.78, 42.83 -0.09" stroke="#1e1e1e" stroke-width="4" fill="none"></path>
  </g>
  <g transform="translate(699.566256735915 77.2055632223695) rotate(0 12.135775515832904 22.5)">
    <text x="12.135775515832925" y="31.536" font-family="'Virgil 3 YOFF'" font-size="36px" fill="#1e1e1e" text-anchor="middle" style="white-space: pre;" direction="ltr" dominant-baseline="alphabetic">E</text>
  </g>
  <g transform="translate(751.4375981526875 40.782727688644854) rotate(0 9.633333206176758 35)">
    <text x="0" y="24.528" font-family="'Virgil 3 YOFF'" font-size="28px" fill="#1e1e1e" text-anchor="start" style="white-space: pre;" direction="ltr" dominant-baseline="alphabetic">0</text>
    <text x="0" y="59.528" font-family="'Virgil 3 YOFF'" font-size="28px" fill="#1e1e1e" text-anchor="start" style="white-space: pre;" direction="ltr" dominant-baseline="alphabetic"></text>
  </g>
  <g stroke-linecap="round" transform="translate(788.8020242048842 58.782727688644854) rotate(0 38.4591836734694 38.999999999999986)">
    <path d="M31.05 1.25 C38 -0.71, 48.22 -0.01, 55.1 3.15 C61.99 6.32, 68.69 13.2, 72.35 20.21 C76.01 27.23, 78.22 37.56, 77.06 45.22 C75.9 52.88, 70.78 60.7, 65.4 66.19 C60.02 71.69, 52.18 76.76, 44.77 78.17 C37.37 79.57, 27.81 78.07, 21 74.65 C14.19 71.22, 7.3 64.5, 3.92 57.62 C0.53 50.74, -0.32 40.91, 0.68 33.37 C1.68 25.82, 3.6 18, 9.91 12.35 C16.23 6.7, 32.88 1.22, 38.58 -0.54 C44.27 -2.31, 44.09 0.87, 44.08 1.75 M19.82 5.08 C26.09 1.51, 36.59 -0.22, 44.07 0.59 C51.55 1.39, 59.13 4.77, 64.7 9.91 C70.27 15.05, 76.01 23.84, 77.49 31.42 C78.96 39.01, 77.06 48.29, 73.58 55.42 C70.09 62.55, 63.26 70.51, 56.59 74.22 C49.92 77.94, 41.34 79.1, 33.56 77.71 C25.79 76.31, 15.26 71.42, 9.94 65.85 C4.63 60.28, 2.4 51.8, 1.67 44.3 C0.94 36.8, 2.14 27.67, 5.54 20.84 C8.94 14.02, 19.43 6.01, 22.08 3.33 C24.72 0.65, 21.46 4.24, 21.41 4.78" stroke="#1e1e1e" stroke-width="4" fill="none"></path>
  </g>
  <g transform="translate(816.7330776869103 75.2055632223695) rotate(0 10.333380617034265 22.5)">
    <text x="10.333380617034283" y="31.536" font-family="'Virgil 3 YOFF'" font-size="36px" fill="#1e1e1e" text-anchor="middle" style="white-space: pre;" direction="ltr" dominant-baseline="alphabetic">F</text>
  </g>
  <g transform="translate(867.8020242048842 43.782727688644854) rotate(0 9.633333206176758 35)">
    <text x="0" y="24.528" font-family="'Virgil 3 YOFF'" font-size="28px" fill="#1e1e1e" text-anchor="start" style="white-space: pre;" direction="ltr" dominant-baseline="alphabetic">0</text>
    <text x="0" y="59.528" font-family="'Virgil 3 YOFF'" font-size="28px" fill="#1e1e1e" text-anchor="start" style="white-space: pre;" direction="ltr" dominant-baseline="alphabetic"></text>
  </g>
  <g stroke-linecap="round">
    <g transform="translate(180.2553851265891 187.28272768864485) rotate(0 373 -1)">
      <path d="M0 -0.11 C124.19 -0.49, 621.66 -2.67, 746.12 -3.05 M-1.46 -1.21 C122.49 -1.42, 620.6 -2.05, 745.24 -2.07" stroke="#1e1e1e" stroke-width="4" fill="none"></path>
    </g>
  </g>
  <mask></mask>
  <g stroke-linecap="round" transform="translate(203.3464916396381 220.03272768864485) rotate(0 38.4591836734694 38.999999999999986)">
    <path d="M42.62 0.98 C50.09 1.05, 59.65 4.35, 65.17 9.44 C70.69 14.52, 74.23 24.1, 75.73 31.52 C77.24 38.93, 77.3 47.02, 74.2 53.93 C71.1 60.84, 63.82 68.91, 57.13 72.97 C50.44 77.02, 41.61 79.13, 34.06 78.26 C26.52 77.39, 17.54 73.01, 11.87 67.75 C6.21 62.5, 1.66 54.24, 0.08 46.73 C-1.51 39.22, -0.88 29.7, 2.35 22.68 C5.59 15.65, 12.11 8.29, 19.49 4.57 C26.86 0.85, 41.58 0.79, 46.6 0.37 C51.62 -0.05, 49.82 1.43, 49.62 2.05 M41.57 1.42 C48.91 1.29, 57.74 4.51, 63.28 8.83 C68.83 13.15, 73.14 20.06, 74.84 27.31 C76.54 34.57, 75.87 45.05, 73.49 52.35 C71.12 59.65, 66.86 66.66, 60.59 71.12 C54.31 75.57, 43.66 79.48, 35.85 79.08 C28.03 78.68, 19.28 73.64, 13.7 68.72 C8.12 63.79, 4.46 57.02, 2.37 49.53 C0.28 42.03, -1.28 31.09, 1.14 23.76 C3.56 16.44, 10.29 9.45, 16.89 5.58 C23.49 1.7, 36.82 1.09, 40.74 0.5 C44.65 -0.1, 40.54 1.67, 40.39 2.01" stroke="#1e1e1e" stroke-width="4" fill="none"></path>
  </g>
  <g transform="translate(229.80352447047778 236.4555632223695) rotate(0 11.807401268220644 22.5)">
    <text x="11.807401268220639" y="31.536" font-family="'Virgil 3 YOFF'" font-size="36px" fill="#1e1e1e" text-anchor="middle" style="white-space: pre;" direction="ltr" dominant-baseline="alphabetic">A</text>
  </g>
  <g transform="translate(281.3464916396381 200.03272768864485) rotate(0 9.633333206176758 35)">
    <text x="0" y="24.528" font-family="'Virgil 3 YOFF'" font-size="28px" fill="#1e1e1e" text-anchor="start" style="white-space: pre;" direction="ltr" dominant-baseline="alphabetic">0</text>
    <text x="0" y="59.528" font-family="'Virgil 3 YOFF'" font-size="28px" fill="#1e1e1e" text-anchor="start" style="white-space: pre;" direction="ltr" dominant-baseline="alphabetic"></text>
  </g>
  <g stroke-linecap="round" transform="translate(319.710917691835 223.03272768864485) rotate(0 38.4591836734694 38.999999999999986)">
    <path d="M27.76 0.78 C34.42 -1.93, 43.41 -0.43, 50.37 2.28 C57.34 4.99, 65.28 10.86, 69.57 17.05 C73.85 23.23, 76.26 31.89, 76.08 39.4 C75.89 46.9, 73 55.98, 68.46 62.05 C63.91 68.13, 55.82 73.63, 48.79 75.83 C41.75 78.03, 33.22 77.74, 26.24 75.26 C19.27 72.77, 11.45 67.17, 6.94 60.9 C2.42 54.64, -0.9 45.32, -0.86 37.66 C-0.81 30, 0.72 21.24, 7.21 14.94 C13.71 8.64, 31.19 1.86, 38.1 -0.12 C45.01 -2.09, 48.51 2.33, 48.66 3.08 M40.94 -0.29 C48.41 -0.01, 59.06 3.85, 64.76 9.13 C70.46 14.42, 73.76 24.01, 75.15 31.42 C76.54 38.83, 75.77 46.71, 73.12 53.59 C70.46 60.47, 65.78 68.9, 59.21 72.7 C52.64 76.5, 41.44 77.25, 33.7 76.39 C25.95 75.54, 18.1 72.26, 12.72 67.56 C7.35 62.85, 3.02 55.27, 1.44 48.16 C-0.14 41.05, 0.4 32.22, 3.25 24.88 C6.09 17.55, 12 8.52, 18.51 4.16 C25.02 -0.21, 38.36 -0.98, 42.33 -1.33 C46.3 -1.67, 42.58 1.3, 42.33 2.09" stroke="#1e1e1e" stroke-width="4" fill="none"></path>
  </g>
  <g transform="translate(344.89013256608644 239.4555632223695) rotate(0 13.085219224808839 22.5)">
    <text x="13.085219224808828" y="31.536" font-family="'Virgil 3 YOFF'" font-size="36px" fill="#1e1e1e" text-anchor="middle" style="white-space: pre;" direction="ltr" dominant-baseline="alphabetic">B</text>
  </g>
  <g transform="translate(397.710917691835 203.03272768864485) rotate(0 3.7916667461395264 17.5)">
    <text x="0" y="24.528" font-family="'Virgil 3 YOFF'" font-size="28px" fill="#1e1e1e" text-anchor="start" style="white-space: pre;" direction="ltr" dominant-baseline="alphabetic">1</text>
  </g>
  <g stroke-linecap="round" transform="translate(399.52870466573654 315.53272768864485) rotate(0 38.4591836734694 38.99999999999997)">
    <path d="M41.08 -0.06 C48.19 -0.07, 57.36 4.29, 63.01 9.28 C68.66 14.27, 73.13 22.49, 74.97 29.89 C76.81 37.29, 76.87 46.68, 74.06 53.69 C71.25 60.71, 64.77 68.05, 58.12 71.96 C51.46 75.86, 41.72 77.82, 34.14 77.11 C26.56 76.41, 18.17 72.64, 12.66 67.72 C7.15 62.79, 2.66 54.75, 1.06 47.55 C-0.54 40.35, -0.04 31.45, 3.06 24.53 C6.16 17.61, 12.81 10.13, 19.66 6.03 C26.51 1.93, 39.95 0.78, 44.17 -0.07 C48.39 -0.93, 45.14 0.07, 44.97 0.9 M31.6 -0.22 C38.89 -2.04, 50.19 1.1, 56.81 4.43 C63.43 7.75, 68.13 13.11, 71.33 19.73 C74.53 26.35, 76.87 36.28, 76.01 44.15 C75.16 52.02, 71.42 61.19, 66.21 66.94 C61 72.7, 52.31 77.77, 44.76 78.69 C37.21 79.6, 27.59 76.32, 20.91 72.43 C14.23 68.54, 8.02 61.71, 4.69 55.34 C1.37 48.96, 0.01 41.59, 0.97 34.18 C1.93 26.78, 5.18 16.41, 10.44 10.9 C15.71 5.4, 28.93 2.59, 32.56 1.15 C36.19 -0.29, 32.24 1.55, 32.2 2.28" stroke="#1e1e1e" stroke-width="4" fill="none"></path>
  </g>
  <g transform="translate(426.1992896926746 331.9555632223695) rotate(0 11.593849072122168 22.5)">
    <text x="11.593849072122174" y="31.536" font-family="'Virgil 3 YOFF'" font-size="36px" fill="#1e1e1e" text-anchor="middle" style="white-space: pre;" direction="ltr" dominant-baseline="alphabetic">C</text>
  </g>
  <g transform="translate(477.52870466573654 295.53272768864485) rotate(0 9.633333206176758 35)">
    <text x="0" y="24.528" font-family="'Virgil 3 YOFF'" font-size="28px" fill="#1e1e1e" text-anchor="start" style="white-space: pre;" direction="ltr" dominant-baseline="alphabetic">0</text>
    <text x="0" y="59.528" font-family="'Virgil 3 YOFF'" font-size="28px" fill="#1e1e1e" text-anchor="start" style="white-space: pre;" direction="ltr" dominant-baseline="alphabetic"></text>
  </g>
  <g stroke-linecap="round" transform="translate(551.8931307179334 230.53272768864485) rotate(0 38.4591836734694 38.999999999999986)">
    <path d="M31.85 -0.02 C38.96 -1.84, 48.5 0.04, 55.11 3.34 C61.71 6.65, 67.98 13.1, 71.47 19.81 C74.97 26.52, 76.94 35.94, 76.08 43.61 C75.22 51.28, 71.47 60.07, 66.34 65.85 C61.2 71.62, 52.54 76.78, 45.27 78.24 C37.99 79.71, 29.42 78.19, 22.67 74.65 C15.92 71.1, 8.63 63.91, 4.76 56.98 C0.89 50.06, -1.52 40.5, -0.58 33.12 C0.36 25.74, 4.74 18.26, 10.38 12.71 C16.02 7.15, 28.93 1.83, 33.25 -0.22 C37.58 -2.27, 36.3 -0.43, 36.35 0.41 M41.01 -0.71 C48.49 -0.35, 58.06 4.5, 63.89 9.79 C69.73 15.09, 74.36 23.95, 76.01 31.07 C77.66 38.2, 76.63 45.92, 73.79 52.54 C70.96 59.15, 65.31 66.35, 59.01 70.77 C52.7 75.18, 43.68 79.49, 35.97 79.04 C28.26 78.59, 18.53 73.1, 12.76 68.05 C6.98 63.01, 2.99 55.93, 1.31 48.77 C-0.37 41.61, -0.05 32.06, 2.68 25.09 C5.42 18.12, 11.21 11.33, 17.72 6.93 C24.24 2.52, 37.67 -0.36, 41.79 -1.32 C45.91 -2.28, 42.46 0.26, 42.45 1.18" stroke="#1e1e1e" stroke-width="4" fill="none"></path>
  </g>
  <g transform="translate(576.1141441695961 246.9555632223695) rotate(0 14.043420647397681 22.5)">
    <text x="14.043420647397696" y="31.536" font-family="'Virgil 3 YOFF'" font-size="36px" fill="#1e1e1e" text-anchor="middle" style="white-space: pre;" direction="ltr" dominant-baseline="alphabetic">D</text>
  </g>
  <g transform="translate(629.8931307179334 210.53272768864485) rotate(0 9.633333206176758 35)">
    <text x="0" y="24.528" font-family="'Virgil 3 YOFF'" font-size="28px" fill="#1e1e1e" text-anchor="start" style="white-space: pre;" direction="ltr" dominant-baseline="alphabetic">0</text>
    <text x="0" y="59.528" font-family="'Virgil 3 YOFF'" font-size="28px" fill="#1e1e1e" text-anchor="start" style="white-space: pre;" direction="ltr" dominant-baseline="alphabetic"></text>
  </g>
  <g stroke-linecap="round" transform="translate(669.5287046657365 234.53272768864485) rotate(0 38.4591836734694 38.999999999999986)">
    <path d="M27.96 0.7 C34.89 -1.6, 45.16 -0.53, 52.28 2.45 C59.39 5.42, 66.39 12.06, 70.64 18.57 C74.89 25.08, 78.13 34.09, 77.79 41.49 C77.44 48.9, 73.61 57.26, 68.57 63.02 C63.53 68.77, 54.9 73.84, 47.55 76.03 C40.19 78.21, 31.38 78.82, 24.44 76.11 C17.51 73.4, 9.86 66.36, 5.92 59.76 C1.98 53.17, 0.44 43.98, 0.8 36.55 C1.15 29.12, 2.85 21.32, 8.05 15.18 C13.26 9.03, 27.63 2.11, 32.04 -0.32 C36.44 -2.75, 34.47 -0.24, 34.47 0.6 M44.08 -0.93 C51.28 -0.79, 60.48 4, 65.96 9.8 C71.43 15.6, 75.91 26.17, 76.93 33.86 C77.95 41.54, 75.51 49.17, 72.08 55.91 C68.65 62.66, 62.95 70.53, 56.34 74.31 C49.73 78.08, 39.99 79.62, 32.4 78.56 C24.81 77.49, 16.04 73.68, 10.77 67.89 C5.51 62.11, 1.76 51.55, 0.83 43.86 C-0.11 36.17, 1.72 28.31, 5.15 21.76 C8.59 15.21, 15.05 7.95, 21.44 4.57 C27.83 1.19, 39.94 2.01, 43.49 1.48 C47.04 0.95, 42.78 0.93, 42.74 1.39" stroke="#1e1e1e" stroke-width="4" fill="none"></path>
  </g>
  <g transform="translate(695.657363248964 250.9555632223695) rotate(0 12.135775515832904 22.5)">
    <text x="12.135775515832925" y="31.536" font-family="'Virgil 3 YOFF'" font-size="36px" fill="#1e1e1e" text-anchor="middle" style="white-space: pre;" direction="ltr" dominant-baseline="alphabetic">E</text>
  </g>
  <g transform="translate(747.5287046657365 214.53272768864485) rotate(0 9.633333206176758 35)">
    <text x="0" y="24.528" font-family="'Virgil 3 YOFF'" font-size="28px" fill="#1e1e1e" text-anchor="start" style="white-space: pre;" direction="ltr" dominant-baseline="alphabetic">0</text>
    <text x="0" y="59.528" font-family="'Virgil 3 YOFF'" font-size="28px" fill="#1e1e1e" text-anchor="start" style="white-space: pre;" direction="ltr" dominant-baseline="alphabetic"></text>
  </g>
  <g stroke-linecap="round" transform="translate(784.8931307179334 232.53272768864485) rotate(0 38.4591836734694 38.999999999999986)">
    <path d="M37.04 0.59 C44.19 -0.6, 53.27 1.72, 59.31 5.64 C65.36 9.55, 70.64 16.79, 73.32 24.09 C76 31.39, 77.18 42.04, 75.4 49.45 C73.61 56.87, 68.23 63.9, 62.59 68.57 C56.95 73.24, 49.09 76.79, 41.54 77.45 C33.99 78.12, 23.76 76.73, 17.31 72.56 C10.85 68.38, 5.67 59.66, 2.83 52.39 C-0.01 45.11, -1.51 36.12, 0.26 28.92 C2.03 21.72, 6.78 14.01, 13.45 9.21 C20.13 4.41, 35.13 1.5, 40.32 0.14 C45.51 -1.22, 44.8 0.35, 44.57 1.03 M19.5 4.05 C25.51 0.06, 36.31 -0.29, 43.86 1 C51.41 2.3, 59.49 6.45, 64.79 11.81 C70.09 17.18, 74.23 26.09, 75.67 33.2 C77.11 40.31, 76.42 47.74, 73.43 54.48 C70.45 61.21, 64.32 69.73, 57.74 73.63 C51.15 77.53, 41.69 78.78, 33.92 77.87 C26.15 76.97, 16.88 73.52, 11.09 68.23 C5.31 62.94, 0.49 53.84, -0.8 46.14 C-2.1 38.44, -0.07 29.02, 3.34 22.02 C6.74 15.03, 16.5 7.13, 19.63 4.19 C22.75 1.25, 21.58 3.65, 22.07 4.37" stroke="#1e1e1e" stroke-width="4" fill="none"></path>
  </g>
  <g transform="translate(812.8241841999595 248.9555632223695) rotate(0 10.333380617034265 22.5)">
    <text x="10.333380617034283" y="31.536" font-family="'Virgil 3 YOFF'" font-size="36px" fill="#1e1e1e" text-anchor="middle" style="white-space: pre;" direction="ltr" dominant-baseline="alphabetic">F</text>
  </g>
  <g transform="translate(863.8931307179334 217.53272768864485) rotate(0 9.633333206176758 35)">
    <text x="0" y="24.528" font-family="'Virgil 3 YOFF'" font-size="28px" fill="#1e1e1e" text-anchor="start" style="white-space: pre;" direction="ltr" dominant-baseline="alphabetic">0</text>
    <text x="0" y="59.528" font-family="'Virgil 3 YOFF'" font-size="28px" fill="#1e1e1e" text-anchor="start" style="white-space: pre;" direction="ltr" dominant-baseline="alphabetic"></text>
  </g>
  <g stroke-linecap="round">
    <g transform="translate(383.2553851265891 288.28272768864485) rotate(0 14.5 18)">
      <path d="M0.49 0.02 C5.63 5.83, 24.98 28.78, 29.75 34.82 M-0.71 -1.01 C4.43 4.89, 24.34 29.28, 29.2 35.73" stroke="#1e1e1e" stroke-width="4" fill="none"></path>
    </g>
  </g>
  <mask></mask>
  <g stroke-linecap="round">
    <g transform="translate(158.923097684431 413.6832278725699) rotate(0 373 -1)">
      <path d="M-0.33 0.75 C124.23 0.33, 622.18 -1.48, 746.53 -1.75 M1.69 0.1 C126.22 -0.78, 621.99 -3.29, 745.86 -3.74" stroke="#1e1e1e" stroke-width="4" fill="none"></path>
    </g>
  </g>
  <mask></mask>
  <g stroke-linecap="round" transform="translate(182.01420419748 446.4332278725699) rotate(0 38.4591836734694 38.99999999999997)">
    <path d="M35.72 -0.26 C42.52 -1.48, 51.1 0.56, 57.35 4.63 C63.59 8.69, 70.24 16.88, 73.19 24.12 C76.15 31.36, 76.73 40.65, 75.07 48.07 C73.4 55.5, 68.83 63.64, 63.21 68.69 C57.58 73.74, 48.61 77.64, 41.31 78.35 C34.02 79.05, 25.75 77.06, 19.46 72.93 C13.18 68.79, 6.7 60.69, 3.61 53.54 C0.51 46.39, -0.51 37.17, 0.89 30.04 C2.3 22.91, 5.14 15.89, 12.03 10.74 C18.93 5.59, 36.16 0.59, 42.25 -0.87 C48.34 -2.33, 48.87 1.23, 48.57 1.97 M33.48 1.54 C40.42 0.14, 50.52 2.01, 57.34 5.21 C64.16 8.41, 71.44 13.86, 74.4 20.74 C77.36 27.62, 76.59 38.99, 75.11 46.5 C73.62 54, 70.66 60.47, 65.48 65.79 C60.3 71.11, 51.34 76.92, 44.01 78.41 C36.67 79.9, 28.25 78.42, 21.45 74.74 C14.65 71.06, 6.55 63.24, 3.21 56.32 C-0.14 49.39, -0.07 40.83, 1.35 33.18 C2.78 25.53, 6.63 15.84, 11.74 10.41 C16.84 4.99, 28.21 2.31, 31.98 0.63 C35.74 -1.04, 33.93 -0.3, 34.33 0.35" stroke="#1e1e1e" stroke-width="4" fill="none"></path>
  </g>
  <g transform="translate(208.4712370283196 462.85606340629454) rotate(0 11.807401268220644 22.5)">
    <text x="11.807401268220639" y="31.536" font-family="'Virgil 3 YOFF'" font-size="36px" fill="#1e1e1e" text-anchor="middle" style="white-space: pre;" direction="ltr" dominant-baseline="alphabetic">A</text>
  </g>
  <g transform="translate(260.01420419748 426.4332278725699) rotate(0 9.633333206176758 35)">
    <text x="0" y="24.528" font-family="'Virgil 3 YOFF'" font-size="28px" fill="#1e1e1e" text-anchor="start" style="white-space: pre;" direction="ltr" dominant-baseline="alphabetic">0</text>
    <text x="0" y="59.528" font-family="'Virgil 3 YOFF'" font-size="28px" fill="#1e1e1e" text-anchor="start" style="white-space: pre;" direction="ltr" dominant-baseline="alphabetic"></text>
  </g>
  <g stroke-linecap="round" transform="translate(298.3786302496769 449.4332278725699) rotate(0 38.4591836734694 38.99999999999997)">
    <path d="M22.49 3.67 C28.85 0.32, 39.04 -0.28, 46.41 1.43 C53.78 3.14, 61.55 8.17, 66.71 13.92 C71.87 19.67, 76.49 28.58, 77.35 35.94 C78.21 43.31, 75.86 51.7, 71.88 58.12 C67.9 64.54, 60.64 71.13, 53.47 74.44 C46.29 77.75, 36.03 79.8, 28.84 78 C21.64 76.19, 14.94 69.54, 10.31 63.61 C5.67 57.69, 1.97 49.97, 1.05 42.45 C0.13 34.94, 0.78 25.11, 4.79 18.54 C8.8 11.97, 21.3 5.72, 25.09 3.03 C28.89 0.35, 27.17 1.89, 27.57 2.44 M43.51 0.91 C50.54 1.56, 60.76 4.58, 66.34 10.07 C71.92 15.56, 75.73 25.8, 77 33.84 C78.27 41.89, 77.6 51.6, 73.97 58.35 C70.34 65.11, 62.03 70.96, 55.2 74.36 C48.36 77.77, 40.34 80.14, 32.95 78.77 C25.57 77.4, 16.54 71.73, 10.88 66.13 C5.22 60.54, -0.05 52.83, -1.01 45.2 C-1.98 37.57, 1.31 27.14, 5.08 20.35 C8.86 13.57, 15.02 7.62, 21.66 4.49 C28.29 1.37, 41.11 2.18, 44.91 1.59 C48.71 1.01, 44.61 0.66, 44.47 0.98" stroke="#1e1e1e" stroke-width="4" fill="none"></path>
  </g>
  <g transform="translate(323.55784512392836 465.85606340629454) rotate(0 13.085219224808839 22.5)">
    <text x="13.085219224808828" y="31.536" font-family="'Virgil 3 YOFF'" font-size="36px" fill="#1e1e1e" text-anchor="middle" style="white-space: pre;" direction="ltr" dominant-baseline="alphabetic">B</text>
  </g>
  <g transform="translate(376.3786302496769 429.4332278725699) rotate(0 3.7916667461395264 17.5)">
    <text x="0" y="24.528" font-family="'Virgil 3 YOFF'" font-size="28px" fill="#1e1e1e" text-anchor="start" style="white-space: pre;" direction="ltr" dominant-baseline="alphabetic">1</text>
  </g>
  <g stroke-linecap="round" transform="translate(378.19641722357846 541.9332278725699) rotate(0 38.4591836734694 38.99999999999997)">
    <path d="M47.36 1.28 C54.66 2.1, 62.81 6.62, 67.71 12.21 C72.6 17.79, 76.22 26.88, 76.71 34.81 C77.19 42.74, 74.28 53.29, 70.61 59.79 C66.93 66.28, 61.25 70.89, 54.66 73.78 C48.06 76.66, 38.65 78.67, 31.04 77.11 C23.42 75.56, 14.15 70.06, 8.96 64.45 C3.78 58.84, 0.52 50.98, -0.08 43.44 C-0.69 35.91, 1.33 25.88, 5.33 19.24 C9.33 12.6, 16.53 6.4, 23.92 3.59 C31.32 0.79, 45.24 2.62, 49.69 2.42 C54.15 2.22, 50.85 1.86, 50.66 2.41 M21.38 6.23 C27.24 2.25, 35.5 -0.11, 42.87 0.84 C50.23 1.8, 60.07 6.83, 65.59 11.95 C71.12 17.06, 74.99 24.18, 76.02 31.52 C77.04 38.87, 74.8 49.2, 71.75 56.02 C68.69 62.85, 63.97 68.82, 57.67 72.48 C51.38 76.14, 41.55 78.69, 33.99 78.01 C26.42 77.33, 17.84 73.77, 12.27 68.42 C6.71 63.06, 2 53.71, 0.57 45.87 C-0.86 38.04, 0.62 28.41, 3.7 21.42 C6.78 14.43, 16.25 6.55, 19.07 3.94 C21.9 1.34, 20.2 5.25, 20.63 5.8" stroke="#1e1e1e" stroke-width="4" fill="none"></path>
  </g>
  <g transform="translate(404.8670022505164 558.3560634062945) rotate(0 11.593849072122168 22.50000000000003)">
    <text x="11.593849072122174" y="31.536" font-family="'Virgil 3 YOFF'" font-size="36px" fill="#1e1e1e" text-anchor="middle" style="white-space: pre;" direction="ltr" dominant-baseline="alphabetic">C</text>
  </g>
  <g transform="translate(456.19641722357846 521.9332278725699) rotate(0 9.633333206176758 34.99999999999997)">
    <text x="0" y="24.528" font-family="'Virgil 3 YOFF'" font-size="28px" fill="#1e1e1e" text-anchor="start" style="white-space: pre;" direction="ltr" dominant-baseline="alphabetic">0</text>
    <text x="0" y="59.528" font-family="'Virgil 3 YOFF'" font-size="28px" fill="#1e1e1e" text-anchor="start" style="white-space: pre;" direction="ltr" dominant-baseline="alphabetic"></text>
  </g>
  <g stroke-linecap="round" transform="translate(530.5608432757754 456.9332278725699) rotate(0 38.4591836734694 38.99999999999997)">
    <path d="M19.87 5.32 C26.15 1.44, 37.42 -1.54, 45.18 -0.53 C52.94 0.47, 61.35 5.87, 66.44 11.35 C71.54 16.83, 74.71 24.7, 75.73 32.35 C76.74 40, 75.81 50.37, 72.53 57.27 C69.26 64.16, 62.59 70.27, 56.07 73.71 C49.55 77.15, 40.79 78.93, 33.4 77.9 C26 76.87, 17.34 73.08, 11.7 67.51 C6.05 61.94, 0.74 52.1, -0.48 44.48 C-1.7 36.86, -0.15 28.89, 4.38 21.8 C8.92 14.7, 21.52 5.23, 26.71 1.9 C31.9 -1.43, 35.01 1.32, 35.51 1.83 M44.85 0.29 C51.63 0.86, 59.23 6.76, 64.64 12.18 C70.05 17.59, 75.96 25.2, 77.34 32.77 C78.72 40.34, 76.54 50.55, 72.91 57.61 C69.29 64.66, 62.46 71.86, 55.59 75.12 C48.73 78.37, 39.2 78.75, 31.73 77.11 C24.27 75.47, 16.19 70.85, 10.8 65.27 C5.42 59.69, 0.43 51.01, -0.59 43.65 C-1.61 36.28, 1.05 27.85, 4.7 21.08 C8.35 14.31, 14.69 6.35, 21.32 3.03 C27.95 -0.29, 40.4 1.6, 44.48 1.18 C48.55 0.75, 45.74 -0.03, 45.77 0.46" stroke="#1e1e1e" stroke-width="4" fill="none"></path>
  </g>
  <g transform="translate(554.7818567274378 473.35606340629454) rotate(0 14.043420647397681 22.5)">
    <text x="14.043420647397696" y="31.536" font-family="'Virgil 3 YOFF'" font-size="36px" fill="#1e1e1e" text-anchor="middle" style="white-space: pre;" direction="ltr" dominant-baseline="alphabetic">D</text>
  </g>
  <g transform="translate(608.5608432757754 436.9332278725699) rotate(0 3.7916667461395264 17.5)">
    <text x="0" y="24.528" font-family="'Virgil 3 YOFF'" font-size="28px" fill="#1e1e1e" text-anchor="start" style="white-space: pre;" direction="ltr" dominant-baseline="alphabetic">1</text>
  </g>
  <g stroke-linecap="round" transform="translate(612.1964172235785 535.9332278725699) rotate(0 38.4591836734694 38.99999999999997)">
    <path d="M19.55 4.26 C25.41 0.47, 35.78 -0.04, 43.37 1.05 C50.95 2.15, 59.43 5.62, 65.05 10.84 C70.67 16.07, 75.71 24.75, 77.1 32.4 C78.5 40.05, 77 50.05, 73.43 56.75 C69.87 63.44, 62.35 69.02, 55.7 72.57 C49.06 76.11, 41.02 78.85, 33.55 78.01 C26.08 77.17, 16.29 72.73, 10.88 67.53 C5.47 62.34, 2.13 54.48, 1.11 46.85 C0.1 39.21, -0.22 29.31, 4.79 21.71 C9.8 14.11, 24.83 4.74, 31.18 1.25 C37.52 -2.24, 42.82 0.39, 42.86 0.79 M42.77 0.53 C49.85 1.03, 58.76 5.99, 64.29 10.97 C69.82 15.95, 74.39 23.26, 75.95 30.4 C77.51 37.54, 76.83 46.92, 73.65 53.83 C70.47 60.74, 63.35 67.81, 56.88 71.86 C50.41 75.91, 42.22 78.94, 34.84 78.16 C27.47 77.38, 18.39 72.22, 12.62 67.18 C6.86 62.13, 1.69 55.35, 0.26 47.89 C-1.17 40.43, 0.88 29.56, 4.05 22.42 C7.21 15.29, 12.77 9.01, 19.25 5.06 C25.73 1.12, 38.99 -0.34, 42.92 -1.24 C46.85 -2.15, 42.92 -1.11, 42.83 -0.37" stroke="#1e1e1e" stroke-width="4" fill="none"></path>
  </g>
  <g transform="translate(638.3250758068057 552.3560634062945) rotate(0 12.135775515832904 22.50000000000003)">
    <text x="12.135775515832925" y="31.536" font-family="'Virgil 3 YOFF'" font-size="36px" fill="#1e1e1e" text-anchor="middle" style="white-space: pre;" direction="ltr" dominant-baseline="alphabetic">E</text>
  </g>
  <g transform="translate(690.1964172235785 515.9332278725699) rotate(0 9.633333206176758 34.99999999999997)">
    <text x="0" y="24.528" font-family="'Virgil 3 YOFF'" font-size="28px" fill="#1e1e1e" text-anchor="start" style="white-space: pre;" direction="ltr" dominant-baseline="alphabetic">0</text>
    <text x="0" y="59.528" font-family="'Virgil 3 YOFF'" font-size="28px" fill="#1e1e1e" text-anchor="start" style="white-space: pre;" direction="ltr" dominant-baseline="alphabetic"></text>
  </g>
  <g stroke-linecap="round" transform="translate(763.5608432757754 458.9332278725699) rotate(0 38.4591836734694 38.99999999999997)">
    <path d="M52.45 2.72 C59.41 4.85, 66.78 11.89, 70.69 18.04 C74.6 24.19, 76.2 32.06, 75.92 39.62 C75.64 47.18, 73.65 57.2, 69 63.41 C64.35 69.61, 55.23 74.66, 48.02 76.85 C40.82 79.03, 32.51 79.26, 25.76 76.52 C19.01 73.79, 11.76 66.82, 7.53 60.41 C3.3 54, 0.12 45.68, 0.37 38.07 C0.62 30.47, 4.48 21.05, 9.03 14.79 C13.59 8.54, 20.04 2.29, 27.7 0.53 C35.35 -1.24, 50.09 3.25, 54.95 4.2 C59.81 5.16, 57.1 5.71, 56.83 6.24 M51.99 1.65 C58.73 3.63, 65.42 10.15, 69.61 16.73 C73.79 23.31, 77.32 33.53, 77.09 41.14 C76.87 48.76, 73.1 56.4, 68.26 62.41 C63.42 68.42, 55.13 75.16, 48.03 77.2 C40.94 79.23, 32.63 77.44, 25.71 74.61 C18.79 71.78, 10.7 66.66, 6.53 60.19 C2.36 53.72, 0.25 43.59, 0.67 35.77 C1.09 27.96, 4.35 19.19, 9.03 13.32 C13.71 7.45, 21.6 2.48, 28.74 0.55 C35.89 -1.38, 47.85 1.41, 51.91 1.71 C55.97 2.01, 53.54 1.39, 53.09 2.33" stroke="#1e1e1e" stroke-width="4" fill="none"></path>
  </g>
  <g transform="translate(791.4918967578012 475.35606340629454) rotate(0 10.333380617034265 22.5)">
    <text x="10.333380617034283" y="31.536" font-family="'Virgil 3 YOFF'" font-size="36px" fill="#1e1e1e" text-anchor="middle" style="white-space: pre;" direction="ltr" dominant-baseline="alphabetic">F</text>
  </g>
  <g transform="translate(842.5608432757756 443.9332278725699) rotate(0 9.633333206176758 35)">
    <text x="0" y="24.528" font-family="'Virgil 3 YOFF'" font-size="28px" fill="#1e1e1e" text-anchor="start" style="white-space: pre;" direction="ltr" dominant-baseline="alphabetic">0</text>
    <text x="0" y="59.528" font-family="'Virgil 3 YOFF'" font-size="28px" fill="#1e1e1e" text-anchor="start" style="white-space: pre;" direction="ltr" dominant-baseline="alphabetic"></text>
  </g>
  <g stroke-linecap="round">
    <g transform="translate(361.923097684431 514.6832278725699) rotate(0 14.5 18)">
      <path d="M0.43 0.39 C5.42 6.03, 25.38 28.84, 29.98 34.83 M-0.8 -0.45 C4.11 5.21, 24.34 29.38, 29.55 35.75" stroke="#1e1e1e" stroke-width="4" fill="none"></path>
    </g>
  </g>
  <mask></mask>
  <g stroke-linecap="round">
    <g transform="translate(601.2553851265891 520.2768683136449) rotate(0 12.5 13)">
      <path d="M-0.66 -0.01 C3.58 4.12, 21.5 20.61, 25.63 24.83 M1.2 -1.07 C5.31 3.17, 20.79 21.2, 25.01 25.76" stroke="#1e1e1e" stroke-width="4" fill="none"></path>
    </g>
  </g>
  <mask></mask>
  <g stroke-linecap="round">
    <g transform="translate(942.1246866744468 11.661893058856947) rotate(0 0.31254776281002705 489.5952081440886)">
      <path d="M0.42 -0.4 C0.6 162.87, 0.51 815.59, 0.36 978.88 M-0.82 -1.66 C-0.76 161.86, -1.16 816.52, -0.73 980.26" stroke="#1e1e1e" stroke-width="4" fill="none"></path>
    </g>
  </g>
  <mask></mask>
  <g stroke-linecap="round" transform="translate(988.3026265119236 57.6043692442442) rotate(0 38.4591836734694 38.999999999999986)">
    <path d="M20.12 3.96 C26.09 0.34, 35.88 -0.35, 43.37 0.87 C50.85 2.1, 59.55 6.16, 65.05 11.32 C70.56 16.47, 75.23 24.38, 76.39 31.79 C77.55 39.21, 75.43 48.83, 72.01 55.81 C68.59 62.8, 62.35 70.22, 55.86 73.73 C49.36 77.24, 40.4 78.03, 33.03 76.88 C25.67 75.72, 17.21 71.86, 11.68 66.81 C6.15 61.75, 1.01 54.06, -0.13 46.54 C-1.28 39.03, 0.65 29.05, 4.81 21.73 C8.96 14.42, 21.07 5.75, 24.8 2.67 C28.54 -0.41, 27.26 2.55, 27.22 3.27 M32.96 0.81 C40.4 -0.85, 51.61 0.23, 58.2 3.8 C64.78 7.36, 69.44 14.98, 72.47 22.21 C75.5 29.43, 77.68 39.6, 76.38 47.16 C75.08 54.72, 70.28 62.57, 64.68 67.57 C59.08 72.56, 50.21 76.41, 42.78 77.13 C35.36 77.84, 26.4 75.53, 20.11 71.85 C13.81 68.18, 8.46 61.84, 5 55.07 C1.54 48.3, -1.85 38.78, -0.64 31.26 C0.57 23.74, 6.57 15.2, 12.27 9.95 C17.98 4.7, 29.91 1.06, 33.58 -0.26 C37.25 -1.57, 34.42 1.33, 34.3 2.06" stroke="#1e1e1e" stroke-width="4" fill="none"></path>
  </g>
  <g transform="translate(1014.7596593427631 74.02720477796885) rotate(0 11.807401268220588 22.5)">
    <text x="11.807401268220639" y="31.536" font-family="'Virgil 3 YOFF'" font-size="36px" fill="#1e1e1e" text-anchor="middle" style="white-space: pre;" direction="ltr" dominant-baseline="alphabetic">A</text>
  </g>
  <g transform="translate(1066.3026265119236 37.6043692442442) rotate(0 9.633333206176758 35)">
    <text x="0" y="24.528" font-family="'Virgil 3 YOFF'" font-size="28px" fill="#1e1e1e" text-anchor="start" style="white-space: pre;" direction="ltr" dominant-baseline="alphabetic">0</text>
    <text x="0" y="59.528" font-family="'Virgil 3 YOFF'" font-size="28px" fill="#1e1e1e" text-anchor="start" style="white-space: pre;" direction="ltr" dominant-baseline="alphabetic"></text>
  </g>
  <g stroke-linecap="round" transform="translate(1104.6670525641205 60.6043692442442) rotate(0 38.4591836734694 38.999999999999986)">
    <path d="M47.39 0.45 C54.36 1.51, 61.9 7.23, 66.71 13.17 C71.53 19.11, 75.51 28.5, 76.29 36.07 C77.07 43.64, 75.22 52.12, 71.39 58.59 C67.56 65.06, 60.4 71.66, 53.31 74.88 C46.22 78.09, 36.07 79.64, 28.87 77.89 C21.67 76.14, 14.73 70.38, 10.1 64.38 C5.48 58.38, 1.89 49.35, 1.11 41.87 C0.33 34.39, 1.78 25.91, 5.42 19.51 C9.06 13.11, 15.63 6.58, 22.94 3.49 C30.24 0.39, 44.49 1.04, 49.25 0.93 C54.02 0.81, 51.59 1.9, 51.51 2.8 M27.09 2.87 C33.83 0.25, 43.48 0.18, 50.48 2.36 C57.48 4.53, 64.69 9.96, 69.09 15.9 C73.49 21.84, 76.63 30.39, 76.88 38 C77.12 45.6, 75.25 55.26, 70.55 61.52 C65.85 67.78, 56 73.27, 48.65 75.55 C41.31 77.82, 33.38 77.59, 26.48 75.16 C19.59 72.73, 11.56 66.91, 7.28 60.97 C3 55.03, 0.92 47.06, 0.81 39.5 C0.69 31.94, 2.41 21.93, 6.6 15.6 C10.79 9.27, 22.3 3.7, 25.95 1.54 C29.6 -0.63, 27.97 1.98, 28.51 2.6" stroke="#1e1e1e" stroke-width="4" fill="none"></path>
  </g>
  <g transform="translate(1129.846267438372 77.02720477796885) rotate(0 13.085219224808839 22.5)">
    <text x="13.085219224808828" y="31.536" font-family="'Virgil 3 YOFF'" font-size="36px" fill="#1e1e1e" text-anchor="middle" style="white-space: pre;" direction="ltr" dominant-baseline="alphabetic">B</text>
  </g>
  <g transform="translate(1182.6670525641205 40.6043692442442) rotate(0 3.7916667461395264 17.5)">
    <text x="0" y="24.528" font-family="'Virgil 3 YOFF'" font-size="28px" fill="#1e1e1e" text-anchor="start" style="white-space: pre;" direction="ltr" dominant-baseline="alphabetic">1</text>
  </g>
  <g stroke-linecap="round" transform="translate(1184.484839538022 153.1043692442442) rotate(0 38.4591836734694 38.999999999999986)">
    <path d="M30.18 0.22 C37.14 -1.93, 47.02 -0.23, 53.8 3.09 C60.58 6.4, 66.91 13.5, 70.88 20.1 C74.84 26.7, 78.01 35.26, 77.58 42.67 C77.15 50.07, 73.45 58.66, 68.29 64.53 C63.13 70.4, 54.28 76.09, 46.64 77.88 C38.99 79.67, 29.37 78.57, 22.45 75.28 C15.52 71.99, 8.78 64.83, 5.09 58.13 C1.4 51.42, -0.51 42.36, 0.3 35.03 C1.11 27.7, 4.85 19.96, 9.93 14.15 C15.01 8.35, 26.98 2.35, 30.81 0.21 C34.64 -1.94, 32.56 0.58, 32.9 1.27 M42.36 -1.24 C49.86 -1.06, 59.96 3.97, 65.37 9.2 C70.77 14.43, 73.36 22.66, 74.79 30.13 C76.22 37.59, 76.76 46.99, 73.95 54 C71.14 61, 64.39 68.01, 57.95 72.14 C51.51 76.26, 43.02 79.44, 35.33 78.74 C27.63 78.03, 17.7 73.22, 11.78 67.92 C5.86 62.62, 1.02 54.39, -0.19 46.95 C-1.39 39.52, 1.18 30.29, 4.58 23.3 C7.97 16.31, 13.77 8.78, 20.19 5.03 C26.6 1.29, 39.52 1.69, 43.08 0.82 C46.65 -0.05, 41.88 -0.81, 41.58 -0.21" stroke="#1e1e1e" stroke-width="4" fill="none"></path>
  </g>
  <g transform="translate(1211.1554245649602 169.52720477796885) rotate(0 11.593849072122225 22.5)">
    <text x="11.593849072122174" y="31.536" font-family="'Virgil 3 YOFF'" font-size="36px" fill="#1e1e1e" text-anchor="middle" style="white-space: pre;" direction="ltr" dominant-baseline="alphabetic">C</text>
  </g>
  <g transform="translate(1262.484839538022 133.1043692442442) rotate(0 9.633333206176758 35)">
    <text x="0" y="24.528" font-family="'Virgil 3 YOFF'" font-size="28px" fill="#1e1e1e" text-anchor="start" style="white-space: pre;" direction="ltr" dominant-baseline="alphabetic">0</text>
    <text x="0" y="59.528" font-family="'Virgil 3 YOFF'" font-size="28px" fill="#1e1e1e" text-anchor="start" style="white-space: pre;" direction="ltr" dominant-baseline="alphabetic"></text>
  </g>
  <g stroke-linecap="round" transform="translate(1419.849265590219 57.1043692442442) rotate(0 38.4591836734694 38.999999999999986)">
    <path d="M36.89 0.07 C44.28 -1.12, 53.88 1.58, 60.06 5.81 C66.25 10.04, 71.53 18.24, 74.02 25.47 C76.5 32.7, 76.86 42.05, 74.98 49.2 C73.09 56.34, 68.37 63.6, 62.7 68.34 C57.04 73.08, 48.42 76.88, 40.99 77.63 C33.57 78.39, 24.64 77, 18.16 72.87 C11.67 68.75, 4.91 60.15, 2.09 52.89 C-0.73 45.64, -0.86 36.71, 1.24 29.35 C3.33 22, 8.23 13.73, 14.68 8.75 C21.13 3.78, 35.22 0.81, 39.93 -0.47 C44.64 -1.75, 43.14 0.2, 42.93 1.07 M29.13 0.46 C36.17 -1.86, 45.63 -0.98, 52.72 2.11 C59.81 5.19, 67.83 12.45, 71.69 18.97 C75.54 25.49, 76.61 33.81, 75.84 41.24 C75.08 48.67, 71.51 57.62, 67.11 63.55 C62.7 69.48, 56.35 74.92, 49.4 76.84 C42.45 78.75, 32.53 77.77, 25.41 75.06 C18.3 72.35, 11.07 67.19, 6.72 60.59 C2.37 53.99, -0.89 43.12, -0.67 35.45 C-0.45 27.78, 3.34 20.17, 8.06 14.55 C12.79 8.94, 24.41 3.96, 27.68 1.76 C30.96 -0.43, 27.34 0.97, 27.7 1.4" stroke="#1e1e1e" stroke-width="4" fill="none"></path>
  </g>
  <g transform="translate(1444.0702790418816 73.52720477796885) rotate(0 14.043420647397738 22.5)">
    <text x="14.043420647397696" y="31.536" font-family="'Virgil 3 YOFF'" font-size="36px" fill="#1e1e1e" text-anchor="middle" style="white-space: pre;" direction="ltr" dominant-baseline="alphabetic">D</text>
  </g>
  <g transform="translate(1497.849265590219 37.1043692442442) rotate(0 3.7916667461395264 17.5)">
    <text x="0" y="24.528" font-family="'Virgil 3 YOFF'" font-size="28px" fill="#1e1e1e" text-anchor="start" style="white-space: pre;" direction="ltr" dominant-baseline="alphabetic">1</text>
  </g>
  <g stroke-linecap="round" transform="translate(1517.484839538022 166.1043692442442) rotate(0 38.4591836734694 38.999999999999986)">
    <path d="M32.61 0.84 C39.63 -0.91, 49.68 0.46, 56.46 3.96 C63.23 7.46, 69.9 14.66, 73.26 21.83 C76.62 28.99, 78.08 39.47, 76.61 46.96 C75.13 54.45, 69.9 61.64, 64.4 66.77 C58.9 71.89, 50.85 76.66, 43.6 77.72 C36.36 78.78, 27.53 76.86, 20.92 73.13 C14.32 69.41, 7.44 62.25, 3.99 55.39 C0.55 48.53, -0.89 39.26, 0.27 31.97 C1.43 24.67, 4.13 17.05, 10.95 11.6 C17.77 6.16, 34.81 0.77, 41.19 -0.71 C47.57 -2.19, 49.28 1.92, 49.22 2.73 M29.87 0.65 C36.48 -1.5, 46.21 0.09, 53.44 3.31 C60.68 6.53, 69.22 13.3, 73.26 19.96 C77.3 26.62, 78.66 35.59, 77.69 43.27 C76.72 50.95, 72.84 60.57, 67.44 66.03 C62.04 71.49, 52.92 74.58, 45.3 76.04 C37.68 77.5, 28.64 77.69, 21.72 74.79 C14.81 71.89, 7.61 65.46, 3.82 58.64 C0.02 51.83, -2.11 41.69, -1.04 33.89 C0.03 26.09, 4.93 17.52, 10.24 11.87 C15.56 6.21, 27.22 1.45, 30.86 -0.06 C34.5 -1.57, 31.85 2.12, 32.1 2.79" stroke="#1e1e1e" stroke-width="4" fill="none"></path>
  </g>
  <g transform="translate(1543.6134981212494 182.52720477796885) rotate(0 12.135775515832961 22.5)">
    <text x="12.135775515832925" y="31.536" font-family="'Virgil 3 YOFF'" font-size="36px" fill="#1e1e1e" text-anchor="middle" style="white-space: pre;" direction="ltr" dominant-baseline="alphabetic">E</text>
  </g>
  <g transform="translate(1590.484839538022 152.1043692442442) rotate(0 9.633333206176758 35)">
    <text x="0" y="24.528" font-family="'Virgil 3 YOFF'" font-size="28px" fill="#1e1e1e" text-anchor="start" style="white-space: pre;" direction="ltr" dominant-baseline="alphabetic">0</text>
    <text x="0" y="59.528" font-family="'Virgil 3 YOFF'" font-size="28px" fill="#1e1e1e" text-anchor="start" style="white-space: pre;" direction="ltr" dominant-baseline="alphabetic"></text>
  </g>
  <g stroke-linecap="round" transform="translate(1347.849265590219 165.1043692442442) rotate(0 38.4591836734694 38.999999999999986)">
    <path d="M25.22 3.45 C31.62 0.38, 40.83 -0.94, 48.05 0.94 C55.27 2.82, 63.6 8.7, 68.53 14.72 C73.46 20.73, 77.23 29.48, 77.61 37.02 C77.98 44.56, 75.11 53.55, 70.78 59.96 C66.46 66.37, 58.9 72.56, 51.65 75.47 C44.41 78.38, 34.59 79.59, 27.3 77.43 C20.01 75.27, 12.53 68.57, 7.91 62.5 C3.29 56.43, -0.06 48.47, -0.41 41 C-0.76 33.53, 0.94 24.23, 5.81 17.67 C10.69 11.12, 24.07 4.55, 28.83 1.68 C33.6 -1.2, 34.2 -0.02, 34.4 0.41 M36.45 -0.11 C43.44 -1.12, 53.09 2.52, 59.22 6.35 C65.35 10.18, 70.59 15.85, 73.24 22.86 C75.9 29.87, 76.97 40.71, 75.15 48.42 C73.33 56.14, 68.15 64.35, 62.33 69.16 C56.5 73.97, 47.51 76.88, 40.2 77.27 C32.89 77.67, 24.68 75.57, 18.46 71.54 C12.25 67.52, 5.64 59.85, 2.92 53.12 C0.2 46.39, 0.25 38.58, 2.12 31.17 C4 23.77, 8.45 13.82, 14.17 8.7 C19.88 3.59, 32.73 1.65, 36.43 0.49 C40.13 -0.67, 36.48 1.26, 36.38 1.73" stroke="#1e1e1e" stroke-width="4" fill="none"></path>
  </g>
  <g transform="translate(1375.780319072245 181.52720477796873) rotate(0 10.333380617034322 22.5)">
    <text x="10.333380617034283" y="31.536" font-family="'Virgil 3 YOFF'" font-size="36px" fill="#1e1e1e" text-anchor="middle" style="white-space: pre;" direction="ltr" dominant-baseline="alphabetic">F</text>
  </g>
  <g transform="translate(1426.8492655902191 150.1043692442442) rotate(0 9.633333206176758 35)">
    <text x="0" y="24.528" font-family="'Virgil 3 YOFF'" font-size="28px" fill="#1e1e1e" text-anchor="start" style="white-space: pre;" direction="ltr" dominant-baseline="alphabetic">0</text>
    <text x="0" y="59.528" font-family="'Virgil 3 YOFF'" font-size="28px" fill="#1e1e1e" text-anchor="start" style="white-space: pre;" direction="ltr" dominant-baseline="alphabetic"></text>
  </g>
  <g stroke-linecap="round">
    <g transform="translate(1168.2115199988746 125.8543692442442) rotate(0 14.5 18)">
      <path d="M1.14 -0.73 C5.94 5.22, 23.8 29.76, 28.45 36.03 M0.28 1.51 C4.91 7.62, 22.54 32, 27.22 37.58" stroke="#1e1e1e" stroke-width="4" fill="none"></path>
    </g>
  </g>
  <mask></mask>
  <g stroke-linecap="round">
    <g transform="translate(1488.5438074410326 120.44800968531916) rotate(0 24 24)">
      <path d="M-0.55 0.03 C7.28 8.3, 40.02 40.84, 48.08 48.87 M1.37 -1 C8.94 7, 39.58 38.76, 47.17 47.21" stroke="#1e1e1e" stroke-width="4" fill="none"></path>
    </g>
  </g>
  <mask></mask>
  <g stroke-linecap="round">
    <g transform="translate(1389.489644260522 164.06423222581788) rotate(0 19 -19.5)">
      <path d="M-0.59 0.84 C5.91 -5.7, 32.04 -33.36, 38.67 -40.06 M1.3 0.23 C7.74 -6.12, 31.78 -32.66, 38.07 -39.08" stroke="#1e1e1e" stroke-width="4" fill="none"></path>
    </g>
  </g>
  <mask></mask>
  <g stroke-linecap="round">
    <g transform="translate(961.037148671792 281.5937221062456) rotate(0 373 -1)">
      <path d="M-0.4 -0.14 C124.02 -0.65, 621.24 -1.88, 745.57 -2.16 M1.59 -1.25 C125.9 -1.65, 620.56 -0.84, 744.4 -0.7" stroke="#1e1e1e" stroke-width="4" fill="none"></path>
    </g>
  </g>
  <mask></mask>
  <g stroke-linecap="round" transform="translate(1073.177469436205 324.238079245286) rotate(0 38.4591836734694 39)">
    <path d="M33.18 0.42 C40.19 -1.34, 49.5 -0.05, 56.2 3.36 C62.9 6.77, 70.15 13.94, 73.38 20.88 C76.62 27.82, 76.76 37.47, 75.62 44.98 C74.47 52.48, 71.56 60.35, 66.5 65.92 C61.44 71.49, 52.77 77.16, 45.25 78.4 C37.73 79.65, 28.26 77.06, 21.39 73.39 C14.52 69.72, 7.48 63.02, 4.02 56.38 C0.57 49.73, -0.53 40.94, 0.66 33.53 C1.85 26.11, 5.06 17.44, 11.14 11.87 C17.22 6.31, 32.45 1.97, 37.14 0.13 C41.83 -1.71, 39.53 0.32, 39.27 0.84 M23.61 2.62 C30.15 -0.41, 41.14 -1.3, 48.35 0.73 C55.56 2.76, 62.26 8.73, 66.89 14.81 C71.51 20.89, 75.26 29.62, 76.11 37.2 C76.96 44.77, 76.03 54.09, 71.97 60.25 C67.92 66.4, 58.89 71.39, 51.78 74.11 C44.68 76.84, 36.42 78.31, 29.34 76.6 C22.26 74.89, 14.24 69.95, 9.3 63.86 C4.37 57.77, 0.08 47.55, -0.27 40.07 C-0.61 32.59, 3.08 25.14, 7.24 18.99 C11.41 12.84, 21.79 5.65, 24.72 3.17 C27.66 0.69, 24.52 3.47, 24.85 4.1" stroke="#1e1e1e" stroke-width="4" fill="none"></path>
  </g>
  <g transform="translate(1099.6345022670446 340.6609147790105) rotate(0 11.807401268220588 22.5)">
    <text x="11.807401268220639" y="31.536" font-family="'Virgil 3 YOFF'" font-size="36px" fill="#1e1e1e" text-anchor="middle" style="white-space: pre;" direction="ltr" dominant-baseline="alphabetic">A</text>
  </g>
  <g transform="translate(1151.177469436205 304.238079245286) rotate(0 9.633333206176758 35)">
    <text x="0" y="24.528" font-family="'Virgil 3 YOFF'" font-size="28px" fill="#1e1e1e" text-anchor="start" style="white-space: pre;" direction="ltr" dominant-baseline="alphabetic">0</text>
    <text x="0" y="59.528" font-family="'Virgil 3 YOFF'" font-size="28px" fill="#1e1e1e" text-anchor="start" style="white-space: pre;" direction="ltr" dominant-baseline="alphabetic"></text>
  </g>
  <g stroke-linecap="round" transform="translate(1345.492681237038 320.3437221062456) rotate(0 38.4591836734694 39)">
    <path d="M20.85 3.76 C27.1 0.08, 38.4 -1.59, 46.09 -0.07 C53.78 1.44, 61.84 7.29, 66.98 12.85 C72.13 18.41, 76.1 25.94, 76.97 33.31 C77.84 40.68, 75.81 50.18, 72.22 57.08 C68.63 63.99, 62.2 71.28, 55.42 74.74 C48.65 78.21, 38.85 79.3, 31.55 77.86 C24.25 76.42, 16.95 71.68, 11.63 66.09 C6.3 60.51, 0.94 52.07, -0.39 44.37 C-1.72 36.67, -0.76 27.03, 3.66 19.91 C8.09 12.79, 21.47 4.86, 26.16 1.65 C30.84 -1.55, 31.46 0.01, 31.77 0.67 M30.68 1.08 C38.04 -0.82, 49.33 0.94, 56.15 3.95 C62.97 6.96, 68.09 12.47, 71.61 19.13 C75.13 25.8, 78.02 36.13, 77.25 43.94 C76.48 51.75, 72.34 60.62, 66.99 65.99 C61.64 71.37, 52.49 74.63, 45.17 76.18 C37.85 77.73, 29.78 78.3, 23.07 75.29 C16.35 72.28, 8.67 64.92, 4.89 58.15 C1.12 51.38, -0.68 42.21, 0.39 34.65 C1.47 27.09, 6.08 18.29, 11.34 12.8 C16.6 7.31, 28.67 3.75, 31.94 1.71 C35.21 -0.32, 30.82 -0.02, 30.95 0.58" stroke="#1e1e1e" stroke-width="4" fill="none"></path>
  </g>
  <g transform="translate(1370.6718961112895 336.76655763997013) rotate(0 13.085219224808839 22.5)">
    <text x="13.085219224808828" y="31.536" font-family="'Virgil 3 YOFF'" font-size="36px" fill="#1e1e1e" text-anchor="middle" style="white-space: pre;" direction="ltr" dominant-baseline="alphabetic">B</text>
  </g>
  <g transform="translate(1423.492681237038 300.3437221062456) rotate(0 9.966666221618652 17.5)">
    <text x="0" y="24.528" font-family="'Virgil 3 YOFF'" font-size="28px" fill="#1e1e1e" text-anchor="start" style="white-space: pre;" direction="ltr" dominant-baseline="alphabetic">2</text>
  </g>
  <g stroke-linecap="round" transform="translate(1425.3104682109395 412.8437221062456) rotate(0 38.4591836734694 39)">
    <path d="M26.06 1.88 C32.48 -1.23, 42.06 -1.03, 49.24 1.31 C56.43 3.65, 64.58 9.74, 69.17 15.93 C73.75 22.12, 76.45 30.93, 76.76 38.47 C77.07 46.01, 75.41 54.95, 71.03 61.17 C66.66 67.4, 57.92 73.38, 50.52 75.8 C43.12 78.22, 33.85 77.89, 26.63 75.68 C19.41 73.48, 11.75 68.62, 7.19 62.57 C2.63 56.53, -0.64 47, -0.71 39.4 C-0.78 31.8, 1.22 23.62, 6.75 16.97 C12.29 10.32, 26.86 2.29, 32.51 -0.48 C38.15 -3.26, 40.42 -0.59, 40.62 0.33 M41.19 -0.07 C48.58 0.04, 57.64 4.26, 63.33 8.9 C69.01 13.55, 73.27 20.28, 75.3 27.81 C77.32 35.35, 78.1 46.71, 75.48 54.12 C72.86 61.52, 66.07 68.17, 59.57 72.26 C53.06 76.35, 43.88 79.05, 36.45 78.65 C29.02 78.26, 20.77 74.65, 15 69.89 C9.23 65.13, 3.99 57.71, 1.81 50.08 C-0.36 42.46, -0.76 31.28, 1.96 24.12 C4.69 16.96, 11.82 11.06, 18.16 7.12 C24.5 3.17, 36.37 1.71, 39.98 0.43 C43.6 -0.84, 39.65 -1.24, 39.86 -0.52" stroke="#1e1e1e" stroke-width="4" fill="none"></path>
  </g>
  <g transform="translate(1451.9810532378776 429.26655763997013) rotate(0 11.593849072122225 22.5)">
    <text x="11.593849072122174" y="31.536" font-family="'Virgil 3 YOFF'" font-size="36px" fill="#1e1e1e" text-anchor="middle" style="white-space: pre;" direction="ltr" dominant-baseline="alphabetic">C</text>
  </g>
  <g transform="translate(1503.3104682109395 392.8437221062456) rotate(0 9.633333206176758 35)">
    <text x="0" y="24.528" font-family="'Virgil 3 YOFF'" font-size="28px" fill="#1e1e1e" text-anchor="start" style="white-space: pre;" direction="ltr" dominant-baseline="alphabetic">0</text>
    <text x="0" y="59.528" font-family="'Virgil 3 YOFF'" font-size="28px" fill="#1e1e1e" text-anchor="start" style="white-space: pre;" direction="ltr" dominant-baseline="alphabetic"></text>
  </g>
  <g stroke-linecap="round" transform="translate(1241.6748942631364 427.8437221062456) rotate(0 38.4591836734694 39)">
    <path d="M32.46 0.92 C39.58 -0.8, 50.36 0.97, 56.96 4.39 C63.56 7.82, 68.95 14.78, 72.05 21.47 C75.15 28.17, 76.75 37.05, 75.54 44.56 C74.33 52.08, 70.12 61.15, 64.79 66.55 C59.47 71.95, 50.92 75.75, 43.59 76.95 C36.26 78.15, 27.47 77.3, 20.83 73.75 C14.19 70.2, 7.08 62.58, 3.75 55.66 C0.42 48.74, -0.49 39.5, 0.83 32.24 C2.15 24.97, 5.73 17.51, 11.67 12.08 C17.6 6.64, 31.83 1.44, 36.42 -0.36 C41.01 -2.17, 39.18 0.46, 39.19 1.25 M41.76 1.14 C49.02 1.3, 57.34 4.53, 63 9.3 C68.66 14.07, 73.7 22.35, 75.71 29.76 C77.73 37.17, 77.76 46.56, 75.11 53.74 C72.46 60.92, 66.37 68.95, 59.8 72.85 C53.23 76.74, 43.19 77.56, 35.68 77.1 C28.17 76.63, 20.56 74.7, 14.73 70.08 C8.91 65.45, 2.84 57.09, 0.72 49.33 C-1.41 41.57, -1 30.58, 1.97 23.53 C4.95 16.48, 12.14 11.15, 18.57 7.02 C24.99 2.89, 36.81 -0.43, 40.52 -1.26 C44.24 -2.08, 40.82 1.37, 40.85 2.07" stroke="#1e1e1e" stroke-width="4" fill="none"></path>
  </g>
  <g transform="translate(1265.895907714799 444.26655763997013) rotate(0 14.043420647397738 22.5)">
    <text x="14.043420647397696" y="31.536" font-family="'Virgil 3 YOFF'" font-size="36px" fill="#1e1e1e" text-anchor="middle" style="white-space: pre;" direction="ltr" dominant-baseline="alphabetic">D</text>
  </g>
  <g transform="translate(1319.6748942631364 407.8437221062456) rotate(0 3.7916667461395264 17.5)">
    <text x="0" y="24.528" font-family="'Virgil 3 YOFF'" font-size="28px" fill="#1e1e1e" text-anchor="start" style="white-space: pre;" direction="ltr" dominant-baseline="alphabetic">1</text>
  </g>
  <g stroke-linecap="round" transform="translate(1339.3104682109395 536.8437221062457) rotate(0 38.4591836734694 39)">
    <path d="M38.83 -0.68 C46 -1, 55.35 3.35, 61.32 8.06 C67.3 12.77, 72.47 20.19, 74.68 27.57 C76.9 34.94, 77.11 45.2, 74.61 52.33 C72.1 59.47, 65.85 66.19, 59.67 70.39 C53.49 74.58, 44.96 77.45, 37.54 77.48 C30.12 77.51, 21.12 75.24, 15.13 70.56 C9.15 65.88, 3.9 56.81, 1.62 49.42 C-0.65 42.02, -1.06 33.23, 1.47 26.18 C4 19.14, 8.82 11.27, 16.8 7.13 C24.78 2.99, 42.67 1.38, 49.35 1.34 C56.04 1.31, 57 6.21, 56.93 6.89 M45.8 1.19 C53.02 1.97, 61.53 7.63, 66.55 12.87 C71.57 18.1, 74.82 25.06, 75.91 32.59 C77 40.12, 76.58 51.09, 73.07 58.05 C69.57 65.01, 61.85 71.37, 54.88 74.37 C47.92 77.37, 38.46 77.3, 31.28 76.07 C24.1 74.85, 16.98 72.47, 11.82 67 C6.65 61.52, 1.48 50.74, 0.3 43.24 C-0.89 35.75, 1.14 28.74, 4.71 22.04 C8.29 15.34, 15.13 6.49, 21.74 3.03 C28.36 -0.43, 40.63 1.48, 44.4 1.28 C48.17 1.08, 44.41 1.37, 44.35 1.82" stroke="#1e1e1e" stroke-width="4" fill="none"></path>
  </g>
  <g transform="translate(1365.439126794167 553.2665576399702) rotate(0 12.135775515832961 22.5)">
    <text x="12.135775515832925" y="31.536" font-family="'Virgil 3 YOFF'" font-size="36px" fill="#1e1e1e" text-anchor="middle" style="white-space: pre;" direction="ltr" dominant-baseline="alphabetic">E</text>
  </g>
  <g transform="translate(1412.3104682109395 522.8437221062457) rotate(0 9.633333206176758 35)">
    <text x="0" y="24.528" font-family="'Virgil 3 YOFF'" font-size="28px" fill="#1e1e1e" text-anchor="start" style="white-space: pre;" direction="ltr" dominant-baseline="alphabetic">0</text>
    <text x="0" y="59.528" font-family="'Virgil 3 YOFF'" font-size="28px" fill="#1e1e1e" text-anchor="start" style="white-space: pre;" direction="ltr" dominant-baseline="alphabetic"></text>
  </g>
  <g stroke-linecap="round" transform="translate(1169.6748942631364 535.8437221062457) rotate(0 38.4591836734694 39)">
    <path d="M35.57 0.19 C42.73 -0.93, 51.85 1.01, 58.32 4.93 C64.79 8.86, 71.42 16.37, 74.38 23.72 C77.35 31.07, 77.93 41.59, 76.1 49.03 C74.28 56.47, 69.36 63.45, 63.43 68.34 C57.49 73.22, 48.05 77.62, 40.5 78.33 C32.96 79.04, 24.4 76.71, 18.15 72.58 C11.9 68.45, 5.95 60.57, 2.98 53.56 C0.01 46.55, -1.56 37.86, 0.33 30.5 C2.22 23.14, 8.08 14.46, 14.32 9.39 C20.55 4.32, 33.52 1.41, 37.75 0.06 C41.97 -1.29, 39.65 0.62, 39.68 1.32 M52.31 3.25 C59.22 5.47, 65.86 11.69, 69.85 17.66 C73.84 23.64, 76.29 31.41, 76.26 39.12 C76.22 46.83, 74.19 57.89, 69.63 63.91 C65.06 69.92, 56.22 73.05, 48.86 75.2 C41.5 77.36, 32.49 79.42, 25.47 76.84 C18.46 74.26, 11.12 66.17, 6.78 59.74 C2.43 53.3, -0.73 45.63, -0.58 38.23 C-0.43 30.84, 3 21.58, 7.7 15.38 C12.41 9.18, 20.23 3.1, 27.66 1.04 C35.09 -1.02, 48.48 2.78, 52.29 3.02 C56.09 3.27, 51.07 2.01, 50.51 2.49" stroke="#1e1e1e" stroke-width="4" fill="none"></path>
  </g>
  <g transform="translate(1197.6059477451624 552.2665576399702) rotate(0 10.333380617034322 22.5)">
    <text x="10.333380617034283" y="31.536" font-family="'Virgil 3 YOFF'" font-size="36px" fill="#1e1e1e" text-anchor="middle" style="white-space: pre;" direction="ltr" dominant-baseline="alphabetic">F</text>
  </g>
  <g transform="translate(1248.6748942631366 520.8437221062457) rotate(0 9.633333206176758 35)">
    <text x="0" y="24.528" font-family="'Virgil 3 YOFF'" font-size="28px" fill="#1e1e1e" text-anchor="start" style="white-space: pre;" direction="ltr" dominant-baseline="alphabetic">0</text>
    <text x="0" y="59.528" font-family="'Virgil 3 YOFF'" font-size="28px" fill="#1e1e1e" text-anchor="start" style="white-space: pre;" direction="ltr" dominant-baseline="alphabetic"></text>
  </g>
  <g stroke-linecap="round">
    <g transform="translate(1409.037148671792 385.5937221062456) rotate(0 14.5 18)">
      <path d="M0.09 -0.44 C4.87 5.63, 23.21 30.27, 27.93 36.4 M-1.32 -1.72 C3.88 3.98, 25.3 28.51, 30.07 34.49" stroke="#1e1e1e" stroke-width="4" fill="none"></path>
    </g>
  </g>
  <mask></mask>
  <g stroke-linecap="round">
    <g transform="translate(1310.36943611395 491.18736254732056) rotate(0 24 24)">
      <path d="M-1.07 0.4 C6.81 8.53, 39.07 40.38, 47.4 48.34 M0.56 -0.43 C8.84 7.36, 41.79 38.07, 49.8 46.4" stroke="#1e1e1e" stroke-width="4" fill="none"></path>
    </g>
  </g>
  <mask></mask>
  <g stroke-linecap="round">
    <g transform="translate(1211.3152729334395 534.8035850878193) rotate(0 19 -19.5)">
      <path d="M-0.6 0.34 C6.07 -6.21, 32.58 -32.15, 38.93 -38.87 M1.29 -0.53 C7.98 -6.89, 32.61 -30.82, 38.47 -37.26" stroke="#1e1e1e" stroke-width="4" fill="none"></path>
    </g>
  </g>
  <mask></mask>
  <g stroke-linecap="round">
    <g transform="translate(1281.489644260522 425.7746814445679) rotate(0 32 -32.5)">
      <path d="M-0.76 0.05 C10.02 -10.76, 53.89 -53.45, 64.85 -64.46 M1.04 -0.97 C11.73 -12.17, 53.73 -55.6, 64.35 -66.3" stroke="#1e1e1e" stroke-width="4" fill="none"></path>
    </g>
  </g>
  <mask></mask>
  <g stroke-linecap="round">
    <g transform="translate(975.2625019868874 646.4186536801137) rotate(0 373 -1)">
      <path d="M0.07 -0.32 C124.43 -0.4, 621.47 -1.21, 745.89 -1.57 M-1.35 -1.53 C122.86 -1.89, 620.3 -3.49, 744.88 -3.47" stroke="#1e1e1e" stroke-width="4" fill="none"></path>
    </g>
  </g>
  <mask></mask>
  <g stroke-linecap="round" transform="translate(1468.3536084999364 773.1686536801137) rotate(0 38.4591836734694 39)">
    <path d="M48.18 1.93 C55.26 3.16, 62.65 7.53, 67.36 13.18 C72.07 18.82, 75.88 28.15, 76.44 35.8 C77 43.45, 74.64 52.44, 70.7 59.09 C66.76 65.73, 59.53 72.57, 52.79 75.67 C46.06 78.76, 37.53 79.66, 30.28 77.64 C23.02 75.62, 14.43 69.59, 9.27 63.53 C4.1 57.46, -0.27 48.67, -0.7 41.24 C-1.12 33.8, 2.66 25.39, 6.7 18.9 C10.75 12.41, 15.93 5.13, 23.56 2.32 C31.18 -0.48, 46.76 1.25, 52.44 2.07 C58.12 2.89, 57.6 6.58, 57.62 7.25 M37.34 -0.93 C44.64 -1.98, 53.92 1.05, 60.17 5.65 C66.42 10.24, 72.38 19.31, 74.84 26.65 C77.3 33.99, 77.17 42.43, 74.92 49.68 C72.67 56.93, 67.06 65.55, 61.35 70.14 C55.64 74.72, 47.88 76.85, 40.65 77.19 C33.42 77.53, 24.6 76.33, 17.96 72.18 C11.32 68.02, 3.34 59.63, 0.83 52.25 C-1.68 44.87, 0.4 35.17, 2.91 27.91 C5.42 20.64, 10.15 13.3, 15.88 8.64 C21.61 3.98, 33.98 1.22, 37.32 -0.06 C40.65 -1.35, 35.71 0.04, 35.88 0.93" stroke="#1e1e1e" stroke-width="4" fill="none"></path>
  </g>
  <g transform="translate(1494.8106413307762 789.5914892138383) rotate(0 11.807401268220588 22.5)">
    <text x="11.807401268220639" y="31.536" font-family="'Virgil 3 YOFF'" font-size="36px" fill="#1e1e1e" text-anchor="middle" style="white-space: pre;" direction="ltr" dominant-baseline="alphabetic">A</text>
  </g>
  <g transform="translate(1546.3536084999364 753.1686536801137) rotate(0 9.633333206176758 35)">
    <text x="0" y="24.528" font-family="'Virgil 3 YOFF'" font-size="28px" fill="#1e1e1e" text-anchor="start" style="white-space: pre;" direction="ltr" dominant-baseline="alphabetic">0</text>
    <text x="0" y="59.528" font-family="'Virgil 3 YOFF'" font-size="28px" fill="#1e1e1e" text-anchor="start" style="white-space: pre;" direction="ltr" dominant-baseline="alphabetic"></text>
  </g>
  <g stroke-linecap="round" transform="translate(1245.7180345521333 676.1686536801137) rotate(0 38.4591836734694 39)">
    <path d="M27.41 1.13 C34.16 -1.22, 44.05 0.17, 51.36 2.98 C58.67 5.79, 66.98 11.86, 71.25 17.98 C75.52 24.1, 77.55 32.29, 76.99 39.68 C76.44 47.07, 72.42 56.12, 67.92 62.31 C63.42 68.51, 57.15 74.74, 50 76.85 C42.84 78.97, 32.34 77.84, 24.99 75.01 C17.64 72.18, 10.09 65.96, 5.88 59.89 C1.66 53.81, -0.85 46.1, -0.31 38.54 C0.23 30.97, 3.73 20.89, 9.12 14.47 C14.51 8.05, 27.43 2.27, 32.05 0.02 C36.67 -2.23, 36.84 0.22, 36.86 0.97 M24.93 2.21 C31.32 -0.84, 40.96 -0.08, 48.43 1.94 C55.9 3.95, 64.81 8.2, 69.73 14.31 C74.65 20.43, 78.09 30.88, 77.93 38.64 C77.77 46.4, 72.96 54.74, 68.78 60.87 C64.61 66.99, 59.56 72.72, 52.9 75.38 C46.23 78.04, 36.25 78.94, 28.8 76.84 C21.36 74.75, 13.25 68.9, 8.24 62.82 C3.23 56.74, -1.19 47.74, -1.27 40.35 C-1.36 32.96, 3.43 24.8, 7.72 18.46 C12.01 12.12, 21.51 4.75, 24.48 2.3 C27.45 -0.16, 25.15 3.26, 25.56 3.72" stroke="#1e1e1e" stroke-width="4" fill="none"></path>
  </g>
  <g transform="translate(1270.8972494263846 692.5914892138383) rotate(0 13.085219224808839 22.5)">
    <text x="13.085219224808828" y="31.536" font-family="'Virgil 3 YOFF'" font-size="36px" fill="#1e1e1e" text-anchor="middle" style="white-space: pre;" direction="ltr" dominant-baseline="alphabetic">B</text>
  </g>
  <g transform="translate(1323.7180345521333 656.1686536801137) rotate(0 9.966666221618652 17.5)">
    <text x="0" y="24.528" font-family="'Virgil 3 YOFF'" font-size="28px" fill="#1e1e1e" text-anchor="start" style="white-space: pre;" direction="ltr" dominant-baseline="alphabetic">2</text>
  </g>
  <g stroke-linecap="round" transform="translate(1325.5358215260349 768.6686536801137) rotate(0 38.4591836734694 39)">
    <path d="M50.03 1.03 C56.74 2.45, 63.86 8.66, 68.51 14.97 C73.15 21.29, 77.74 31.24, 77.91 38.9 C78.09 46.56, 74.21 54.92, 69.57 60.95 C64.94 66.98, 57.25 72.38, 50.09 75.08 C42.94 77.79, 33.58 79.4, 26.65 77.19 C19.73 74.98, 12.98 68.19, 8.53 61.81 C4.08 55.44, 0.1 46.47, -0.07 38.93 C-0.24 31.39, 3.24 22.69, 7.51 16.57 C11.78 10.44, 18.06 4.42, 25.53 2.17 C32.99 -0.09, 47.18 2.64, 52.3 3.05 C57.42 3.46, 56.38 4.13, 56.24 4.63 M44.42 1.18 C51.2 1.71, 57.84 5.54, 63.39 10.59 C68.93 15.64, 75.86 23.9, 77.67 31.49 C79.49 39.07, 77.72 49.16, 74.29 56.1 C70.85 63.04, 64.07 69.53, 57.06 73.15 C50.05 76.77, 39.56 78.54, 32.23 77.81 C24.91 77.07, 18.54 74.01, 13.12 68.74 C7.7 63.47, 1.3 53.81, -0.29 46.19 C-1.88 38.56, 0.15 30.03, 3.57 22.97 C7 15.92, 13.73 7.6, 20.25 3.85 C26.77 0.1, 38.88 0.82, 42.69 0.49 C46.5 0.16, 43.07 1.41, 43.12 1.86" stroke="#1e1e1e" stroke-width="4" fill="none"></path>
  </g>
  <g transform="translate(1352.206406552973 785.0914892138383) rotate(0 11.593849072122225 22.5)">
    <text x="11.593849072122174" y="31.536" font-family="'Virgil 3 YOFF'" font-size="36px" fill="#1e1e1e" text-anchor="middle" style="white-space: pre;" direction="ltr" dominant-baseline="alphabetic">C</text>
  </g>
  <g transform="translate(1403.5358215260349 748.6686536801137) rotate(0 9.633333206176758 35)">
    <text x="0" y="24.528" font-family="'Virgil 3 YOFF'" font-size="28px" fill="#1e1e1e" text-anchor="start" style="white-space: pre;" direction="ltr" dominant-baseline="alphabetic">0</text>
    <text x="0" y="59.528" font-family="'Virgil 3 YOFF'" font-size="28px" fill="#1e1e1e" text-anchor="start" style="white-space: pre;" direction="ltr" dominant-baseline="alphabetic"></text>
  </g>
  <g stroke-linecap="round" transform="translate(1141.9002475782318 783.6686536801137) rotate(0 38.4591836734694 39)">
    <path d="M24.17 2.07 C30.37 -1.27, 40.22 -1.8, 47.49 0.39 C54.77 2.58, 62.8 9.24, 67.85 15.21 C72.89 21.18, 77.29 28.84, 77.78 36.23 C78.27 43.61, 74.93 52.97, 70.79 59.51 C66.64 66.04, 60.02 72.55, 52.91 75.44 C45.8 78.34, 35.6 78.78, 28.13 76.86 C20.65 74.94, 12.62 69.89, 8.05 63.91 C3.48 57.92, 1.05 48.71, 0.71 40.97 C0.37 33.23, 1.74 23.86, 6 17.48 C10.25 11.1, 22.69 5.11, 26.23 2.7 C29.77 0.29, 26.97 2.69, 27.23 3.04 M38.81 0.4 C45.75 -0.23, 54.86 2.61, 60.64 6.94 C66.43 11.27, 70.9 18.91, 73.51 26.38 C76.12 33.85, 78.46 44.45, 76.32 51.74 C74.19 59.02, 66.91 65.62, 60.69 70.11 C54.48 74.6, 46.39 78.68, 39.05 78.68 C31.71 78.67, 22.94 74.52, 16.66 70.06 C10.39 65.6, 3.94 58.86, 1.41 51.92 C-1.12 44.98, -0.83 35.92, 1.49 28.41 C3.82 20.9, 9.16 11.48, 15.36 6.86 C21.56 2.24, 34.81 1.86, 38.7 0.68 C42.59 -0.5, 38.82 -0.56, 38.7 -0.23" stroke="#1e1e1e" stroke-width="4" fill="none"></path>
  </g>
  <g transform="translate(1166.1212610298942 800.0914892138383) rotate(0 14.043420647397738 22.5)">
    <text x="14.043420647397696" y="31.536" font-family="'Virgil 3 YOFF'" font-size="36px" fill="#1e1e1e" text-anchor="middle" style="white-space: pre;" direction="ltr" dominant-baseline="alphabetic">D</text>
  </g>
  <g transform="translate(1219.9002475782318 763.6686536801137) rotate(0 3.7916667461395264 17.5)">
    <text x="0" y="24.528" font-family="'Virgil 3 YOFF'" font-size="28px" fill="#1e1e1e" text-anchor="start" style="white-space: pre;" direction="ltr" dominant-baseline="alphabetic">1</text>
  </g>
  <g stroke-linecap="round" transform="translate(1239.5358215260349 892.6686536801137) rotate(0 38.4591836734694 39)">
    <path d="M23.18 3.16 C29.5 -0.62, 38.48 -1.35, 45.79 0.22 C53.1 1.79, 62.01 6.88, 67.04 12.58 C72.08 18.28, 75.28 26.84, 76.01 34.43 C76.73 42.01, 74.83 51.51, 71.38 58.11 C67.93 64.72, 62.03 70.93, 55.3 74.03 C48.57 77.14, 38.46 78.08, 31 76.76 C23.54 75.45, 15.76 71.54, 10.55 66.14 C5.34 60.75, 0.61 52.23, -0.24 44.38 C-1.1 36.53, 1.37 25.83, 5.42 19.05 C9.48 12.28, 20.66 6.33, 24.1 3.75 C27.55 1.16, 25.81 3.07, 26.1 3.54 M38.46 1.4 C45.66 0.65, 53.22 2.61, 59.24 6.81 C65.25 11.02, 71.83 19.56, 74.56 26.6 C77.28 33.65, 77.79 41.85, 75.57 49.1 C73.35 56.34, 67.26 65.13, 61.22 70.07 C55.19 75.01, 46.76 78.74, 39.36 78.75 C31.96 78.76, 22.85 74.48, 16.82 70.15 C10.79 65.82, 5.58 59.95, 3.19 52.75 C0.81 45.55, 0.52 34.62, 2.52 26.96 C4.52 19.31, 9.63 11.49, 15.2 6.8 C20.78 2.12, 32.32 0.02, 35.96 -1.14 C39.59 -2.3, 36.82 -1.02, 37.02 -0.18" stroke="#1e1e1e" stroke-width="4" fill="none"></path>
  </g>
  <g transform="translate(1265.6644801092623 909.0914892138383) rotate(0 12.135775515832961 22.5)">
    <text x="12.135775515832925" y="31.536" font-family="'Virgil 3 YOFF'" font-size="36px" fill="#1e1e1e" text-anchor="middle" style="white-space: pre;" direction="ltr" dominant-baseline="alphabetic">E</text>
  </g>
  <g transform="translate(1312.5358215260349 878.6686536801137) rotate(0 9.633333206176758 35)">
    <text x="0" y="24.528" font-family="'Virgil 3 YOFF'" font-size="28px" fill="#1e1e1e" text-anchor="start" style="white-space: pre;" direction="ltr" dominant-baseline="alphabetic">0</text>
    <text x="0" y="59.528" font-family="'Virgil 3 YOFF'" font-size="28px" fill="#1e1e1e" text-anchor="start" style="white-space: pre;" direction="ltr" dominant-baseline="alphabetic"></text>
  </g>
  <g stroke-linecap="round" transform="translate(1069.9002475782318 891.6686536801137) rotate(0 38.4591836734694 39)">
    <path d="M28.11 1.38 C34.72 -0.95, 44.55 0.13, 51.78 2.84 C59.01 5.55, 67.32 11.31, 71.49 17.64 C75.66 23.96, 77.29 33, 76.79 40.79 C76.28 48.57, 73.3 58.22, 68.45 64.33 C63.59 70.43, 54.89 75.76, 47.65 77.42 C40.41 79.09, 31.95 77.07, 25.02 74.33 C18.08 71.59, 10.23 67.12, 6.03 60.97 C1.84 54.82, -0.64 45.19, -0.14 37.42 C0.35 29.66, 3.56 20.67, 8.99 14.37 C14.41 8.07, 27.84 1.75, 32.41 -0.39 C36.97 -2.52, 36.11 0.88, 36.37 1.56 M38.58 -0.92 C45.64 -1.55, 54.24 2.8, 60.28 7.56 C66.32 12.31, 72.35 20.55, 74.83 27.61 C77.31 34.68, 77.28 42.67, 75.16 49.93 C73.04 57.18, 68.05 66.65, 62.11 71.16 C56.17 75.67, 47.18 77.29, 39.51 76.98 C31.85 76.67, 22.65 73.82, 16.14 69.32 C9.64 64.82, 2.93 57.2, 0.48 49.99 C-1.96 42.79, -1.03 33.16, 1.46 26.07 C3.94 18.99, 9.12 11.67, 15.39 7.5 C21.66 3.33, 35.28 2.08, 39.07 1.07 C42.85 0.05, 38.49 1, 38.13 1.39" stroke="#1e1e1e" stroke-width="4" fill="none"></path>
  </g>
  <g transform="translate(1097.8313010602576 908.0914892138383) rotate(0 10.333380617034322 22.5)">
    <text x="10.333380617034283" y="31.536" font-family="'Virgil 3 YOFF'" font-size="36px" fill="#1e1e1e" text-anchor="middle" style="white-space: pre;" direction="ltr" dominant-baseline="alphabetic">F</text>
  </g>
  <g transform="translate(1148.900247578232 876.6686536801137) rotate(0 9.633333206176758 35)">
    <text x="0" y="24.528" font-family="'Virgil 3 YOFF'" font-size="28px" fill="#1e1e1e" text-anchor="start" style="white-space: pre;" direction="ltr" dominant-baseline="alphabetic">0</text>
    <text x="0" y="59.528" font-family="'Virgil 3 YOFF'" font-size="28px" fill="#1e1e1e" text-anchor="start" style="white-space: pre;" direction="ltr" dominant-baseline="alphabetic"></text>
  </g>
  <g stroke-linecap="round">
    <g transform="translate(1309.2625019868874 741.4186536801137) rotate(0 14.5 18)">
      <path d="M0.14 -0.83 C4.98 5.43, 24.44 30.64, 29.19 36.77 M-1.24 1.35 C3.44 7.33, 23.53 29.07, 28.34 35.05" stroke="#1e1e1e" stroke-width="4" fill="none"></path>
    </g>
  </g>
  <mask></mask>
  <g stroke-linecap="round">
    <g transform="translate(1210.5947894290455 847.0122941211887) rotate(0 24 24)">
      <path d="M0.19 0.77 C8.1 8.89, 39.73 40, 47.6 47.92 M-1.18 0.12 C6.53 8.52, 38.52 41.14, 46.44 49.42" stroke="#1e1e1e" stroke-width="4" fill="none"></path>
    </g>
  </g>
  <mask></mask>
  <g stroke-linecap="round">
    <g transform="translate(1111.5406262485349 890.6285166616874) rotate(0 19 -19.5)">
      <path d="M-0.4 -0.08 C5.8 -6.66, 30.87 -32.1, 37.39 -38.69 M1.59 -1.17 C8.17 -8.19, 33.66 -34.41, 39.78 -40.65" stroke="#1e1e1e" stroke-width="4" fill="none"></path>
    </g>
  </g>
  <mask></mask>
  <g stroke-linecap="round">
    <g transform="translate(1181.7149975756174 781.599613018436) rotate(0 32 -32.5)">
      <path d="M-0.61 0.31 C10.24 -10.62, 53.8 -54.86, 64.7 -65.63 M1.27 -0.57 C12.06 -11.34, 53.59 -53.47, 64.13 -64.42" stroke="#1e1e1e" stroke-width="4" fill="none"></path>
    </g>
  </g>
  <mask></mask>
  <g stroke-linecap="round">
    <g transform="translate(1325.850972385522 710.7839587883179) rotate(0 89.5 30.5)">
      <path d="M-0.2 1.11 C29.39 11.12, 148.85 50.99, 178.61 60.88 M-1.76 0.65 C27.54 10.77, 147.62 52.21, 177.46 62.36" stroke="#1e1e1e" stroke-width="4" fill="none"></path>
    </g>
  </g>
  <mask></mask>
  <g transform="translate(29.030799576739895 53.42525082908563) rotate(0 37.37500000000001 45.461427712189426)">
    <text x="0" y="63.7187370814047" font-family="'Virgil 3 YOFF'" font-size="72.73828433950308px" fill="#1971c2" text-anchor="start" style="white-space: pre;" direction="ltr" dominant-baseline="alphabetic">(1)</text>
  </g>
  <g transform="translate(31.834723180485753 216.75457280142993) rotate(0 53.47499847412109 45.46142771218943)">
    <text x="0" y="63.7187370814047" font-family="'Virgil 3 YOFF'" font-size="72.73828433950308px" fill="#1971c2" text-anchor="start" style="white-space: pre;" direction="ltr" dominant-baseline="alphabetic">(2)</text>
  </g>
  <g transform="translate(10 488.4755723808083) rotate(0 52.34166717529296 45.46142771218942)">
    <text x="0" y="63.7187370814047" font-family="'Virgil 3 YOFF'" font-size="72.73828433950308px" fill="#1971c2" text-anchor="start" style="white-space: pre;" direction="ltr" dominant-baseline="alphabetic">(3)</text>
  </g>
  <g transform="translate(1775.392512716712 94.23751495537101) rotate(0 50.84166717529297 45.461427712189426)">
    <text x="0" y="63.7187370814047" font-family="'Virgil 3 YOFF'" font-size="72.73828433950308px" fill="#1971c2" text-anchor="start" style="white-space: pre;" direction="ltr" dominant-baseline="alphabetic">(4)</text>
  </g>
  <g transform="translate(1780.2446734234868 416.90620195588275) rotate(0 50.04166793823242 45.46142771218942)">
    <text x="0" y="63.7187370814047" font-family="'Virgil 3 YOFF'" font-size="72.73828433950308px" fill="#1971c2" text-anchor="start" style="white-space: pre;" direction="ltr" dominant-baseline="alphabetic">(5)</text>
  </g>
  <g transform="translate(1799.653316250585 777.2271111205735) rotate(0 50.84166717529297 45.46142771218945)">
    <text x="0" y="63.7187370814047" font-family="'Virgil 3 YOFF'" font-size="72.73828433950308px" fill="#1971c2" text-anchor="start" style="white-space: pre;" direction="ltr" dominant-baseline="alphabetic">(6)</text>
  </g>
</svg>