<svg version="1.1" xmlns="http://www.w3.org/2000/svg" viewBox="0 0 580.3979882435242 554.4444498604505" width="1160.7959764870484" height="1108.888899720901">
  <!-- svg-source:excalidraw -->
  <g stroke-linecap="round" transform="translate(258.73336679305066 226.57754738608605) rotate(0 95.6184991183045 95.6184991183045)">
    <path d="M123.05 3.07 C134.64 5.22, 147.12 14.14, 156.67 22.03 C166.21 29.93, 174.52 39.68, 180.32 50.43 C186.11 61.18, 190.39 74.42, 191.43 86.55 C192.47 98.68, 190.11 111.63, 186.57 123.22 C183.02 134.81, 177.76 146.62, 170.14 156.1 C162.53 165.57, 151.59 174.17, 140.89 180.07 C130.19 185.97, 117.98 190.47, 105.93 191.5 C93.87 192.54, 80.22 189.93, 68.59 186.27 C56.96 182.61, 45.67 177.05, 36.13 169.53 C26.58 162.02, 17.3 151.95, 11.32 141.17 C5.34 130.39, 1.42 116.89, 0.23 104.84 C-0.97 92.79, 0.54 80.52, 4.13 68.85 C7.72 57.17, 14.14 44.23, 21.78 34.79 C29.41 25.36, 39.18 17.8, 49.96 12.23 C60.74 6.67, 73.77 2.59, 86.43 1.4 C99.1 0.21, 119.17 4.05, 125.98 5.07 C132.78 6.09, 127.97 6.1, 127.29 7.54 M70.4 2.43 C81.11 -1.62, 95.06 0.04, 107.4 1.89 C119.74 3.74, 133.68 7.76, 144.46 13.53 C155.23 19.29, 164.93 26.99, 172.05 36.49 C179.16 45.98, 184.14 58.55, 187.15 70.5 C190.15 82.46, 191.58 96.19, 190.09 108.24 C188.61 120.29, 184.22 132.11, 178.25 142.8 C172.29 153.48, 164.14 165.03, 154.3 172.33 C144.45 179.64, 131.09 183.78, 119.18 186.65 C107.26 189.51, 94.75 190.82, 82.8 189.54 C70.86 188.27, 58.24 184.93, 47.51 178.99 C36.79 173.05, 26.04 163.63, 18.46 153.91 C10.88 144.18, 4.87 132.27, 2.05 120.63 C-0.78 109, -0.28 96.23, 1.53 84.1 C3.33 71.96, 6.63 58.54, 12.87 47.82 C19.12 37.09, 29.26 27.17, 38.99 19.74 C48.71 12.31, 65.98 5.82, 71.23 3.23 C76.47 0.64, 69.86 2.51, 70.45 4.2" stroke="#1e1e1e" stroke-width="2" fill="none"></path>
  </g>
  <g stroke-linecap="round" transform="translate(120.73261401149739 93.7453621244413) rotate(0 95.6184991183045 95.6184991183045)">
    <path d="M132.73 7.62 C144.11 10.66, 155.11 19.61, 163.69 28.29 C172.27 36.96, 179.75 48.46, 184.21 59.65 C188.66 70.84, 190.5 83.35, 190.42 95.41 C190.33 107.47, 188.21 120.75, 183.69 132 C179.16 143.26, 171.77 154.41, 163.26 162.93 C154.74 171.44, 143.91 178.41, 132.6 183.11 C121.3 187.8, 107.62 191.11, 95.44 191.11 C83.25 191.12, 70.7 187.88, 59.49 183.13 C48.28 178.39, 36.72 171.21, 28.18 162.65 C19.63 154.1, 13.01 142.85, 8.23 131.79 C3.45 120.73, -0.28 108.54, -0.49 96.3 C-0.7 84.07, 2.38 69.88, 6.97 58.38 C11.56 46.88, 18.5 35.69, 27.05 27.3 C35.61 18.92, 46.75 12.59, 58.3 8.07 C69.86 3.55, 82.8 -0.25, 96.38 0.21 C109.96 0.66, 131.33 7.91, 139.78 10.79 C148.23 13.66, 147.84 15.89, 147.06 17.45 M99.31 -1.37 C111 -2.04, 124.27 5.17, 135.44 10.37 C146.61 15.58, 157.92 20.9, 166.32 29.85 C174.71 38.8, 181.57 52.37, 185.83 64.08 C190.1 75.78, 192.35 88.02, 191.9 100.06 C191.45 112.11, 188.24 125.26, 183.12 136.34 C178 147.42, 170.56 158.09, 161.19 166.53 C151.81 174.98, 138.61 182.71, 126.9 186.99 C115.19 191.26, 103.02 193.02, 90.93 192.17 C78.83 191.32, 65.33 187.39, 54.32 181.91 C43.31 176.42, 32.84 168.23, 24.88 159.23 C16.93 150.24, 10.55 139.52, 6.6 127.96 C2.65 116.4, 0.63 102.25, 1.18 89.89 C1.73 77.54, 4.64 64.91, 9.88 53.85 C15.11 42.79, 23.51 31.44, 32.59 23.55 C41.66 15.67, 52.93 10.6, 64.33 6.55 C75.72 2.5, 95.03 0.14, 100.97 -0.75 C106.91 -1.64, 100.42 -0.32, 99.97 1.2" stroke="#1e1e1e" stroke-width="2" fill="none"></path>
  </g>
  <g stroke-linecap="round" transform="translate(147.60916511502091 121.65562673194651) rotate(0 211.3944115642521 211.39441156425204)">
    <path d="M120.16 20.2 C134.32 9.81, 154.55 7.72, 172.41 4.35 C190.27 0.98, 209.28 -1.15, 227.34 -0.01 C245.4 1.12, 263.8 5.22, 280.78 11.16 C297.76 17.09, 314.08 25.24, 329.2 35.6 C344.31 45.95, 359.23 59.38, 371.46 73.29 C383.69 87.2, 394.59 102.73, 402.57 119.06 C410.55 135.4, 416.1 153.37, 419.35 171.3 C422.6 189.22, 423.29 208.39, 422.08 226.6 C420.87 244.81, 417.89 263.25, 412.08 280.57 C406.28 297.9, 397.68 315.59, 387.25 330.56 C376.81 345.52, 363.33 358.63, 349.45 370.39 C335.58 382.15, 320.42 392.9, 303.98 401.13 C287.54 409.35, 268.83 416.3, 250.83 419.75 C232.84 423.19, 214.02 423.09, 196.01 421.78 C178 420.47, 159.96 417.78, 142.78 411.88 C125.59 405.99, 108.05 396.75, 92.91 386.38 C77.77 376.02, 64.03 363.64, 51.95 349.69 C39.87 335.75, 28.55 319.13, 20.44 302.71 C12.33 286.28, 6.51 268.96, 3.28 251.15 C0.05 233.33, -0.31 213.86, 1.05 195.82 C2.42 177.78, 5.51 160.18, 11.47 142.91 C17.43 125.63, 26.48 107.45, 36.83 92.17 C47.18 76.89, 57.25 64.04, 73.57 51.23 C89.9 38.42, 121.96 21.58, 134.79 15.33 C147.63 9.07, 149.33 10.45, 150.59 13.71 M203.05 -0.9 C220.37 -5.14, 240.8 -0.2, 258.98 4.17 C277.17 8.55, 296.08 16.5, 312.17 25.36 C328.26 34.22, 342.65 44.9, 355.54 57.35 C368.43 69.8, 379.78 84.78, 389.51 100.07 C399.23 115.37, 408.33 131.77, 413.89 149.12 C419.46 166.48, 422.22 185.79, 422.88 204.19 C423.53 222.6, 421.79 241.99, 417.83 259.55 C413.86 277.11, 407.61 293.28, 399.1 309.55 C390.59 325.81, 379.24 343.33, 366.78 357.13 C354.31 370.93, 339.91 383.07, 324.3 392.33 C308.69 401.59, 290.63 407.63, 273.09 412.7 C255.56 417.77, 237.23 421.82, 219.1 422.76 C200.97 423.69, 181.96 422.48, 164.32 418.32 C146.68 414.17, 129.41 406.79, 113.28 397.82 C97.15 388.85, 81.05 377.03, 67.55 364.48 C54.04 351.94, 41.73 337.74, 32.23 322.54 C22.73 307.35, 15.69 290.86, 10.54 273.31 C5.39 255.75, 2.12 235.29, 1.33 217.22 C0.54 199.15, 1.83 182.41, 5.81 164.88 C9.78 147.35, 16.41 128.58, 25.18 112.03 C33.96 95.48, 45.95 79.15, 58.48 65.57 C71.01 51.98, 84.94 39.93, 100.36 30.53 C115.78 21.13, 133.56 14.26, 151.02 9.17 C168.49 4.09, 196.3 0.73, 205.16 0.01 C214.02 -0.71, 204.16 1.33, 204.16 4.83" stroke="#1971c2" stroke-width="2" fill="none"></path>
  </g>
  <g stroke-linecap="round">
    <g transform="translate(353.09101809253207 321.29659461762594) rotate(0 -129.21418799770936 -125.59619073377326)">
      <path d="M-0.28 0.06 C-43.11 -41.83, -214.42 -209.64, -257.59 -251.63" stroke="#1e1e1e" stroke-width="2.5" fill="none" stroke-dasharray="8 10"></path>
    </g>
  </g>
  <mask></mask>
  <g stroke-linecap="round">
    <g transform="translate(10.258238615309892 143.09668699000582) rotate(0 98.37868893757195 19.16662432878109)">
      <path d="M0.79 1.03 C33.59 7.29, 162.99 31.37, 195.69 37.58 M-0.26 0.52 C33 6.92, 165.08 32.21, 197.85 38.72" stroke="#e03131" stroke-width="4" fill="none"></path>
    </g>
    <g transform="translate(10.258238615309892 143.09668699000582) rotate(0 98.37868893757195 19.16662432878109)">
      <path d="M173.15 42.63 C179.99 39.88, 182.14 41.23, 197.85 38.72 M173.15 42.63 C180.52 41.97, 187.53 40.23, 197.85 38.72" stroke="#e03131" stroke-width="4" fill="none"></path>
    </g>
    <g transform="translate(10.258238615309892 143.09668699000582) rotate(0 98.37868893757195 19.16662432878109)">
      <path d="M176.42 25.84 C182.58 26.6, 184.05 31.43, 197.85 38.72 M176.42 25.84 C182.94 30.12, 188.98 33.34, 197.85 38.72" stroke="#e03131" stroke-width="4" fill="none"></path>
    </g>
  </g>
  <mask></mask>
  <g stroke-linecap="round">
    <g transform="translate(210.01040154182556 179.03410760647034) rotate(0 -19.36744410567826 -84.42319117727865)">
      <path d="M0.46 -0.96 C-6.21 -29, -33.16 -141.04, -39.58 -169.03 M-0.76 1.15 C-7.08 -26.63, -31.03 -139.46, -37.31 -167.6" stroke="#e03131" stroke-width="4" fill="none"></path>
    </g>
    <g transform="translate(210.01040154182556 179.03410760647034) rotate(0 -19.36744410567826 -84.42319117727865)">
      <path d="M-23.97 -146.45 C-29.89 -154.88, -33.07 -159.36, -37.31 -167.6 M-23.97 -146.45 C-28.84 -152.24, -31.04 -157.91, -37.31 -167.6" stroke="#e03131" stroke-width="4" fill="none"></path>
    </g>
    <g transform="translate(210.01040154182556 179.03410760647034) rotate(0 -19.36744410567826 -84.42319117727865)">
      <path d="M-40.68 -142.82 C-40.99 -152.53, -38.57 -158.22, -37.31 -167.6 M-40.68 -142.82 C-40.69 -149.72, -38.01 -156.45, -37.31 -167.6" stroke="#e03131" stroke-width="4" fill="none"></path>
    </g>
  </g>
  <mask></mask>
  <g transform="translate(129.94336324279448 101.71546310201839) rotate(0 -13.109673459726764 34.34734446448516)" stroke="none">
    <path fill="#2f9e44" d="M 1.16,1.05 Q 1.16,1.05 -0.19,2.55 -1.56,4.05 -3.02,5.97 -4.48,7.89 -6.77,11.12 -9.07,14.35 -11.55,18.12 -14.03,21.89 -15.83,24.97 -17.63,28.06 -18.96,31.40 -20.30,34.75 -21.03,36.78 -21.76,38.82 -22.20,41.68 -22.63,44.55 -22.98,47.16 -23.33,49.77 -23.63,52.83 -23.93,55.88 -24.06,58.07 -24.18,60.25 -24.36,62.28 -24.54,64.31 -24.62,66.34 -24.70,68.37 -24.76,68.61 -24.81,68.84 -24.93,69.05 -25.06,69.26 -25.24,69.41 -25.43,69.57 -25.65,69.66 -25.88,69.74 -26.12,69.76 -26.36,69.77 -26.59,69.70 -26.82,69.64 -27.02,69.50 -27.22,69.37 -27.36,69.17 -27.51,68.98 -27.59,68.75 -27.66,68.52 -27.66,68.28 -27.66,68.04 -27.58,67.81 -27.50,67.59 -27.36,67.39 -27.21,67.20 -27.01,67.07 -26.81,66.93 -26.58,66.87 -26.35,66.81 -26.11,66.82 -25.87,66.83 -25.64,66.92 -25.42,67.01 -25.24,67.17 -25.05,67.33 -24.93,67.54 -24.81,67.74 -24.75,67.98 -24.70,68.21 -24.73,68.45 -24.76,68.69 -24.86,68.91 -24.96,69.13 -25.13,69.30 -25.29,69.48 -25.51,69.59 -25.72,69.70 -25.96,69.74 -26.20,69.78 -26.43,69.74 -26.67,69.70 -26.88,69.58 -27.10,69.47 -27.26,69.29 -27.43,69.12 -27.53,68.90 -27.63,68.68 -27.65,68.44 -27.68,68.20 -27.68,68.20 -27.68,68.20 -27.48,66.11 -27.28,64.03 -27.05,62.06 -26.82,60.10 -26.70,57.86 -26.57,55.62 -26.27,52.52 -25.97,49.43 -25.63,46.78 -25.28,44.14 -24.79,41.03 -24.30,37.92 -23.57,35.83 -22.83,33.74 -21.42,30.21 -20.02,26.68 -18.20,23.52 -16.38,20.36 -13.90,16.53 -11.42,12.70 -9.14,9.41 -6.86,6.12 -5.36,4.05 -3.86,1.97 -2.51,0.46 -1.16,-1.05 -1.02,-1.17 -0.88,-1.29 -0.71,-1.38 -0.54,-1.47 -0.36,-1.51 -0.17,-1.56 0.01,-1.55 0.20,-1.55 0.38,-1.51 0.56,-1.46 0.73,-1.37 0.90,-1.28 1.04,-1.15 1.18,-1.03 1.29,-0.87 1.39,-0.71 1.46,-0.54 1.52,-0.36 1.54,-0.17 1.57,0.01 1.54,0.20 1.52,0.38 1.45,0.56 1.38,0.74 1.27,0.89 1.16,1.05 1.16,1.05 L 1.16,1.05 Z"></path>
  </g>
  <g transform="translate(133.08968487312904 103.81301085557473) rotate(0 23.85960569670351 -18.877929782007115)" stroke="none">
    <path fill="#2f9e44" d="M -1.30,-1.07 Q -1.30,-1.07 0.08,-2.69 1.48,-4.32 3.76,-6.83 6.05,-9.35 8.38,-11.91 10.71,-14.46 12.47,-16.31 14.23,-18.16 16.23,-19.89 18.23,-21.62 19.29,-22.70 20.34,-23.79 22.47,-25.03 24.60,-26.28 26.34,-27.37 28.08,-28.45 29.71,-29.53 31.34,-30.61 33.31,-31.68 35.27,-32.74 36.61,-33.68 37.95,-34.62 39.47,-35.52 41.00,-36.42 42.02,-37.14 43.04,-37.86 45.06,-38.72 47.08,-39.58 47.39,-39.60 47.70,-39.62 48.00,-39.53 48.30,-39.45 48.56,-39.28 48.82,-39.10 49.01,-38.85 49.19,-38.60 49.29,-38.31 49.39,-38.01 49.39,-37.70 49.39,-37.39 49.29,-37.09 49.19,-36.80 49.01,-36.55 48.82,-36.30 48.56,-36.13 48.30,-35.95 48.00,-35.87 47.70,-35.79 47.39,-35.80 47.08,-35.82 46.79,-35.94 46.50,-36.05 46.26,-36.25 46.02,-36.46 45.86,-36.72 45.70,-36.99 45.64,-37.29 45.57,-37.60 45.60,-37.91 45.64,-38.22 45.77,-38.50 45.90,-38.78 46.11,-39.01 46.33,-39.24 46.60,-39.38 46.88,-39.53 47.19,-39.58 47.49,-39.63 47.80,-39.58 48.11,-39.53 48.38,-39.38 48.66,-39.24 48.87,-39.01 49.09,-38.78 49.22,-38.50 49.35,-38.22 49.38,-37.91 49.42,-37.60 49.35,-37.29 49.28,-36.99 49.12,-36.72 48.96,-36.45 48.72,-36.25 48.48,-36.05 48.20,-35.94 47.91,-35.82 47.91,-35.82 47.91,-35.82 46.44,-35.24 44.97,-34.65 43.80,-34.06 42.64,-33.46 41.15,-32.69 39.67,-31.92 38.18,-31.06 36.69,-30.19 34.84,-29.14 32.99,-28.08 31.33,-27.01 29.67,-25.94 27.91,-24.82 26.15,-23.69 24.31,-22.56 22.46,-21.43 21.26,-20.48 20.06,-19.52 18.18,-17.87 16.29,-16.22 14.59,-14.37 12.88,-12.52 10.59,-9.93 8.31,-7.33 6.12,-4.82 3.94,-2.31 2.62,-0.61 1.30,1.07 1.16,1.21 1.01,1.35 0.83,1.45 0.66,1.55 0.46,1.61 0.26,1.66 0.06,1.67 -0.13,1.68 -0.33,1.64 -0.53,1.60 -0.72,1.51 -0.90,1.42 -1.06,1.29 -1.22,1.17 -1.34,1.00 -1.46,0.84 -1.54,0.65 -1.62,0.46 -1.65,0.26 -1.68,0.06 -1.67,-0.13 -1.65,-0.34 -1.59,-0.53 -1.52,-0.72 -1.41,-0.89 -1.30,-1.07 -1.30,-1.07 L -1.30,-1.07 Z"></path>
  </g>
  <g transform="translate(130.46775018118387 50.32554313988791) rotate(0 9.783333778381348 17.5)">
    <text x="0" y="24.528" font-family="Virgil, Segoe UI Emoji" font-size="28px" fill="#2f9e44" text-anchor="start" style="white-space: pre;" direction="ltr" dominant-baseline="alphabetic">α</text>
  </g>
  <g transform="translate(83.79731266455565 100.66668922524022) rotate(0 9.783333778381348 17.5)">
    <text x="0" y="24.528" font-family="Virgil, Segoe UI Emoji" font-size="28px" fill="#2f9e44" text-anchor="start" style="white-space: pre;" direction="ltr" dominant-baseline="alphabetic">α</text>
  </g>
  <g stroke-linecap="round">
    <g transform="translate(355.2693674592856 318.7885704417173) rotate(0 40.00332599087005 -24.744325355177295)">
      <path d="M-0.84 0.32 C12.83 -8.08, 67.52 -42.03, 81.17 -50.19" stroke="#f08c00" stroke-width="2.5" fill="none" stroke-dasharray="8 10"></path>
    </g>
  </g>
  <mask></mask>
  <g stroke-linecap="round">
    <g transform="translate(355.5211089016275 323.1016342326952) rotate(0 107.22540987243474 -2.4744325355177352)">
      <path d="M0.41 0.9 C35.93 0.06, 177.87 -4.86, 213.64 -5.82" stroke="#f08c00" stroke-width="2.5" fill="none" stroke-dasharray="8 10"></path>
    </g>
  </g>
  <mask></mask>
  <g transform="translate(393.7903702660233 259.92683794642943) rotate(0 4.300000190734863 12.5)">
    <text x="0" y="17.52" font-family="Virgil, Segoe UI Emoji" font-size="20px" fill="#f08c00" text-anchor="start" style="white-space: pre;" direction="ltr" dominant-baseline="alphabetic">r</text>
  </g>
  <g transform="translate(489.7056911906475 291.4922572261233) rotate(0 11.416666984558105 12.5)">
    <text x="0" y="17.52" font-family="Virgil, Segoe UI Emoji" font-size="20px" fill="#f08c00" text-anchor="start" style="white-space: pre;" direction="ltr" dominant-baseline="alphabetic">2r</text>
  </g>
</svg>