<svg version="1.1" xmlns="http://www.w3.org/2000/svg" viewBox="0 0 619.1262791757022 672.710089841604" width="1238.2525583514043" height="1345.420179683208">
  <!-- svg-source:excalidraw -->
  <g stroke-linecap="round" transform="translate(20.651133852013118 118.03424309693287) rotate(0 286.914918138586 29.956313958785074)">
    <path d="M269.77 0.58 C293.92 -0.14, 322.61 -0.12, 347.59 0.24 C372.57 0.59, 396.75 1.36, 419.64 2.72 C442.52 4.07, 466.05 6.26, 484.9 8.37 C503.75 10.47, 519.51 13.04, 532.74 15.36 C545.96 17.68, 557.29 19.9, 564.24 22.29 C571.2 24.68, 574.58 26.96, 574.45 29.69 C574.32 32.41, 570.79 35.86, 563.47 38.63 C556.15 41.4, 544.29 43.98, 530.53 46.3 C516.76 48.62, 499.7 50.69, 480.88 52.57 C462.05 54.45, 440.36 56.29, 417.58 57.56 C394.8 58.84, 369.72 59.84, 344.19 60.23 C318.66 60.62, 290.34 60.13, 264.41 59.9 C238.48 59.67, 212.78 59.86, 188.61 58.83 C164.44 57.81, 140.47 55.49, 119.39 53.74 C98.31 51.99, 78.27 50.49, 62.14 48.33 C46 46.17, 32.69 43.12, 22.59 40.78 C12.48 38.44, 4.87 36.66, 1.5 34.28 C-1.86 31.9, -1.41 29.2, 2.41 26.5 C6.24 23.8, 13.8 20.81, 24.47 18.08 C35.14 15.36, 49.89 12.36, 66.43 10.13 C82.97 7.9, 102.68 6.01, 123.71 4.69 C144.75 3.38, 164.14 3.01, 192.63 2.26 C221.13 1.52, 273.58 0.48, 294.67 0.22 C315.77 -0.03, 319.5 0.15, 319.19 0.72 M421.93 4.83 C445.83 5.75, 466.37 6.35, 484.8 8.15 C503.24 9.95, 519.36 13.28, 532.53 15.64 C545.71 18.01, 556.8 19.89, 563.85 22.36 C570.9 24.82, 575.25 27.73, 574.85 30.43 C574.44 33.14, 568.53 36.15, 561.41 38.6 C554.28 41.05, 545.6 42.84, 532.1 45.16 C518.59 47.48, 499.35 50.35, 480.36 52.5 C461.38 54.65, 441.23 57, 418.18 58.07 C395.13 59.14, 367.35 58.48, 342.07 58.89 C316.8 59.3, 291.89 60.75, 266.54 60.52 C241.19 60.29, 214.56 58.54, 189.97 57.52 C165.38 56.5, 139.92 55.81, 118.99 54.41 C98.05 53.02, 80.29 51.21, 64.34 49.13 C48.4 47.05, 33.6 44.49, 23.33 41.95 C13.07 39.4, 6.4 36.43, 2.77 33.88 C-0.85 31.34, -2.12 29.29, 1.58 26.65 C5.27 24.02, 14.02 20.68, 24.95 18.05 C35.88 15.41, 50.83 12.98, 67.18 10.85 C83.53 8.71, 102.27 6.76, 123.05 5.24 C143.83 3.72, 167.7 2.68, 191.88 1.74 C216.05 0.8, 242 -0.08, 268.11 -0.42 C294.22 -0.76, 323.22 -0.89, 348.52 -0.3 C373.81 0.29, 408.29 2.45, 419.9 3.12 C431.51 3.8, 420.46 3.36, 418.16 3.74" stroke="#e03131" stroke-width="4" fill="none"></path>
  </g>
  <g stroke-linecap="round" transform="translate(19.98543798626224 559.3906020896998) rotate(0 286.914918138586 29.956313958785074)">
    <path d="M195.19 1.4 C216.9 0.09, 245.41 -0.31, 271.04 -0.42 C296.67 -0.53, 323.6 -0.01, 348.97 0.72 C374.34 1.45, 400.32 2.69, 423.26 3.94 C446.21 5.2, 468.15 6.32, 486.62 8.23 C505.09 10.15, 521.2 13.1, 534.09 15.43 C546.99 17.76, 557.39 19.6, 563.97 22.22 C570.56 24.85, 573.92 28.42, 573.59 31.16 C573.26 33.9, 569.33 36.19, 561.99 38.67 C554.65 41.14, 543.47 43.9, 529.54 46.02 C515.6 48.14, 497.34 49.59, 478.38 51.41 C459.42 53.22, 438.77 55.73, 415.78 56.92 C392.78 58.1, 365.78 58.16, 340.39 58.53 C315.01 58.9, 289.04 59.15, 263.45 59.15 C237.86 59.14, 211.04 59.33, 186.85 58.53 C162.65 57.72, 139.2 56.07, 118.28 54.29 C97.36 52.52, 77.28 50.01, 61.34 47.88 C45.41 45.74, 32.53 43.8, 22.68 41.48 C12.82 39.17, 5.58 36.58, 2.2 33.99 C-1.17 31.39, -1.35 28.69, 2.43 25.91 C6.21 23.13, 14.01 19.84, 24.87 17.32 C35.73 14.79, 50.76 12.78, 67.6 10.76 C84.44 8.73, 101.14 6.93, 125.88 5.17 C150.62 3.41, 197.58 1.02, 216.05 0.21 C234.52 -0.59, 235.71 -0.21, 236.7 0.33 M277.44 -0.28 C301.52 -0.65, 328.46 0.74, 353.14 1.38 C377.82 2.03, 402.57 2.54, 425.51 3.59 C448.44 4.63, 472.4 5.55, 490.76 7.65 C509.11 9.75, 523.3 13.55, 535.64 16.17 C547.97 18.79, 558.65 20.91, 564.76 23.35 C570.87 25.8, 573.07 28.39, 572.29 30.85 C571.51 33.3, 567.6 35.54, 560.07 38.08 C552.54 40.63, 541.21 43.46, 527.12 46.1 C513.02 48.74, 494.75 52.21, 475.49 53.92 C456.24 55.62, 434.71 55.61, 411.6 56.34 C388.48 57.07, 362.47 57.58, 336.81 58.3 C311.15 59.03, 283.39 60.97, 257.61 60.71 C231.83 60.44, 205.86 57.9, 182.11 56.7 C158.35 55.5, 135.84 55, 115.06 53.49 C94.28 51.99, 73.37 49.76, 57.43 47.66 C41.5 45.56, 28.65 43.28, 19.45 40.88 C10.25 38.47, 4.64 36.04, 2.26 33.21 C-0.13 30.38, 0.79 26.68, 5.15 23.89 C9.52 21.11, 17.82 18.7, 28.46 16.53 C39.09 14.36, 52.2 12.79, 68.96 10.89 C85.72 8.99, 107.14 6.52, 129.02 5.14 C150.89 3.77, 175.77 3.63, 200.22 2.63 C224.66 1.62, 262.83 -0.68, 275.68 -0.9 C288.54 -1.11, 277.21 0.75, 277.37 1.34" stroke="#e03131" stroke-width="4" fill="none"></path>
  </g>
  <g stroke-linecap="round">
    <g transform="translate(594.4809701291852 147.32486118996718) rotate(0 -283.5864388098321 220.34533156350804)">
      <path d="M-0.81 0.13 C-95.38 73.36, -472.2 367.09, -566.53 440.49 M0.96 -0.85 C-93.78 73.08, -472.42 368.15, -567.15 441.92" stroke="#f08c00" stroke-width="4" fill="none"></path>
    </g>
  </g>
  <mask></mask>
  <g stroke-linecap="round" transform="translate(571.8473106936585 132.67955214345) rotate(0 18.63948424102182 18.63948424102182)">
    <path d="M18.29 -0.26 C22.05 -0.61, 27.01 1.71, 30.18 4.24 C33.36 6.78, 36.52 11.08, 37.35 14.96 C38.18 18.85, 37.22 23.97, 35.16 27.56 C33.1 31.14, 28.72 34.98, 24.98 36.46 C21.25 37.93, 16.53 37.72, 12.76 36.4 C8.99 35.08, 4.53 31.89, 2.37 28.52 C0.22 25.16, -0.88 20.2, -0.18 16.21 C0.52 12.22, 3.38 7.19, 6.58 4.57 C9.78 1.95, 16.77 1.13, 19.03 0.5 C21.28 -0.13, 19.99 0.51, 20.09 0.79 M13.61 -0.2 C17.2 -1.32, 22.62 -0.17, 26.23 1.81 C29.85 3.78, 33.6 8.02, 35.32 11.66 C37.04 15.29, 37.66 19.94, 36.55 23.61 C35.44 27.29, 31.92 31.56, 28.65 33.71 C25.38 35.86, 20.82 36.95, 16.92 36.51 C13.03 36.08, 8.12 33.82, 5.3 31.11 C2.48 28.4, 0.26 24.05, -0.02 20.25 C-0.3 16.46, 1.19 11.65, 3.62 8.33 C6.05 5.01, 12.72 1.66, 14.56 0.33 C16.41 -1, 14.79 0.1, 14.7 0.34" stroke="none" stroke-width="0" fill="#b2f2bb"></path>
    <path d="M14.73 -0.07 C18.38 -1.02, 24.07 0.35, 27.68 2.36 C31.3 4.37, 35.02 8.23, 36.43 12 C37.85 15.76, 37.52 21.11, 36.18 24.96 C34.83 28.8, 31.78 33, 28.38 35.07 C24.98 37.14, 19.83 38.12, 15.78 37.38 C11.74 36.64, 6.69 33.77, 4.11 30.62 C1.54 27.48, 0.23 22.51, 0.33 18.49 C0.42 14.47, 2.05 9.59, 4.68 6.52 C7.31 3.45, 13.92 1.16, 16.11 0.06 C18.31 -1.03, 17.81 -0.31, 17.85 -0.04 M20.15 -0.03 C24.13 -0.08, 29.58 2.47, 32.32 5.33 C35.07 8.19, 36.4 13.07, 36.6 17.12 C36.8 21.18, 35.74 26.45, 33.53 29.69 C31.32 32.92, 26.99 35.47, 23.35 36.53 C19.71 37.59, 15.17 37.74, 11.68 36.03 C8.2 34.32, 4.41 29.98, 2.45 26.28 C0.49 22.58, -0.98 17.63, -0.05 13.83 C0.87 10.04, 4.72 5.8, 8.01 3.51 C11.29 1.22, 17.62 0.61, 19.64 0.07 C21.65 -0.48, 19.97 0, 20.1 0.25" stroke="#2f9e44" stroke-width="4" fill="none"></path>
  </g>
  <g stroke-linecap="round" transform="translate(10 564.0504731499552) rotate(0 18.63948424102182 18.639484241021847)">
    <path d="M16.01 0.43 C19.8 -0.43, 25.1 0.26, 28.44 2.27 C31.78 4.29, 34.84 8.75, 36.07 12.54 C37.3 16.33, 37.32 21.33, 35.82 25.01 C34.32 28.68, 30.66 32.65, 27.09 34.6 C23.52 36.55, 18.28 37.44, 14.43 36.71 C10.58 35.97, 6.3 33.25, 3.97 30.19 C1.64 27.12, 0.26 22.3, 0.43 18.33 C0.61 14.36, 2.23 9.39, 5 6.35 C7.78 3.32, 14.99 1.06, 17.07 0.12 C19.16 -0.81, 17.55 0.5, 17.49 0.76 M16.2 -0.12 C20.03 -0.77, 25.85 0.94, 29.2 3.14 C32.55 5.33, 35.24 9.23, 36.29 13.02 C37.35 16.81, 37.08 22.21, 35.52 25.89 C33.96 29.56, 30.53 33.33, 26.94 35.08 C23.35 36.83, 17.83 37.16, 13.97 36.39 C10.1 35.62, 6.11 33.46, 3.76 30.47 C1.42 27.47, -0.34 22.38, -0.09 18.4 C0.17 14.42, 2.5 9.53, 5.3 6.58 C8.11 3.64, 14.99 1.6, 16.76 0.72 C18.52 -0.16, 15.92 0.96, 15.9 1.28" stroke="none" stroke-width="0" fill="#b2f2bb"></path>
    <path d="M14.54 0.36 C18.29 -0.69, 24.07 0.17, 27.59 2.17 C31.1 4.16, 34.16 8.55, 35.62 12.31 C37.08 16.07, 37.54 20.98, 36.33 24.71 C35.12 28.44, 31.73 32.61, 28.38 34.7 C25.02 36.79, 20.17 37.85, 16.21 37.28 C12.25 36.7, 7.37 34.25, 4.62 31.27 C1.87 28.3, -0.14 23.47, -0.27 19.41 C-0.39 15.36, 1.06 10.13, 3.86 6.94 C6.66 3.76, 14.32 1.35, 16.53 0.31 C18.74 -0.72, 17.15 0.54, 17.13 0.75 M20.29 -0.55 C24.21 -0.43, 29.52 2.42, 32.34 5.5 C35.15 8.59, 36.97 14.01, 37.16 17.98 C37.36 21.95, 35.88 26.2, 33.52 29.33 C31.16 32.47, 26.8 35.74, 23.02 36.82 C19.23 37.9, 14.48 37.58, 10.81 35.84 C7.13 34.1, 2.57 30.04, 0.99 26.38 C-0.59 22.72, 0.07 17.76, 1.32 13.86 C2.57 9.96, 5.39 5.18, 8.5 2.98 C11.61 0.78, 18.01 1.19, 19.99 0.65 C21.97 0.11, 20.34 -0.33, 20.39 -0.23" stroke="#2f9e44" stroke-width="4" fill="none"></path>
  </g>
  <g stroke-linecap="round">
    <g transform="translate(305.5689643933465 590.6783077799864) rotate(0 -1.3313917315012986 -289.5777016015891)">
      <path d="M0.08 -0.46 C-0.21 -96.84, -1.23 -482.32, -1.72 -578.76 M-1.34 -1.75 C-1.7 -98.46, -1.78 -484.68, -2.17 -580.68" stroke="#1e1e1e" stroke-width="4" fill="none"></path>
    </g>
    <g transform="translate(305.5689643933465 590.6783077799864) rotate(0 -1.3313917315012986 -289.5777016015891)">
      <path d="M6.42 -557.2 C3.19 -562.61, 2.06 -571.46, -2.17 -580.68 M6.42 -557.2 C3.44 -564.43, 0.37 -572.12, -2.17 -580.68" stroke="#1e1e1e" stroke-width="4" fill="none"></path>
    </g>
    <g transform="translate(305.5689643933465 590.6783077799864) rotate(0 -1.3313917315012986 -289.5777016015891)">
      <path d="M-10.68 -557.17 C-8.82 -562.6, -4.86 -571.46, -2.17 -580.68 M-10.68 -557.17 C-8.45 -564.44, -6.3 -572.14, -2.17 -580.68" stroke="#1e1e1e" stroke-width="4" fill="none"></path>
    </g>
  </g>
  <mask></mask>
  <g stroke-linecap="round">
    <g transform="translate(302.9061809303439 149.9876446529703) rotate(0 139.13043594191276 -0.665695865750763)">
      <path d="M0.56 -0.84 C46.76 -1.11, 231.66 -2.37, 277.99 -2.35 M-0.61 1.33 C45.34 1.24, 230.47 -0.66, 276.9 -1.35" stroke="#1e1e1e" stroke-width="4" fill="none"></path>
    </g>
  </g>
  <mask></mask>
  <g stroke-linecap="round">
    <g transform="translate(301.57478919884215 373.66145554523223) rotate(0 -85.87476668185082 -109.83981784887862)">
      <path d="M0.12 0.12 C-28.26 -36.29, -142.4 -182.22, -171.14 -218.76 M-1.27 -0.86 C-29.69 -37.58, -143.08 -183.69, -171.78 -220.4" stroke="#1971c2" stroke-width="4" fill="none"></path>
    </g>
    <g transform="translate(301.57478919884215 373.66145554523223) rotate(0 -85.87476668185082 -109.83981784887862)">
      <path d="M-150.6 -207.11 C-155.24 -209.14, -158.79 -214.22, -171.78 -220.4 M-150.6 -207.11 C-157.22 -212.45, -164.9 -217.05, -171.78 -220.4" stroke="#1971c2" stroke-width="4" fill="none"></path>
    </g>
    <g transform="translate(301.57478919884215 373.66145554523223) rotate(0 -85.87476668185082 -109.83981784887862)">
      <path d="M-164.09 -196.61 C-165.61 -201.07, -166.04 -208.57, -171.78 -220.4 M-164.09 -196.61 C-165.97 -205.74, -168.94 -214.01, -171.78 -220.4" stroke="#1971c2" stroke-width="4" fill="none"></path>
    </g>
  </g>
  <mask></mask>
  <g transform="translate(337.3948695467043 260.7548555026241) rotate(0 7.849999904632568 17.5)">
    <text x="0" y="24.528" font-family="'Virgil 3 YOFF'" font-size="28px" fill="#1e1e1e" text-anchor="start" style="white-space: pre;" direction="ltr" dominant-baseline="alphabetic">θ</text>
  </g>
  <g transform="translate(159.1439460405718 232.95306814555883) rotate(0 10.783333778381348 22.5)">
    <text x="0" y="31.536" font-family="'Virgil 3 YOFF'" font-size="36px" fill="#1971c2" text-anchor="start" style="white-space: pre;" direction="ltr" dominant-baseline="alphabetic">L</text>
  </g>
  <g transform="translate(347.496800894482 104.8451857412939) rotate(0 12.199999809265137 22.5)">
    <text x="0" y="31.536" font-family="'Virgil 3 YOFF'" font-size="36px" fill="#1e1e1e" text-anchor="start" style="white-space: pre;" direction="ltr" dominant-baseline="alphabetic">R</text>
  </g>
  <g transform="translate(330.7032915719142 33.99756828671019) rotate(0 11.558333396911621 22.5)">
    <text x="0" y="31.536" font-family="'Virgil 3 YOFF'" font-size="36px" fill="#f08c00" text-anchor="start" style="white-space: pre;" direction="ltr" dominant-baseline="alphabetic">ω</text>
  </g>
  <g stroke-linecap="round">
    <g transform="translate(307.0874190870527 147.87855338037446) rotate(0 0.7871957494953676 -66.12444295761154)">
      <path d="M-0.68 -1.07 C-0.3 -22.97, 1.02 -109.84, 1.5 -131.74 M1.17 0.98 C1.45 -21.25, 0.41 -111.55, 0.51 -133.59" stroke="#f08c00" stroke-width="2" fill="none"></path>
    </g>
    <g transform="translate(307.0874190870527 147.87855338037446) rotate(0 0.7871957494953676 -66.12444295761154)">
      <path d="M9.16 -110.14 C5.42 -115.79, 6.04 -120.09, 0.51 -133.59 M9.16 -110.14 C5.69 -116.99, 4.77 -123.81, 0.51 -133.59" stroke="#f08c00" stroke-width="2" fill="none"></path>
    </g>
    <g transform="translate(307.0874190870527 147.87855338037446) rotate(0 0.7871957494953676 -66.12444295761154)">
      <path d="M-7.94 -110.06 C-7.68 -115.64, -3.07 -119.95, 0.51 -133.59 M-7.94 -110.06 C-6.62 -117.03, -2.76 -123.87, 0.51 -133.59" stroke="#f08c00" stroke-width="2" fill="none"></path>
    </g>
  </g>
  <mask></mask>
  <g stroke-linecap="round">
    <g transform="translate(22.644151828351823 613.6788320174055) rotate(0 109.94500634618748 24.403068234356738)">
      <path d="M0.56 -0.43 C15.42 5.12, 53.18 26.1, 89.93 34.19 C126.68 42.27, 199.41 45.51, 221.07 48.09 M-0.6 -1.69 C14.04 3.42, 52.16 23.93, 89.08 32.38 C126 40.83, 199.08 46.5, 220.93 49.03" stroke="#1e1e1e" stroke-width="2" fill="none"></path>
    </g>
    <g transform="translate(22.644151828351823 613.6788320174055) rotate(0 109.94500634618748 24.403068234356738)">
      <path d="M196.7 55.2 C204.85 53.14, 215.46 52.52, 220.93 49.03 M196.7 55.2 C202.23 53.65, 208.7 52.45, 220.93 49.03" stroke="#1e1e1e" stroke-width="2" fill="none"></path>
    </g>
    <g transform="translate(22.644151828351823 613.6788320174055) rotate(0 109.94500634618748 24.403068234356738)">
      <path d="M198.41 38.18 C206.05 42.38, 216.04 48.02, 220.93 49.03 M198.41 38.18 C203.53 40.74, 209.58 43.62, 220.93 49.03" stroke="#1e1e1e" stroke-width="2" fill="none"></path>
    </g>
  </g>
  <mask></mask>
  <g stroke-linecap="round">
    <g transform="translate(304.46023014769617 292.15446810502635) rotate(0 28.076648398668567 16.793509322568013)">
      <path d="M-0.1 0.83 C5.69 2.82, 25.02 5.86, 34.2 11.16 C43.38 16.47, 51.32 28.95, 55 32.66 M-1.61 0.22 C4.08 1.93, 23.48 3.85, 33.3 9.39 C43.11 14.94, 53.4 29.31, 57.28 33.48" stroke="#1e1e1e" stroke-width="2" fill="none"></path>
    </g>
  </g>
  <mask></mask>
  <g stroke-linecap="round">
    <g transform="translate(577.346556683703 129.36433459886712) rotate(0 -50.90532513403423 -12.85753057509114)">
      <path d="M-1.03 1.02 C-7.83 -1.94, -23.64 -12.36, -40.5 -16.75 C-57.37 -21.13, -91.97 -23.83, -102.2 -25.29 M0.63 0.52 C-6.36 -1.81, -24.2 -11.08, -41.5 -15.73 C-58.8 -20.39, -93.14 -25.98, -103.18 -27.41" stroke="#1e1e1e" stroke-width="2" fill="none"></path>
    </g>
    <g transform="translate(577.346556683703 129.36433459886712) rotate(0 -50.90532513403423 -12.85753057509114)">
      <path d="M-78.64 -32.22 C-84.81 -31.03, -96.11 -29.98, -103.18 -27.41 M-78.64 -32.22 C-87.75 -31.02, -94.83 -29.46, -103.18 -27.41" stroke="#1e1e1e" stroke-width="2" fill="none"></path>
    </g>
    <g transform="translate(577.346556683703 129.36433459886712) rotate(0 -50.90532513403423 -12.85753057509114)">
      <path d="M-81.29 -15.32 C-86.75 -19.57, -97.19 -23.97, -103.18 -27.41 M-81.29 -15.32 C-89.49 -19.8, -95.69 -23.9, -103.18 -27.41" stroke="#1e1e1e" stroke-width="2" fill="none"></path>
    </g>
  </g>
  <mask></mask>
  <g transform="translate(533.2635947119625 81.6077924628143) rotate(0 7.324999809265137 17.5)">
    <text x="0" y="24.528" font-family="'Virgil 3 YOFF'" font-size="28px" fill="#1e1e1e" text-anchor="start" style="white-space: pre;" direction="ltr" dominant-baseline="alphabetic">v</text>
  </g>
</svg>