<svg version="1.1" xmlns="http://www.w3.org/2000/svg" viewBox="0 0 671.4930022556373 477.32826280982744" width="1342.9860045112746" height="954.6565256196549">
  <!-- svg-source:excalidraw -->
  <g stroke-linecap="round">
    <g transform="translate(118.93106081008773 465.8476219357229) rotate(0 0 -227.13585044742354)">
      <path d="M0.28 -0.74 C0.43 -76.26, 0.48 -378.35, 0.32 -453.91 M-1.03 1.48 C-0.96 -74.33, -0.94 -380.14, -0.46 -455.85" stroke="#1e1e1e" stroke-width="2" fill="none"></path>
    </g>
    <g transform="translate(118.93106081008773 465.8476219357229) rotate(0 0 -227.13585044742354)">
      <path d="M8.02 -432.33 C4.8 -437.74, 4.48 -445.41, -0.46 -455.85 M8.02 -432.33 C5.84 -439.42, 1.79 -446.57, -0.46 -455.85" stroke="#1e1e1e" stroke-width="2" fill="none"></path>
    </g>
    <g transform="translate(118.93106081008773 465.8476219357229) rotate(0 0 -227.13585044742354)">
      <path d="M-9.08 -432.38 C-7.97 -437.82, -3.95 -445.47, -0.46 -455.85 M-9.08 -432.38 C-5.94 -439.6, -4.66 -446.74, -0.46 -455.85" stroke="#1e1e1e" stroke-width="2" fill="none"></path>
    </g>
  </g>
  <mask></mask>
  <g stroke-linecap="round">
    <g transform="translate(11.16926673278249 395.2450671954195) rotate(0 317.71149633136565 0)">
      <path d="M-1.17 -0.87 C104.74 -0.9, 529.45 0.46, 635.65 0.46 M0.42 1.28 C106.17 0.84, 528.96 -1.2, 634.83 -1.42" stroke="#1e1e1e" stroke-width="2" fill="none"></path>
    </g>
    <g transform="translate(11.16926673278249 395.2450671954195) rotate(0 317.71149633136565 0)">
      <path d="M611.37 7.22 C617.31 5.09, 626.98 3.02, 634.83 -1.42 M611.37 7.22 C615.75 6.4, 622.6 3.33, 634.83 -1.42" stroke="#1e1e1e" stroke-width="2" fill="none"></path>
    </g>
    <g transform="translate(11.16926673278249 395.2450671954195) rotate(0 317.71149633136565 0)">
      <path d="M611.31 -9.89 C617.35 -6.58, 627.04 -3.23, 634.83 -1.42 M611.31 -9.89 C615.69 -6.82, 622.56 -6.02, 634.83 -1.42" stroke="#1e1e1e" stroke-width="2" fill="none"></path>
    </g>
  </g>
  <mask></mask>
  <g transform="translate(65.05016377143511 26.65840759335211) rotate(0 8.875 22.5)">
    <text x="0" y="31.536" font-family="'Virgil 3 YOFF'" font-size="36px" fill="#1e1e1e" text-anchor="start" style="white-space: pre;" direction="ltr" dominant-baseline="alphabetic">p</text>
  </g>
  <g transform="translate(642.876335461814 418.68838259872103) rotate(0 9.308333396911621 22.5)">
    <text x="0" y="31.536" font-family="'Virgil 3 YOFF'" font-size="36px" fill="#1e1e1e" text-anchor="start" style="white-space: pre;" direction="ltr" dominant-baseline="alphabetic">V</text>
  </g>
  <g stroke-linecap="round">
    <g transform="translate(292.90672931860354 60.17738941106603) rotate(0 133.4383143358964 95.79600514132672)">
      <path d="M-0.16 0.51 C28.45 8.78, 126.51 16.98, 171.21 48.83 C215.91 80.67, 252.09 167.65, 268.02 191.59 M-1.7 -0.27 C26.86 8.27, 125.76 18.1, 170.68 50.29 C215.61 82.49, 251.8 169.55, 267.86 192.91" stroke="#1971c2" stroke-width="2" fill="none"></path>
    </g>
  </g>
  <mask></mask>
  <g stroke-linecap="round">
    <g transform="translate(283.448210212111 63.159995618975955) rotate(0 133.4383143358964 95.79600514132672)">
      <path d="M-0.77 0.09 C14.94 21.08, 50.35 93.72, 95.07 125.72 C139.79 157.71, 239.12 180.93, 267.56 192.08 M1.02 -0.91 C17.05 19.72, 52.96 91.97, 97.31 123.79 C141.67 155.6, 239.14 178.86, 267.15 189.99" stroke="#1971c2" stroke-width="2" fill="none"></path>
    </g>
  </g>
  <mask></mask>
  <g stroke-linecap="round">
    <g transform="translate(118.93106081008773 59.88293217897822) rotate(0 84.53726949167913 0)">
      <path d="M-0.69 -0.43 C27.52 -0.67, 140.79 -0.85, 169.23 -0.59" stroke="#1e1e1e" stroke-width="1.5" fill="none" stroke-dasharray="8 9"></path>
    </g>
  </g>
  <mask></mask>
  <g stroke-linecap="round">
    <g transform="translate(115.21513687638799 252.18199574796256) rotate(0 218.31053110488529 0)">
      <path d="M-0.52 1.09 C72.23 1.17, 364.4 0.47, 437.22 0.14" stroke="#1e1e1e" stroke-width="1.5" fill="none" stroke-dasharray="8 9"></path>
    </g>
  </g>
  <mask></mask>
  <g stroke-linecap="round">
    <g transform="translate(281.502732909471 58.953951195553174) rotate(0 0 166.28759603308305)">
      <path d="M0.85 -0.47 C1.05 55.11, 0.88 277.88, 0.89 333.2" stroke="#1e1e1e" stroke-width="1.5" fill="none" stroke-dasharray="8 9"></path>
    </g>
  </g>
  <mask></mask>
  <g stroke-linecap="round">
    <g transform="translate(553.6941610530093 252.18199574796256) rotate(0 0 71.06704523201594)">
      <path d="M-0.55 -0.31 C-0.6 23.22, -0.15 117.34, 0.13 141.21" stroke="#1e1e1e" stroke-width="1.5" fill="none" stroke-dasharray="8 9"></path>
    </g>
  </g>
  <mask></mask>
  <g transform="translate(461.72504369392936 65.45681807952849) rotate(0 13.083333015441895 22.5)">
    <text x="0" y="31.536" font-family="'Virgil 3 YOFF'" font-size="36px" fill="#1971c2" text-anchor="start" style="white-space: pre;" direction="ltr" dominant-baseline="alphabetic">B</text>
  </g>
  <g transform="translate(343.7444587989494 198.30109870930994) rotate(0 11.808333396911621 22.5)">
    <text x="0" y="31.536" font-family="'Virgil 3 YOFF'" font-size="36px" fill="#1971c2" text-anchor="start" style="white-space: pre;" direction="ltr" dominant-baseline="alphabetic">A</text>
  </g>
</svg>